<svg width="32" height="32" viewBox="0 0 32 32" fill="none" xmlns="http://www.w3.org/2000/svg">
<rect width="32" height="32" rx="16" fill="#EB270B" fill-opacity="0.6"/>
<path d="M23.281 22.2194C23.3507 22.2891 23.406 22.3718 23.4437 22.4629C23.4814 22.5539 23.5008 22.6515 23.5008 22.7501C23.5008 22.8486 23.4814 22.9462 23.4437 23.0372C23.406 23.1283 23.3507 23.211 23.281 23.2807C23.2114 23.3504 23.1286 23.4056 23.0376 23.4433C22.9465 23.4811 22.849 23.5005 22.7504 23.5005C22.6519 23.5005 22.5543 23.4811 22.4632 23.4433C22.3722 23.4056 22.2895 23.3504 22.2198 23.2807L16.0004 17.0604L9.78104 23.2807C9.64031 23.4214 9.44944 23.5005 9.25042 23.5005C9.05139 23.5005 8.86052 23.4214 8.71979 23.2807C8.57906 23.1399 8.5 22.9491 8.5 22.7501C8.5 22.551 8.57906 22.3602 8.71979 22.2194L14.9401 16.0001L8.71979 9.78068C8.57906 9.63995 8.5 9.44907 8.5 9.25005C8.5 9.05103 8.57906 8.86016 8.71979 8.71943C8.86052 8.5787 9.05139 8.49963 9.25042 8.49963C9.44944 8.49963 9.64031 8.5787 9.78104 8.71943L16.0004 14.9397L22.2198 8.71943C22.3605 8.5787 22.5514 8.49963 22.7504 8.49963C22.9494 8.49963 23.1403 8.5787 23.281 8.71943C23.4218 8.86016 23.5008 9.05103 23.5008 9.25005C23.5008 9.44907 23.4218 9.63995 23.281 9.78068L17.0607 16.0001L23.281 22.2194Z" fill="black"/>
</svg>
