<svg width="51" height="50" viewBox="0 0 51 50" fill="none" xmlns="http://www.w3.org/2000/svg">
<rect x="0.5" width="50" height="50" rx="25" fill="#FDE5CC"/>
<g clip-path="url(#clip0_947_9293)">
<path d="M34.4062 31.416C35.0508 31.7383 35.6318 32.1338 36.1494 32.6025C36.667 33.0713 37.1064 33.5937 37.4678 34.1699C37.8291 34.7461 38.1123 35.3711 38.3174 36.0449C38.5225 36.7187 38.625 37.4121 38.625 38.125H36.75C36.75 37.3535 36.6035 36.6259 36.3105 35.9424C36.0176 35.2588 35.6172 34.6631 35.1094 34.1552C34.6016 33.6474 34.001 33.2422 33.3076 32.9394C32.6143 32.6367 31.8867 32.4902 31.125 32.5C30.3438 32.5 29.6162 32.6465 28.9424 32.9394C28.2686 33.2324 27.6729 33.6328 27.1553 34.1406C26.6377 34.6484 26.2324 35.249 25.9395 35.9424C25.6465 36.6357 25.5 37.3633 25.5 38.125H23.625C23.625 37.4121 23.7227 36.7187 23.918 36.0449C24.1133 35.3711 24.3965 34.7461 24.7676 34.1699C25.1387 33.5937 25.583 33.0713 26.1006 32.6025C26.6182 32.1338 27.1992 31.7383 27.8438 31.416C27.1113 30.8886 26.54 30.2295 26.1299 29.4384C25.7197 28.6474 25.5098 27.7929 25.5 26.875C25.5 26.1035 25.3535 25.3759 25.0605 24.6924C24.7676 24.0088 24.3672 23.4131 23.8594 22.9052C23.3516 22.3974 22.751 21.9922 22.0576 21.6894C21.3643 21.3867 20.6367 21.2402 19.875 21.25C19.0938 21.25 18.3662 21.3965 17.6924 21.6894C17.0186 21.9824 16.4229 22.3828 15.9053 22.8906C15.3877 23.3984 14.9824 23.999 14.6895 24.6924C14.3965 25.3857 14.25 26.1133 14.25 26.875H12.375C12.375 26.1621 12.4727 25.4687 12.668 24.7949C12.8633 24.1211 13.1465 23.4961 13.5176 22.9199C13.8887 22.3437 14.333 21.8213 14.8506 21.3525C15.3682 20.8838 15.9492 20.4883 16.5938 20.166C15.8613 19.6386 15.29 18.9795 14.8799 18.1884C14.4697 17.3974 14.2598 16.5429 14.25 15.625C14.25 14.8535 14.3965 14.1259 14.6895 13.4424C14.9824 12.7588 15.3828 12.1631 15.8906 11.6552C16.3984 11.1474 16.9941 10.7422 17.6777 10.4394C18.3613 10.1367 19.0938 9.9902 19.875 9.99997C20.6465 9.99997 21.374 10.1465 22.0576 10.4394C22.7412 10.7324 23.3369 11.1328 23.8447 11.6406C24.3525 12.1484 24.7578 12.749 25.0605 13.4424C25.3633 14.1357 25.5098 14.8633 25.5 15.625C25.5 16.5429 25.2949 17.3974 24.8848 18.1884C24.4746 18.9795 23.8984 19.6386 23.1562 20.166C23.8984 20.5371 24.5625 21.0156 25.1484 21.6015C25.7344 22.1875 26.2129 22.8515 26.584 23.5937C27.1113 22.8613 27.7705 22.29 28.5615 21.8799C29.3525 21.4697 30.207 21.2597 31.125 21.25C31.8965 21.25 32.624 21.3965 33.3076 21.6894C33.9912 21.9824 34.5869 22.3828 35.0947 22.8906C35.6025 23.3984 36.0078 23.999 36.3105 24.6924C36.6133 25.3857 36.7598 26.1133 36.75 26.875C36.75 27.7929 36.5449 28.6474 36.1348 29.4384C35.7246 30.2295 35.1484 30.8886 34.4062 31.416ZM19.875 19.375C20.3926 19.375 20.876 19.2773 21.3252 19.082C21.7744 18.8867 22.1748 18.6181 22.5264 18.2763C22.8779 17.9345 23.1465 17.539 23.332 17.0898C23.5176 16.6406 23.6152 16.1523 23.625 15.625C23.625 15.1074 23.5273 14.624 23.332 14.1748C23.1367 13.7256 22.8682 13.3252 22.5264 12.9736C22.1846 12.622 21.7891 12.3535 21.3398 12.1679C20.8906 11.9824 20.4023 11.8847 19.875 11.875C19.3574 11.875 18.874 11.9726 18.4248 12.1679C17.9756 12.3633 17.5752 12.6318 17.2236 12.9736C16.8721 13.3154 16.6035 13.7109 16.418 14.1601C16.2324 14.6093 16.1348 15.0976 16.125 15.625C16.125 16.1425 16.2227 16.6259 16.418 17.0752C16.6133 17.5244 16.8818 17.9248 17.2236 18.2763C17.5654 18.6279 17.9609 18.8965 18.4102 19.082C18.8594 19.2675 19.3477 19.3652 19.875 19.375ZM31.125 30.625C31.6426 30.625 32.126 30.5273 32.5752 30.332C33.0244 30.1367 33.4248 29.8681 33.7764 29.5263C34.1279 29.1845 34.3965 28.789 34.582 28.3398C34.7676 27.8906 34.8652 27.4023 34.875 26.875C34.875 26.3574 34.7773 25.874 34.582 25.4248C34.3867 24.9756 34.1182 24.5752 33.7764 24.2236C33.4346 23.872 33.0391 23.6035 32.5898 23.4179C32.1406 23.2324 31.6523 23.1347 31.125 23.125C30.6074 23.125 30.124 23.2226 29.6748 23.4179C29.2256 23.6133 28.8252 23.8818 28.4736 24.2236C28.1221 24.5654 27.8535 24.9609 27.668 25.4101C27.4824 25.8593 27.3848 26.3476 27.375 26.875C27.375 27.3925 27.4727 27.8759 27.668 28.3252C27.8633 28.7744 28.1318 29.1748 28.4736 29.5263C28.8154 29.8779 29.2109 30.1465 29.6602 30.332C30.1094 30.5175 30.5977 30.6152 31.125 30.625ZM33 13.75H27.375V11.875H34.875V19.375H33V13.75Z" fill="#201327"/>
</g>
<defs>
<clipPath id="clip0_947_9293">
<rect width="30" height="30" fill="white" transform="translate(10.5 10)"/>
</clipPath>
</defs>
</svg>
