<svg width="200" height="41" viewBox="0 0 200 41" fill="none" xmlns="http://www.w3.org/2000/svg">
<path d="M60.189 20.5376C60.189 22.7105 59.4888 24.5862 58.0836 26.1746C56.6078 27.8262 54.7595 28.6495 52.5383 28.6495C50.7201 28.6495 49.073 27.9673 47.5873 26.6032V33.9404H43.5679V12.7474H47.5873V14.4722C49.0427 13.0691 50.73 12.3674 52.6592 12.3674C54.9155 12.3674 56.759 13.1957 58.1843 14.8569C59.5191 16.416 60.189 18.3063 60.189 20.5376ZM56.1698 20.4939C56.1698 19.2223 55.7769 18.165 54.9912 17.3173C54.1853 16.4355 53.1276 15.9921 51.8079 15.9921C50.4832 15.9921 49.4106 16.4258 48.5845 17.2929C47.7988 18.1262 47.4059 19.193 47.4059 20.4793C47.4059 21.7801 47.7937 22.8567 48.5694 23.7142C49.3954 24.6057 50.4732 25.0541 51.8079 25.0541C53.1074 25.0541 54.1651 24.596 54.9912 23.6849C55.7769 22.8177 56.1698 21.7557 56.1698 20.4939ZM67.8035 8.90355C67.8035 9.59526 67.5567 10.1849 67.0579 10.6721C66.5644 11.1592 65.9651 11.4028 65.2549 11.4028C64.5297 11.4028 63.9152 11.1544 63.4164 10.6574C62.9179 10.1605 62.666 9.55642 62.666 8.84499C62.666 8.16304 62.9179 7.58316 63.4164 7.10087C63.9152 6.61858 64.5196 6.375 65.2296 6.375C65.9449 6.375 66.5543 6.62346 67.0529 7.11551C67.5517 7.60756 67.8035 8.20188 67.8035 8.90355ZM67.2595 28.2695H63.21V12.7474H67.2595V28.2695ZM86.9467 26.0284C86.9467 28.6397 86.4029 30.5691 85.3098 31.8114C83.834 33.4825 81.623 34.3204 78.6816 34.3204C75.7201 34.3204 73.4888 33.5799 71.9929 32.094C71.2576 31.3535 70.7085 30.4619 70.356 29.4095H74.7681C75.569 30.2864 76.8129 30.725 78.5002 30.725C80.5652 30.725 81.905 30.1451 82.5295 28.9856C82.7965 28.474 82.9274 27.5922 82.9274 26.3401C81.5977 27.6263 79.971 28.2695 78.0521 28.2695C75.7855 28.2695 73.9269 27.4801 72.4664 25.9017C71.061 24.3914 70.356 22.5304 70.356 20.3184C70.356 17.8582 71.1418 15.88 72.7183 14.3893C74.1487 13.0398 75.8511 12.3674 77.8303 12.3674C79.6838 12.3674 81.3812 13.0691 82.9274 14.4722V12.7474H86.9467V26.0284ZM83.1391 20.3623C83.1391 19.0956 82.7362 18.053 81.9353 17.2395C81.1344 16.4258 80.0767 16.0214 78.7571 16.0214C77.4778 16.0214 76.4302 16.4306 75.6091 17.249C74.7883 18.0676 74.3753 19.0956 74.3753 20.3331C74.3753 21.5998 74.7933 22.6522 75.6243 23.4852C76.4554 24.3182 77.5232 24.7324 78.8327 24.7324C80.1271 24.7324 81.1748 24.3134 81.9757 23.4706C82.7513 22.6666 83.1391 21.6291 83.1391 20.3623ZM107.254 20.8934L107.239 21.6339H94.3195C94.516 22.7593 95.0297 23.6363 95.8556 24.2648C96.6817 24.8884 97.7041 25.2001 98.923 25.2001C100.429 25.2001 101.723 24.7031 102.801 23.7093L106.196 25.2489C104.539 27.5143 102.121 28.6495 98.9382 28.6495C96.4652 28.6495 94.4202 27.8992 92.8086 26.3987C91.1968 24.903 90.3908 22.9639 90.3908 20.5962C90.3908 18.248 91.1715 16.2942 92.7329 14.7207C94.2892 13.1518 96.2838 12.3674 98.7064 12.3674C101.235 12.3674 103.29 13.1469 104.876 14.7012C106.508 16.3137 107.304 18.3793 107.254 20.8934ZM103.174 18.5353C102.902 17.6486 102.368 16.952 101.572 16.4404C100.781 15.9288 99.89 15.6706 98.9029 15.6706C97.7897 15.6706 96.8076 15.9679 95.9664 16.5671C95.4426 16.9373 94.949 17.5951 94.5009 18.5353H103.174ZM126.684 20.4939C126.684 21.9554 126.311 23.3195 125.566 24.5911C124.821 25.8627 123.793 26.8565 122.493 27.5729C121.194 28.289 119.764 28.6495 118.202 28.6495C115.875 28.6495 113.906 27.8602 112.294 26.2817C110.688 24.6983 109.882 22.7789 109.882 20.523C109.882 18.092 110.798 16.075 112.637 14.4722C114.233 13.0691 116.087 12.3674 118.187 12.3674C119.698 12.3674 121.119 12.7279 122.448 13.454C123.783 14.1798 124.821 15.1737 125.566 16.4306C126.311 17.6876 126.684 19.042 126.684 20.4939ZM122.604 20.5037C122.604 19.2223 122.207 18.1601 121.416 17.3173C120.625 16.4746 119.567 16.0506 118.248 16.0506C116.953 16.0506 115.895 16.4843 115.074 17.3515C114.294 18.1894 113.901 19.2418 113.901 20.5037C113.901 21.7848 114.289 22.8421 115.059 23.68C115.865 24.5569 116.918 24.9955 118.232 24.9955C119.542 24.9955 120.605 24.5569 121.416 23.68C122.207 22.8323 122.604 21.7752 122.604 20.5037ZM144.362 28.2695H140.342V21.4829C140.342 20.07 140.317 19.1735 140.267 18.7935C140.121 17.6339 139.768 16.8399 139.199 16.4014C138.771 16.0897 138.242 15.9337 137.618 15.9337C135.9 15.9337 134.802 16.9227 134.324 18.9055C134.208 19.3927 134.147 20.4402 134.147 22.0528V28.2695H130.128V12.7474H134.147V14.3551C135.779 13.03 137.366 12.3674 138.907 12.3674C140.509 12.3674 141.858 12.9034 142.961 13.9751C143.893 14.8813 144.362 16.231 144.362 18.0237V28.2695ZM162.644 28.2695H158.655V21.4926C158.655 20.1383 158.625 19.2418 158.569 18.8032C158.423 17.6388 158.065 16.8497 157.501 16.4306C157.073 16.1187 156.544 15.963 155.925 15.963C154.218 15.963 153.119 16.9324 152.636 18.8764C152.52 19.3392 152.46 20.4012 152.46 22.0577V28.2695H148.44V6.75501H152.46V14.326C154.026 13.0203 155.618 12.3674 157.234 12.3674C158.952 12.3674 160.292 12.9034 161.264 13.9751C162.186 14.9933 162.644 16.343 162.644 18.0237V28.2695ZM170.833 8.90355C170.833 9.59526 170.586 10.1849 170.087 10.6721C169.593 11.1592 168.994 11.4028 168.284 11.4028C167.559 11.4028 166.944 11.1544 166.445 10.6574C165.947 10.1605 165.695 9.55642 165.695 8.84499C165.695 8.16304 165.947 7.58316 166.445 7.10087C166.944 6.61858 167.549 6.375 168.259 6.375C168.974 6.375 169.583 6.62346 170.082 7.11551C170.581 7.60756 170.833 8.20188 170.833 8.90355ZM170.289 28.2695H166.239V12.7474H170.289V28.2695ZM181.756 12.7474L180.517 16.1285C180.049 15.8996 179.661 15.7875 179.353 15.7875C178.739 15.7875 178.215 16.1578 177.797 16.8983C177.324 17.7022 177.107 19.154 177.147 21.2539L177.163 22.0091V28.2695H173.143V12.7474H176.619V14.7351C177.374 13.1567 178.543 12.3674 180.124 12.3674C180.643 12.3674 181.187 12.4941 181.756 12.7474ZM199.998 20.8934L199.983 21.6339H187.064C187.26 22.7593 187.774 23.6363 188.6 24.2648C189.426 24.8884 190.448 25.2001 191.667 25.2001C193.173 25.2001 194.468 24.7031 195.545 23.7093L198.94 25.2489C197.283 27.5143 194.865 28.6495 191.682 28.6495C189.209 28.6495 187.164 27.8992 185.553 26.3987C183.941 24.903 183.135 22.9639 183.135 20.5962C183.135 18.248 183.916 16.2942 185.477 14.7207C187.033 13.1518 189.028 12.3674 191.451 12.3674C193.979 12.3674 196.034 13.1469 197.62 14.7012C199.252 16.3137 200.048 18.3793 199.998 20.8934ZM195.918 18.5353C195.646 17.6486 195.112 16.952 194.316 16.4404C193.526 15.9288 192.634 15.6706 191.647 15.6706C190.534 15.6706 189.552 15.9679 188.711 16.5671C188.187 16.9373 187.693 17.5951 187.245 18.5353H195.918Z" fill="white"/>
<path fill-rule="evenodd" clip-rule="evenodd" d="M33.0836 33.4271C28.9635 37.7234 23.0778 40.413 16.5418 40.413C10.0058 40.413 4.11992 37.7232 0 33.4271C0.659009 33.0272 1.27907 32.6296 1.80007 32.2375C2.66449 31.5871 3.25671 30.9524 3.69699 30.2246C4.13728 29.4968 4.42521 28.6762 4.62861 27.7964C4.8318 26.9165 4.95024 25.9775 5.11752 24.9294C5.28479 23.8813 5.5007 22.724 5.63105 21.7821C5.76119 20.8402 5.80558 20.1135 5.84977 19.3871L16.5418 19.487L27.2339 19.3871C27.2781 20.1135 27.3225 20.8402 27.4526 21.7821C27.583 22.724 27.7989 23.8813 27.9661 24.9294C28.1334 25.9775 28.2518 26.9165 28.455 27.7964C28.6584 28.6762 28.9464 29.4968 29.3867 30.2246C29.8269 30.9524 30.4192 31.5871 31.2836 32.2375C31.8046 32.6296 32.4244 33.0272 33.0836 33.4271ZM16.4567 4.64436C16.271 4.49895 15.9125 4.35628 15.6627 4.17671C15.4131 3.99715 15.2722 3.7805 15.0672 3.43659C14.8624 3.09288 14.5935 2.62211 14.4014 2.17007C14.2093 1.71784 14.094 1.28435 14.0363 0.959177C13.9788 0.634008 13.9788 0.417358 13.9116 0.265508C13.8442 0.113854 13.7099 0.0269972 13.5753 0.00533231C13.4409 -0.0163326 13.3065 0.0269995 13.1975 0.154061C13.0888 0.280928 13.0055 0.49153 12.935 0.860224C12.8646 1.22853 12.8069 1.75512 12.8069 2.28776C12.8069 2.82041 12.8646 3.3593 12.9447 3.82988C13.0248 4.30065 13.1271 4.7033 13.3033 5.0841C13.4794 5.46509 13.729 5.82423 14.0139 6.04263C14.2988 6.26104 14.6191 6.33832 15 6.31373C15.381 6.28894 15.8229 6.16188 16.1108 5.94035C16.3992 5.71902 16.5335 5.40303 16.5943 5.17096C16.6552 4.9385 16.6425 4.78997 16.4567 4.64436Z" fill="#F0B74D"/>
<path fill-rule="evenodd" clip-rule="evenodd" d="M27.7955 37.5082C24.4833 39.3558 20.6404 40.4132 16.5421 40.4132C12.4437 40.4132 8.60086 39.356 5.28866 37.5082C5.17122 37.2422 5.06831 36.9746 4.98578 36.705C4.71358 35.8146 4.66556 34.9012 4.92182 34.1191C5.17788 33.3372 5.73822 32.6869 6.20231 31.9157C6.6666 31.1448 7.03484 30.2528 7.26689 29.2C7.49893 28.147 7.59498 26.9332 7.64301 25.9079C7.68599 24.9888 7.69042 24.2215 7.61032 23.5257C5.84738 21.6032 4.78199 19.1051 4.78199 16.3744C4.78199 11.0032 8.90231 6.53223 14.3491 5.57175C14.4131 5.33324 14.5753 5.07345 14.724 4.84607C14.9185 4.54861 15.0899 4.30718 15.2914 4.08409C15.4932 3.86119 15.7253 3.65684 16.0239 3.45541C16.3225 3.25418 16.6875 3.05608 17.2414 2.86402C17.7953 2.67197 18.5379 2.48616 19.0693 2.39032C19.6008 2.29429 19.921 2.28805 20.1194 2.33138C20.3179 2.37471 20.3948 2.46762 20.4013 2.58219C20.4075 2.69676 20.3436 2.83299 20.1291 2.99421C19.9146 3.15523 19.5496 3.34085 19.1815 3.63206C18.8133 3.92307 18.4418 4.31948 18.166 4.66241C17.9426 4.93996 17.7818 5.18236 17.71 5.43395C23.6564 5.98221 28.3021 10.671 28.3021 16.3744C28.3021 19.1051 27.2367 21.6032 25.4738 23.5257C25.3937 24.2215 25.3979 24.9888 25.4409 25.9079C25.4891 26.9332 25.5852 28.147 25.8172 29.2C26.0493 30.2528 26.4175 31.1448 26.8818 31.9157C27.3459 32.6869 27.9062 33.3372 28.1623 34.1191C28.4183 34.9012 28.3705 35.8146 28.0983 36.705C28.0158 36.9746 27.9129 37.2422 27.7955 37.5082Z" fill="#F6C569"/>
<path fill-rule="evenodd" clip-rule="evenodd" d="M24.5527 9.58301C27.5469 9.58301 29.9741 11.9308 29.9741 14.8271C29.9741 17.7234 27.5469 20.0712 24.5527 20.0712C21.5585 20.0712 19.1313 17.7234 19.1313 14.8271C19.1313 11.9308 21.5585 9.58301 24.5527 9.58301Z" fill="#F0B74D"/>
<mask id="mask0_1038_9672" style="mask-type:luminance" maskUnits="userSpaceOnUse" x="19" y="9" width="11" height="12">
<path d="M24.5527 9.58301C27.5469 9.58301 29.9741 11.9308 29.9741 14.8271C29.9741 17.7234 27.5469 20.0712 24.5527 20.0712C21.5585 20.0712 19.1313 17.7234 19.1313 14.8271C19.1313 11.9308 21.5585 9.58301 24.5527 9.58301Z" fill="white"/>
</mask>
<g mask="url(#mask0_1038_9672)">
<path d="M24.981 18.5408C28.0922 18.2864 30.4373 16.2189 30.219 13.9228C30.0007 11.6267 27.3016 9.97157 24.1904 10.2259C21.0792 10.4803 18.7341 12.5479 18.9524 14.8439C19.1707 17.14 21.8698 18.7951 24.981 18.5408Z" fill="#FEFEFE"/>
</g>
<path fill-rule="evenodd" clip-rule="evenodd" d="M8.53028 9.58301C5.53609 9.58301 3.10889 11.9308 3.10889 14.8271C3.10889 17.7234 5.53609 20.0712 8.53028 20.0712C11.5243 20.0712 13.9517 17.7234 13.9517 14.8271C13.9517 11.9308 11.5243 9.58301 8.53028 9.58301Z" fill="#F0B74D"/>
<mask id="mask1_1038_9672" style="mask-type:luminance" maskUnits="userSpaceOnUse" x="3" y="9" width="11" height="12">
<path d="M8.53028 9.58301C5.53609 9.58301 3.10889 11.9308 3.10889 14.8271C3.10889 17.7234 5.53609 20.0712 8.53028 20.0712C11.5243 20.0712 13.9517 17.7234 13.9517 14.8271C13.9517 11.9308 11.5243 9.58301 8.53028 9.58301Z" fill="white"/>
</mask>
<g mask="url(#mask1_1038_9672)">
<path d="M8.10297 18.5408C4.99178 18.2864 2.64665 16.2189 2.86496 13.9228C3.08328 11.6267 5.78237 9.97157 8.89355 10.2259C12.0047 10.4803 14.3499 12.5479 14.1316 14.8439C13.9132 17.14 11.2142 18.7951 8.10297 18.5408Z" fill="#FEFEFE"/>
</g>
<path fill-rule="evenodd" clip-rule="evenodd" d="M23.8395 11.1221C25.7639 11.1221 27.3239 12.631 27.3239 14.4924C27.3239 16.3537 25.7639 17.8628 23.8395 17.8628C21.9152 17.8628 20.3552 16.3537 20.3552 14.4924C20.3552 12.631 21.9152 11.1221 23.8395 11.1221ZM9.24407 11.1221C11.1684 11.1221 12.7284 12.631 12.7284 14.4924C12.7284 16.3537 11.1684 17.8628 9.24407 17.8628C7.31971 17.8628 5.75977 16.3537 5.75977 14.4924C5.75977 12.631 7.31971 11.1221 9.24407 11.1221Z" fill="#F6911F"/>
<path fill-rule="evenodd" clip-rule="evenodd" d="M23.8398 12.9531C24.7191 12.9531 25.432 13.6427 25.432 14.4933C25.432 15.3439 24.7191 16.0336 23.8398 16.0336C22.9604 16.0336 22.2473 15.3439 22.2473 14.4933C22.2473 13.6427 22.9604 12.9531 23.8398 12.9531ZM9.24429 12.9531C10.1236 12.9531 10.8365 13.6427 10.8365 14.4933C10.8365 15.3439 10.1236 16.0336 9.24429 16.0336C8.36494 16.0336 7.65186 15.3439 7.65186 14.4933C7.65186 13.6427 8.36494 12.9531 9.24429 12.9531Z" fill="white"/>
<path fill-rule="evenodd" clip-rule="evenodd" d="M23.323 14.3477C23.5607 14.3477 23.7534 14.534 23.7534 14.7638C23.7534 14.9937 23.5607 15.1801 23.323 15.1801C23.0855 15.1801 22.8928 14.9937 22.8928 14.7638C22.8928 14.534 23.0855 14.3477 23.323 14.3477ZM8.72756 14.3477C8.96526 14.3477 9.15796 14.534 9.15796 14.7638C9.15796 14.9937 8.96526 15.1801 8.72756 15.1801C8.49007 15.1801 8.29736 14.9937 8.29736 14.7638C8.29736 14.534 8.49007 14.3477 8.72756 14.3477Z" fill="white"/>
<path fill-rule="evenodd" clip-rule="evenodd" d="M16.5651 24.2641L14.3463 23.4323C10.2936 20.138 13.382 16.2235 16.5651 18.6429C19.7483 16.2235 22.8368 20.138 18.7838 23.4323L16.5651 24.2641Z" fill="white"/>
<path fill-rule="evenodd" clip-rule="evenodd" d="M16.2573 21.3858L14.3509 23.0915C14.2028 23.2242 14.1655 23.4287 14.2579 23.6024L16.1643 27.1881C16.2422 27.3345 16.3879 27.4205 16.5582 27.4205C16.7283 27.4207 16.8742 27.3349 16.9523 27.1885L18.8649 23.603C18.9577 23.4291 18.9202 23.224 18.7715 23.0913L16.8586 21.3854C16.6883 21.2334 16.4274 21.2335 16.2573 21.3858ZM2.85498 31.3157C3.18993 30.9673 3.46476 30.609 3.69721 30.2247C4.13749 29.4969 4.42543 28.6763 4.62882 27.7965C4.64759 27.7147 4.66595 27.6321 4.6833 27.5494C7.0532 28.7819 11.4744 29.611 16.5376 29.611C21.6065 29.611 26.0317 28.7802 28.3998 27.5453C28.4175 27.6296 28.4361 27.7133 28.4553 27.7965C28.6586 28.6763 28.9466 29.4969 29.3869 30.2247C29.6185 30.6078 29.8925 30.9652 30.2261 31.3126C27.5176 32.8133 22.4025 33.8252 16.5376 33.8252C10.6769 33.8252 5.56487 32.8147 2.85498 31.3157Z" fill="#F7DCAA"/>
<path fill-rule="evenodd" clip-rule="evenodd" d="M16.2572 21.3865L14.351 23.0919C14.2029 23.2249 14.1654 23.429 14.2576 23.6029L16.1642 27.1886C16.2368 27.325 16.3684 27.4091 16.5239 27.4199C16.4957 27.3888 16.4715 27.3531 16.4513 27.3131L14.5447 23.5163C14.4525 23.332 14.4898 23.1161 14.6381 22.9754L16.4097 21.2969C16.3549 21.316 16.3028 21.3459 16.2572 21.3865Z" fill="white" fill-opacity="0.25098"/>
<path d="M24.7026 7.82089C26.4545 7.82089 28.0418 8.62621 29.1916 9.92747C30.2782 11.1575 30.9733 12.8302 31.0471 14.6846C31.2584 14.749 31.4126 14.9406 31.4126 15.1655C31.4126 15.397 31.2495 15.5931 31.029 15.6519C30.8942 17.3822 30.2172 18.9375 29.1916 20.0985C28.0418 21.3997 26.4545 22.205 24.7026 22.205C22.9508 22.205 21.3634 21.3997 20.2136 20.0985C19.0633 18.7964 18.3514 16.998 18.3514 15.0131C18.3514 14.8882 18.3542 14.764 18.3599 14.6405C17.758 14.4954 17.1543 14.4244 16.5495 14.4256C15.9446 14.4267 15.3365 14.5003 14.7255 14.6446C14.7307 14.7665 14.7337 14.8895 14.7337 15.0131C14.7337 16.9982 14.0221 18.7966 12.8713 20.0989C11.7216 21.4003 10.134 22.2056 8.38194 22.2056C6.62989 22.2056 5.04251 21.4005 3.89257 20.0989C2.86693 18.9379 2.18996 17.3824 2.05517 15.6519C1.83442 15.5931 1.67139 15.3972 1.67139 15.1655C1.67139 14.9405 1.82555 14.749 2.03701 14.6846C2.11086 12.83 2.80578 11.1571 3.89277 9.92708C5.0425 8.62562 6.62989 7.82031 8.38194 7.82031C10.134 7.82031 11.7216 8.62562 12.8713 9.92708C13.8415 11.025 14.4997 12.4753 14.6823 14.093C15.306 13.9501 15.9287 13.8771 16.5495 13.8759C17.1696 13.8746 17.7879 13.945 18.4035 14.0887C18.5869 12.473 19.2449 11.0242 20.2136 9.92747C21.3634 8.62621 22.9508 7.82089 24.7026 7.82089ZM13.7372 14.8425C13.6875 14.8081 13.6484 14.7535 13.6308 14.685C13.6024 14.5747 13.6375 14.4601 13.7117 14.3924C13.5838 12.9652 13.0192 11.6856 12.1724 10.7269C11.2038 9.63041 9.8636 8.95196 8.38194 8.95196C6.90048 8.95196 5.56027 9.63041 4.59173 10.7269C3.6236 11.8227 3.02471 13.3382 3.02471 15.0131C3.02471 16.6877 3.6236 18.2033 4.59153 19.299C5.56027 20.3955 6.90048 21.074 8.38194 21.074C9.8636 21.074 11.2038 20.3955 12.1724 19.299C13.1405 18.2033 13.7394 16.6879 13.7394 15.0131C13.7394 14.9561 13.7386 14.8991 13.7372 14.8425ZM19.3726 14.4023C19.4404 14.4716 19.4707 14.5823 19.4422 14.6881C19.4257 14.7498 19.3916 14.7999 19.3482 14.8339C19.3468 14.8934 19.3458 14.9531 19.3458 15.0131C19.3458 16.6877 19.9447 18.2031 20.9126 19.2986C21.8813 20.3949 23.2214 21.0734 24.7026 21.0734C26.1839 21.0734 27.5239 20.3949 28.4926 19.2986C29.4606 18.2031 30.0594 16.6877 30.0594 15.0131C30.0594 13.3384 29.4606 11.8231 28.4926 10.7273C27.5239 9.63099 26.1839 8.95254 24.7026 8.95254C23.2214 8.95254 21.8813 9.63099 20.9126 10.7273C20.0637 11.6882 19.4987 12.9715 19.3726 14.4023Z" fill="#1A1A1A"/>
</svg>
