<svg width="51" height="50" viewBox="0 0 51 50" fill="none" xmlns="http://www.w3.org/2000/svg">
<rect x="0.5" width="50" height="50" rx="25" fill="#FDE5CC"/>
<path d="M14.25 25C14.25 23.4475 14.5458 21.9867 15.1375 20.6175C15.7292 19.2483 16.5321 18.0579 17.5463 17.0463C18.5588 16.0321 19.7492 15.2292 21.1175 14.6375C22.4867 14.0458 23.9475 13.75 25.5 13.75C28.285 13.75 30.7071 14.6263 32.7663 16.3788C34.8263 18.1313 36.0892 20.3313 36.555 22.9788C36.595 23.1738 36.5658 23.3525 36.4675 23.515C36.3692 23.6767 36.2254 23.7575 36.0363 23.7575C35.8421 23.7575 35.6783 23.6917 35.545 23.56C35.4117 23.4283 35.3221 23.2679 35.2762 23.0788C34.9737 21.4188 34.2937 19.9325 33.2362 18.62C32.1796 17.3075 30.8508 16.335 29.25 15.7025V16.25C29.25 16.9375 29.0054 17.5263 28.5163 18.0163C28.0271 18.5062 27.4383 18.7508 26.75 18.75H24.25V21.25C24.25 21.6042 24.13 21.9013 23.89 22.1413C23.65 22.3813 23.3533 22.5008 23 22.5H20.5V25H21.7975C22.0883 25 22.3292 25.0958 22.52 25.2875C22.7117 25.4792 22.8075 25.72 22.8075 26.01V28.75H21.75L15.75 22.75C15.6875 23.125 15.6304 23.5 15.5788 23.875C15.5271 24.25 15.5008 24.625 15.5 25C15.5 27.6375 16.3908 29.9167 18.1725 31.8375C19.9533 33.7567 22.1783 34.8058 24.8475 34.985C25.0375 34.995 25.1937 35.0596 25.3162 35.1787C25.4387 35.2987 25.5 35.4475 25.5 35.625C25.5 35.8025 25.4325 35.9513 25.2975 36.0713C25.1617 36.1904 24.9992 36.245 24.81 36.235C21.8467 36.0517 19.3458 34.8829 17.3075 32.7288C15.2692 30.5746 14.25 27.9983 14.25 25ZM36.3375 35.4713L32.4662 31.6488C32.0929 31.9154 31.6883 32.1238 31.2525 32.2738C30.8167 32.4246 30.3575 32.5 29.875 32.5C28.6492 32.5 27.6133 32.0775 26.7675 31.2325C25.9225 30.3858 25.5 29.35 25.5 28.125C25.5 26.8992 25.9225 25.8633 26.7675 25.0175C27.6142 24.1725 28.65 23.75 29.875 23.75C31.1008 23.75 32.1367 24.1725 32.9825 25.0175C33.8275 25.8642 34.25 26.9 34.25 28.125C34.25 28.6233 34.1708 29.0942 34.0125 29.5375C33.8542 29.9817 33.6333 30.3908 33.35 30.765L37.2213 34.5863C37.3546 34.7029 37.4213 34.8463 37.4213 35.0163C37.4213 35.1863 37.3546 35.3379 37.2213 35.4713C37.1046 35.5879 36.9613 35.6462 36.7913 35.6462C36.6213 35.6462 36.4708 35.5879 36.3375 35.4713ZM29.875 31.25C30.75 31.25 31.4896 30.9479 32.0938 30.3438C32.6979 29.7396 33 29 33 28.125C33 27.25 32.6979 26.5104 32.0938 25.9062C31.4896 25.3021 30.75 25 29.875 25C29 25 28.2604 25.3021 27.6562 25.9062C27.0521 26.5104 26.75 27.25 26.75 28.125C26.75 29 27.0521 29.7396 27.6562 30.3438C28.2604 30.9479 29 31.25 29.875 31.25Z" fill="#201327"/>
</svg>
