<svg width="32" height="33" viewBox="0 0 32 33" fill="none" xmlns="http://www.w3.org/2000/svg">
<path d="M25.332 15.1657H9.5187L14.3587 9.3524C14.585 9.08011 14.6939 8.72907 14.6614 8.3765C14.6289 8.02393 14.4577 7.69872 14.1854 7.4724C13.9131 7.24608 13.562 7.1372 13.2095 7.1697C12.8569 7.20221 12.5317 7.37344 12.3054 7.64573L5.6387 15.6457C5.59293 15.7088 5.55278 15.7757 5.5187 15.8457C5.5187 15.9124 5.5187 15.9524 5.42536 16.0191C5.36493 16.1719 5.33329 16.3347 5.33203 16.4991C5.33329 16.6635 5.36493 16.8262 5.42536 16.9791C5.42536 17.0457 5.42536 17.0857 5.5187 17.1524C5.55278 17.2224 5.59293 17.2894 5.6387 17.3524L12.3054 25.3524C12.4307 25.5029 12.5877 25.6239 12.7652 25.7069C12.9426 25.7899 13.1362 25.8327 13.332 25.8324C13.6436 25.833 13.9455 25.7245 14.1854 25.5257C14.3204 25.4138 14.432 25.2763 14.5138 25.1212C14.5956 24.9661 14.646 24.7963 14.6621 24.6217C14.6782 24.4471 14.6597 24.271 14.6076 24.1035C14.5556 23.936 14.471 23.7805 14.3587 23.6457L9.5187 17.8324H25.332C25.6857 17.8324 26.0248 17.6919 26.2748 17.4419C26.5249 17.1918 26.6654 16.8527 26.6654 16.4991C26.6654 16.1454 26.5249 15.8063 26.2748 15.5563C26.0248 15.3062 25.6857 15.1657 25.332 15.1657Z" fill="#8D8D8D"/>
</svg>
