<svg width="16" height="16" viewBox="0 0 16 16" fill="none" xmlns="http://www.w3.org/2000/svg">
<path d="M12.9998 5.32603L8.00179 10.198L3.00379 5.32603C2.91449 5.2388 2.79461 5.18996 2.66979 5.18996C2.54496 5.18996 2.42508 5.2388 2.33579 5.32603C2.29255 5.36839 2.2582 5.41896 2.23475 5.47477C2.2113 5.53057 2.19922 5.5905 2.19922 5.65103C2.19922 5.71156 2.2113 5.77149 2.23475 5.82729C2.2582 5.8831 2.29255 5.93367 2.33579 5.97603L7.65279 11.16C7.74616 11.251 7.87139 11.302 8.00179 11.302C8.13218 11.302 8.25741 11.251 8.35079 11.16L13.6678 5.97703C13.7113 5.93463 13.7459 5.88394 13.7696 5.82795C13.7932 5.77196 13.8054 5.7118 13.8054 5.65103C13.8054 5.59026 13.7932 5.5301 13.7696 5.47411C13.7459 5.41812 13.7113 5.36743 13.6678 5.32503C13.5785 5.2378 13.4586 5.18896 13.3338 5.18896C13.209 5.18896 13.0891 5.2378 12.9998 5.32503V5.32603Z" fill="#8D8D8D"/>
</svg>
