<svg width="16" height="16" viewBox="0 0 16 16" fill="none" xmlns="http://www.w3.org/2000/svg">
<path d="M3.33398 8.66713H11.2407L8.82065 11.5738C8.70749 11.7099 8.65305 11.8855 8.6693 12.0617C8.68556 12.238 8.77117 12.4006 8.90732 12.5138C9.04346 12.627 9.21898 12.6814 9.39527 12.6651C9.57155 12.6489 9.73416 12.5633 9.84732 12.4271L13.1807 8.42713C13.2035 8.39562 13.2236 8.36216 13.2407 8.32713C13.2407 8.2938 13.2407 8.2738 13.2873 8.24047C13.3175 8.16403 13.3334 8.08266 13.334 8.00047C13.3334 7.91827 13.3175 7.83691 13.2873 7.76047C13.2873 7.72713 13.2873 7.70713 13.2407 7.6738C13.2236 7.63878 13.2035 7.60532 13.1807 7.5738L9.84732 3.5738C9.78464 3.49855 9.70614 3.43803 9.61742 3.39654C9.5287 3.35506 9.43192 3.33364 9.33398 3.3338C9.17822 3.3335 9.02726 3.38775 8.90732 3.48713C8.83981 3.5431 8.78401 3.61183 8.74311 3.6894C8.70221 3.76696 8.67701 3.85183 8.66896 3.93915C8.66091 4.02647 8.67016 4.11452 8.69619 4.19825C8.72222 4.28199 8.76452 4.35977 8.82065 4.42713L11.2407 7.3338L3.33398 7.3338C3.15717 7.3338 2.9876 7.40404 2.86258 7.52906C2.73755 7.65409 2.66732 7.82366 2.66732 8.00047C2.66732 8.17728 2.73755 8.34685 2.86258 8.47187C2.9876 8.5969 3.15717 8.66713 3.33398 8.66713Z" fill="#161616"/>
</svg>
