<svg width="82" height="82" viewBox="0 0 82 82" fill="none" xmlns="http://www.w3.org/2000/svg">
<rect width="82" height="82" rx="41" fill="#FEF4EC"/>
<path d="M35.6654 33C35.6654 32.2928 35.9463 31.6145 36.4464 31.1144C36.9465 30.6143 37.6248 30.3333 38.332 30.3333C39.0393 30.3333 39.7176 30.6143 40.2176 31.1144C40.7177 31.6145 40.9987 32.2928 40.9987 33V44.92L44.2254 45.2667L57.3987 51.1067C58.812 51.7467 59.6654 53.16 59.6654 54.7067V66.3333C59.5854 68.52 57.852 70.2533 55.6654 70.3333H38.332C37.3187 70.3333 36.3587 69.9333 35.6654 69.1867L22.5987 57.9867L24.572 55.9333C25.0787 55.3733 25.7987 55.08 26.5454 55.08H27.132L35.6654 59.6667V33ZM38.332 22.3333C41.161 22.3333 43.8741 23.4571 45.8745 25.4575C47.8749 27.4579 48.9987 30.171 48.9987 33C48.9987 37 46.8654 40.3867 43.6654 42.2267V38.9733C45.292 37.5067 46.332 35.3733 46.332 33C46.332 30.8783 45.4892 28.8434 43.9889 27.3431C42.4886 25.8429 40.4538 25 38.332 25C36.2103 25 34.1755 25.8429 32.6752 27.3431C31.1749 28.8434 30.332 30.8783 30.332 33C30.332 35.3733 31.372 37.5067 32.9987 38.9733V42.2267C29.7987 40.3867 27.6654 37 27.6654 33C27.6654 30.171 28.7892 27.4579 30.7896 25.4575C32.7899 23.4571 35.5031 22.3333 38.332 22.3333ZM38.332 17C42.5755 17 46.6452 18.6857 49.6457 21.6863C52.6463 24.6869 54.332 28.7565 54.332 33C54.332 37.5333 52.4387 41.6133 49.4254 44.5467L46.7587 43.3467C48.2909 42.0923 49.5257 40.5136 50.3742 38.7245C51.2227 36.9353 51.6637 34.9802 51.6654 33C51.6654 29.4638 50.2606 26.0724 47.7601 23.5719C45.2596 21.0714 41.8683 19.6667 38.332 19.6667C34.7958 19.6667 31.4044 21.0714 28.9039 23.5719C26.4035 26.0724 24.9987 29.4638 24.9987 33C24.9987 38.4667 28.2787 43.16 32.9987 45.2133V48.0933C26.7854 45.88 22.332 39.96 22.332 33C22.332 28.7565 24.0177 24.6869 27.0183 21.6863C30.0189 18.6857 34.0886 17 38.332 17Z" fill="url(#paint0_radial_2783_136169)"/>
<defs>
<radialGradient id="paint0_radial_2783_136169" cx="0" cy="0" r="1" gradientUnits="userSpaceOnUse" gradientTransform="translate(37.4069 35.7254) rotate(67.9388) scale(31.1071 24.9722)">
<stop offset="0.339" stop-color="#3DCBFF"/>
<stop offset="1" stop-color="#14B1FF"/>
</radialGradient>
</defs>
</svg>
