<svg width="52" height="52" viewBox="0 0 52 52" fill="none" xmlns="http://www.w3.org/2000/svg">
<path opacity="0.42" d="M43.0878 30.3573C46.8729 30.3573 49.9413 27.2889 49.9413 23.5038C49.9413 19.7188 46.8729 16.6504 43.0878 16.6504C39.3028 16.6504 36.2344 19.7188 36.2344 23.5038C36.2344 27.2889 39.3028 30.3573 43.0878 30.3573Z" fill="#4DD0E1"/>
<path d="M42.3365 18.7513C42.6249 19.3525 41.7068 20.1163 41.3493 20.5916C40.4189 21.8307 40.9024 22.7935 40.2077 23.9229C39.6836 24.7719 38.0221 25.3569 37.7093 23.281C37.5143 21.981 38.3268 20.5104 38.8793 19.9091C40.7114 17.9185 42.0968 18.2557 42.3365 18.7513Z" fill="white"/>
<path d="M43.0878 30.9666C38.9725 30.9666 35.625 27.6191 35.625 23.5038C35.625 19.3885 38.9725 16.041 43.0878 16.041C47.2031 16.041 50.5506 19.3885 50.5506 23.5038C50.5506 27.6191 47.1991 30.9666 43.0878 30.9666ZM42.9456 17.0973C39.4113 17.0973 36.535 19.9735 36.535 23.5079C36.535 27.0423 39.4113 29.9185 42.9456 29.9185C46.48 29.9185 49.3563 27.0423 49.3563 23.5079C49.3563 19.9735 46.4841 17.0973 42.9456 17.0973Z" fill="#4DC6E1"/>
<path opacity="0.42" d="M36.268 49.368C41.1255 49.368 45.0633 45.4302 45.0633 40.5727C45.0633 35.7151 41.1255 31.7773 36.268 31.7773C31.4104 31.7773 27.4727 35.7151 27.4727 40.5727C27.4727 45.4302 31.4104 49.368 36.268 49.368Z" fill="#4DD0E1"/>
<path d="M36.268 50.1805C30.9705 50.1805 26.6602 45.8702 26.6602 40.5727C26.6602 35.2752 30.9705 30.9648 36.268 30.9648C41.5655 30.9648 45.8758 35.2752 45.8758 40.5727C45.8758 45.8702 41.5655 50.1805 36.268 50.1805ZM36.5117 32.1389C31.8317 32.1389 28.0252 35.9455 28.0252 40.6255C28.0252 45.3055 31.8317 49.112 36.5117 49.112C41.1917 49.112 44.9983 45.3055 44.9983 40.6255C44.9983 35.9455 41.1917 32.1389 36.5117 32.1389Z" fill="#4DC6E1"/>
<path opacity="0.7" d="M34.1295 33.848C35.917 33.7261 36.5345 35.0017 36.0916 36.0133C35.5229 37.3133 34.1985 36.8501 33.0326 38.1136C32.2282 38.987 30.5098 39.9336 30.2701 38.0039C30.0588 36.2976 31.9479 33.9983 34.1295 33.848Z" fill="white"/>
<path d="M39.2954 36.1562C40.372 36.1521 40.502 34.9415 39.9251 34.2955C39.2589 33.3002 37.0286 33.4059 37.5567 35.0471C37.7883 35.7702 38.2108 36.1602 39.2954 36.1562Z" fill="white"/>
<path opacity="0.42" d="M17.455 33.4041C26.0639 33.4041 33.0428 26.4252 33.0428 17.8163C33.0428 9.20742 26.0639 2.22852 17.455 2.22852C8.84609 2.22852 1.86719 9.20742 1.86719 17.8163C1.86719 26.4252 8.84609 33.4041 17.455 33.4041Z" fill="#4DD0E1"/>
<path opacity="0.7" d="M15.662 5.98343C17.4455 6.59687 17.9167 8.18937 17.3683 9.55031C16.8645 10.8016 14.9714 11.3662 13.7852 12.0122C11.9773 12.9912 10.6652 14.2628 9.68609 16.0706C8.73953 17.8175 6.18828 18.5244 5.83891 15.9853C5.56672 13.9987 6.80172 11.1712 7.95953 9.72093C8.98328 8.44125 10.3889 7.29968 11.8595 6.56843C12.8955 6.05656 14.5367 5.59749 15.662 5.98343Z" fill="white"/>
<path d="M23.966 6.88453C24.6972 7.50203 24.7825 8.63547 23.771 8.9889C23.32 9.11484 22.8488 8.91172 22.3816 8.87922C21.431 8.81422 21.0369 9.1514 20.2244 8.80609C19.0138 8.28609 18.5141 7.23796 19.091 6.37671C19.3753 5.95421 19.9156 5.7389 20.395 5.64547C21.695 5.39359 23.0519 5.9664 23.966 6.88453Z" fill="white"/>
<path d="M17.6505 34.2207C8.71703 34.2207 1.44922 26.9529 1.44922 18.0195C1.44922 9.08602 8.71703 1.82227 17.6505 1.82227C26.5839 1.82227 33.8517 9.09008 33.8517 18.0235C33.8517 26.957 26.5798 34.2207 17.6505 34.2207ZM17.9023 3.53664C9.75297 3.53664 3.12703 10.1626 3.12703 18.312C3.12703 26.4613 9.75703 33.0873 17.9023 33.0873C26.0477 33.0873 32.6777 26.4573 32.6777 18.312C32.6777 10.1666 26.0477 3.53664 17.9023 3.53664Z" fill="#4DC6E1"/>
<path d="M29.2657 20.5148C27.9698 20.1369 28.0185 21.5304 26.6535 23.7526C25.7435 25.2313 23.826 27.1529 20.706 27.9207C18.8698 28.3716 18.0451 28.7576 17.9923 29.4319C17.8988 30.5816 19.4629 30.8904 21.7338 30.2973C27.7544 28.7332 32.016 21.3151 29.2657 20.5148ZM42.9076 42.6391C41.9163 42.302 42.1519 43.8295 40.1938 45.2066C38.1057 46.6773 36.8423 46.3238 36.7691 47.1566C36.6919 48.0463 38.8654 48.0423 41.1282 46.3563C43.0904 44.902 43.911 42.9804 42.9076 42.6391ZM48.4935 24.3132C48.7291 23.066 48.4326 20.4457 47.1691 21.2826C46.6613 21.6198 47.4616 23.0619 47.2179 24.301C46.8929 25.9626 46.2754 26.8319 44.821 27.8679C44.4879 28.1035 44.6666 28.5423 45.2963 28.3148C46.9579 27.7176 48.0873 26.4826 48.4935 24.3132Z" fill="white"/>
</svg>
