<svg width="82" height="82" viewBox="0 0 82 82" fill="none" xmlns="http://www.w3.org/2000/svg">
<rect width="82" height="82" rx="41" fill="#E3FFE5"/>
<path d="M50.7926 39.3687C49.5633 39.0392 48.2535 39.2115 47.1511 39.8476C46.0488 40.4837 45.2442 41.5315 44.9142 42.7607L42.8438 50.4887C42.0097 53.7529 42.4962 57.2144 44.1978 60.1222C45.8994 63.0301 48.6788 65.1498 51.9331 66.0216C55.1875 66.8935 58.6543 66.447 61.5817 64.7792C64.509 63.1114 66.6608 60.3567 67.5702 57.1127L69.6406 49.3879C69.9701 48.1586 69.7978 46.8487 69.1617 45.7464C68.5256 44.644 67.4778 43.8394 66.2486 43.5095L50.7926 39.3687Z" fill="url(#paint0_radial_2783_136148)"/>
<path d="M31.2099 39.3687C32.4392 39.0392 33.7491 39.2115 34.8514 39.8476C35.9538 40.4837 36.7584 41.5315 37.0883 42.7607L39.1587 50.4887C39.6158 52.1192 39.7448 53.8242 39.5383 55.505C39.3317 57.1857 38.7937 58.8088 37.9555 60.2801C37.1172 61.7515 35.9953 63.0419 34.6548 64.0765C33.3143 65.1112 31.7818 65.8696 30.1461 66.3078C28.5103 66.746 26.8039 66.8553 25.1257 66.6293C23.4475 66.4033 21.8308 65.8466 20.3692 64.9913C18.9077 64.1361 17.6303 62.9993 16.6112 61.6469C15.5922 60.2945 14.8515 58.7534 14.4323 57.1127L12.3587 49.3879C12.1956 48.779 12.1541 48.1439 12.2365 47.5189C12.3188 46.894 12.5235 46.2914 12.8388 45.7455C13.1541 45.1996 13.5738 44.7212 14.074 44.3376C14.5741 43.9539 15.145 43.6725 15.7539 43.5095L31.2099 39.3687Z" fill="url(#paint1_radial_2783_136148)"/>
<path d="M40.9945 15.4023C38.4485 15.4023 36.0067 16.4138 34.2063 18.2141C32.406 20.0145 31.3945 22.4563 31.3945 25.0023C31.3945 27.5484 32.406 29.9902 34.2063 31.7906C36.0067 33.5909 38.4485 34.6023 40.9945 34.6023C43.5406 34.6023 45.9824 33.5909 47.7828 31.7906C49.5831 29.9902 50.5945 27.5484 50.5945 25.0023C50.5945 22.4563 49.5831 20.0145 47.7828 18.2141C45.9824 16.4138 43.5406 15.4023 40.9945 15.4023Z" fill="url(#paint2_radial_2783_136148)"/>
<path d="M61.8008 21.8027C59.679 21.8027 57.6442 22.6456 56.1439 24.1459C54.6436 25.6462 53.8008 27.681 53.8008 29.8027C53.8008 31.9245 54.6436 33.9593 56.1439 35.4596C57.6442 36.9599 59.679 37.8027 61.8008 37.8027C63.9225 37.8027 65.9573 36.9599 67.4576 35.4596C68.9579 33.9593 69.8008 31.9245 69.8008 29.8027C69.8008 27.681 68.9579 25.6462 67.4576 24.1459C65.9573 22.6456 63.9225 21.8027 61.8008 21.8027Z" fill="url(#paint3_radial_2783_136148)"/>
<path d="M20.1953 21.8027C18.0736 21.8027 16.0387 22.6456 14.5385 24.1459C13.0382 25.6462 12.1953 27.681 12.1953 29.8027C12.1953 31.9245 13.0382 33.9593 14.5385 35.4596C16.0387 36.9599 18.0736 37.8027 20.1953 37.8027C22.317 37.8027 24.3519 36.9599 25.8522 35.4596C27.3525 33.9593 28.1953 31.9245 28.1953 29.8027C28.1953 27.681 27.3525 25.6462 25.8522 24.1459C24.3519 22.6456 22.317 21.8027 20.1953 21.8027Z" fill="url(#paint4_radial_2783_136148)"/>
<path d="M32.9953 37.8027C31.7223 37.8027 30.5014 38.3084 29.6012 39.2086C28.701 40.1088 28.1953 41.3297 28.1953 42.6027V53.8027C28.1953 57.1975 29.5439 60.4532 31.9443 62.8537C34.3448 65.2542 37.6005 66.6027 40.9953 66.6027C44.3901 66.6027 47.6458 65.2542 50.0463 62.8537C52.4467 60.4532 53.7953 57.1975 53.7953 53.8027V42.6027C53.7953 41.3297 53.2896 40.1088 52.3894 39.2086C51.4893 38.3084 50.2684 37.8027 48.9953 37.8027H32.9953Z" fill="url(#paint5_radial_2783_136148)"/>
<defs>
<radialGradient id="paint0_radial_2783_136148" cx="0" cy="0" r="1" gradientUnits="userSpaceOnUse" gradientTransform="translate(51.7066 46.8856) rotate(78.837) scale(20.0998 20.0998)">
<stop stop-color="#0078D4"/>
<stop offset="1" stop-color="#004695"/>
</radialGradient>
<radialGradient id="paint1_radial_2783_136148" cx="0" cy="0" r="1" gradientUnits="userSpaceOnUse" gradientTransform="translate(18.9118 40.4858) rotate(61.056) scale(29.8474 21.4843)">
<stop stop-color="#008CE2"/>
<stop offset="1" stop-color="#0068C6"/>
</radialGradient>
<radialGradient id="paint2_radial_2783_136148" cx="0" cy="0" r="1" gradientUnits="userSpaceOnUse" gradientTransform="translate(39.1473 22.1435) rotate(59.931) scale(11.9925)">
<stop offset="0.339" stop-color="#3DCBFF"/>
<stop offset="1" stop-color="#14B1FF"/>
</radialGradient>
<radialGradient id="paint3_radial_2783_136148" cx="0" cy="0" r="1" gradientUnits="userSpaceOnUse" gradientTransform="translate(59.2339 26.2882) rotate(78.837) scale(11.7361)">
<stop stop-color="#0078D4"/>
<stop offset="1" stop-color="#004695"/>
</radialGradient>
<radialGradient id="paint4_radial_2783_136148" cx="0" cy="0" r="1" gradientUnits="userSpaceOnUse" gradientTransform="translate(16.8269 26.6524) rotate(47.573) scale(13.1192)">
<stop stop-color="#008CE2"/>
<stop offset="1" stop-color="#0068C6"/>
</radialGradient>
<radialGradient id="paint5_radial_2783_136148" cx="0" cy="0" r="1" gradientUnits="userSpaceOnUse" gradientTransform="translate(38.5313 47.9147) rotate(62.7688) scale(17.5085 16.4287)">
<stop offset="0.339" stop-color="#3DCBFF"/>
<stop offset="1" stop-color="#14B1FF"/>
</radialGradient>
</defs>
</svg>
