<svg width="53" height="18" viewBox="0 0 53 18" fill="none" xmlns="http://www.w3.org/2000/svg">
<rect width="53" height="18" rx="9" fill="#F6911F"/>
<path d="M9.88636 8H9.18182C9.14015 7.79735 9.06724 7.61932 8.96307 7.46591C8.8608 7.3125 8.7358 7.18371 8.58807 7.07955C8.44223 6.97348 8.2803 6.89394 8.10227 6.84091C7.92424 6.78788 7.73864 6.76136 7.54545 6.76136C7.19318 6.76136 6.87405 6.85038 6.58807 7.02841C6.30398 7.20644 6.07765 7.46875 5.90909 7.81534C5.74242 8.16193 5.65909 8.58712 5.65909 9.09091C5.65909 9.5947 5.74242 10.0199 5.90909 10.3665C6.07765 10.7131 6.30398 10.9754 6.58807 11.1534C6.87405 11.3314 7.19318 11.4205 7.54545 11.4205C7.73864 11.4205 7.92424 11.3939 8.10227 11.3409C8.2803 11.2879 8.44223 11.2093 8.58807 11.1051C8.7358 10.9991 8.8608 10.8693 8.96307 10.7159C9.06724 10.5606 9.14015 10.3826 9.18182 10.1818H9.88636C9.83333 10.4792 9.73674 10.7453 9.59659 10.9801C9.45644 11.215 9.2822 11.4148 9.07386 11.5795C8.86553 11.7424 8.63163 11.8665 8.37216 11.9517C8.11458 12.0369 7.83902 12.0795 7.54545 12.0795C7.04924 12.0795 6.60795 11.9583 6.22159 11.7159C5.83523 11.4735 5.53125 11.1288 5.30966 10.6818C5.08807 10.2348 4.97727 9.70455 4.97727 9.09091C4.97727 8.47727 5.08807 7.94697 5.30966 7.5C5.53125 7.05303 5.83523 6.70833 6.22159 6.46591C6.60795 6.22348 7.04924 6.10227 7.54545 6.10227C7.83902 6.10227 8.11458 6.14489 8.37216 6.23011C8.63163 6.31534 8.86553 6.44034 9.07386 6.60511C9.2822 6.76799 9.45644 6.96686 9.59659 7.2017C9.73674 7.43466 9.83333 7.70076 9.88636 8ZM12.7067 12.0909C12.3127 12.0909 11.9671 11.9972 11.6697 11.8097C11.3743 11.6222 11.1432 11.3598 10.9766 11.0227C10.8118 10.6856 10.7294 10.2917 10.7294 9.84091C10.7294 9.38636 10.8118 8.98958 10.9766 8.65057C11.1432 8.31155 11.3743 8.0483 11.6697 7.8608C11.9671 7.6733 12.3127 7.57955 12.7067 7.57955C13.1006 7.57955 13.4453 7.6733 13.7408 7.8608C14.0381 8.0483 14.2692 8.31155 14.4339 8.65057C14.6006 8.98958 14.6839 9.38636 14.6839 9.84091C14.6839 10.2917 14.6006 10.6856 14.4339 11.0227C14.2692 11.3598 14.0381 11.6222 13.7408 11.8097C13.4453 11.9972 13.1006 12.0909 12.7067 12.0909ZM12.7067 11.4886C13.0059 11.4886 13.2521 11.4119 13.4453 11.2585C13.6385 11.1051 13.7815 10.9034 13.8743 10.6534C13.9671 10.4034 14.0135 10.1326 14.0135 9.84091C14.0135 9.54924 13.9671 9.27746 13.8743 9.02557C13.7815 8.77367 13.6385 8.57008 13.4453 8.41477C13.2521 8.25947 13.0059 8.18182 12.7067 8.18182C12.4074 8.18182 12.1612 8.25947 11.968 8.41477C11.7749 8.57008 11.6319 8.77367 11.5391 9.02557C11.4463 9.27746 11.3999 9.54924 11.3999 9.84091C11.3999 10.1326 11.4463 10.4034 11.5391 10.6534C11.6319 10.9034 11.7749 11.1051 11.968 11.2585C12.1612 11.4119 12.4074 11.4886 12.7067 11.4886ZM15.7074 12V7.63636H16.3551V8.31818H16.4119C16.5028 8.08523 16.6496 7.90436 16.8523 7.77557C17.0549 7.64489 17.2983 7.57955 17.5824 7.57955C17.8703 7.57955 18.1098 7.64489 18.3011 7.77557C18.4943 7.90436 18.6449 8.08523 18.7528 8.31818H18.7983C18.91 8.0928 19.0777 7.91383 19.3011 7.78125C19.5246 7.64678 19.7926 7.57955 20.1051 7.57955C20.4953 7.57955 20.8144 7.7017 21.0625 7.94602C21.3106 8.18845 21.4347 8.56629 21.4347 9.07955V12H20.7642V9.07955C20.7642 8.75758 20.6761 8.52746 20.5 8.3892C20.3239 8.25095 20.1165 8.18182 19.8778 8.18182C19.571 8.18182 19.3333 8.27462 19.1648 8.46023C18.9962 8.64394 18.9119 8.87689 18.9119 9.15909V12H18.2301V9.01136C18.2301 8.76326 18.1496 8.56345 17.9886 8.41193C17.8277 8.25852 17.6203 8.18182 17.3665 8.18182C17.1922 8.18182 17.0294 8.22822 16.8778 8.32102C16.7282 8.41383 16.607 8.54261 16.5142 8.70739C16.4233 8.87027 16.3778 9.05871 16.3778 9.27273V12H15.7074ZM22.6605 12V7.63636H23.3082V8.31818H23.3651C23.456 8.08523 23.6027 7.90436 23.8054 7.77557C24.008 7.64489 24.2514 7.57955 24.5355 7.57955C24.8234 7.57955 25.063 7.64489 25.2543 7.77557C25.4474 7.90436 25.598 8.08523 25.706 8.31818H25.7514C25.8632 8.0928 26.0308 7.91383 26.2543 7.78125C26.4777 7.64678 26.7457 7.57955 27.0582 7.57955C27.4484 7.57955 27.7675 7.7017 28.0156 7.94602C28.2637 8.18845 28.3878 8.56629 28.3878 9.07955V12H27.7173V9.07955C27.7173 8.75758 27.6293 8.52746 27.4531 8.3892C27.277 8.25095 27.0696 8.18182 26.831 8.18182C26.5241 8.18182 26.2865 8.27462 26.1179 8.46023C25.9493 8.64394 25.8651 8.87689 25.8651 9.15909V12H25.1832V9.01136C25.1832 8.76326 25.1027 8.56345 24.9418 8.41193C24.7808 8.25852 24.5734 8.18182 24.3196 8.18182C24.1454 8.18182 23.9825 8.22822 23.831 8.32102C23.6813 8.41383 23.5601 8.54261 23.4673 8.70739C23.3764 8.87027 23.331 9.05871 23.331 9.27273V12H22.6605ZM32.3636 10.2159V7.63636H33.0341V12H32.3636V11.2614H32.3182C32.2159 11.483 32.0568 11.6714 31.8409 11.8267C31.625 11.9801 31.3523 12.0568 31.0227 12.0568C30.75 12.0568 30.5076 11.9972 30.2955 11.8778C30.0833 11.7566 29.9167 11.5748 29.7955 11.3324C29.6742 11.0881 29.6136 10.7803 29.6136 10.4091V7.63636H30.2841V10.3636C30.2841 10.6818 30.3731 10.9356 30.5511 11.125C30.7311 11.3144 30.9602 11.4091 31.2386 11.4091C31.4053 11.4091 31.5748 11.3665 31.7472 11.2812C31.9214 11.196 32.0672 11.0653 32.1847 10.8892C32.304 10.7131 32.3636 10.4886 32.3636 10.2159ZM34.9325 9.375V12H34.2621V7.63636H34.9098V8.31818H34.9666C35.0689 8.09659 35.2242 7.91856 35.4325 7.78409C35.6409 7.64773 35.9098 7.57955 36.2393 7.57955C36.5348 7.57955 36.7933 7.64015 37.0149 7.76136C37.2365 7.88068 37.4089 8.0625 37.532 8.30682C37.6551 8.54924 37.7166 8.85606 37.7166 9.22727V12H37.0462V9.27273C37.0462 8.92992 36.9571 8.66288 36.7791 8.47159C36.6011 8.27841 36.3568 8.18182 36.0462 8.18182C35.8321 8.18182 35.6409 8.22822 35.4723 8.32102C35.3056 8.41383 35.174 8.54924 35.0774 8.72727C34.9808 8.9053 34.9325 9.12121 34.9325 9.375ZM38.9418 12V7.63636H39.6122V12H38.9418ZM39.2827 6.90909C39.152 6.90909 39.0393 6.86458 38.9446 6.77557C38.8518 6.68655 38.8054 6.57955 38.8054 6.45455C38.8054 6.32955 38.8518 6.22254 38.9446 6.13352C39.0393 6.04451 39.152 6 39.2827 6C39.4134 6 39.5251 6.04451 39.6179 6.13352C39.7126 6.22254 39.7599 6.32955 39.7599 6.45455C39.7599 6.57955 39.7126 6.68655 39.6179 6.77557C39.5251 6.86458 39.4134 6.90909 39.2827 6.90909ZM42.7379 7.63636V8.20455H40.4766V7.63636H42.7379ZM41.1357 6.59091H41.8061V10.75C41.8061 10.9394 41.8336 11.0814 41.8885 11.1761C41.9453 11.2689 42.0173 11.3314 42.1044 11.3636C42.1934 11.3939 42.2872 11.4091 42.3857 11.4091C42.4595 11.4091 42.5201 11.4053 42.5675 11.3977C42.6148 11.3883 42.6527 11.3807 42.6811 11.375L42.8175 11.9773C42.772 11.9943 42.7086 12.0114 42.6271 12.0284C42.5457 12.0473 42.4425 12.0568 42.3175 12.0568C42.1281 12.0568 41.9425 12.0161 41.7607 11.9347C41.5807 11.8532 41.4311 11.7292 41.3118 11.5625C41.1944 11.3958 41.1357 11.1856 41.1357 10.9318V6.59091ZM44.1783 13.6364C44.0646 13.6364 43.9633 13.6269 43.8743 13.608C43.7853 13.5909 43.7237 13.5739 43.6896 13.5568L43.8601 12.9659C44.023 13.0076 44.1669 13.0227 44.2919 13.0114C44.4169 13 44.5277 12.9441 44.6243 12.8438C44.7228 12.7453 44.8127 12.5852 44.8942 12.3636L45.0192 12.0227L43.4055 7.63636H44.1328L45.3374 11.1136H45.3828L46.5874 7.63636H47.3146L45.4624 12.6364C45.379 12.8617 45.2758 13.0483 45.1527 13.196C45.0296 13.3456 44.8866 13.4564 44.7237 13.5284C44.5627 13.6004 44.3809 13.6364 44.1783 13.6364Z" fill="white"/>
</svg>
