<svg width="36" height="36" viewBox="0 0 36 36" fill="none" xmlns="http://www.w3.org/2000/svg">
<rect width="36" height="36" rx="18" fill="#E3FFE5"/>
<path d="M20.4462 17.592C20.1389 17.5096 19.8114 17.5527 19.5358 17.7117C19.2602 17.8707 19.0591 18.1327 18.9766 18.44L18.459 20.372C18.2505 21.188 18.3721 22.0534 18.7975 22.7803C19.2229 23.5073 19.9177 24.0372 20.7313 24.2552C21.5449 24.4732 22.4116 24.3615 23.1435 23.9446C23.8753 23.5276 24.4132 22.839 24.6406 22.028L25.1582 20.0968C25.2406 19.7894 25.1975 19.462 25.0385 19.1864C24.8795 18.9108 24.6175 18.7096 24.3102 18.6272L20.4462 17.592Z" fill="url(#paint0_radial_2570_11348)"/>
<path d="M15.5505 17.592C15.8579 17.5096 16.1853 17.5527 16.4609 17.7117C16.7365 17.8707 16.9376 18.1327 17.0201 18.44L17.5377 20.372C17.652 20.7796 17.6842 21.2058 17.6326 21.626C17.581 22.0462 17.4465 22.452 17.2369 22.8198C17.0273 23.1877 16.7469 23.5102 16.4117 23.7689C16.0766 24.0276 15.6935 24.2172 15.2846 24.3267C14.8756 24.4363 14.449 24.4636 14.0295 24.4071C13.6099 24.3506 13.2057 24.2114 12.8403 23.9976C12.475 23.7838 12.1556 23.4996 11.9009 23.1615C11.6461 22.8234 11.4609 22.4381 11.3561 22.028L10.8377 20.0968C10.797 19.9445 10.7866 19.7858 10.8072 19.6295C10.8278 19.4733 10.8789 19.3226 10.9577 19.1862C11.0366 19.0497 11.1415 18.9301 11.2665 18.8342C11.3916 18.7383 11.5343 18.6679 11.6865 18.6272L15.5505 17.592Z" fill="url(#paint1_radial_2570_11348)"/>
<path d="M17.9977 11.6C17.3611 11.6 16.7507 11.8528 16.3006 12.3029C15.8505 12.753 15.5977 13.3635 15.5977 14C15.5977 14.6365 15.8505 15.2469 16.3006 15.697C16.7507 16.1471 17.3611 16.4 17.9977 16.4C18.6342 16.4 19.2446 16.1471 19.6947 15.697C20.1448 15.2469 20.3977 14.6365 20.3977 14C20.3977 13.3635 20.1448 12.753 19.6947 12.3029C19.2446 11.8528 18.6342 11.6 17.9977 11.6Z" fill="url(#paint2_radial_2570_11348)"/>
<path d="M23.1992 13.2C22.6688 13.2 22.1601 13.4107 21.785 13.7858C21.4099 14.1608 21.1992 14.6695 21.1992 15.2C21.1992 15.7304 21.4099 16.2391 21.785 16.6142C22.1601 16.9893 22.6688 17.2 23.1992 17.2C23.7297 17.2 24.2384 16.9893 24.6134 16.6142C24.9885 16.2391 25.1992 15.7304 25.1992 15.2C25.1992 14.6695 24.9885 14.1608 24.6134 13.7858C24.2384 13.4107 23.7297 13.2 23.1992 13.2Z" fill="url(#paint3_radial_2570_11348)"/>
<path d="M12.7969 13.2C12.2664 13.2 11.7577 13.4107 11.3827 13.7858C11.0076 14.1608 10.7969 14.6695 10.7969 15.2C10.7969 15.7304 11.0076 16.2391 11.3827 16.6142C11.7577 16.9893 12.2664 17.2 12.7969 17.2C13.3273 17.2 13.836 16.9893 14.2111 16.6142C14.5862 16.2391 14.7969 15.7304 14.7969 15.2C14.7969 14.6695 14.5862 14.1608 14.2111 13.7858C13.836 13.4107 13.3273 13.2 12.7969 13.2Z" fill="url(#paint4_radial_2570_11348)"/>
<path d="M15.9969 17.2C15.6786 17.2 15.3734 17.3264 15.1483 17.5515C14.9233 17.7765 14.7969 18.0817 14.7969 18.4V21.2C14.7969 22.0487 15.134 22.8626 15.7341 23.4627C16.3342 24.0628 17.1482 24.4 17.9969 24.4C18.8456 24.4 19.6595 24.0628 20.2596 23.4627C20.8597 22.8626 21.1969 22.0487 21.1969 21.2V18.4C21.1969 18.0817 21.0704 17.7765 20.8454 17.5515C20.6204 17.3264 20.3151 17.2 19.9969 17.2H15.9969Z" fill="url(#paint5_radial_2570_11348)"/>
<defs>
<radialGradient id="paint0_radial_2570_11348" cx="0" cy="0" r="1" gradientUnits="userSpaceOnUse" gradientTransform="translate(20.6747 19.4712) rotate(78.837) scale(5.02495 5.02495)">
<stop stop-color="#0078D4"/>
<stop offset="1" stop-color="#004695"/>
</radialGradient>
<radialGradient id="paint1_radial_2570_11348" cx="0" cy="0" r="1" gradientUnits="userSpaceOnUse" gradientTransform="translate(12.476 17.8712) rotate(61.056) scale(7.46186 5.37106)">
<stop stop-color="#008CE2"/>
<stop offset="1" stop-color="#0068C6"/>
</radialGradient>
<radialGradient id="paint2_radial_2570_11348" cx="0" cy="0" r="1" gradientUnits="userSpaceOnUse" gradientTransform="translate(17.5359 13.2853) rotate(59.931) scale(2.99814)">
<stop offset="0.339" stop-color="#3DCBFF"/>
<stop offset="1" stop-color="#14B1FF"/>
</radialGradient>
<radialGradient id="paint3_radial_2570_11348" cx="0" cy="0" r="1" gradientUnits="userSpaceOnUse" gradientTransform="translate(22.5575 14.3214) rotate(78.837) scale(2.93403)">
<stop stop-color="#0078D4"/>
<stop offset="1" stop-color="#004695"/>
</radialGradient>
<radialGradient id="paint4_radial_2570_11348" cx="0" cy="0" r="1" gradientUnits="userSpaceOnUse" gradientTransform="translate(11.9548 14.4124) rotate(47.573) scale(3.27979)">
<stop stop-color="#008CE2"/>
<stop offset="1" stop-color="#0068C6"/>
</radialGradient>
<radialGradient id="paint5_radial_2570_11348" cx="0" cy="0" r="1" gradientUnits="userSpaceOnUse" gradientTransform="translate(17.3809 19.728) rotate(62.7688) scale(4.37713 4.10718)">
<stop offset="0.339" stop-color="#3DCBFF"/>
<stop offset="1" stop-color="#14B1FF"/>
</radialGradient>
</defs>
</svg>
