<svg width="71" height="20" viewBox="0 0 71 20" fill="none" xmlns="http://www.w3.org/2000/svg">
<rect width="71" height="20" rx="10" fill="#42BE65"/>
<path d="M17.1393 9.09233H16.0313C15.9887 8.85559 15.9094 8.64725 15.7934 8.46733C15.6774 8.28741 15.5354 8.13471 15.3673 8.00923C15.1992 7.88376 15.011 7.78906 14.8026 7.72514C14.5967 7.66122 14.3777 7.62926 14.1457 7.62926C13.7267 7.62926 13.3514 7.73461 13.02 7.94531C12.6909 8.15601 12.4305 8.46496 12.2387 8.87216C12.0493 9.27936 11.9546 9.77652 11.9546 10.3636C11.9546 10.9555 12.0493 11.455 12.2387 11.8622C12.4305 12.2694 12.6921 12.5772 13.0235 12.7855C13.355 12.9938 13.7278 13.098 14.1421 13.098C14.3718 13.098 14.5896 13.0672 14.7955 13.0057C15.0039 12.9418 15.1921 12.8482 15.3602 12.7251C15.5283 12.602 15.6703 12.4517 15.7863 12.2741C15.9047 12.0942 15.9864 11.8883 16.0313 11.6562L17.1393 11.6598C17.0801 12.0173 16.9653 12.3464 16.7948 12.647C16.6267 12.9453 16.4101 13.2034 16.145 13.4212C15.8822 13.6366 15.5815 13.8035 15.243 13.9219C14.9044 14.0402 14.5351 14.0994 14.135 14.0994C13.5053 14.0994 12.9442 13.9503 12.4518 13.652C11.9594 13.3513 11.5711 12.9216 11.287 12.3629C11.0053 11.8042 10.8644 11.1378 10.8644 10.3636C10.8644 9.58712 11.0065 8.92069 11.2906 8.36435C11.5747 7.80563 11.9629 7.37713 12.4553 7.07884C12.9478 6.77817 13.5077 6.62784 14.135 6.62784C14.5209 6.62784 14.8808 6.68348 15.2146 6.79474C15.5508 6.90365 15.8526 7.06463 16.1201 7.2777C16.3876 7.4884 16.609 7.74645 16.7842 8.05185C16.9594 8.35488 17.0777 8.7017 17.1393 9.09233ZM20.6647 14.1101C20.1533 14.1101 19.7071 13.9929 19.3259 13.7585C18.9448 13.5241 18.6488 13.1963 18.4381 12.7749C18.2274 12.3535 18.1221 11.861 18.1221 11.2976C18.1221 10.7318 18.2274 10.237 18.4381 9.81321C18.6488 9.38944 18.9448 9.06037 19.3259 8.82599C19.7071 8.59162 20.1533 8.47443 20.6647 8.47443C21.176 8.47443 21.6223 8.59162 22.0035 8.82599C22.3846 9.06037 22.6805 9.38944 22.8912 9.81321C23.1019 10.237 23.2073 10.7318 23.2073 11.2976C23.2073 11.861 23.1019 12.3535 22.8912 12.7749C22.6805 13.1963 22.3846 13.5241 22.0035 13.7585C21.6223 13.9929 21.176 14.1101 20.6647 14.1101ZM20.6682 13.2188C20.9997 13.2188 21.2743 13.1312 21.4921 12.956C21.7099 12.7808 21.8709 12.5476 21.9751 12.2564C22.0816 11.9652 22.1349 11.6444 22.1349 11.294C22.1349 10.946 22.0816 10.6264 21.9751 10.3352C21.8709 10.0417 21.7099 9.80611 21.4921 9.62855C21.2743 9.45099 20.9997 9.36222 20.6682 9.36222C20.3344 9.36222 20.0574 9.45099 19.8373 9.62855C19.6195 9.80611 19.4573 10.0417 19.3508 10.3352C19.2466 10.6264 19.1945 10.946 19.1945 11.294C19.1945 11.6444 19.2466 11.9652 19.3508 12.2564C19.4573 12.5476 19.6195 12.7808 19.8373 12.956C20.0574 13.1312 20.3344 13.2188 20.6682 13.2188ZM25.4543 10.7614V14H24.3925V8.54545H25.4117V9.43324H25.4791C25.6046 9.14441 25.8011 8.91241 26.0686 8.73722C26.3385 8.56203 26.6782 8.47443 27.0878 8.47443C27.4595 8.47443 27.785 8.55256 28.0644 8.70881C28.3437 8.86269 28.5603 9.09233 28.7142 9.39773C28.8681 9.70312 28.945 10.0807 28.945 10.5305V14H27.8833V10.6584C27.8833 10.263 27.7803 9.95407 27.5743 9.73153C27.3683 9.50663 27.0854 9.39418 26.7256 9.39418C26.4794 9.39418 26.2604 9.44744 26.0686 9.55398C25.8792 9.66051 25.7289 9.81676 25.6176 10.0227C25.5087 10.2263 25.4543 10.4725 25.4543 10.7614ZM31.4308 10.7614V14H30.3691V8.54545H31.3882V9.43324H31.4557C31.5812 9.14441 31.7777 8.91241 32.0452 8.73722C32.3151 8.56203 32.6548 8.47443 33.0644 8.47443C33.436 8.47443 33.7616 8.55256 34.0409 8.70881C34.3203 8.86269 34.5369 9.09233 34.6908 9.39773C34.8447 9.70312 34.9216 10.0807 34.9216 10.5305V14H33.8598V10.6584C33.8598 10.263 33.7568 9.95407 33.5509 9.73153C33.3449 9.50663 33.062 9.39418 32.7021 9.39418C32.4559 9.39418 32.2369 9.44744 32.0452 9.55398C31.8558 9.66051 31.7055 9.81676 31.5942 10.0227C31.4853 10.2263 31.4308 10.4725 31.4308 10.7614ZM38.6965 14.1101C38.1591 14.1101 37.6962 13.9953 37.308 13.7656C36.9221 13.5336 36.6238 13.2081 36.4131 12.7891C36.2048 12.3677 36.1006 11.8741 36.1006 11.3082C36.1006 10.7495 36.2048 10.2571 36.4131 9.83097C36.6238 9.40483 36.9173 9.07221 37.2938 8.8331C37.6726 8.59399 38.1153 8.47443 38.6219 8.47443C38.9297 8.47443 39.228 8.52533 39.5168 8.62713C39.8056 8.72893 40.0648 8.88873 40.2945 9.10653C40.5241 9.32434 40.7052 9.60724 40.8378 9.95526C40.9704 10.3009 41.0367 10.7211 41.0367 11.2159V11.5923H36.7007V10.7969H39.9962C39.9962 10.5175 39.9394 10.2701 39.8257 10.0547C39.7121 9.83688 39.5523 9.66525 39.3463 9.53977C39.1427 9.4143 38.9036 9.35156 38.629 9.35156C38.3307 9.35156 38.0703 9.42495 37.8477 9.57173C37.6276 9.71615 37.4571 9.90554 37.3364 10.1399C37.218 10.3719 37.1588 10.6241 37.1588 10.8963V11.5178C37.1588 11.8823 37.2227 12.1925 37.3506 12.4482C37.4808 12.7038 37.6619 12.8991 37.8939 13.0341C38.1259 13.1667 38.397 13.233 38.7071 13.233C38.9084 13.233 39.0918 13.2045 39.2575 13.1477C39.4233 13.0885 39.5665 13.0009 39.6872 12.8849C39.808 12.7689 39.9003 12.6257 39.9642 12.4553L40.9692 12.6364C40.8887 12.9323 40.7443 13.1915 40.536 13.4141C40.33 13.6342 40.0708 13.8059 39.7583 13.929C39.4481 14.0497 39.0942 14.1101 38.6965 14.1101ZM44.5123 14.1101C43.9844 14.1101 43.5299 13.9905 43.1487 13.7514C42.7699 13.5099 42.4787 13.1773 42.2751 12.7536C42.0715 12.3298 41.9697 11.8445 41.9697 11.2976C41.9697 10.7436 42.0739 10.2547 42.2822 9.83097C42.4906 9.40483 42.7841 9.07221 43.1629 8.8331C43.5417 8.59399 43.988 8.47443 44.5017 8.47443C44.916 8.47443 45.2853 8.55137 45.6096 8.70526C45.934 8.85677 46.1956 9.06984 46.3944 9.34446C46.5957 9.61908 46.7152 9.93987 46.7531 10.3068H45.7197C45.6629 10.0511 45.5327 9.83097 45.3291 9.64631C45.1279 9.46165 44.858 9.36932 44.5194 9.36932C44.2235 9.36932 43.9643 9.44744 43.7417 9.60369C43.5216 9.75758 43.3499 9.97775 43.2268 10.2642C43.1037 10.5483 43.0422 10.8845 43.0422 11.2727C43.0422 11.6705 43.1025 12.0137 43.2233 12.3026C43.344 12.5914 43.5145 12.8151 43.7346 12.9737C43.9572 13.1323 44.2188 13.2116 44.5194 13.2116C44.7207 13.2116 44.903 13.175 45.0663 13.1016C45.232 13.0258 45.3705 12.9181 45.4818 12.7784C45.5954 12.6387 45.6747 12.4706 45.7197 12.2741H46.7531C46.7152 12.6269 46.6004 12.9418 46.4086 13.2188C46.2169 13.4957 45.96 13.7135 45.6381 13.8722C45.3184 14.0308 44.9432 14.1101 44.5123 14.1101ZM50.4347 8.54545V9.39773H47.4553V8.54545H50.4347ZM48.2544 7.23864H49.3161V12.3984C49.3161 12.6044 49.3469 12.7595 49.4085 12.8636C49.47 12.9654 49.5493 13.0353 49.6464 13.0732C49.7458 13.1087 49.8535 13.1264 49.9695 13.1264C50.0548 13.1264 50.1294 13.1205 50.1933 13.1087C50.2572 13.0968 50.3069 13.0874 50.3424 13.0803L50.5342 13.9574C50.4726 13.9811 50.385 14.0047 50.2714 14.0284C50.1578 14.0545 50.0157 14.0687 49.8453 14.071C49.5659 14.0758 49.3055 14.026 49.064 13.9219C48.8225 13.8177 48.6272 13.6567 48.4781 13.4389C48.3289 13.2211 48.2544 12.9477 48.2544 12.6186V7.23864ZM53.8483 14.1101C53.3369 14.1101 52.8907 13.9929 52.5095 13.7585C52.1283 13.5241 51.8324 13.1963 51.6217 12.7749C51.411 12.3535 51.3057 11.861 51.3057 11.2976C51.3057 10.7318 51.411 10.237 51.6217 9.81321C51.8324 9.38944 52.1283 9.06037 52.5095 8.82599C52.8907 8.59162 53.3369 8.47443 53.8483 8.47443C54.3596 8.47443 54.8059 8.59162 55.1871 8.82599C55.5682 9.06037 55.8641 9.38944 56.0748 9.81321C56.2855 10.237 56.3909 10.7318 56.3909 11.2976C56.3909 11.861 56.2855 12.3535 56.0748 12.7749C55.8641 13.1963 55.5682 13.5241 55.1871 13.7585C54.8059 13.9929 54.3596 14.1101 53.8483 14.1101ZM53.8518 13.2188C54.1833 13.2188 54.4579 13.1312 54.6757 12.956C54.8935 12.7808 55.0545 12.5476 55.1586 12.2564C55.2652 11.9652 55.3184 11.6444 55.3184 11.294C55.3184 10.946 55.2652 10.6264 55.1586 10.3352C55.0545 10.0417 54.8935 9.80611 54.6757 9.62855C54.4579 9.45099 54.1833 9.36222 53.8518 9.36222C53.518 9.36222 53.241 9.45099 53.0209 9.62855C52.8031 9.80611 52.6409 10.0417 52.5344 10.3352C52.4302 10.6264 52.3781 10.946 52.3781 11.294C52.3781 11.6444 52.4302 11.9652 52.5344 12.2564C52.6409 12.5476 52.8031 12.7808 53.0209 12.956C53.241 13.1312 53.518 13.2188 53.8518 13.2188ZM57.5761 14V8.54545H58.6024V9.41193H58.6592C58.7586 9.11837 58.9338 8.88755 59.1847 8.71946C59.4381 8.54901 59.7245 8.46378 60.0441 8.46378C60.1104 8.46378 60.1885 8.46615 60.2785 8.47088C60.3708 8.47562 60.443 8.48153 60.4951 8.48864V9.50426C60.4525 9.49242 60.3767 9.4794 60.2678 9.4652C60.1589 9.44863 60.05 9.44034 59.9411 9.44034C59.6902 9.44034 59.4665 9.49361 59.27 9.60014C59.0758 9.70431 58.922 9.84991 58.8083 10.0369C58.6947 10.2216 58.6379 10.4323 58.6379 10.669V14H57.5761Z" fill="white"/>
</svg>
