<svg width="42" height="42" viewBox="0 0 42 42" fill="none" xmlns="http://www.w3.org/2000/svg">
<rect x="0.5" y="0.5" width="41" height="41" rx="20.5" fill="white"/>
<rect x="0.5" y="0.5" width="41" height="41" rx="20.5" stroke="#E5E5E5"/>
<path d="M23.6641 9H18.3307C13.3027 9 10.7881 9 9.22673 10.5627C7.6654 12.1253 7.66406 14.6387 7.66406 19.6667C7.66406 24.6947 7.66406 27.2093 9.22673 28.7707C10.7894 30.332 13.3027 30.3333 18.3307 30.3333H23.6641C28.6921 30.3333 31.2067 30.3333 32.7681 28.7707C34.3294 27.208 34.3307 24.6947 34.3307 19.6667C34.3307 14.6387 34.3307 12.124 32.7681 10.5627C31.2054 9.00133 28.6921 9 23.6641 9Z" stroke="#F6911F" stroke-width="2" stroke-linecap="round" stroke-linejoin="round"/>
<path d="M27.5307 25.6667C27.5307 25.1009 27.7555 24.5583 28.1556 24.1582C28.5556 23.7581 29.0983 23.5333 29.6641 23.5333M23.2641 25.6667C23.2641 23.9693 23.9383 22.3414 25.1386 21.1412C26.3388 19.941 27.9667 19.2667 29.6641 19.2667M18.9974 25.6667C18.9974 22.8377 20.1212 20.1246 22.1216 18.1242C24.122 16.1238 26.8351 15 29.6641 15M28.9974 30.3333L30.3307 33M12.9974 30.3333L11.6641 33" stroke="#F6911F" stroke-width="2" stroke-linecap="round" stroke-linejoin="round"/>
</svg>
