<svg width="53" height="18" viewBox="0 0 53 18" fill="none" xmlns="http://www.w3.org/2000/svg">
<rect width="53" height="18" rx="9" fill="#F6911F"/>
<path d="M11.8864 8H11.1818C11.1402 7.79735 11.0672 7.61932 10.9631 7.46591C10.8608 7.3125 10.7358 7.18371 10.5881 7.07955C10.4422 6.97348 10.2803 6.89394 10.1023 6.84091C9.92424 6.78788 9.73864 6.76136 9.54545 6.76136C9.19318 6.76136 8.87405 6.85038 8.58807 7.02841C8.30398 7.20644 8.07765 7.46875 7.90909 7.81534C7.74242 8.16193 7.65909 8.58712 7.65909 9.09091C7.65909 9.5947 7.74242 10.0199 7.90909 10.3665C8.07765 10.7131 8.30398 10.9754 8.58807 11.1534C8.87405 11.3314 9.19318 11.4205 9.54545 11.4205C9.73864 11.4205 9.92424 11.3939 10.1023 11.3409C10.2803 11.2879 10.4422 11.2093 10.5881 11.1051C10.7358 10.9991 10.8608 10.8693 10.9631 10.7159C11.0672 10.5606 11.1402 10.3826 11.1818 10.1818H11.8864C11.8333 10.4792 11.7367 10.7453 11.5966 10.9801C11.4564 11.215 11.2822 11.4148 11.0739 11.5795C10.8655 11.7424 10.6316 11.8665 10.3722 11.9517C10.1146 12.0369 9.83902 12.0795 9.54545 12.0795C9.04924 12.0795 8.60795 11.9583 8.22159 11.7159C7.83523 11.4735 7.53125 11.1288 7.30966 10.6818C7.08807 10.2348 6.97727 9.70455 6.97727 9.09091C6.97727 8.47727 7.08807 7.94697 7.30966 7.5C7.53125 7.05303 7.83523 6.70833 8.22159 6.46591C8.60795 6.22348 9.04924 6.10227 9.54545 6.10227C9.83902 6.10227 10.1146 6.14489 10.3722 6.23011C10.6316 6.31534 10.8655 6.44034 11.0739 6.60511C11.2822 6.76799 11.4564 6.96686 11.5966 7.2017C11.7367 7.43466 11.8333 7.70076 11.8864 8ZM14.7067 12.0909C14.3127 12.0909 13.9671 11.9972 13.6697 11.8097C13.3743 11.6222 13.1432 11.3598 12.9766 11.0227C12.8118 10.6856 12.7294 10.2917 12.7294 9.84091C12.7294 9.38636 12.8118 8.98958 12.9766 8.65057C13.1432 8.31155 13.3743 8.0483 13.6697 7.8608C13.9671 7.6733 14.3127 7.57955 14.7067 7.57955C15.1006 7.57955 15.4453 7.6733 15.7408 7.8608C16.0381 8.0483 16.2692 8.31155 16.4339 8.65057C16.6006 8.98958 16.6839 9.38636 16.6839 9.84091C16.6839 10.2917 16.6006 10.6856 16.4339 11.0227C16.2692 11.3598 16.0381 11.6222 15.7408 11.8097C15.4453 11.9972 15.1006 12.0909 14.7067 12.0909ZM14.7067 11.4886C15.0059 11.4886 15.2521 11.4119 15.4453 11.2585C15.6385 11.1051 15.7815 10.9034 15.8743 10.6534C15.9671 10.4034 16.0135 10.1326 16.0135 9.84091C16.0135 9.54924 15.9671 9.27746 15.8743 9.02557C15.7815 8.77367 15.6385 8.57008 15.4453 8.41477C15.2521 8.25947 15.0059 8.18182 14.7067 8.18182C14.4074 8.18182 14.1612 8.25947 13.968 8.41477C13.7749 8.57008 13.6319 8.77367 13.5391 9.02557C13.4463 9.27746 13.3999 9.54924 13.3999 9.84091C13.3999 10.1326 13.4463 10.4034 13.5391 10.6534C13.6319 10.9034 13.7749 11.1051 13.968 11.2585C14.1612 11.4119 14.4074 11.4886 14.7067 11.4886ZM18.3778 9.375V12H17.7074V7.63636H18.3551V8.31818H18.4119C18.5142 8.09659 18.6695 7.91856 18.8778 7.78409C19.0862 7.64773 19.3551 7.57955 19.6847 7.57955C19.9801 7.57955 20.2386 7.64015 20.4602 7.76136C20.6818 7.88068 20.8542 8.0625 20.9773 8.30682C21.1004 8.54924 21.1619 8.85606 21.1619 9.22727V12H20.4915V9.27273C20.4915 8.92992 20.4025 8.66288 20.2244 8.47159C20.0464 8.27841 19.8021 8.18182 19.4915 8.18182C19.2775 8.18182 19.0862 8.22822 18.9176 8.32102C18.7509 8.41383 18.6193 8.54924 18.5227 8.72727C18.4261 8.9053 18.3778 9.12121 18.3778 9.375ZM23.0575 9.375V12H22.3871V7.63636H23.0348V8.31818H23.0916C23.1939 8.09659 23.3492 7.91856 23.5575 7.78409C23.7659 7.64773 24.0348 7.57955 24.3643 7.57955C24.6598 7.57955 24.9183 7.64015 25.1399 7.76136C25.3615 7.88068 25.5339 8.0625 25.657 8.30682C25.7801 8.54924 25.8416 8.85606 25.8416 9.22727V12H25.1712V9.27273C25.1712 8.92992 25.0821 8.66288 24.9041 8.47159C24.7261 8.27841 24.4818 8.18182 24.1712 8.18182C23.9571 8.18182 23.7659 8.22822 23.5973 8.32102C23.4306 8.41383 23.299 8.54924 23.2024 8.72727C23.1058 8.9053 23.0575 9.12121 23.0575 9.375ZM28.8963 12.0909C28.4759 12.0909 28.1132 11.9981 27.8082 11.8125C27.5052 11.625 27.2713 11.3636 27.1065 11.0284C26.9437 10.6913 26.8622 10.2992 26.8622 9.85227C26.8622 9.4053 26.9437 9.01136 27.1065 8.67045C27.2713 8.32765 27.5005 8.06061 27.794 7.86932C28.0895 7.67614 28.4342 7.57955 28.8281 7.57955C29.0554 7.57955 29.2798 7.61742 29.5014 7.69318C29.723 7.76894 29.9247 7.89205 30.1065 8.0625C30.2884 8.23106 30.4332 8.45455 30.5412 8.73295C30.6491 9.01136 30.7031 9.35417 30.7031 9.76136V10.0455H27.3395V9.46591H30.0213C30.0213 9.2197 29.9721 9 29.8736 8.80682C29.777 8.61364 29.6387 8.46117 29.4588 8.34943C29.2808 8.23769 29.0705 8.18182 28.8281 8.18182C28.5611 8.18182 28.33 8.24811 28.1349 8.38068C27.9418 8.51136 27.7931 8.68182 27.6889 8.89205C27.5848 9.10227 27.5327 9.32765 27.5327 9.56818V9.95455C27.5327 10.2841 27.5895 10.5634 27.7031 10.7926C27.8187 11.0199 27.9787 11.1932 28.1832 11.3125C28.3878 11.4299 28.6255 11.4886 28.8963 11.4886C29.0724 11.4886 29.2315 11.464 29.3736 11.4148C29.5175 11.3636 29.6416 11.2879 29.7457 11.1875C29.8499 11.0852 29.9304 10.9583 29.9872 10.8068L30.6349 10.9886C30.5668 11.2083 30.4522 11.4015 30.2912 11.5682C30.1302 11.733 29.9313 11.8617 29.6946 11.9545C29.4579 12.0455 29.1918 12.0909 28.8963 12.0909ZM33.4957 12.0909C33.0866 12.0909 32.7344 11.9943 32.4389 11.8011C32.1435 11.608 31.9162 11.3419 31.7571 11.0028C31.598 10.6638 31.5185 10.2765 31.5185 9.84091C31.5185 9.39773 31.5999 9.00663 31.7628 8.66761C31.9276 8.3267 32.1567 8.06061 32.4503 7.86932C32.7457 7.67614 33.0904 7.57955 33.4844 7.57955C33.7912 7.57955 34.0677 7.63636 34.3139 7.75C34.5601 7.86364 34.7618 8.02273 34.919 8.22727C35.0762 8.43182 35.1738 8.67045 35.2116 8.94318H34.5412C34.4901 8.74432 34.3764 8.56818 34.2003 8.41477C34.026 8.25947 33.7912 8.18182 33.4957 8.18182C33.2344 8.18182 33.0052 8.25 32.8082 8.38636C32.6132 8.52083 32.4607 8.71117 32.3509 8.95739C32.2429 9.2017 32.1889 9.48864 32.1889 9.81818C32.1889 10.1553 32.242 10.4489 32.348 10.6989C32.456 10.9489 32.6075 11.143 32.8026 11.2812C32.9995 11.4195 33.2306 11.4886 33.4957 11.4886C33.67 11.4886 33.8281 11.4583 33.9702 11.3977C34.1122 11.3371 34.2325 11.25 34.331 11.1364C34.4295 11.0227 34.4995 10.8864 34.5412 10.7273H35.2116C35.1738 10.9848 35.08 11.2169 34.9304 11.4233C34.7827 11.6278 34.5866 11.7907 34.3423 11.9119C34.0999 12.0312 33.8177 12.0909 33.4957 12.0909ZM38.0895 7.63636V8.20455H35.8281V7.63636H38.0895ZM36.4872 6.59091H37.1577V10.75C37.1577 10.9394 37.1851 11.0814 37.2401 11.1761C37.2969 11.2689 37.3688 11.3314 37.456 11.3636C37.545 11.3939 37.6387 11.4091 37.7372 11.4091C37.8111 11.4091 37.8717 11.4053 37.919 11.3977C37.9664 11.3883 38.0043 11.3807 38.0327 11.375L38.169 11.9773C38.1236 11.9943 38.0601 12.0114 37.9787 12.0284C37.8973 12.0473 37.794 12.0568 37.669 12.0568C37.4796 12.0568 37.294 12.0161 37.1122 11.9347C36.9323 11.8532 36.7827 11.7292 36.6634 11.5625C36.5459 11.3958 36.4872 11.1856 36.4872 10.9318V6.59091ZM40.8239 12.0909C40.4299 12.0909 40.0843 11.9972 39.7869 11.8097C39.4915 11.6222 39.2604 11.3598 39.0938 11.0227C38.929 10.6856 38.8466 10.2917 38.8466 9.84091C38.8466 9.38636 38.929 8.98958 39.0938 8.65057C39.2604 8.31155 39.4915 8.0483 39.7869 7.8608C40.0843 7.6733 40.4299 7.57955 40.8239 7.57955C41.2178 7.57955 41.5625 7.6733 41.858 7.8608C42.1553 8.0483 42.3864 8.31155 42.5511 8.65057C42.7178 8.98958 42.8011 9.38636 42.8011 9.84091C42.8011 10.2917 42.7178 10.6856 42.5511 11.0227C42.3864 11.3598 42.1553 11.6222 41.858 11.8097C41.5625 11.9972 41.2178 12.0909 40.8239 12.0909ZM40.8239 11.4886C41.1231 11.4886 41.3693 11.4119 41.5625 11.2585C41.7557 11.1051 41.8987 10.9034 41.9915 10.6534C42.0843 10.4034 42.1307 10.1326 42.1307 9.84091C42.1307 9.54924 42.0843 9.27746 41.9915 9.02557C41.8987 8.77367 41.7557 8.57008 41.5625 8.41477C41.3693 8.25947 41.1231 8.18182 40.8239 8.18182C40.5246 8.18182 40.2784 8.25947 40.0852 8.41477C39.892 8.57008 39.7491 8.77367 39.6562 9.02557C39.5634 9.27746 39.517 9.54924 39.517 9.84091C39.517 10.1326 39.5634 10.4034 39.6562 10.6534C39.7491 10.9034 39.892 11.1051 40.0852 11.2585C40.2784 11.4119 40.5246 11.4886 40.8239 11.4886ZM43.8246 12V7.63636H44.4723V8.29545H44.5178C44.5973 8.07955 44.7412 7.90436 44.9496 7.76989C45.1579 7.63542 45.3928 7.56818 45.6541 7.56818C45.7034 7.56818 45.7649 7.56913 45.8388 7.57102C45.9126 7.57292 45.9685 7.57576 46.0064 7.57955V8.26136C45.9837 8.25568 45.9316 8.24716 45.8501 8.2358C45.7706 8.22254 45.6863 8.21591 45.5973 8.21591C45.3852 8.21591 45.1958 8.26042 45.0291 8.34943C44.8643 8.43655 44.7337 8.55777 44.6371 8.71307C44.5424 8.86648 44.495 9.04167 44.495 9.23864V12H43.8246Z" fill="white"/>
</svg>
