<svg width="16" height="16" viewBox="0 0 16 16" fill="none" xmlns="http://www.w3.org/2000/svg">
<path d="M14.1654 8.00009H5.9287M3.02136 8.00009H1.83203M3.02136 8.00009C3.02136 7.61464 3.17448 7.24498 3.44704 6.97243C3.71959 6.69988 4.08925 6.54676 4.4747 6.54676C4.86015 6.54676 5.22981 6.69988 5.50236 6.97243C5.77491 7.24498 5.92803 7.61464 5.92803 8.00009C5.92803 8.38554 5.77491 8.7552 5.50236 9.02775C5.22981 9.3003 4.86015 9.45342 4.4747 9.45342C4.08925 9.45342 3.71959 9.3003 3.44704 9.02775C3.17448 8.7552 3.02136 8.38554 3.02136 8.00009ZM14.1654 12.4048H10.3334M10.3334 12.4048C10.3334 12.7903 10.1799 13.1604 9.90726 13.433C9.63465 13.7056 9.2649 13.8588 8.87936 13.8588C8.49392 13.8588 8.12426 13.705 7.8517 13.4324C7.57915 13.1599 7.42603 12.7902 7.42603 12.4048M10.3334 12.4048C10.3334 12.0192 10.1799 11.6498 9.90726 11.3772C9.63465 11.1046 9.2649 10.9514 8.87936 10.9514C8.49392 10.9514 8.12426 11.1045 7.8517 11.3771C7.57915 11.6496 7.42603 12.0193 7.42603 12.4048M7.42603 12.4048H1.83203M14.1654 3.59542H12.0954M9.18803 3.59542H1.83203M9.18803 3.59542C9.18803 3.20998 9.34115 2.84031 9.6137 2.56776C9.88626 2.29521 10.2559 2.14209 10.6414 2.14209C10.8322 2.14209 11.0212 2.17968 11.1975 2.25272C11.3739 2.32576 11.5341 2.43281 11.669 2.56776C11.804 2.70272 11.911 2.86293 11.9841 3.03926C12.0571 3.21558 12.0947 3.40457 12.0947 3.59542C12.0947 3.78628 12.0571 3.97526 11.9841 4.15159C11.911 4.32792 11.804 4.48813 11.669 4.62308C11.5341 4.75804 11.3739 4.86509 11.1975 4.93813C11.0212 5.01117 10.8322 5.04876 10.6414 5.04876C10.2559 5.04876 9.88626 4.89564 9.6137 4.62308C9.34115 4.35053 9.18803 3.98087 9.18803 3.59542Z" stroke="black" stroke-miterlimit="10" stroke-linecap="round"/>
</svg>
