<svg width="42" height="42" viewBox="0 0 42 42" fill="none" xmlns="http://www.w3.org/2000/svg">
<circle cx="21" cy="21" r="21" fill="#F5FFF6"/>
<circle cx="21" cy="21" r="16" fill="#E3FFE5"/>
<mask id="mask0_2498_132931" style="mask-type:alpha" maskUnits="userSpaceOnUse" x="9" y="9" width="24" height="24">
<rect x="9" y="9" width="24" height="24" fill="#D9D9D9"/>
</mask>
<g mask="url(#mask0_2498_132931)">
<path d="M21 31C19.6167 31 18.3167 30.7375 17.1 30.2125C15.8833 29.6875 14.825 28.975 13.925 28.075C13.025 27.175 12.3125 26.1167 11.7875 24.9C11.2625 23.6833 11 22.3833 11 21C11 19.6167 11.2625 18.3167 11.7875 17.1C12.3125 15.8833 13.025 14.825 13.925 13.925C14.825 13.025 15.8833 12.3125 17.1 11.7875C18.3167 11.2625 19.6167 11 21 11C22.0833 11 23.1083 11.1583 24.075 11.475C25.0417 11.7917 25.9333 12.2333 26.75 12.8L25.3 14.275C24.6667 13.875 23.9917 13.5625 23.275 13.3375C22.5583 13.1125 21.8 13 21 13C18.7833 13 16.8958 13.7792 15.3375 15.3375C13.7792 16.8958 13 18.7833 13 21C13 23.2167 13.7792 25.1042 15.3375 26.6625C16.8958 28.2208 18.7833 29 21 29C23.2167 29 25.1042 28.2208 26.6625 26.6625C28.2208 25.1042 29 23.2167 29 21C29 20.7 28.9833 20.4 28.95 20.1C28.9167 19.8 28.8667 19.5083 28.8 19.225L30.425 17.6C30.6083 18.1333 30.75 18.6833 30.85 19.25C30.95 19.8167 31 20.4 31 21C31 22.3833 30.7375 23.6833 30.2125 24.9C29.6875 26.1167 28.975 27.175 28.075 28.075C27.175 28.975 26.1167 29.6875 24.9 30.2125C23.6833 30.7375 22.3833 31 21 31ZM19.6 25.6L15.35 21.35L16.75 19.95L19.6 22.8L29.6 12.775L31 14.175L19.6 25.6Z" fill="#4CAF50"/>
</g>
</svg>
