<svg width="50" height="18" viewBox="0 0 50 18" fill="none" xmlns="http://www.w3.org/2000/svg">
<path d="M9.9987 16.1673H5.9987C2.3787 16.1673 0.832031 14.6207 0.832031 11.0007V7.00065C0.832031 3.38065 2.3787 1.83398 5.9987 1.83398H7.33203C7.60536 1.83398 7.83203 2.06065 7.83203 2.33398C7.83203 2.60732 7.60536 2.83398 7.33203 2.83398H5.9987C2.92536 2.83398 1.83203 3.92732 1.83203 7.00065V11.0007C1.83203 14.074 2.92536 15.1673 5.9987 15.1673H9.9987C13.072 15.1673 14.1654 14.074 14.1654 11.0007V9.66732C14.1654 9.39398 14.392 9.16732 14.6654 9.16732C14.9387 9.16732 15.1654 9.39398 15.1654 9.66732V11.0007C15.1654 14.6207 13.6187 16.1673 9.9987 16.1673Z" fill="#42BE65"/>
<path d="M5.66884 12.7934C5.26217 12.7934 4.88884 12.6467 4.6155 12.38C4.28884 12.0534 4.14884 11.58 4.22217 11.08L4.50884 9.07337C4.56217 8.68671 4.8155 8.18671 5.08884 7.91337L10.3422 2.66004C11.6688 1.33337 13.0155 1.33337 14.3422 2.66004C15.0688 3.38671 15.3955 4.12671 15.3288 4.86671C15.2688 5.46671 14.9488 6.05337 14.3422 6.65337L9.08884 11.9067C8.8155 12.18 8.3155 12.4334 7.92884 12.4867L5.92217 12.7734C5.8355 12.7934 5.74884 12.7934 5.66884 12.7934ZM11.0488 3.36671L5.7955 8.62004C5.66884 8.74671 5.52217 9.04004 5.4955 9.21337L5.20884 11.22C5.18217 11.4134 5.22217 11.5734 5.32217 11.6734C5.42217 11.7734 5.58217 11.8134 5.7755 11.7867L7.78217 11.5C7.9555 11.4734 8.2555 11.3267 8.3755 11.2L13.6288 5.94671C14.0622 5.51337 14.2888 5.12671 14.3222 4.76671C14.3622 4.33337 14.1355 3.87337 13.6288 3.36004C12.5622 2.29337 11.8288 2.59337 11.0488 3.36671Z" fill="#42BE65"/>
<path d="M13.233 7.55319C13.1864 7.55319 13.1397 7.54652 13.0997 7.53319C11.3464 7.03986 9.95305 5.64652 9.45971 3.89319C9.38638 3.62652 9.53971 3.35319 9.80638 3.27319C10.073 3.19986 10.3464 3.35319 10.4197 3.61986C10.8197 5.03986 11.9464 6.16652 13.3664 6.56652C13.633 6.63986 13.7864 6.91985 13.713 7.18652C13.653 7.41319 13.453 7.55319 13.233 7.55319Z" fill="#42BE65"/>
<path d="M25.233 14V3.81818H31.3778V4.91193H26.4659V8.35227H31.0597V9.44602H26.4659V12.9062H31.4574V14H25.233ZM36.3246 14.1591C35.6882 14.1591 35.1264 13.9983 34.6392 13.6768C34.152 13.352 33.7708 12.8946 33.4957 12.3047C33.2206 11.7114 33.0831 11.0104 33.0831 10.2017C33.0831 9.39962 33.2206 8.7036 33.4957 8.11364C33.7708 7.52367 34.1536 7.06794 34.6442 6.74645C35.1347 6.42495 35.7015 6.2642 36.3445 6.2642C36.8416 6.2642 37.2344 6.34706 37.5227 6.51278C37.8144 6.67519 38.0365 6.8608 38.1889 7.0696C38.3447 7.27509 38.4657 7.44413 38.5518 7.5767H38.6513V3.81818H39.8246V14H38.6911V12.8267H38.5518C38.4657 12.9659 38.343 13.1416 38.1839 13.3537C38.0249 13.5625 37.7978 13.7498 37.5028 13.9155C37.2079 14.0779 36.8151 14.1591 36.3246 14.1591ZM36.4837 13.1051C36.9543 13.1051 37.352 12.9825 37.6768 12.7372C38.0017 12.4886 38.2486 12.1456 38.4176 11.7081C38.5866 11.2673 38.6712 10.7585 38.6712 10.1818C38.6712 9.61174 38.5883 9.11293 38.4226 8.68537C38.2569 8.2545 38.0116 7.91974 37.6868 7.68111C37.362 7.43916 36.9609 7.31818 36.4837 7.31818C35.9865 7.31818 35.5722 7.44579 35.2408 7.70099C34.9126 7.95289 34.6657 8.29593 34.5 8.73011C34.3376 9.16098 34.2564 9.64489 34.2564 10.1818C34.2564 10.7254 34.3393 11.2192 34.505 11.6634C34.674 12.1042 34.9226 12.4555 35.2507 12.7173C35.5821 12.9759 35.9931 13.1051 36.4837 13.1051ZM42.1364 14V6.36364H43.3097V14H42.1364ZM42.733 5.09091C42.5043 5.09091 42.3071 5.01302 42.1413 4.85724C41.9789 4.70147 41.8977 4.5142 41.8977 4.29545C41.8977 4.0767 41.9789 3.88944 42.1413 3.73366C42.3071 3.57789 42.5043 3.5 42.733 3.5C42.9616 3.5 43.1572 3.57789 43.3196 3.73366C43.4853 3.88944 43.5682 4.0767 43.5682 4.29545C43.5682 4.5142 43.4853 4.70147 43.3196 4.85724C43.1572 5.01302 42.9616 5.09091 42.733 5.09091ZM48.7797 6.36364V7.35795H44.8223V6.36364H48.7797ZM45.9757 4.53409H47.149V11.8125C47.149 12.1439 47.197 12.3925 47.2931 12.5582C47.3926 12.7206 47.5185 12.83 47.671 12.8864C47.8268 12.9394 47.9908 12.9659 48.1632 12.9659C48.2924 12.9659 48.3985 12.9593 48.4814 12.946C48.5642 12.9295 48.6305 12.9162 48.6802 12.9062L48.9189 13.9602C48.8393 13.9901 48.7283 14.0199 48.5858 14.0497C48.4432 14.0829 48.2626 14.0994 48.0439 14.0994C47.7124 14.0994 47.3876 14.0282 47.0694 13.8857C46.7546 13.7431 46.4927 13.526 46.2839 13.2344C46.0784 12.9427 45.9757 12.5748 45.9757 12.1307V4.53409Z" fill="#42BE65"/>
</svg>
