<svg width="81" height="80" viewBox="0 0 81 80" fill="none" xmlns="http://www.w3.org/2000/svg">
<rect x="0.5" width="80" height="80" rx="40" fill="#F5F5F5"/>
<path d="M40.5006 55.208C41.3625 55.208 42.0849 54.9165 42.6678 54.3335C43.2508 53.7505 43.5423 53.0281 43.5423 52.1663C43.5423 51.3045 43.2508 50.5821 42.6678 49.9991C42.0849 49.4162 41.3625 49.1247 40.5006 49.1247C39.6388 49.1247 38.9164 49.4162 38.3335 49.9991C37.7505 50.5821 37.459 51.3045 37.459 52.1663C37.459 53.0281 37.7505 53.7505 38.3335 54.3335C38.9164 54.9165 39.6388 55.208 40.5006 55.208ZM37.459 43.0413H43.5423V24.7913H37.459V43.0413ZM40.5006 70.4163C36.293 70.4163 32.3388 69.6179 28.6381 68.021C24.9375 66.4241 21.7184 64.257 18.9809 61.5195C16.2434 58.782 14.0762 55.5629 12.4793 51.8622C10.8824 48.1615 10.084 44.2073 10.084 39.9997C10.084 35.792 10.8824 31.8379 12.4793 28.1372C14.0762 24.4365 16.2434 21.2174 18.9809 18.4799C21.7184 15.7424 24.9375 13.5752 28.6381 11.9783C32.3388 10.3814 36.293 9.58301 40.5006 9.58301C44.7083 9.58301 48.6625 10.3814 52.3631 11.9783C56.0638 13.5752 59.2829 15.7424 62.0204 18.4799C64.7579 21.2174 66.9251 24.4365 68.522 28.1372C70.1189 31.8379 70.9173 35.792 70.9173 39.9997C70.9173 44.2073 70.1189 48.1615 68.522 51.8622C66.9251 55.5629 64.7579 58.782 62.0204 61.5195C59.2829 64.257 56.0638 66.4241 52.3631 68.021C48.6625 69.6179 44.7083 70.4163 40.5006 70.4163ZM40.5006 64.333C47.2937 64.333 53.0475 61.9757 57.7621 57.2611C62.4767 52.5465 64.834 46.7927 64.834 39.9997C64.834 33.2066 62.4767 27.4528 57.7621 22.7382C53.0475 18.0236 47.2937 15.6663 40.5006 15.6663C33.7076 15.6663 27.9538 18.0236 23.2392 22.7382C18.5246 27.4528 16.1673 33.2066 16.1673 39.9997C16.1673 46.7927 18.5246 52.5465 23.2392 57.2611C27.9538 61.9757 33.7076 64.333 40.5006 64.333Z" fill="#F6911F"/>
</svg>
