<svg width="170" height="48" viewBox="0 0 170 48" fill="none" xmlns="http://www.w3.org/2000/svg">
<path d="M24 45C35.598 45 45 35.598 45 24C45 12.402 35.598 3 24 3C12.402 3 3 12.402 3 24C3 35.598 12.402 45 24 45Z" fill="url(#paint0_linear_3025_3369)"/>
<path d="M31.8205 30.4224L32.7534 24.4951H26.9178V20.6505C26.9178 19.0286 27.7316 17.4466 30.3453 17.4466H33V12.4005C33 12.4005 30.5918 12 28.2905 12C23.4822 12 20.3425 14.8394 20.3425 19.9776V24.4951H15V30.4224H20.3425V44.7517C21.415 44.916 22.5123 45 23.6301 45C24.7479 45 25.8453 44.916 26.9178 44.7517V30.4224H31.8205Z" fill="white"/>
<path d="M57.7216 33V15.5455H68.9034V18.196H60.8835V22.9347H68.1364V25.5852H60.8835V33H57.7216ZM75.2976 33.2642C74.468 33.2642 73.7209 33.1165 73.0561 32.821C72.397 32.5199 71.8743 32.0767 71.4879 31.4915C71.1072 30.9062 70.9169 30.1847 70.9169 29.3267C70.9169 28.5881 71.0533 27.9773 71.326 27.4943C71.5987 27.0114 71.9709 26.625 72.4425 26.3352C72.9141 26.0455 73.4453 25.8267 74.0362 25.679C74.6328 25.5256 75.2493 25.4148 75.8857 25.3466C76.6527 25.267 77.2749 25.196 77.7521 25.1335C78.2294 25.0653 78.576 24.9631 78.7919 24.8267C79.0135 24.6847 79.1243 24.4659 79.1243 24.1705V24.1193C79.1243 23.4773 78.9339 22.9801 78.5533 22.6278C78.1726 22.2756 77.6243 22.0994 76.9084 22.0994C76.1527 22.0994 75.5533 22.2642 75.1101 22.5938C74.6726 22.9233 74.3771 23.3125 74.2237 23.7614L71.343 23.3523C71.5703 22.5568 71.9453 21.892 72.468 21.358C72.9908 20.8182 73.63 20.4148 74.3857 20.1477C75.1413 19.875 75.9766 19.7386 76.8913 19.7386C77.522 19.7386 78.1499 19.8125 78.7749 19.9602C79.3999 20.108 79.9709 20.3523 80.4879 20.6932C81.005 21.0284 81.4197 21.4858 81.7322 22.0653C82.0504 22.6449 82.2095 23.3693 82.2095 24.2386V33H79.2436V31.2017H79.1413C78.9538 31.5653 78.6896 31.9062 78.3487 32.2244C78.0135 32.5369 77.5902 32.7898 77.0788 32.983C76.5732 33.1705 75.9794 33.2642 75.2976 33.2642ZM76.0987 30.9972C76.718 30.9972 77.255 30.875 77.7095 30.6307C78.1641 30.3807 78.5135 30.0511 78.7578 29.642C79.0078 29.233 79.1328 28.7869 79.1328 28.304V26.7614C79.0362 26.8409 78.8714 26.9148 78.6385 26.983C78.4112 27.0511 78.1555 27.1108 77.8714 27.1619C77.5874 27.2131 77.3061 27.2585 77.0277 27.2983C76.7493 27.3381 76.5078 27.3722 76.3033 27.4006C75.843 27.4631 75.4311 27.5653 75.0675 27.7074C74.7038 27.8494 74.4169 28.0483 74.2067 28.304C73.9964 28.554 73.8913 28.8778 73.8913 29.2756C73.8913 29.8438 74.0987 30.2727 74.5135 30.5625C74.9283 30.8523 75.4567 30.9972 76.0987 30.9972ZM91.022 33.2557C89.7152 33.2557 88.593 32.9688 87.6555 32.3949C86.7237 31.821 86.005 31.0284 85.4993 30.017C84.9993 29 84.7493 27.8295 84.7493 26.5057C84.7493 25.1761 85.005 24.0028 85.5163 22.9858C86.0277 21.9631 86.7493 21.1676 87.6811 20.5994C88.6186 20.0256 89.7266 19.7386 91.005 19.7386C92.0675 19.7386 93.0078 19.9347 93.826 20.3267C94.6499 20.7131 95.3061 21.2614 95.7947 21.9716C96.2834 22.6761 96.5618 23.5 96.63 24.4432H93.6811C93.5618 23.8125 93.2777 23.2869 92.8288 22.8665C92.3857 22.4403 91.7919 22.2273 91.0476 22.2273C90.4169 22.2273 89.8629 22.3977 89.3857 22.7386C88.9084 23.0739 88.5362 23.5568 88.2692 24.1875C88.0078 24.8182 87.8771 25.5739 87.8771 26.4545C87.8771 27.3466 88.0078 28.1136 88.2692 28.7557C88.5305 29.392 88.897 29.8835 89.3686 30.2301C89.8459 30.571 90.4055 30.7415 91.0476 30.7415C91.5021 30.7415 91.9084 30.6562 92.2663 30.4858C92.63 30.3097 92.9339 30.0568 93.1783 29.7273C93.4226 29.3977 93.5902 28.9972 93.6811 28.5256H96.63C96.5561 29.4517 96.2834 30.2727 95.8118 30.9886C95.3402 31.6989 94.6982 32.2557 93.8857 32.6591C93.0732 33.0568 92.1186 33.2557 91.022 33.2557ZM104.959 33.2557C103.646 33.2557 102.513 32.983 101.558 32.4375C100.609 31.8864 99.8793 31.108 99.3679 30.1023C98.8565 29.0909 98.6009 27.9006 98.6009 26.5312C98.6009 25.1847 98.8565 24.0028 99.3679 22.9858C99.8849 21.9631 100.607 21.1676 101.533 20.5994C102.459 20.0256 103.547 19.7386 104.797 19.7386C105.604 19.7386 106.365 19.8693 107.081 20.1307C107.803 20.3864 108.439 20.7841 108.99 21.3239C109.547 21.8636 109.984 22.5511 110.303 23.3864C110.621 24.2159 110.78 25.2045 110.78 26.3523V27.2983H100.05V25.2188H107.822C107.817 24.6278 107.689 24.1023 107.439 23.642C107.189 23.1761 106.839 22.8097 106.391 22.5426C105.947 22.2756 105.43 22.142 104.839 22.142C104.209 22.142 103.655 22.2955 103.178 22.6023C102.7 22.9034 102.328 23.3011 102.061 23.7955C101.8 24.2841 101.666 24.821 101.661 25.4062V27.2216C101.661 27.983 101.8 28.6364 102.078 29.1818C102.357 29.7216 102.746 30.1364 103.246 30.4261C103.746 30.7102 104.331 30.8523 105.001 30.8523C105.45 30.8523 105.857 30.7898 106.22 30.6648C106.584 30.5341 106.899 30.3438 107.166 30.0938C107.433 29.8438 107.635 29.5341 107.771 29.1648L110.652 29.4886C110.47 30.25 110.124 30.9148 109.612 31.483C109.107 32.0455 108.459 32.483 107.669 32.7955C106.879 33.1023 105.976 33.2557 104.959 33.2557ZM113.526 33V15.5455H116.612V22.0739H116.739C116.898 21.7557 117.123 21.4176 117.413 21.0597C117.702 20.696 118.094 20.3864 118.589 20.1307C119.083 19.8693 119.714 19.7386 120.481 19.7386C121.492 19.7386 122.404 19.9972 123.217 20.5142C124.035 21.0256 124.683 21.7841 125.16 22.7898C125.643 23.7898 125.884 25.017 125.884 26.4716C125.884 27.9091 125.648 29.1307 125.177 30.1364C124.705 31.142 124.063 31.9091 123.251 32.4375C122.438 32.9659 121.518 33.2301 120.489 33.2301C119.739 33.2301 119.117 33.1051 118.623 32.8551C118.129 32.6051 117.731 32.304 117.43 31.9517C117.134 31.5937 116.904 31.2557 116.739 30.9375H116.56V33H113.526ZM116.552 26.4545C116.552 27.3011 116.671 28.0426 116.91 28.679C117.154 29.3153 117.504 29.8125 117.958 30.1705C118.418 30.5227 118.975 30.6989 119.629 30.6989C120.31 30.6989 120.881 30.517 121.342 30.1534C121.802 29.7841 122.148 29.2812 122.381 28.6449C122.62 28.0028 122.739 27.2727 122.739 26.4545C122.739 25.642 122.623 24.9205 122.39 24.2898C122.157 23.6591 121.81 23.1648 121.35 22.8068C120.89 22.4489 120.316 22.2699 119.629 22.2699C118.969 22.2699 118.41 22.4432 117.95 22.7898C117.489 23.1364 117.14 23.6222 116.901 24.2472C116.668 24.8722 116.552 25.608 116.552 26.4545ZM134.217 33.2557C132.939 33.2557 131.831 32.9744 130.893 32.4119C129.956 31.8494 129.229 31.0625 128.712 30.0511C128.2 29.0398 127.945 27.858 127.945 26.5057C127.945 25.1534 128.2 23.9687 128.712 22.9517C129.229 21.9347 129.956 21.1449 130.893 20.5824C131.831 20.0199 132.939 19.7386 134.217 19.7386C135.496 19.7386 136.604 20.0199 137.541 20.5824C138.479 21.1449 139.203 21.9347 139.714 22.9517C140.232 23.9687 140.49 25.1534 140.49 26.5057C140.49 27.858 140.232 29.0398 139.714 30.0511C139.203 31.0625 138.479 31.8494 137.541 32.4119C136.604 32.9744 135.496 33.2557 134.217 33.2557ZM134.234 30.7841C134.928 30.7841 135.507 30.5937 135.973 30.2131C136.439 29.8267 136.786 29.3097 137.013 28.6619C137.246 28.0142 137.362 27.2926 137.362 26.4972C137.362 25.696 137.246 24.9716 137.013 24.3239C136.786 23.6705 136.439 23.1506 135.973 22.7642C135.507 22.3778 134.928 22.1847 134.234 22.1847C133.524 22.1847 132.933 22.3778 132.462 22.7642C131.996 23.1506 131.646 23.6705 131.413 24.3239C131.186 24.9716 131.072 25.696 131.072 26.4972C131.072 27.2926 131.186 28.0142 131.413 28.6619C131.646 29.3097 131.996 29.8267 132.462 30.2131C132.933 30.5937 133.524 30.7841 134.234 30.7841ZM148.819 33.2557C147.54 33.2557 146.433 32.9744 145.495 32.4119C144.558 31.8494 143.83 31.0625 143.313 30.0511C142.802 29.0398 142.546 27.858 142.546 26.5057C142.546 25.1534 142.802 23.9687 143.313 22.9517C143.83 21.9347 144.558 21.1449 145.495 20.5824C146.433 20.0199 147.54 19.7386 148.819 19.7386C150.097 19.7386 151.205 20.0199 152.143 20.5824C153.08 21.1449 153.805 21.9347 154.316 22.9517C154.833 23.9687 155.092 25.1534 155.092 26.5057C155.092 27.858 154.833 29.0398 154.316 30.0511C153.805 31.0625 153.08 31.8494 152.143 32.4119C151.205 32.9744 150.097 33.2557 148.819 33.2557ZM148.836 30.7841C149.529 30.7841 150.109 30.5937 150.575 30.2131C151.04 29.8267 151.387 29.3097 151.614 28.6619C151.847 28.0142 151.964 27.2926 151.964 26.4972C151.964 25.696 151.847 24.9716 151.614 24.3239C151.387 23.6705 151.04 23.1506 150.575 22.7642C150.109 22.3778 149.529 22.1847 148.836 22.1847C148.126 22.1847 147.535 22.3778 147.063 22.7642C146.597 23.1506 146.248 23.6705 146.015 24.3239C145.788 24.9716 145.674 25.696 145.674 26.4972C145.674 27.2926 145.788 28.0142 146.015 28.6619C146.248 29.3097 146.597 29.8267 147.063 30.2131C147.535 30.5937 148.126 30.7841 148.836 30.7841ZM160.523 28.892L160.514 25.1676H161.009L165.713 19.9091H169.318L163.531 26.3523H162.892L160.523 28.892ZM157.71 33V15.5455H160.795V33H157.71ZM165.926 33L161.665 27.0426L163.744 24.8693L169.616 33H165.926Z" fill="#161616"/>
<defs>
<linearGradient id="paint0_linear_3025_3369" x1="24" y1="3" x2="24" y2="44.8755" gradientUnits="userSpaceOnUse">
<stop stop-color="#18ACFE"/>
<stop offset="1" stop-color="#0163E0"/>
</linearGradient>
</defs>
</svg>
