<svg width="46" height="21" viewBox="0 0 46 21" fill="none" xmlns="http://www.w3.org/2000/svg">
<rect width="46" height="21" rx="10.5" fill="#24A148" fill-opacity="0.94"/>
<path d="M9.23295 15.5V5.31818H15.3381V6.41193H10.4659V9.85227H14.8807V10.946H10.4659V15.5H9.23295ZM17.2086 15.5V7.86364H18.3422V9.01705H18.4217C18.5609 8.6392 18.8128 8.33262 19.1774 8.0973C19.542 7.86198 19.9529 7.74432 20.4103 7.74432C20.4965 7.74432 20.6042 7.74597 20.7335 7.74929C20.8627 7.7526 20.9605 7.75758 21.0268 7.7642V8.95739C20.987 8.94744 20.8959 8.93253 20.7534 8.91264C20.6142 8.88944 20.4667 8.87784 20.3109 8.87784C19.9397 8.87784 19.6083 8.95573 19.3166 9.11151C19.0282 9.26397 18.7995 9.47609 18.6305 9.74787C18.4648 10.0163 18.3819 10.3229 18.3819 10.6676V15.5H17.2086ZM25.3869 15.6591C24.6511 15.6591 24.0164 15.4967 23.4828 15.1719C22.9525 14.8438 22.5431 14.3864 22.2548 13.7997C21.9698 13.2098 21.8272 12.5237 21.8272 11.7415C21.8272 10.9593 21.9698 10.2699 22.2548 9.6733C22.5431 9.07339 22.9442 8.60606 23.4579 8.27131C23.975 7.93324 24.5782 7.7642 25.2676 7.7642C25.6653 7.7642 26.0581 7.83049 26.4458 7.96307C26.8336 8.09564 27.1866 8.31108 27.5048 8.60938C27.823 8.90436 28.0765 9.29545 28.2654 9.78267C28.4544 10.2699 28.5488 10.8698 28.5488 11.5824V12.0795H22.6625V11.0653H27.3556C27.3556 10.6345 27.2695 10.25 27.0971 9.91193C26.9281 9.57386 26.6861 9.30705 26.3713 9.11151C26.0597 8.91596 25.6918 8.81818 25.2676 8.81818C24.8002 8.81818 24.3959 8.93419 24.0545 9.16619C23.7164 9.39489 23.4563 9.69318 23.274 10.0611C23.0917 10.429 23.0005 10.8234 23.0005 11.2443V11.9205C23.0005 12.4972 23.1 12.986 23.2988 13.3871C23.501 13.7848 23.7811 14.0881 24.139 14.2969C24.497 14.5024 24.9129 14.6051 25.3869 14.6051C25.6951 14.6051 25.9735 14.562 26.2221 14.4759C26.474 14.3864 26.6911 14.2538 26.8734 14.0781C27.0557 13.8991 27.1966 13.6771 27.296 13.4119L28.4295 13.7301C28.3102 14.1146 28.1097 14.4527 27.8279 14.7443C27.5462 15.0327 27.1982 15.258 26.7839 15.4205C26.3696 15.5795 25.9039 15.6591 25.3869 15.6591ZM33.5353 15.6591C32.7995 15.6591 32.1648 15.4967 31.6312 15.1719C31.1009 14.8438 30.6916 14.3864 30.4032 13.7997C30.1182 13.2098 29.9757 12.5237 29.9757 11.7415C29.9757 10.9593 30.1182 10.2699 30.4032 9.6733C30.6916 9.07339 31.0926 8.60606 31.6064 8.27131C32.1234 7.93324 32.7266 7.7642 33.416 7.7642C33.8137 7.7642 34.2065 7.83049 34.5943 7.96307C34.9821 8.09564 35.3351 8.31108 35.6532 8.60938C35.9714 8.90436 36.225 9.29545 36.4139 9.78267C36.6028 10.2699 36.6973 10.8698 36.6973 11.5824V12.0795H30.8109V11.0653H35.5041C35.5041 10.6345 35.4179 10.25 35.2456 9.91193C35.0765 9.57386 34.8346 9.30705 34.5197 9.11151C34.2082 8.91596 33.8403 8.81818 33.416 8.81818C32.9487 8.81818 32.5443 8.93419 32.2029 9.16619C31.8649 9.39489 31.6047 9.69318 31.4224 10.0611C31.2401 10.429 31.149 10.8234 31.149 11.2443V11.9205C31.149 12.4972 31.2484 12.986 31.4473 13.3871C31.6494 13.7848 31.9295 14.0881 32.2875 14.2969C32.6454 14.5024 33.0614 14.6051 33.5353 14.6051C33.8436 14.6051 34.122 14.562 34.3706 14.4759C34.6225 14.3864 34.8395 14.2538 35.0218 14.0781C35.2041 13.8991 35.345 13.6771 35.4444 13.4119L36.5779 13.7301C36.4586 14.1146 36.2581 14.4527 35.9764 14.7443C35.6947 15.0327 35.3467 15.258 34.9324 15.4205C34.5181 15.5795 34.0524 15.6591 33.5353 15.6591Z" fill="white"/>
</svg>
