<svg width="42" height="42" viewBox="0 0 42 42" fill="none" xmlns="http://www.w3.org/2000/svg">
<rect x="0.5" y="0.5" width="41" height="41" rx="20.5" fill="white"/>
<rect x="0.5" y="0.5" width="41" height="41" rx="20.5" stroke="#E5E5E5"/>
<path d="M31.7 11.9719C31.7063 11.9812 31.7156 11.9906 31.7219 12C33.7687 14.4344 35 17.5719 35 21C35 24.4281 33.7688 27.5656 31.725 30C31.7188 30.0094 31.7094 30.0156 31.7031 30.025C31.6688 30.0656 31.6375 30.1031 31.6031 30.1406C31.5906 30.1562 31.5781 30.1687 31.5656 30.1844L31.4375 30.3313L31.4344 30.3344C31.3875 30.3875 31.3375 30.4406 31.2906 30.4938L31.2875 30.4969C31.1875 30.6031 31.0875 30.7094 30.9844 30.8125L30.9813 30.8156L30.8312 30.9656L30.8219 30.975C30.775 31.0219 30.7281 31.0656 30.6812 31.1094C30.6656 31.125 30.65 31.1406 30.6313 31.1562C30.6 31.1875 30.5688 31.2156 30.5375 31.2438C30.5281 31.2531 30.5156 31.2625 30.5063 31.275C28.0125 33.5875 24.6719 35 21 35C17.3281 35 13.9875 33.5875 11.4906 31.275C11.4812 31.2656 11.4688 31.2563 11.4594 31.2438C11.4281 31.2156 11.3969 31.1844 11.3656 31.1531C11.35 31.1375 11.3344 31.1219 11.3156 31.1062C11.2688 31.0625 11.2219 31.0156 11.175 30.9719L11.1656 30.9625L11.0156 30.8125L11.0125 30.8094C10.9094 30.7062 10.8094 30.6 10.7094 30.4938L10.7063 30.4906C10.6563 30.4375 10.6094 30.3844 10.5625 30.3313L10.5594 30.3281C10.5156 30.2812 10.4719 30.2313 10.4313 30.1813C10.4188 30.1656 10.4063 30.1531 10.3938 30.1375C10.3594 30.1 10.3281 30.0594 10.2937 30.0219C10.2875 30.0125 10.2781 30.0062 10.2719 29.9969C8.23125 27.5656 7 24.4281 7 21C7 17.5719 8.23125 14.4344 10.275 12C10.2812 11.9906 10.2906 11.9812 10.2969 11.9719L10.3938 11.8563C10.4063 11.8406 10.4188 11.8281 10.4313 11.8125L10.5594 11.6656C10.5594 11.6625 10.5625 11.6625 10.5625 11.6594C10.6094 11.6062 10.6563 11.5531 10.7063 11.5031L10.7094 11.5C10.8094 11.3937 10.9094 11.2875 11.0094 11.1844L11.0125 11.1812C11.0625 11.1313 11.1094 11.0812 11.1594 11.0344L11.1687 11.025C11.2719 10.9219 11.3781 10.8219 11.4844 10.725C13.9875 8.4125 17.3281 7 21 7C24.6719 7 28.0125 8.4125 30.5094 10.725C30.6158 10.8226 30.72 10.9226 30.8219 11.025L30.8312 11.0344C30.8812 11.0844 30.9312 11.1313 30.9781 11.1812L30.9813 11.1844C31.0844 11.2875 31.1844 11.3937 31.2812 11.5L31.2844 11.5031C31.3312 11.5562 31.3813 11.6062 31.4281 11.6594C31.4281 11.6625 31.4312 11.6625 31.4312 11.6656C31.475 11.7125 31.5188 11.7625 31.5594 11.8125C31.5719 11.8281 31.5844 11.8406 31.5969 11.8563C31.6322 11.8939 31.6666 11.9325 31.7 11.9719ZM31.8281 16.4281C31.3969 15.4094 30.8281 14.4656 30.1344 13.6094C29.3531 14.2846 28.4988 14.8706 27.5875 15.3563C27.95 16.8219 28.175 18.4312 28.2344 20.125H32.7188C32.625 18.8469 32.325 17.6063 31.8281 16.4281ZM32.7188 21.875H28.2344C28.175 23.5688 27.95 25.1781 27.5875 26.6438C28.5031 27.1313 29.3562 27.7188 30.1344 28.3906C31.6424 26.5345 32.5445 24.2602 32.7188 21.875ZM25.5719 31.8281C26.8125 31.3031 27.9406 30.5781 28.9344 29.6656C28.3571 29.1741 27.7357 28.7368 27.0781 28.3594C26.5875 29.7656 25.9594 30.9875 25.2281 31.9656C25.3438 31.9219 25.4594 31.875 25.5719 31.8281ZM22.7406 9.93438C22.4531 9.70938 22.1656 9.5375 21.875 9.42188V15.2188C23.115 15.1322 24.3343 14.8561 25.4906 14.4C25.2313 13.6313 24.9312 12.9219 24.5844 12.2812C24.0406 11.2687 23.4031 10.4594 22.7406 9.93438ZM24.5844 29.7188C24.9281 29.075 25.2313 28.3656 25.4906 27.6C24.3343 27.1439 23.115 26.8678 21.875 26.7812V32.575C22.1625 32.4594 22.4531 32.2906 22.7406 32.0625C23.4031 31.5406 24.0406 30.7312 24.5844 29.7188ZM21.875 16.9719V20.125H26.4844C26.4344 18.7437 26.2625 17.4031 25.975 16.1313L25.9656 16.0938C24.6542 16.5911 23.275 16.8871 21.875 16.9719ZM21.875 21.875V25.0281C23.3062 25.1156 24.6813 25.4187 25.9656 25.9062L25.975 25.8687C26.2625 24.5969 26.4344 23.2594 26.4844 21.875H21.875ZM20.125 20.125V16.9719C18.6938 16.8844 17.3188 16.5812 16.0344 16.0938L16.025 16.1313C15.7375 17.4031 15.5656 18.7406 15.5156 20.125H20.125ZM15.5156 21.875C15.5656 23.2563 15.7375 24.5969 16.025 25.8687L16.0344 25.9062C17.3188 25.4187 18.6906 25.1156 20.125 25.0281V21.875H15.5156ZM20.125 15.2188V9.425C19.8375 9.54062 19.5469 9.70938 19.2594 9.9375C18.5969 10.4594 17.9563 11.2719 17.4125 12.2844C17.0688 12.9281 16.7656 13.6375 16.5063 14.4031C17.6688 14.8594 18.8781 15.1313 20.125 15.2188ZM20.125 26.7812C18.885 26.8678 17.6657 27.1439 16.5094 27.6C16.7687 28.3688 17.0687 29.0781 17.4156 29.7188C17.9594 30.7312 18.5969 31.5438 19.2625 32.0656C19.55 32.2906 19.8375 32.4625 20.1281 32.5781V26.7812H20.125ZM16.4281 31.8281C16.5438 31.875 16.6562 31.9219 16.7719 31.9656C16.0406 30.9875 15.4125 29.7656 14.9219 28.3594C14.2656 28.7344 13.6438 29.1719 13.0656 29.6656C14.0594 30.5781 15.1875 31.3031 16.4281 31.8281ZM10.1719 25.5719C10.6031 26.5906 11.1719 27.5344 11.8656 28.3906C12.6437 27.7188 13.4969 27.1313 14.4125 26.6438C14.05 25.1781 13.825 23.5688 13.7656 21.875H9.28125C9.375 23.1531 9.675 24.3937 10.1719 25.5719ZM9.28125 20.125H13.7656C13.825 18.4312 14.05 16.8219 14.4125 15.3563C13.5012 14.8706 12.6469 14.2846 11.8656 13.6094C10.3576 15.4655 9.45552 17.7398 9.28125 20.125ZM16.4281 10.1719C15.1875 10.6969 14.0594 11.4219 13.0656 12.3344C13.6438 12.8281 14.2656 13.2625 14.9219 13.6406C15.4125 12.2344 16.0406 11.0125 16.7719 10.0344C16.6562 10.0781 16.5406 10.125 16.4281 10.1719ZM25.5719 10.1719C25.4562 10.125 25.3438 10.0781 25.2281 10.0344C25.9594 11.0125 26.5875 12.2344 27.0781 13.6406C27.7344 13.2656 28.3563 12.8281 28.9344 12.3344C27.9461 11.4257 26.8086 10.6941 25.5719 10.1719Z" fill="#F6911F"/>
</svg>
