<svg width="89" height="24" viewBox="0 0 89 24" fill="none" xmlns="http://www.w3.org/2000/svg">
<path d="M23.0006 12.2331C23.0006 11.3698 22.9291 10.7398 22.7744 10.0864H12.7148V13.9831H18.6196C18.5006 14.9514 17.8577 16.4097 16.4291 17.3897L16.409 17.5202L19.5897 19.9349L19.8101 19.9564C21.8339 18.1248 23.0006 15.4297 23.0006 12.2331Z" fill="#4285F4"/>
<path d="M12.716 22.5001C15.6088 22.5001 18.0373 21.5667 19.8112 19.9567L16.4302 17.3899C15.5254 18.0083 14.3111 18.4399 12.716 18.4399C9.88267 18.4399 7.47791 16.6084 6.62069 14.0767L6.49504 14.0871L3.18778 16.5955L3.14453 16.7133C4.90642 20.1433 8.52547 22.5001 12.716 22.5001Z" fill="#34A853"/>
<path d="M6.619 14.0765C6.39282 13.4232 6.26191 12.7231 6.26191 11.9998C6.26191 11.2764 6.39282 10.5765 6.6071 9.92315L6.60111 9.78395L3.2524 7.23535L3.14284 7.28643C2.41668 8.7098 2 10.3081 2 11.9998C2 13.6914 2.41668 15.2898 3.14284 16.7131L6.619 14.0765Z" fill="#FBBC05"/>
<path d="M12.716 5.55997C14.7279 5.55997 16.085 6.41164 16.8589 7.12335L19.8826 4.23C18.0256 2.53834 15.6088 1.5 12.716 1.5C8.52547 1.5 4.90642 3.85665 3.14453 7.28662L6.60881 9.92332C7.47794 7.39166 9.88267 5.55997 12.716 5.55997Z" fill="#EB4335"/>
<path d="M41.4432 9.57955C41.3485 9.27273 41.2178 8.99811 41.0511 8.75568C40.8883 8.50947 40.6913 8.29924 40.4602 8.125C40.233 7.95076 39.9716 7.82008 39.6761 7.73295C39.3807 7.64205 39.0587 7.59659 38.7102 7.59659C38.0852 7.59659 37.5284 7.75379 37.0398 8.06818C36.5511 8.38258 36.1667 8.8447 35.8864 9.45455C35.6098 10.0606 35.4716 10.7992 35.4716 11.6705C35.4716 12.5492 35.6098 13.2936 35.8864 13.9034C36.1629 14.5133 36.5473 14.9773 37.0398 15.2955C37.5322 15.6098 38.1042 15.767 38.7557 15.767C39.3466 15.767 39.858 15.6534 40.2898 15.4261C40.7254 15.1989 41.0606 14.8769 41.2955 14.4602C41.5303 14.0398 41.6477 13.5473 41.6477 12.983L42.125 13.0568H38.9659V11.4091H43.6875V12.8068C43.6875 13.803 43.4754 14.6648 43.0511 15.392C42.6269 16.1193 42.0436 16.6799 41.3011 17.0739C40.5587 17.464 39.7064 17.6591 38.7443 17.6591C37.6723 17.6591 36.7311 17.4186 35.9205 16.9375C35.1136 16.4527 34.483 15.7652 34.0284 14.875C33.5777 13.9811 33.3523 12.9205 33.3523 11.6932C33.3523 10.7538 33.4848 9.91477 33.75 9.17614C34.0189 8.4375 34.3939 7.81061 34.875 7.29545C35.3561 6.77651 35.9205 6.38258 36.5682 6.11364C37.2159 5.84091 37.9205 5.70455 38.6818 5.70455C39.3258 5.70455 39.9261 5.79924 40.483 5.98864C41.0398 6.17424 41.5341 6.43939 41.9659 6.78409C42.4015 7.12879 42.7595 7.53788 43.0398 8.01136C43.3201 8.48485 43.5038 9.00758 43.5909 9.57955H41.4432ZM49.4418 17.6705C48.5895 17.6705 47.8509 17.483 47.2259 17.108C46.6009 16.733 46.116 16.2083 45.7713 15.5341C45.4304 14.8598 45.2599 14.072 45.2599 13.1705C45.2599 12.2689 45.4304 11.4792 45.7713 10.8011C46.116 10.1231 46.6009 9.59659 47.2259 9.22159C47.8509 8.84659 48.5895 8.65909 49.4418 8.65909C50.294 8.65909 51.0327 8.84659 51.6577 9.22159C52.2827 9.59659 52.7656 10.1231 53.1065 10.8011C53.4512 11.4792 53.6236 12.2689 53.6236 13.1705C53.6236 14.072 53.4512 14.8598 53.1065 15.5341C52.7656 16.2083 52.2827 16.733 51.6577 17.108C51.0327 17.483 50.294 17.6705 49.4418 17.6705ZM49.4531 16.0227C49.9152 16.0227 50.3016 15.8958 50.6122 15.642C50.9228 15.3845 51.1539 15.0398 51.3054 14.608C51.4607 14.1761 51.5384 13.6951 51.5384 13.1648C51.5384 12.6307 51.4607 12.1477 51.3054 11.7159C51.1539 11.2803 50.9228 10.9337 50.6122 10.6761C50.3016 10.4186 49.9152 10.2898 49.4531 10.2898C48.9796 10.2898 48.5857 10.4186 48.2713 10.6761C47.9607 10.9337 47.7277 11.2803 47.5724 11.7159C47.4209 12.1477 47.3452 12.6307 47.3452 13.1648C47.3452 13.6951 47.4209 14.1761 47.5724 14.608C47.7277 15.0398 47.9607 15.3845 48.2713 15.642C48.5857 15.8958 48.9796 16.0227 49.4531 16.0227ZM59.1761 17.6705C58.3239 17.6705 57.5852 17.483 56.9602 17.108C56.3352 16.733 55.8504 16.2083 55.5057 15.5341C55.1648 14.8598 54.9943 14.072 54.9943 13.1705C54.9943 12.2689 55.1648 11.4792 55.5057 10.8011C55.8504 10.1231 56.3352 9.59659 56.9602 9.22159C57.5852 8.84659 58.3239 8.65909 59.1761 8.65909C60.0284 8.65909 60.767 8.84659 61.392 9.22159C62.017 9.59659 62.5 10.1231 62.8409 10.8011C63.1856 11.4792 63.358 12.2689 63.358 13.1705C63.358 14.072 63.1856 14.8598 62.8409 15.5341C62.5 16.2083 62.017 16.733 61.392 17.108C60.767 17.483 60.0284 17.6705 59.1761 17.6705ZM59.1875 16.0227C59.6496 16.0227 60.036 15.8958 60.3466 15.642C60.6572 15.3845 60.8883 15.0398 61.0398 14.608C61.1951 14.1761 61.2727 13.6951 61.2727 13.1648C61.2727 12.6307 61.1951 12.1477 61.0398 11.7159C60.8883 11.2803 60.6572 10.9337 60.3466 10.6761C60.036 10.4186 59.6496 10.2898 59.1875 10.2898C58.714 10.2898 58.3201 10.4186 58.0057 10.6761C57.6951 10.9337 57.4621 11.2803 57.3068 11.7159C57.1553 12.1477 57.0795 12.6307 57.0795 13.1648C57.0795 13.6951 57.1553 14.1761 57.3068 14.608C57.4621 15.0398 57.6951 15.3845 58.0057 15.642C58.3201 15.8958 58.714 16.0227 59.1875 16.0227ZM68.8991 20.9545C68.1605 20.9545 67.526 20.8542 66.9957 20.6534C66.4654 20.4564 66.0393 20.1913 65.7173 19.858C65.3954 19.5246 65.1719 19.1553 65.0469 18.75L66.8991 18.3011C66.9825 18.4716 67.1037 18.6402 67.2628 18.8068C67.4219 18.9773 67.6359 19.1174 67.9048 19.2273C68.1776 19.3409 68.5204 19.3977 68.9332 19.3977C69.5166 19.3977 69.9995 19.2557 70.3821 18.9716C70.7647 18.6913 70.956 18.2292 70.956 17.5852V15.9318H70.8537C70.7476 16.1439 70.5923 16.3617 70.3878 16.5852C70.187 16.8087 69.92 16.9962 69.5866 17.1477C69.2571 17.2992 68.8423 17.375 68.3423 17.375C67.6719 17.375 67.0639 17.2178 66.5185 16.9034C65.9768 16.5852 65.545 16.1117 65.223 15.483C64.9048 14.8504 64.7457 14.0587 64.7457 13.108C64.7457 12.1496 64.9048 11.3409 65.223 10.6818C65.545 10.0189 65.9787 9.51705 66.5241 9.17614C67.0696 8.83144 67.6776 8.65909 68.348 8.65909C68.8594 8.65909 69.2798 8.74621 69.6094 8.92045C69.9427 9.09091 70.2079 9.29735 70.4048 9.53977C70.6018 9.77841 70.7514 10.0038 70.8537 10.2159H70.9673V8.77273H72.9957V17.642C72.9957 18.3883 72.8177 19.0057 72.4616 19.4943C72.1056 19.983 71.6188 20.3485 71.0014 20.5909C70.384 20.8333 69.6832 20.9545 68.8991 20.9545ZM68.9162 15.7614C69.3518 15.7614 69.723 15.6553 70.0298 15.4432C70.3366 15.2311 70.5696 14.9261 70.7287 14.5284C70.8878 14.1307 70.9673 13.6534 70.9673 13.0966C70.9673 12.5473 70.8878 12.0663 70.7287 11.6534C70.5734 11.2405 70.3423 10.9205 70.0355 10.6932C69.7325 10.4621 69.3594 10.3466 68.9162 10.3466C68.4579 10.3466 68.0753 10.4659 67.7685 10.7045C67.4616 10.9432 67.2306 11.2708 67.0753 11.6875C66.92 12.1004 66.8423 12.5701 66.8423 13.0966C66.8423 13.6307 66.92 14.0985 67.0753 14.5C67.2344 14.8977 67.4673 15.2083 67.7741 15.4318C68.0848 15.6515 68.4654 15.7614 68.9162 15.7614ZM77.1605 5.86364V17.5H75.1037V5.86364H77.1605ZM83.1392 17.6705C82.2642 17.6705 81.5085 17.4886 80.8722 17.125C80.2396 16.7576 79.7528 16.2386 79.4119 15.5682C79.071 14.8939 78.9006 14.1004 78.9006 13.1875C78.9006 12.2898 79.071 11.5019 79.4119 10.8239C79.7566 10.142 80.2377 9.61174 80.8551 9.23295C81.4725 8.85038 82.1979 8.65909 83.0312 8.65909C83.5691 8.65909 84.0767 8.74621 84.554 8.92045C85.035 9.09091 85.4593 9.35606 85.8267 9.71591C86.1979 10.0758 86.4896 10.5341 86.7017 11.0909C86.9138 11.6439 87.0199 12.303 87.0199 13.0682V13.6989H79.8665V12.3125H85.0483C85.0445 11.9186 84.9593 11.5682 84.7926 11.2614C84.6259 10.9508 84.393 10.7064 84.0938 10.5284C83.7983 10.3504 83.4536 10.2614 83.0597 10.2614C82.6392 10.2614 82.2699 10.3636 81.9517 10.5682C81.6335 10.7689 81.3854 11.0341 81.2074 11.3636C81.0331 11.6894 80.9441 12.0473 80.9403 12.4375V13.6477C80.9403 14.1553 81.0331 14.5909 81.2188 14.9545C81.4044 15.3144 81.6638 15.5909 81.9972 15.7841C82.3305 15.9735 82.7206 16.0682 83.1676 16.0682C83.4669 16.0682 83.7377 16.0265 83.9801 15.9432C84.2225 15.8561 84.4328 15.7292 84.6108 15.5625C84.7888 15.3958 84.9233 15.1894 85.0142 14.9432L86.9347 15.1591C86.8134 15.6667 86.5824 16.1098 86.2415 16.4886C85.9044 16.8636 85.4725 17.1553 84.946 17.3636C84.4195 17.5682 83.8172 17.6705 83.1392 17.6705Z" fill="#0C1A13"/>
</svg>
