<svg width="82" height="82" viewBox="0 0 82 82" fill="none" xmlns="http://www.w3.org/2000/svg">
<rect width="82" height="82" rx="41" fill="#FFFFDC"/>
<path d="M52.6667 22.3327C52.0478 22.3327 51.4543 22.0869 51.0168 21.6493C50.5792 21.2117 50.3333 20.6182 50.3333 19.9993C50.3333 19.3805 50.5792 18.787 51.0168 18.3494C51.4543 17.9118 52.0478 17.666 52.6667 17.666H62C62.6188 17.666 63.2123 17.9118 63.6499 18.3494C64.0875 18.787 64.3333 19.3805 64.3333 19.9993V29.3327C64.3333 29.9515 64.0875 30.545 63.6499 30.9826C63.2123 31.4202 62.6188 31.666 62 31.666C61.3812 31.666 60.7877 31.4202 60.3501 30.9826C59.9125 30.545 59.6667 29.9515 59.6667 29.3327V25.632L46.1497 39.149C45.7121 39.5864 45.1187 39.8322 44.5 39.8322C43.8813 39.8322 43.2879 39.5864 42.8503 39.149L36.3333 32.632L23.983 44.9823C23.5429 45.4074 22.9535 45.6426 22.3417 45.6373C21.7299 45.6319 21.1447 45.3865 20.7121 44.9539C20.2795 44.5213 20.0341 43.9361 20.0288 43.3243C20.0234 42.7125 20.2586 42.1231 20.6837 41.683L34.6837 27.683C35.1212 27.2456 35.7146 26.9998 36.3333 26.9998C36.9521 26.9998 37.5454 27.2456 37.983 27.683L44.5 34.2L56.3673 22.3327H52.6667ZM24.6667 54.9994V61.9994C24.6667 62.6182 24.4208 63.2117 23.9832 63.6493C23.5457 64.0869 22.9522 64.3327 22.3333 64.3327C21.7145 64.3327 21.121 64.0869 20.6834 63.6493C20.2458 63.2117 20 62.6182 20 61.9994V54.9994C20 54.3805 20.2458 53.787 20.6834 53.3494C21.121 52.9118 21.7145 52.666 22.3333 52.666C22.9522 52.666 23.5457 52.9118 23.9832 53.3494C24.4208 53.787 24.6667 54.3805 24.6667 54.9994ZM36.3333 45.666C36.3333 45.0472 36.0875 44.4537 35.6499 44.0161C35.2123 43.5785 34.6188 43.3327 34 43.3327C33.3812 43.3327 32.7877 43.5785 32.3501 44.0161C31.9125 44.4537 31.6667 45.0472 31.6667 45.666V61.9994C31.6667 62.6182 31.9125 63.2117 32.3501 63.6493C32.7877 64.0869 33.3812 64.3327 34 64.3327C34.6188 64.3327 35.2123 64.0869 35.6499 63.6493C36.0875 63.2117 36.3333 62.6182 36.3333 61.9994V45.666ZM45.6667 47.9994C46.2855 47.9994 46.879 48.2452 47.3166 48.6828C47.7542 49.1204 48 49.7138 48 50.3327V61.9994C48 62.6182 47.7542 63.2117 47.3166 63.6493C46.879 64.0869 46.2855 64.3327 45.6667 64.3327C45.0478 64.3327 44.4543 64.0869 44.0168 63.6493C43.5792 63.2117 43.3333 62.6182 43.3333 61.9994V50.3327C43.3333 49.7138 43.5792 49.1204 44.0168 48.6828C44.4543 48.2452 45.0478 47.9994 45.6667 47.9994ZM59.6667 38.666C59.6667 38.0472 59.4208 37.4537 58.9833 37.0161C58.5457 36.5785 57.9522 36.3327 57.3333 36.3327C56.7145 36.3327 56.121 36.5785 55.6834 37.0161C55.2458 37.4537 55 38.0472 55 38.666V61.9994C55 62.6182 55.2458 63.2117 55.6834 63.6493C56.121 64.0869 56.7145 64.3327 57.3333 64.3327C57.9522 64.3327 58.5457 64.0869 58.9833 63.6493C59.4208 63.2117 59.6667 62.6182 59.6667 61.9994V38.666Z" fill="#AF52DE"/>
</svg>
