<svg width="17" height="16" viewBox="0 0 17 16" fill="none" xmlns="http://www.w3.org/2000/svg">
<path d="M8.4987 15.1673C4.54536 15.1673 1.33203 11.954 1.33203 8.00065C1.33203 4.04732 4.54536 0.833984 8.4987 0.833984C12.452 0.833984 15.6654 4.04732 15.6654 8.00065C15.6654 11.954 12.452 15.1673 8.4987 15.1673ZM8.4987 1.83398C5.0987 1.83398 2.33203 4.60065 2.33203 8.00065C2.33203 11.4007 5.0987 14.1673 8.4987 14.1673C11.8987 14.1673 14.6654 11.4007 14.6654 8.00065C14.6654 4.60065 11.8987 1.83398 8.4987 1.83398Z" fill="#2051FF"/>
<path d="M8.5 9.16634C8.22667 9.16634 8 8.93967 8 8.66634V5.33301C8 5.05967 8.22667 4.83301 8.5 4.83301C8.77333 4.83301 9 5.05967 9 5.33301V8.66634C9 8.93967 8.77333 9.16634 8.5 9.16634Z" fill="#2051FF"/>
<path d="M8.4987 11.3339C8.41203 11.3339 8.32536 11.3139 8.24536 11.2806C8.16536 11.2472 8.09203 11.2006 8.02536 11.1406C7.96536 11.0739 7.9187 11.0072 7.88536 10.9206C7.85203 10.8406 7.83203 10.7539 7.83203 10.6672C7.83203 10.5806 7.85203 10.4939 7.88536 10.4139C7.9187 10.3339 7.96536 10.2606 8.02536 10.1939C8.09203 10.1339 8.16536 10.0872 8.24536 10.0539C8.40536 9.98724 8.59203 9.98724 8.75203 10.0539C8.83203 10.0872 8.90537 10.1339 8.97203 10.1939C9.03203 10.2606 9.0787 10.3339 9.11203 10.4139C9.14537 10.4939 9.16537 10.5806 9.16537 10.6672C9.16537 10.7539 9.14537 10.8406 9.11203 10.9206C9.0787 11.0072 9.03203 11.0739 8.97203 11.1406C8.90537 11.2006 8.83203 11.2472 8.75203 11.2806C8.67203 11.3139 8.58536 11.3339 8.4987 11.3339Z" fill="#2051FF"/>
</svg>
