<svg width="173" height="48" viewBox="0 0 173 48" fill="none" xmlns="http://www.w3.org/2000/svg">
<path d="M36 3H12C7.02944 3 3 7.02944 3 12V36C3 40.9706 7.02944 45 12 45H36C40.9706 45 45 40.9706 45 36V12C45 7.02944 40.9706 3 36 3Z" fill="url(#paint0_radial_3025_3360)"/>
<path d="M36 3H12C7.02944 3 3 7.02944 3 12V36C3 40.9706 7.02944 45 12 45H36C40.9706 45 45 40.9706 45 36V12C45 7.02944 40.9706 3 36 3Z" fill="url(#paint1_radial_3025_3360)"/>
<path d="M36 3H12C7.02944 3 3 7.02944 3 12V36C3 40.9706 7.02944 45 12 45H36C40.9706 45 45 40.9706 45 36V12C45 7.02944 40.9706 3 36 3Z" fill="url(#paint2_radial_3025_3360)"/>
<path d="M34.5 15.75C34.5 16.9926 33.4926 18 32.25 18C31.0074 18 30 16.9926 30 15.75C30 14.5074 31.0074 13.5 32.25 13.5C33.4926 13.5 34.5 14.5074 34.5 15.75Z" fill="white"/>
<path fill-rule="evenodd" clip-rule="evenodd" d="M24 31.5C28.1421 31.5 31.5 28.1421 31.5 24C31.5 19.8579 28.1421 16.5 24 16.5C19.8579 16.5 16.5 19.8579 16.5 24C16.5 28.1421 19.8579 31.5 24 31.5ZM24 28.5C26.4853 28.5 28.5 26.4853 28.5 24C28.5 21.5146 26.4853 19.5 24 19.5C21.5146 19.5 19.5 21.5146 19.5 24C19.5 26.4853 21.5146 28.5 24 28.5Z" fill="white"/>
<path fill-rule="evenodd" clip-rule="evenodd" d="M9 23.4C9 18.3596 9 15.8393 9.98094 13.9141C10.8438 12.2206 12.2206 10.8438 13.9141 9.98094C15.8393 9 18.3596 9 23.4 9H24.6C29.6404 9 32.1607 9 34.0858 9.98094C35.7794 10.8438 37.1562 12.2206 38.019 13.9141C39 15.8393 39 18.3596 39 23.4V24.6C39 29.6404 39 32.1607 38.019 34.0858C37.1562 35.7794 35.7794 37.1562 34.0858 38.019C32.1607 39 29.6404 39 24.6 39H23.4C18.3596 39 15.8393 39 13.9141 38.019C12.2206 37.1562 10.8438 35.7794 9.98094 34.0858C9 32.1607 9 29.6404 9 24.6V23.4ZM23.4 12H24.6C27.1698 12 28.9165 12.0023 30.2668 12.1126C31.5822 12.2201 32.2548 12.4149 32.724 12.654C33.8529 13.2292 34.7707 14.1471 35.346 15.276C35.5851 15.7452 35.7799 16.4178 35.8874 17.7331C35.9976 19.0834 36 20.8302 36 23.4V24.6C36 27.1698 35.9976 28.9165 35.8874 30.2668C35.7799 31.5822 35.5851 32.2548 35.346 32.724C34.7707 33.8529 33.8529 34.7707 32.724 35.346C32.2548 35.5851 31.5822 35.7799 30.2668 35.8874C28.9165 35.9976 27.1698 36 24.6 36H23.4C20.8302 36 19.0834 35.9976 17.7331 35.8874C16.4178 35.7799 15.7452 35.5851 15.276 35.346C14.1471 34.7707 13.2292 33.8529 12.654 32.724C12.4149 32.2548 12.2201 31.5822 12.1126 30.2668C12.0023 28.9165 12 27.1698 12 24.6V23.4C12 20.8302 12.0023 19.0834 12.1126 17.7331C12.2201 16.4178 12.4149 15.7452 12.654 15.276C13.2292 14.1471 14.1471 13.2292 15.276 12.654C15.7452 12.4149 16.4178 12.2201 17.7331 12.1126C19.0834 12.0023 20.8302 12 23.4 12Z" fill="white"/>
<path d="M60.8835 15.5455V33H57.7216V15.5455H60.8835ZM67.2564 25.3295V33H64.1712V19.9091H67.12V22.1335H67.2734C67.5746 21.4006 68.0547 20.8182 68.7138 20.3864C69.3786 19.9545 70.1996 19.7386 71.1768 19.7386C72.0803 19.7386 72.8672 19.9318 73.5376 20.3182C74.2138 20.7045 74.7365 21.2642 75.1058 21.9972C75.4808 22.7301 75.6655 23.6193 75.6598 24.6648V33H72.5746V25.142C72.5746 24.267 72.3473 23.5824 71.8928 23.0881C71.4439 22.5937 70.8217 22.3466 70.0263 22.3466C69.4865 22.3466 69.0064 22.4659 68.5859 22.7045C68.1712 22.9375 67.8445 23.2756 67.6058 23.7188C67.3729 24.1619 67.2564 24.6989 67.2564 25.3295ZM89.1428 23.3693L86.3303 23.6761C86.2507 23.392 86.1115 23.125 85.9126 22.875C85.7195 22.625 85.4581 22.4233 85.1286 22.2699C84.799 22.1165 84.3956 22.0398 83.9183 22.0398C83.2763 22.0398 82.7365 22.179 82.299 22.4574C81.8672 22.7358 81.6541 23.0966 81.6598 23.5398C81.6541 23.9205 81.7933 24.2301 82.0774 24.4688C82.3672 24.7074 82.8445 24.9034 83.5092 25.0568L85.7422 25.5341C86.9808 25.8011 87.9013 26.2244 88.5036 26.804C89.1115 27.3835 89.4183 28.142 89.424 29.0795C89.4183 29.9034 89.1768 30.6307 88.6996 31.2614C88.228 31.8864 87.5717 32.375 86.7308 32.7273C85.8899 33.0795 84.924 33.2557 83.8331 33.2557C82.2308 33.2557 80.9411 32.9205 79.9638 32.25C78.9865 31.5739 78.4041 30.6335 78.2166 29.429L81.2251 29.1392C81.3615 29.7301 81.6513 30.1761 82.0945 30.4773C82.5376 30.7784 83.1143 30.929 83.8246 30.929C84.5575 30.929 85.1456 30.7784 85.5888 30.4773C86.0376 30.1761 86.2621 29.804 86.2621 29.3608C86.2621 28.9858 86.1172 28.6761 85.8274 28.4318C85.5433 28.1875 85.1001 28 84.4979 27.8693L82.2649 27.4006C81.0092 27.1392 80.0803 26.6989 79.478 26.0795C78.8757 25.4545 78.5774 24.6648 78.5831 23.7102C78.5774 22.9034 78.7962 22.2045 79.2393 21.6136C79.6882 21.017 80.3104 20.5568 81.1058 20.233C81.907 19.9034 82.8303 19.7386 83.8757 19.7386C85.4098 19.7386 86.6172 20.0653 87.4979 20.7188C88.3842 21.3722 88.9325 22.2557 89.1428 23.3693ZM98.505 19.9091V22.2955H90.9794V19.9091H98.505ZM92.8374 16.7727H95.9226V29.0625C95.9226 29.4773 95.9851 29.7955 96.1101 30.017C96.2408 30.233 96.4112 30.3807 96.6214 30.4602C96.8317 30.5398 97.0646 30.5795 97.3203 30.5795C97.5135 30.5795 97.6896 30.5653 97.8487 30.5369C98.0135 30.5085 98.1385 30.483 98.2237 30.4602L98.7436 32.8722C98.5788 32.929 98.343 32.9915 98.0362 33.0597C97.7351 33.1278 97.3658 33.1676 96.9283 33.179C96.1555 33.2017 95.4595 33.0852 94.8402 32.8295C94.2209 32.5682 93.7294 32.1648 93.3658 31.6193C93.0078 31.0739 92.8317 30.392 92.8374 29.5739V16.7727ZM104.852 33.2642C104.023 33.2642 103.276 33.1165 102.611 32.821C101.952 32.5199 101.429 32.0767 101.043 31.4915C100.662 30.9062 100.472 30.1847 100.472 29.3267C100.472 28.5881 100.608 27.9773 100.881 27.4943C101.153 27.0114 101.526 26.625 101.997 26.3352C102.469 26.0455 103 25.8267 103.591 25.679C104.188 25.5256 104.804 25.4148 105.44 25.3466C106.207 25.267 106.83 25.196 107.307 25.1335C107.784 25.0653 108.131 24.9631 108.347 24.8267C108.568 24.6847 108.679 24.4659 108.679 24.1705V24.1193C108.679 23.4773 108.489 22.9801 108.108 22.6278C107.727 22.2756 107.179 22.0994 106.463 22.0994C105.707 22.0994 105.108 22.2642 104.665 22.5938C104.227 22.9233 103.932 23.3125 103.778 23.7614L100.898 23.3523C101.125 22.5568 101.5 21.892 102.023 21.358C102.545 20.8182 103.185 20.4148 103.94 20.1477C104.696 19.875 105.531 19.7386 106.446 19.7386C107.077 19.7386 107.705 19.8125 108.33 19.9602C108.955 20.108 109.526 20.3523 110.043 20.6932C110.56 21.0284 110.974 21.4858 111.287 22.0653C111.605 22.6449 111.764 23.3693 111.764 24.2386V33H108.798V31.2017H108.696C108.509 31.5653 108.244 31.9062 107.903 32.2244C107.568 32.5369 107.145 32.7898 106.634 32.983C106.128 33.1705 105.534 33.2642 104.852 33.2642ZM105.653 30.9972C106.273 30.9972 106.81 30.875 107.264 30.6307C107.719 30.3807 108.068 30.0511 108.312 29.642C108.562 29.233 108.688 28.7869 108.688 28.304V26.7614C108.591 26.8409 108.426 26.9148 108.193 26.983C107.966 27.0511 107.71 27.1108 107.426 27.1619C107.142 27.2131 106.861 27.2585 106.582 27.2983C106.304 27.3381 106.063 27.3722 105.858 27.4006C105.398 27.4631 104.986 27.5653 104.622 27.7074C104.259 27.8494 103.972 28.0483 103.761 28.304C103.551 28.554 103.446 28.8778 103.446 29.2756C103.446 29.8438 103.653 30.2727 104.068 30.5625C104.483 30.8523 105.011 30.9972 105.653 30.9972ZM120.56 38.1818C119.452 38.1818 118.5 38.0313 117.705 37.7301C116.909 37.4347 116.27 37.0369 115.787 36.5369C115.304 36.0369 114.969 35.483 114.781 34.875L117.56 34.2017C117.685 34.4574 117.866 34.7102 118.105 34.9602C118.344 35.2159 118.665 35.4261 119.068 35.5909C119.477 35.7614 119.991 35.8466 120.611 35.8466C121.486 35.8466 122.21 35.6335 122.784 35.2074C123.358 34.7869 123.645 34.0938 123.645 33.1278V30.6477H123.491C123.332 30.9659 123.099 31.2926 122.793 31.6278C122.491 31.9631 122.091 32.2443 121.591 32.4716C121.097 32.6989 120.474 32.8125 119.724 32.8125C118.719 32.8125 117.807 32.5767 116.989 32.1051C116.176 31.6278 115.528 30.9176 115.045 29.9744C114.568 29.0256 114.33 27.8381 114.33 26.4119C114.33 24.9744 114.568 23.7614 115.045 22.7727C115.528 21.7784 116.179 21.0256 116.997 20.5142C117.815 19.9972 118.727 19.7386 119.733 19.7386C120.5 19.7386 121.131 19.8693 121.625 20.1307C122.125 20.3864 122.523 20.696 122.818 21.0597C123.114 21.4176 123.338 21.7557 123.491 22.0739H123.662V19.9091H126.705V33.2131C126.705 34.3324 126.438 35.2585 125.903 35.9915C125.369 36.7244 124.639 37.2727 123.713 37.6364C122.787 38 121.736 38.1818 120.56 38.1818ZM120.585 30.392C121.239 30.392 121.795 30.233 122.256 29.9148C122.716 29.5966 123.065 29.1392 123.304 28.5426C123.543 27.946 123.662 27.2301 123.662 26.3949C123.662 25.571 123.543 24.8494 123.304 24.2301C123.071 23.6108 122.724 23.1307 122.264 22.7898C121.81 22.4432 121.25 22.2699 120.585 22.2699C119.898 22.2699 119.324 22.4489 118.864 22.8068C118.403 23.1648 118.057 23.6562 117.824 24.2812C117.591 24.9006 117.474 25.6051 117.474 26.3949C117.474 27.196 117.591 27.8977 117.824 28.5C118.063 29.0966 118.412 29.5625 118.872 29.8977C119.338 30.2273 119.909 30.392 120.585 30.392ZM129.866 33V19.9091H132.858V22.0909H132.994C133.233 21.3352 133.642 20.7528 134.222 20.3438C134.807 19.929 135.474 19.7216 136.224 19.7216C136.395 19.7216 136.585 19.7301 136.795 19.7472C137.011 19.7585 137.19 19.7784 137.332 19.8068V22.6449C137.202 22.5994 136.994 22.5597 136.71 22.5256C136.432 22.4858 136.162 22.4659 135.901 22.4659C135.338 22.4659 134.832 22.5881 134.384 22.8324C133.94 23.071 133.591 23.4034 133.335 23.8295C133.08 24.2557 132.952 24.7472 132.952 25.304V33H129.866ZM142.915 33.2642C142.085 33.2642 141.338 33.1165 140.673 32.821C140.014 32.5199 139.491 32.0767 139.105 31.4915C138.724 30.9062 138.534 30.1847 138.534 29.3267C138.534 28.5881 138.67 27.9773 138.943 27.4943C139.216 27.0114 139.588 26.625 140.06 26.3352C140.531 26.0455 141.063 25.8267 141.653 25.679C142.25 25.5256 142.866 25.4148 143.503 25.3466C144.27 25.267 144.892 25.196 145.369 25.1335C145.847 25.0653 146.193 24.9631 146.409 24.8267C146.631 24.6847 146.741 24.4659 146.741 24.1705V24.1193C146.741 23.4773 146.551 22.9801 146.17 22.6278C145.79 22.2756 145.241 22.0994 144.526 22.0994C143.77 22.0994 143.17 22.2642 142.727 22.5938C142.29 22.9233 141.994 23.3125 141.841 23.7614L138.96 23.3523C139.188 22.5568 139.563 21.892 140.085 21.358C140.608 20.8182 141.247 20.4148 142.003 20.1477C142.759 19.875 143.594 19.7386 144.509 19.7386C145.139 19.7386 145.767 19.8125 146.392 19.9602C147.017 20.108 147.588 20.3523 148.105 20.6932C148.622 21.0284 149.037 21.4858 149.349 22.0653C149.668 22.6449 149.827 23.3693 149.827 24.2386V33H146.861V31.2017H146.759C146.571 31.5653 146.307 31.9062 145.966 32.2244C145.631 32.5369 145.207 32.7898 144.696 32.983C144.19 33.1705 143.597 33.2642 142.915 33.2642ZM143.716 30.9972C144.335 30.9972 144.872 30.875 145.327 30.6307C145.781 30.3807 146.131 30.0511 146.375 29.642C146.625 29.233 146.75 28.7869 146.75 28.304V26.7614C146.653 26.8409 146.489 26.9148 146.256 26.983C146.028 27.0511 145.773 27.1108 145.489 27.1619C145.205 27.2131 144.923 27.2585 144.645 27.2983C144.366 27.3381 144.125 27.3722 143.92 27.4006C143.46 27.4631 143.048 27.5653 142.685 27.7074C142.321 27.8494 142.034 28.0483 141.824 28.304C141.614 28.554 141.509 28.8778 141.509 29.2756C141.509 29.8438 141.716 30.2727 142.131 30.5625C142.545 30.8523 143.074 30.9972 143.716 30.9972ZM152.929 33V19.9091H155.878V22.1335H156.031C156.304 21.3835 156.756 20.7983 157.386 20.3778C158.017 19.9517 158.77 19.7386 159.645 19.7386C160.531 19.7386 161.278 19.9545 161.886 20.3864C162.5 20.8125 162.932 21.3949 163.182 22.1335H163.318C163.608 21.4062 164.097 20.8267 164.784 20.3949C165.477 19.9574 166.298 19.7386 167.247 19.7386C168.452 19.7386 169.435 20.1193 170.196 20.8807C170.957 21.642 171.338 22.7528 171.338 24.2131V33H168.244V24.6903C168.244 23.8778 168.028 23.2841 167.597 22.9091C167.165 22.5284 166.636 22.3381 166.011 22.3381C165.267 22.3381 164.685 22.571 164.264 23.0369C163.849 23.4972 163.642 24.0966 163.642 24.8352V33H160.616V24.5625C160.616 23.8864 160.412 23.3466 160.003 22.9432C159.599 22.5398 159.071 22.3381 158.418 22.3381C157.974 22.3381 157.571 22.4517 157.207 22.679C156.844 22.9006 156.554 23.2159 156.338 23.625C156.122 24.0284 156.014 24.5 156.014 25.0398V33H152.929Z" fill="#161616"/>
<defs>
<radialGradient id="paint0_radial_3025_3360" cx="0" cy="0" r="1" gradientUnits="userSpaceOnUse" gradientTransform="translate(18 34.5) rotate(-55.3758) scale(38.2794)">
<stop stop-color="#B13589"/>
<stop offset="0.79309" stop-color="#C62F94"/>
<stop offset="1" stop-color="#8A3AC8"/>
</radialGradient>
<radialGradient id="paint1_radial_3025_3360" cx="0" cy="0" r="1" gradientUnits="userSpaceOnUse" gradientTransform="translate(16.5 46.5) rotate(-65.1363) scale(33.8913)">
<stop stop-color="#E0E8B7"/>
<stop offset="0.444662" stop-color="#FB8A2E"/>
<stop offset="0.71474" stop-color="#E2425C"/>
<stop offset="1" stop-color="#E2425C" stop-opacity="0"/>
</radialGradient>
<radialGradient id="paint2_radial_3025_3360" cx="0" cy="0" r="1" gradientUnits="userSpaceOnUse" gradientTransform="translate(0.750001 4.5) rotate(-8.1301) scale(58.3364 12.4775)">
<stop offset="0.156701" stop-color="#406ADC"/>
<stop offset="0.467799" stop-color="#6A45BE"/>
<stop offset="1" stop-color="#6A45BE" stop-opacity="0"/>
</radialGradient>
</defs>
</svg>
