<svg width="42" height="42" viewBox="0 0 42 42" fill="none" xmlns="http://www.w3.org/2000/svg">
<rect x="0.5" y="0.5" width="41" height="41" rx="20.5" fill="white"/>
<rect x="0.5" y="0.5" width="41" height="41" rx="20.5" stroke="#E5E5E5"/>
<path d="M36.62 25L31.62 15H33C33.2652 15 33.5196 14.8946 33.7071 14.7071C33.8946 14.5196 34 14.2652 34 14C34 13.7348 33.8946 13.4804 33.7071 13.2929C33.5196 13.1054 33.2652 13 33 13H31.42C30.3457 11.8298 29.0511 10.883 27.6104 10.2138C26.1697 9.54458 24.6112 9.16609 23.024 9.1L23 9C23 8.46957 22.7893 7.96086 22.4142 7.58579C22.0391 7.21071 21.5304 7 21 7C20.4696 7 19.9609 7.21071 19.5858 7.58579C19.2107 7.96086 19 8.46957 19 9V9.1C15.7677 9.23441 12.7174 10.6328 10.506 12.994L9 13C8.73478 13 8.48043 13.1054 8.29289 13.2929C8.10536 13.4804 8 13.7348 8 14C8 14.2652 8.10536 14.5196 8.29289 14.7071C8.48043 14.8946 8.73478 15 9 15H10.38L5.38 25H5C5 27.2 7.68 29 11 29C14.32 29 17 27.2 17 25H16.62L11.52 14.82C11.6464 14.7458 11.755 14.6448 11.838 14.524C12.7225 13.4846 13.8167 12.6441 15.049 12.0574C16.2812 11.4708 17.6236 11.1513 18.988 11.12L19 33H17V35H13V37H29V35H25V33H23V11.12C24.349 11.1455 25.6766 11.4611 26.8928 12.0454C28.1089 12.6296 29.185 13.4689 30.048 14.506C30.1404 14.6628 30.2739 14.7914 30.434 14.878L25.38 25H25C25 27.2 27.68 29 31 29C34.32 29 37 27.2 37 25H36.62ZM15 25H7L11 17.12L15 25ZM27 25L31 17.12L35 25H27Z" fill="#F6911F"/>
</svg>
