<svg width="24" height="24" viewBox="0 0 24 24" fill="none" xmlns="http://www.w3.org/2000/svg">
<path d="M11.3984 7.7999C11.3984 7.64077 11.3352 7.48816 11.2227 7.37564C11.1102 7.26312 10.9576 7.1999 10.7984 7.1999C10.6393 7.1999 10.4867 7.26312 10.3742 7.37564C10.2617 7.48816 10.1984 7.64077 10.1984 7.7999V10.1999H7.79844C7.63931 10.1999 7.4867 10.2631 7.37417 10.3756C7.26165 10.4882 7.19844 10.6408 7.19844 10.7999C7.19844 10.959 7.26165 11.1116 7.37417 11.2242C7.4867 11.3367 7.63931 11.3999 7.79844 11.3999H10.1984V13.7999C10.1984 13.959 10.2617 14.1116 10.3742 14.2242C10.4867 14.3367 10.6393 14.3999 10.7984 14.3999C10.9576 14.3999 11.1102 14.3367 11.2227 14.2242C11.3352 14.1116 11.3984 13.959 11.3984 13.7999V11.3999H13.7984C13.9576 11.3999 14.1102 11.3367 14.2227 11.2242C14.3352 11.1116 14.3984 10.959 14.3984 10.7999C14.3984 10.6408 14.3352 10.4882 14.2227 10.3756C14.1102 10.2631 13.9576 10.1999 13.7984 10.1999H11.3984V7.7999ZM5.39844 2.3999C4.60279 2.3999 3.83973 2.71597 3.27712 3.27858C2.71451 3.84119 2.39844 4.60425 2.39844 5.3999V16.1999C2.39844 16.9956 2.71451 17.7586 3.27712 18.3212C3.83973 18.8838 4.60279 19.1999 5.39844 19.1999H16.1984C16.9941 19.1999 17.7571 18.8838 18.3198 18.3212C18.8824 17.7586 19.1984 16.9956 19.1984 16.1999V5.3999C19.1984 4.60425 18.8824 3.84119 18.3198 3.27858C17.7571 2.71597 16.9941 2.3999 16.1984 2.3999H5.39844ZM3.59844 5.3999C3.59844 4.92251 3.78808 4.46468 4.12565 4.12711C4.46321 3.78954 4.92105 3.5999 5.39844 3.5999H16.1984C16.6758 3.5999 17.1337 3.78954 17.4712 4.12711C17.8088 4.46468 17.9984 4.92251 17.9984 5.3999V16.1999C17.9984 16.6773 17.8088 17.1351 17.4712 17.4727C17.1337 17.8103 16.6758 17.9999 16.1984 17.9999H5.39844C4.92105 17.9999 4.46321 17.8103 4.12565 17.4727C3.78808 17.1351 3.59844 16.6773 3.59844 16.1999V5.3999ZM8.99844 21.5999C7.89916 21.6001 6.84364 21.1692 6.05844 20.3999H17.3984C18.1941 20.3999 18.9571 20.0838 19.5198 19.5212C20.0824 18.9586 20.3984 18.1956 20.3984 17.3999V6.0599C21.1412 6.8183 21.5984 7.8551 21.5984 8.9999V17.3999C21.5984 18.5138 21.1559 19.5821 20.3683 20.3698C19.5806 21.1574 18.5123 21.5999 17.3984 21.5999H8.99844Z" fill="#8D8D8D"/>
</svg>
