<svg width="24" height="24" viewBox="0 0 24 24" fill="none" xmlns="http://www.w3.org/2000/svg">
<path d="M11.1101 21.0004L11.0563 20.9981L11.0033 21.0073C10.9898 21.0097 10.9761 21.0106 10.9625 21.0102C10.9066 20.987 10.8579 20.9488 10.8221 20.8996C10.7797 20.8415 10.7576 20.7711 10.7589 20.6992L10.759 20.6992V20.6899V20.6152L11.654 14.3001L11.7348 13.7299H11.159H6.81898H6.81854C6.76365 13.73 6.7098 13.7149 6.66286 13.6865C6.61592 13.6581 6.57767 13.6173 6.55229 13.5687L6.54655 13.5577L6.54028 13.547C6.50879 13.4933 6.49219 13.4322 6.49219 13.3699C6.49219 13.3077 6.50879 13.2465 6.54028 13.1928L6.5403 13.1929L6.54279 13.1885L8.5377 9.7074L12.6322 3.19607L12.6324 3.19616L12.6392 3.1847C12.6726 3.12823 12.7242 3.08477 12.7856 3.06143C12.8469 3.03809 12.9144 3.03626 12.9769 3.05622L12.9769 3.05628L12.9845 3.05857C13.0533 3.07936 13.1135 3.12207 13.1559 3.1802C13.1982 3.23833 13.2204 3.30871 13.2191 3.38062L13.219 3.38062V3.3899V3.46465L12.3239 9.77974L12.2431 10.3499H12.819H17.169H17.1694C17.2243 10.3499 17.2781 10.3649 17.3251 10.3933C17.372 10.4217 17.4103 10.4625 17.4357 10.5112L17.4414 10.5221L17.4477 10.5328C17.4792 10.5865 17.4958 10.6477 17.4958 10.7099C17.4958 10.7721 17.4792 10.8333 17.4477 10.887L17.4477 10.887L17.4452 10.8913L15.4503 14.3724L11.3604 20.8763C11.333 20.9156 11.2963 20.9475 11.2536 20.9692C11.2092 20.9917 11.1598 21.0025 11.1101 21.0004ZM7.49658 12.4388L7.06048 13.1899H7.92898H11.9254C11.9692 13.1907 12.0125 13.2 12.0529 13.2173C12.0939 13.2349 12.1311 13.2604 12.1623 13.2923C12.1935 13.3243 12.2181 13.362 12.2347 13.4035C12.2513 13.4449 12.2595 13.4893 12.259 13.5339L12.259 13.5339V13.5399V13.6145L11.674 17.7194L12.593 18.0549L15.093 14.0549L15.0973 14.048L15.1014 14.041L16.5414 11.561L16.9775 10.8099H16.109H12.1126C12.0687 10.8091 12.0254 10.7998 11.9851 10.7825C11.944 10.7649 11.9068 10.7394 11.8757 10.7075C11.8445 10.6756 11.8199 10.6378 11.8033 10.5963C11.7867 10.5549 11.7784 10.5105 11.7789 10.4659L11.779 10.4659V10.4599V10.3854L12.364 6.28045L11.445 5.94491L8.94498 9.94491L8.94067 9.9518L8.93658 9.95884L7.49658 12.4388Z" fill="black" stroke="#8D8D8D"/>
</svg>
