<svg width="24" height="24" viewBox="0 0 24 24" fill="none" xmlns="http://www.w3.org/2000/svg">
<path d="M11.089 21.4999C11.0096 21.5137 10.9284 21.5137 10.849 21.4999C10.6758 21.4476 10.5244 21.3402 10.4179 21.194C10.3114 21.0478 10.2556 20.8708 10.259 20.6899V20.5799L11.159 14.2299H6.81898C6.67262 14.23 6.52903 14.19 6.40384 14.1142C6.27866 14.0384 6.17667 13.9297 6.10898 13.7999C6.0325 13.6695 5.99219 13.5211 5.99219 13.3699C5.99219 13.2187 6.0325 13.0703 6.10898 12.9399L8.10897 9.4499L12.209 2.9299C12.3001 2.77607 12.4407 2.65768 12.6078 2.59411C12.7749 2.53053 12.9586 2.52553 13.129 2.5799C13.3022 2.63218 13.4535 2.7396 13.56 2.88582C13.6665 3.03203 13.7223 3.20904 13.719 3.3899V3.4999L12.819 9.84991H17.169C17.3153 9.84978 17.4589 9.8898 17.5841 9.96562C17.7093 10.0414 17.8113 10.1501 17.879 10.2799C17.9554 10.4103 17.9958 10.5587 17.9958 10.7099C17.9958 10.8611 17.9554 11.0095 17.879 11.1399L15.879 14.6299L11.779 21.1499C11.7036 21.2625 11.6006 21.3539 11.4798 21.4152C11.3589 21.4764 11.2243 21.5056 11.089 21.4999ZM7.92898 12.6899H11.929C12.0393 12.6912 12.1483 12.7142 12.2497 12.7577C12.3511 12.8011 12.443 12.8641 12.52 12.943C12.5971 13.0219 12.6579 13.1153 12.6989 13.2177C12.7399 13.3201 12.7603 13.4296 12.759 13.5399V13.6499L12.169 17.7899L14.669 13.7899L16.109 11.3099H12.109C11.9987 11.3086 11.8897 11.2856 11.7883 11.2422C11.6869 11.1987 11.595 11.1358 11.5179 11.0568C11.4408 10.9779 11.3801 10.8845 11.3391 10.7821C11.2981 10.6797 11.2777 10.5702 11.279 10.4599V10.3499L11.869 6.2099L9.36898 10.2099L7.92898 12.6899Z" fill="white"/>
</svg>
