<svg width="155" height="48" viewBox="0 0 155 48" fill="none" xmlns="http://www.w3.org/2000/svg">
<path d="M45 24C45 12.402 35.598 3 24 3C12.402 3 3 12.402 3 24C3 35.598 12.402 45 24 45C35.598 45 45 35.598 45 24Z" fill="#1275B1"/>
<path d="M18.9279 14.5382C18.9279 15.9401 17.7128 17.0765 16.214 17.0765C14.7151 17.0765 13.5 15.9401 13.5 14.5382C13.5 13.1364 14.7151 12 16.214 12C17.7128 12 18.9279 13.1364 18.9279 14.5382Z" fill="white"/>
<path d="M13.8672 18.9434H18.5064V33.0012H13.8672V18.9434Z" fill="white"/>
<path d="M25.979 18.9422H21.3398V33H25.979C25.979 33 25.979 28.5744 25.979 25.8074C25.979 24.1464 26.5462 22.4783 28.8089 22.4783C31.3661 22.4783 31.3508 24.6518 31.3388 26.3357C31.3232 28.5366 31.3604 30.7829 31.3604 33H35.9996V25.5806C35.9603 20.8431 34.7258 18.6602 30.6646 18.6602C28.2527 18.6602 26.7577 19.7552 25.979 20.7458V18.9422Z" fill="white"/>
<path d="M57.7216 33V15.5455H60.8835V30.3494H68.571V33H57.7216ZM71.179 33V19.9091H74.2642V33H71.179ZM72.7301 18.0511C72.2415 18.0511 71.821 17.8892 71.4688 17.5653C71.1165 17.2358 70.9403 16.8409 70.9403 16.3807C70.9403 15.9148 71.1165 15.5199 71.4688 15.196C71.821 14.8665 72.2415 14.7017 72.7301 14.7017C73.2244 14.7017 73.6449 14.8665 73.9915 15.196C74.3438 15.5199 74.5199 15.9148 74.5199 16.3807C74.5199 16.8409 74.3438 17.2358 73.9915 17.5653C73.6449 17.8892 73.2244 18.0511 72.7301 18.0511ZM80.522 25.3295V33H77.4368V19.9091H80.3857V22.1335H80.5391C80.8402 21.4006 81.3203 20.8182 81.9794 20.3864C82.6442 19.9545 83.4652 19.7386 84.4425 19.7386C85.3459 19.7386 86.1328 19.9318 86.8033 20.3182C87.4794 20.7045 88.0021 21.2642 88.3714 21.9972C88.7464 22.7301 88.9311 23.6193 88.9254 24.6648V33H85.8402V25.142C85.8402 24.267 85.6129 23.5824 85.1584 23.0881C84.7095 22.5937 84.0874 22.3466 83.2919 22.3466C82.7521 22.3466 82.272 22.4659 81.8516 22.7045C81.4368 22.9375 81.1101 23.2756 80.8714 23.7188C80.6385 24.1619 80.522 24.6989 80.522 25.3295ZM94.8743 28.892L94.8658 25.1676H95.3601L100.065 19.9091H103.67L97.8828 26.3523H97.2436L94.8743 28.892ZM92.0618 33V15.5455H95.147V33H92.0618ZM100.278 33L96.0163 27.0426L98.0959 24.8693L103.968 33H100.278ZM110.982 33.2557C109.67 33.2557 108.536 32.983 107.582 32.4375C106.633 31.8864 105.903 31.108 105.391 30.1023C104.88 29.0909 104.624 27.9006 104.624 26.5312C104.624 25.1847 104.88 24.0028 105.391 22.9858C105.908 21.9631 106.63 21.1676 107.556 20.5994C108.482 20.0256 109.57 19.7386 110.82 19.7386C111.627 19.7386 112.388 19.8693 113.104 20.1307C113.826 20.3864 114.462 20.7841 115.013 21.3239C115.57 21.8636 116.008 22.5511 116.326 23.3864C116.644 24.2159 116.803 25.2045 116.803 26.3523V27.2983H106.073V25.2188H113.846C113.84 24.6278 113.712 24.1023 113.462 23.642C113.212 23.1761 112.863 22.8097 112.414 22.5426C111.971 22.2756 111.454 22.142 110.863 22.142C110.232 22.142 109.678 22.2955 109.201 22.6023C108.724 22.9034 108.352 23.3011 108.085 23.7955C107.823 24.2841 107.69 24.821 107.684 25.4062V27.2216C107.684 27.983 107.823 28.6364 108.102 29.1818C108.38 29.7216 108.769 30.1364 109.269 30.4261C109.769 30.7102 110.354 30.8523 111.025 30.8523C111.474 30.8523 111.88 30.7898 112.244 30.6648C112.607 30.5341 112.923 30.3438 113.19 30.0938C113.457 29.8438 113.658 29.5341 113.795 29.1648L116.675 29.4886C116.494 30.25 116.147 30.9148 115.636 31.483C115.13 32.0455 114.482 32.483 113.692 32.7955C112.903 33.1023 111.999 33.2557 110.982 33.2557ZM124.271 33.2301C123.243 33.2301 122.322 32.9659 121.51 32.4375C120.697 31.9091 120.055 31.142 119.584 30.1364C119.112 29.1307 118.876 27.9091 118.876 26.4716C118.876 25.017 119.115 23.7898 119.592 22.7898C120.075 21.7841 120.726 21.0256 121.544 20.5142C122.362 19.9972 123.274 19.7386 124.28 19.7386C125.047 19.7386 125.678 19.8693 126.172 20.1307C126.666 20.3864 127.058 20.696 127.348 21.0597C127.638 21.4176 127.862 21.7557 128.021 22.0739H128.149V15.5455H131.243V33H128.209V30.9375H128.021C127.862 31.2557 127.632 31.5937 127.331 31.9517C127.03 32.304 126.632 32.6051 126.138 32.8551C125.643 33.1051 125.021 33.2301 124.271 33.2301ZM125.132 30.6989C125.786 30.6989 126.342 30.5227 126.803 30.1705C127.263 29.8125 127.612 29.3153 127.851 28.679C128.089 28.0426 128.209 27.3011 128.209 26.4545C128.209 25.608 128.089 24.8722 127.851 24.2472C127.618 23.6222 127.271 23.1364 126.811 22.7898C126.357 22.4432 125.797 22.2699 125.132 22.2699C124.445 22.2699 123.871 22.4489 123.411 22.8068C122.95 23.1648 122.604 23.6591 122.371 24.2898C122.138 24.9205 122.021 25.642 122.021 26.4545C122.021 27.2727 122.138 28.0028 122.371 28.6449C122.609 29.2812 122.959 29.7841 123.419 30.1534C123.885 30.517 124.456 30.6989 125.132 30.6989ZM137.829 15.5455V33H134.667V15.5455H137.829ZM144.202 25.3295V33H141.116V19.9091H144.065V22.1335H144.219C144.52 21.4006 145 20.8182 145.659 20.3864C146.324 19.9545 147.145 19.7386 148.122 19.7386C149.026 19.7386 149.813 19.9318 150.483 20.3182C151.159 20.7045 151.682 21.2642 152.051 21.9972C152.426 22.7301 152.611 23.6193 152.605 24.6648V33H149.52V25.142C149.52 24.267 149.293 23.5824 148.838 23.0881C148.389 22.5937 147.767 22.3466 146.972 22.3466C146.432 22.3466 145.952 22.4659 145.531 22.7045C145.116 22.9375 144.79 23.2756 144.551 23.7188C144.318 24.1619 144.202 24.6989 144.202 25.3295Z" fill="#161616"/>
</svg>
