<svg width="32" height="32" viewBox="0 0 32 32" fill="none" xmlns="http://www.w3.org/2000/svg">
<rect width="32" height="32" rx="16" fill="white"/>
<path d="M26.5 16C26.5 10.201 21.799 5.5 16 5.5C10.201 5.5 5.5 10.201 5.5 16C5.5 21.799 10.201 26.5 16 26.5C21.799 26.5 26.5 21.799 26.5 16Z" fill="#1275B1"/>
<path d="M13.4639 11.2691C13.4639 11.97 12.8564 12.5382 12.107 12.5382C11.3575 12.5382 10.75 11.97 10.75 11.2691C10.75 10.5682 11.3575 10 12.107 10C12.8564 10 13.4639 10.5682 13.4639 11.2691Z" fill="white"/>
<path d="M10.9375 13.4707H13.2571V20.4996H10.9375V13.4707Z" fill="white"/>
<path d="M16.9915 13.4711H14.6719V20.5H16.9915C16.9915 20.5 16.9915 18.2872 16.9915 16.9037C16.9915 16.0732 17.275 15.2391 18.4064 15.2391C19.685 15.2391 19.6774 16.3259 19.6714 17.1678C19.6636 18.2683 19.6822 19.3914 19.6822 20.5H22.0018V16.7903C21.9821 14.4216 21.3649 13.3301 19.3343 13.3301C18.1283 13.3301 17.3808 13.8776 16.9915 14.3729V13.4711Z" fill="white"/>
</svg>
