<svg width="250" height="50" viewBox="0 0 250 50" fill="none" xmlns="http://www.w3.org/2000/svg">
<path d="M75.2411 25.411C75.2411 28.0994 74.3659 30.4201 72.6094 32.3853C70.7647 34.4287 68.4543 35.4472 65.6778 35.4472C63.4051 35.4472 61.3462 34.6033 59.4891 32.9155V41.9933H54.4648V15.7728H59.4891V17.9068C61.3084 16.1708 63.4174 15.3026 65.8289 15.3026C68.6493 15.3026 70.9536 16.3275 72.7353 18.3827C74.4037 20.3117 75.2411 22.6504 75.2411 25.411ZM70.2171 25.3569C70.2171 23.7837 69.726 22.4756 68.7439 21.4268C67.7365 20.3358 66.4144 19.7872 64.7648 19.7872C63.109 19.7872 61.7682 20.3238 60.7356 21.3967C59.7534 22.4275 59.2623 23.7475 59.2623 25.3388C59.2623 26.9483 59.7471 28.2803 60.7167 29.3411C61.7493 30.4442 63.0964 30.9989 64.7648 30.9989C66.3891 30.9989 67.7113 30.4322 68.7439 29.3049C69.726 28.232 70.2171 26.9181 70.2171 25.3569ZM84.7592 11.0171C84.7592 11.8729 84.4507 12.6024 83.8272 13.2051C83.2103 13.8079 82.4612 14.1092 81.5734 14.1092C80.6669 14.1092 79.8989 13.8018 79.2754 13.187C78.6521 12.5722 78.3373 11.8248 78.3373 10.9446C78.3373 10.1009 78.6521 9.38344 79.2754 8.78674C79.8989 8.19004 80.6543 7.88867 81.5418 7.88867C82.436 7.88867 83.1977 8.19608 83.8209 8.80485C84.4444 9.41363 84.7592 10.1489 84.7592 11.0171ZM84.0792 34.9771H79.0173V15.7728H84.0792V34.9771ZM108.688 32.2044C108.688 35.4352 108.008 37.8222 106.642 39.3592C104.797 41.4268 102.033 42.4635 98.3567 42.4635C94.6548 42.4635 91.8658 41.5473 89.9958 39.7089C89.0767 38.7927 88.3904 37.6896 87.9498 36.3876H93.4648C94.4659 37.4725 96.0209 38.0152 98.1299 38.0152C100.711 38.0152 102.386 37.2977 103.167 35.8631C103.5 35.2301 103.664 34.1391 103.664 32.59C102.002 34.1814 99.9684 34.9771 97.5697 34.9771C94.7365 34.9771 92.4133 34.0005 90.5877 32.0477C88.831 30.1791 87.9498 27.8766 87.9498 25.1398C87.9498 22.096 88.9319 19.6486 90.9025 17.8041C92.6905 16.1345 94.8185 15.3026 97.2925 15.3026C99.6095 15.3026 101.731 16.1708 103.664 17.9068V15.7728H108.688V32.2044ZM103.929 25.1942C103.929 23.627 103.425 22.337 102.424 21.3305C101.423 20.3237 100.101 19.8234 98.451 19.8234C96.8519 19.8234 95.5424 20.3298 94.5161 21.3423C93.4901 22.3551 92.9738 23.627 92.9738 25.158C92.9738 26.7252 93.4964 28.0272 94.535 29.0579C95.5739 30.0885 96.9087 30.601 98.5456 30.601C100.164 30.601 101.473 30.0825 102.474 29.0398C103.444 28.0451 103.929 26.7614 103.929 25.1942ZM134.071 25.8512L134.053 26.7674H117.904C118.15 28.1598 118.792 29.2448 119.824 30.0224C120.857 30.7939 122.135 31.1795 123.658 31.1795C125.541 31.1795 127.159 30.5647 128.506 29.3351L132.749 31.2399C130.678 34.0428 127.656 35.4472 123.677 35.4472C120.586 35.4472 118.03 34.519 116.015 32.6625C114 30.812 112.993 28.4129 112.993 25.4835C112.993 22.5782 113.969 20.161 115.921 18.2142C117.866 16.2731 120.359 15.3026 123.387 15.3026C126.548 15.3026 129.117 16.2671 131.1 18.19C133.14 20.1851 134.134 22.7407 134.071 25.8512ZM128.972 22.9337C128.632 21.8366 127.964 20.9748 126.97 20.3419C125.981 19.7089 124.867 19.3895 123.633 19.3895C122.242 19.3895 121.014 19.7572 119.962 20.4986C119.308 20.9567 118.691 21.7705 118.131 22.9337H128.972ZM158.359 25.3569C158.359 27.1652 157.893 28.8529 156.962 30.4261C156.03 31.9994 154.745 33.229 153.121 34.1152C151.497 35.0012 149.709 35.4472 147.757 35.4472C144.848 35.4472 142.387 34.4707 140.372 32.5178C138.364 30.5587 137.356 28.184 137.356 25.3929C137.356 22.3853 138.502 19.8898 140.8 17.9068C142.796 16.1708 145.113 15.3026 147.738 15.3026C149.627 15.3026 151.402 15.7486 153.065 16.647C154.733 17.545 156.03 18.7746 156.962 20.3298C157.893 21.8849 158.359 23.5606 158.359 25.3569ZM153.26 25.369C153.26 23.7837 152.762 22.4696 151.774 21.4268C150.785 20.3841 149.463 19.8596 147.814 19.8596C146.196 19.8596 144.874 20.3962 143.847 21.4691C142.871 22.5058 142.38 23.8078 142.38 25.369C142.38 26.9541 142.865 28.2622 143.829 29.2989C144.836 30.3839 146.152 30.9265 147.795 30.9265C149.432 30.9265 150.76 30.3839 151.774 29.2989C152.762 28.2501 153.26 26.9423 153.26 25.369ZM180.456 34.9771H175.432V26.5805C175.432 24.8324 175.4 23.7233 175.338 23.2532C175.155 21.8185 174.714 20.8362 174.003 20.2936C173.468 19.9079 172.807 19.715 172.026 19.715C169.879 19.715 168.507 20.9386 167.908 23.3918C167.764 23.9945 167.688 25.2905 167.688 27.2857V34.9771H162.664V15.7728H167.688V17.7619C169.728 16.1225 171.711 15.3026 173.638 15.3026C175.64 15.3026 177.327 15.9657 178.706 17.2917C179.871 18.4129 180.456 20.0828 180.456 22.3008V34.9771ZM203.309 34.9771H198.322V26.5926C198.322 24.917 198.285 23.8078 198.215 23.2652C198.033 21.8246 197.586 20.8482 196.881 20.3298C196.345 19.9439 195.684 19.7512 194.91 19.7512C192.776 19.7512 191.403 20.9506 190.799 23.3558C190.654 23.9283 190.578 25.2422 190.578 27.2917V34.9771H185.554V8.35883H190.578V17.7259C192.536 16.1104 194.526 15.3026 196.547 15.3026C198.694 15.3026 200.368 15.9657 201.584 17.2917C202.736 18.5515 203.309 20.2214 203.309 22.3008V34.9771ZM213.544 11.0171C213.544 11.8729 213.236 12.6024 212.612 13.2051C211.996 13.8079 211.246 14.1092 210.359 14.1092C209.452 14.1092 208.684 13.8018 208.061 13.187C207.437 12.5722 207.123 11.8248 207.123 10.9446C207.123 10.1009 207.437 9.38344 208.061 8.78674C208.684 8.19004 209.44 7.88867 210.327 7.88867C211.221 7.88867 211.983 8.19608 212.606 8.80485C213.23 9.41363 213.544 10.1489 213.544 11.0171ZM212.864 34.9771H207.803V15.7728H212.864V34.9771ZM227.199 15.7728L225.65 19.956C225.064 19.6727 224.58 19.5341 224.195 19.5341C223.427 19.5341 222.773 19.9922 222.25 20.9084C221.658 21.903 221.388 23.6992 221.438 26.2973L221.457 27.2316V34.9771H216.433V15.7728H220.777V18.232C221.721 16.2792 223.182 15.3026 225.159 15.3026C225.807 15.3026 226.487 15.4593 227.199 15.7728ZM250.001 25.8512L249.982 26.7674H233.833C234.079 28.1598 234.721 29.2448 235.753 30.0224C236.786 30.7939 238.064 31.1795 239.588 31.1795C241.47 31.1795 243.088 30.5647 244.435 29.3351L248.679 31.2399C246.607 34.0428 243.585 35.4472 239.606 35.4472C236.515 35.4472 233.959 34.519 231.945 32.6625C229.93 30.812 228.922 28.4129 228.922 25.4835C228.922 22.5782 229.898 20.161 231.85 18.2142C233.795 16.2731 236.288 15.3026 239.317 15.3026C242.477 15.3026 245.046 16.2671 247.029 18.19C249.069 20.1851 250.064 22.7407 250.001 25.8512ZM244.901 22.9337C244.561 21.8366 243.894 20.9748 242.899 20.3419C241.911 19.7089 240.796 19.3895 239.562 19.3895C238.171 19.3895 236.943 19.7572 235.892 20.4986C235.237 20.9567 234.62 21.7705 234.06 22.9337H244.901Z" fill="white"/>
<path fill-rule="evenodd" clip-rule="evenodd" d="M41.3542 41.3569C36.2041 46.6724 28.8471 50 20.6771 50C12.5072 50 5.14986 46.6721 0 41.3569C0.823755 40.8621 1.59883 40.3702 2.25007 39.8851C3.33058 39.0805 4.07086 38.2952 4.62121 37.3947C5.17155 36.4942 5.53147 35.479 5.78571 34.3904C6.0397 33.3018 6.18775 32.14 6.39684 30.8433C6.60593 29.5465 6.87582 28.1148 7.03875 26.9494C7.20143 25.784 7.25692 24.885 7.31215 23.9862L20.6771 24.1098L34.0421 23.9862C34.0973 24.885 34.1528 25.784 34.3155 26.9494C34.4784 28.1148 34.7483 29.5465 34.9574 30.8433C35.1665 32.14 35.3145 33.3018 35.5685 34.3904C35.8228 35.479 36.1827 36.4942 36.733 37.3947C37.2834 38.2952 38.0236 39.0805 39.1042 39.8851C39.7554 40.3702 40.5302 40.8621 41.3542 41.3569ZM20.5707 5.74613C20.3386 5.56623 19.8904 5.3897 19.5782 5.16754C19.2662 4.94538 19.0901 4.67734 18.8339 4.25185C18.5779 3.8266 18.2417 3.24414 18.0016 2.68487C17.7614 2.12536 17.6174 1.58903 17.5453 1.18672C17.4734 0.784411 17.4734 0.516366 17.3894 0.328494C17.3052 0.140863 17.1372 0.0334017 16.969 0.00659727C16.801 -0.0202072 16.633 0.0334045 16.4968 0.190609C16.3608 0.347572 16.2567 0.608134 16.1687 1.06429C16.0806 1.51997 16.0085 2.17148 16.0085 2.83048C16.0085 3.48948 16.0806 4.15622 16.1808 4.73843C16.2809 5.32088 16.4088 5.81905 16.629 6.29018C16.8492 6.76155 17.1611 7.20589 17.5173 7.47611C17.8734 7.74632 18.2737 7.84194 18.7499 7.81151C19.2261 7.78085 19.7784 7.62364 20.1384 7.34956C20.4988 7.07572 20.6668 6.68477 20.7427 6.39765C20.8189 6.11004 20.803 5.92627 20.5707 5.74613Z" fill="#F0B74D"/>
<path fill-rule="evenodd" clip-rule="evenodd" d="M34.7476 46.4051C30.6074 48.6909 25.8039 49.9993 20.681 49.9993C15.5581 49.9993 10.7546 48.6912 6.61436 46.4051C6.46757 46.0759 6.33893 45.7449 6.23577 45.4114C5.89552 44.3097 5.83549 43.1796 6.15582 42.212C6.47588 41.2446 7.1763 40.44 7.75641 39.4859C8.33677 38.5321 8.79707 37.4285 9.08713 36.1259C9.37718 34.8231 9.49724 33.3214 9.55727 32.0529C9.61099 30.9157 9.61654 29.9665 9.51641 29.1056C7.31275 26.727 5.98102 23.6363 5.98102 20.2577C5.98102 13.6124 11.1314 8.08078 17.9399 6.89245C18.0198 6.59736 18.2226 6.27594 18.4085 5.99462C18.6516 5.6266 18.8658 5.32789 19.1177 5.05187C19.37 4.7761 19.66 4.52327 20.0333 4.27406C20.4066 4.0251 20.8628 3.78 21.5552 3.54238C22.2475 3.30476 23.1757 3.07487 23.8401 2.9563C24.5044 2.8375 24.9047 2.82977 25.1526 2.88338C25.4008 2.93699 25.4969 3.05193 25.505 3.19368C25.5128 3.33543 25.4329 3.50398 25.1647 3.70345C24.8966 3.90267 24.4404 4.13232 23.9803 4.49261C23.52 4.85266 23.0557 5.34311 22.7109 5.76739C22.4317 6.11078 22.2306 6.41069 22.1409 6.72196C29.5738 7.40028 35.381 13.2014 35.381 20.2577C35.381 23.6363 34.0492 26.727 31.8456 29.1056C31.7454 29.9665 31.7507 30.9157 31.8045 32.0529C31.8647 33.3214 31.9848 34.8231 32.2749 36.1259C32.5649 37.4285 33.0252 38.5321 33.6056 39.4859C34.1857 40.44 34.8861 41.2446 35.2062 42.212C35.5262 43.1796 35.4665 44.3097 35.1262 45.4114C35.0231 45.7449 34.8944 46.0759 34.7476 46.4051Z" fill="#F6C569"/>
<path fill-rule="evenodd" clip-rule="evenodd" d="M30.6947 11.8555C34.4374 11.8555 37.4713 14.7602 37.4713 18.3436C37.4713 21.9269 34.4374 24.8317 30.6947 24.8317C26.9519 24.8317 23.918 21.9269 23.918 18.3436C23.918 14.7602 26.9519 11.8555 30.6947 11.8555Z" fill="#F0B74D"/>
<mask id="mask0_3043_666" style="mask-type:luminance" maskUnits="userSpaceOnUse" x="23" y="11" width="15" height="14">
<path d="M30.6908 11.8555C34.4335 11.8555 37.4674 14.7602 37.4674 18.3436C37.4674 21.9269 34.4335 24.8317 30.6908 24.8317C26.948 24.8317 23.9141 21.9269 23.9141 18.3436C23.9141 14.7602 26.948 11.8555 30.6908 11.8555Z" fill="white"/>
</mask>
<g mask="url(#mask0_3043_666)">
<path d="M31.2329 22.9382C35.1219 22.6235 38.0533 20.0654 37.7804 17.2247C37.5075 14.3839 34.1336 12.3361 30.2447 12.6509C26.3557 12.9656 23.4243 15.5236 23.6972 18.3644C23.9701 21.2051 27.344 23.2529 31.2329 22.9382Z" fill="#FEFEFE"/>
</g>
<path fill-rule="evenodd" clip-rule="evenodd" d="M10.6634 11.8555C6.9207 11.8555 3.88672 14.7602 3.88672 18.3436C3.88672 21.9269 6.9207 24.8317 10.6634 24.8317C14.4059 24.8317 17.4401 21.9269 17.4401 18.3436C17.4401 14.7602 14.4059 11.8555 10.6634 11.8555Z" fill="#F0B74D"/>
<mask id="mask1_3043_666" style="mask-type:luminance" maskUnits="userSpaceOnUse" x="3" y="11" width="15" height="14">
<path d="M10.6634 11.8555C6.9207 11.8555 3.88672 14.7602 3.88672 18.3436C3.88672 21.9269 6.9207 24.8317 10.6634 24.8317C14.4059 24.8317 17.4401 21.9269 17.4401 18.3436C17.4401 14.7602 14.4059 11.8555 10.6634 11.8555Z" fill="white"/>
</mask>
<g mask="url(#mask1_3043_666)">
<path d="M10.1343 22.9382C6.24532 22.6235 3.31392 20.0654 3.58681 17.2247C3.8597 14.3839 7.23354 12.3361 11.1225 12.6509C15.0114 12.9656 17.9428 15.5236 17.67 18.3644C17.3971 21.2051 14.0232 23.2529 10.1343 22.9382Z" fill="#FEFEFE"/>
</g>
<path fill-rule="evenodd" clip-rule="evenodd" d="M29.8027 13.7637C32.2081 13.7637 34.158 15.6306 34.158 17.9336C34.158 20.2363 32.2081 22.1035 29.8027 22.1035C27.3972 22.1035 25.4473 20.2363 25.4473 17.9336C25.4473 15.6306 27.3972 13.7637 29.8027 13.7637ZM11.5585 13.7637C13.9639 13.7637 15.9138 15.6306 15.9138 17.9336C15.9138 20.2363 13.9639 22.1035 11.5585 22.1035C9.15304 22.1035 7.20312 20.2363 7.20312 17.9336C7.20312 15.6306 9.15304 13.7637 11.5585 13.7637Z" fill="#F6911F"/>
<path fill-rule="evenodd" clip-rule="evenodd" d="M29.805 16.0234C30.9042 16.0234 31.7953 16.8766 31.7953 17.929C31.7953 18.9813 30.9042 19.8347 29.805 19.8347C28.7059 19.8347 27.8145 18.9813 27.8145 17.929C27.8145 16.8766 28.7059 16.0234 29.805 16.0234ZM11.5608 16.0234C12.66 16.0234 13.5511 16.8766 13.5511 17.929C13.5511 18.9813 12.66 19.8347 11.5608 19.8347C10.4617 19.8347 9.57031 18.9813 9.57031 17.929C9.57031 16.8766 10.4617 16.0234 11.5608 16.0234Z" fill="white"/>
<path fill-rule="evenodd" clip-rule="evenodd" d="M29.1608 17.752C29.4579 17.752 29.6988 17.9826 29.6988 18.2668C29.6988 18.5513 29.4579 18.7819 29.1608 18.7819C28.864 18.7819 28.6231 18.5513 28.6231 18.2668C28.6231 17.9826 28.864 17.752 29.1608 17.752ZM10.9167 17.752C11.2138 17.752 11.4546 17.9826 11.4546 18.2668C11.4546 18.5513 11.2138 18.7819 10.9167 18.7819C10.6198 18.7819 10.3789 18.5513 10.3789 18.2668C10.3789 17.9826 10.6198 17.752 10.9167 17.752Z" fill="white"/>
<path fill-rule="evenodd" clip-rule="evenodd" d="M20.7068 30.021L17.9334 28.9918C12.8675 24.916 16.728 20.0729 20.7068 23.0663C24.6858 20.0729 28.5463 24.916 23.4802 28.9918L20.7068 30.021Z" fill="white"/>
<path fill-rule="evenodd" clip-rule="evenodd" d="M20.3231 26.4637L17.9401 28.574C17.755 28.7382 17.7083 28.9913 17.8239 29.2062L20.2068 33.6424C20.3042 33.8236 20.4863 33.93 20.6992 33.93C20.9118 33.9303 21.0941 33.824 21.1918 33.6429L23.5826 29.2069C23.6986 28.9917 23.6517 28.738 23.4658 28.5738L21.0747 26.4632C20.8619 26.2751 20.5357 26.2753 20.3231 26.4637ZM3.57031 38.7493C3.989 38.3182 4.33253 37.8749 4.62309 37.3994C5.17344 36.4989 5.53336 35.4837 5.78759 34.3951C5.81105 34.294 5.83401 34.1918 5.8557 34.0894C8.81804 35.6144 14.3445 36.6402 20.6734 36.6402C27.0095 36.6402 32.541 35.6122 35.501 34.0843C35.5232 34.1887 35.5464 34.2923 35.5704 34.3951C35.8246 35.4837 36.1846 36.4989 36.7349 37.3994C37.0245 37.8734 37.367 38.3156 37.7839 38.7454C34.3983 40.6022 28.0045 41.854 20.6734 41.854C13.3477 41.854 6.95765 40.6039 3.57031 38.7493Z" fill="#F7DCAA"/>
<path fill-rule="evenodd" clip-rule="evenodd" d="M20.3238 26.4624L17.9411 28.5725C17.7559 28.7369 17.709 28.9895 17.8243 29.2047L20.2075 33.6409C20.2983 33.8097 20.4628 33.9138 20.6572 33.9271C20.6219 33.8887 20.5916 33.8445 20.5664 33.795L18.1832 29.0974C18.0679 28.8695 18.1146 28.6024 18.3 28.4283L20.5145 26.3516C20.4459 26.3752 20.3808 26.4122 20.3238 26.4624Z" fill="white" fill-opacity="0.25098"/>
<path d="M30.8787 9.67259C33.0684 9.67259 35.0527 10.669 36.4898 12.2789C37.848 13.8007 38.7169 15.8702 38.8092 18.1645C39.0733 18.2442 39.266 18.4813 39.266 18.7595C39.266 19.0459 39.0622 19.2886 38.7865 19.3613C38.6181 21.502 37.7719 23.4264 36.4898 24.8627C35.0527 26.4727 33.0684 27.469 30.8787 27.469C28.6889 27.469 26.7046 26.4727 25.2675 24.8627C23.8296 23.2518 22.9397 21.0268 22.9397 18.5709C22.9397 18.4164 22.9433 18.2628 22.9503 18.1099C22.1979 17.9305 21.4433 17.8426 20.6874 17.8441C19.9312 17.8455 19.171 17.9366 18.4073 18.115C18.4139 18.2659 18.4176 18.4181 18.4176 18.5709C18.4176 21.0271 17.5281 23.2521 16.0896 24.8632C14.6525 26.4734 12.668 27.4698 10.478 27.4698C8.28793 27.4698 6.30371 26.4737 4.8663 24.8632C3.58426 23.4269 2.73805 21.5023 2.56957 19.3613C2.29364 19.2886 2.08984 19.0462 2.08984 18.7595C2.08984 18.4811 2.28254 18.2442 2.54687 18.1645C2.63918 15.87 3.50783 13.8002 4.86655 12.2784C6.3037 10.6682 8.28793 9.67188 10.478 9.67188C12.668 9.67188 14.6525 10.6682 16.0896 12.2784C17.3023 13.6368 18.1251 15.4312 18.3533 17.4326C19.1329 17.2558 19.9113 17.1655 20.6874 17.1641C21.4625 17.1624 22.2353 17.2496 23.0048 17.4273C23.2341 15.4283 24.0566 13.6358 25.2675 12.2789C26.7046 10.669 28.6889 9.67259 30.8787 9.67259ZM17.1719 18.3599C17.1099 18.3174 17.061 18.2498 17.039 18.165C17.0034 18.0286 17.0473 17.8868 17.1401 17.803C16.9802 16.0373 16.2745 14.4542 15.2159 13.268C14.0053 11.9114 12.33 11.072 10.478 11.072C8.62616 11.072 6.95091 11.9114 5.74024 13.268C4.53009 14.6237 3.78149 16.4988 3.78149 18.5709C3.78149 20.6429 4.53009 22.518 5.74 23.8736C6.95091 25.2303 8.62616 26.0697 10.478 26.0697C12.33 26.0697 14.0053 25.2303 15.2159 23.8736C16.4261 22.518 17.1747 20.6431 17.1747 18.5709C17.1747 18.5004 17.1737 18.4299 17.1719 18.3599ZM24.2162 17.8153C24.301 17.9011 24.3388 18.038 24.3032 18.1689C24.2826 18.2452 24.2399 18.3072 24.1857 18.3493C24.1839 18.4229 24.1827 18.4968 24.1827 18.5709C24.1827 20.6429 24.9313 22.5177 26.1412 23.8731C27.3521 25.2295 29.0271 26.0689 30.8787 26.0689C32.7302 26.0689 34.4052 25.2295 35.6161 23.8731C36.826 22.5177 37.5746 20.6429 37.5746 18.5709C37.5746 16.499 36.826 14.6242 35.6161 13.2685C34.4052 11.9121 32.7302 11.0727 30.8787 11.0727C29.0271 11.0727 27.3521 11.9121 26.1412 13.2685C25.0801 14.4573 24.3739 16.045 24.2162 17.8153Z" fill="#1A1A1A"/>
</svg>
