<svg width="160" height="32" viewBox="0 0 160 32" fill="none" xmlns="http://www.w3.org/2000/svg">
<path d="M48.1523 16.2631C48.1523 17.9837 47.5921 19.4689 46.468 20.7266C45.2873 22.0344 43.8087 22.6863 42.0318 22.6863C40.5772 22.6863 39.2595 22.1462 38.071 21.066V26.8758H34.8555V10.0947H38.071V11.4604C39.2353 10.3494 40.5851 9.79376 42.1285 9.79376C43.9335 9.79376 45.4083 10.4497 46.5485 11.765C47.6163 12.9995 48.1523 14.4963 48.1523 16.2631ZM44.9369 16.2285C44.9369 15.2216 44.6226 14.3845 43.994 13.7133C43.3493 13.015 42.5032 12.6639 41.4475 12.6639C40.3877 12.6639 39.5296 13.0073 38.8687 13.6939C38.2402 14.3537 37.9259 15.1985 37.9259 16.2169C37.9259 17.247 38.2361 18.0995 38.8566 18.7784C39.5175 19.4844 40.3797 19.8394 41.4475 19.8394C42.487 19.8394 43.3332 19.4767 43.994 18.7552C44.6226 18.0686 44.9369 17.2277 44.9369 16.2285ZM54.2438 7.051C54.2438 7.59871 54.0464 8.0656 53.6474 8.45135C53.2525 8.8371 52.7731 9.02998 52.2049 9.02998C51.6248 9.02998 51.1332 8.83324 50.7342 8.43976C50.3353 8.04628 50.1339 7.56796 50.1339 7.00463C50.1339 6.46464 50.3353 6.00548 50.7342 5.62359C51.1332 5.2417 51.6167 5.04883 52.1847 5.04883C52.757 5.04883 53.2445 5.24557 53.6433 5.63518C54.0424 6.0248 54.2438 6.4954 54.2438 7.051ZM53.8086 22.3854H50.5691V10.0947H53.8086V22.3854ZM69.5582 20.6109C69.5582 22.6786 69.1232 24.2063 68.2488 25.19C67.0681 26.5132 65.2993 27.1767 62.9462 27.1767C60.5771 27.1767 58.7921 26.5904 57.5953 25.4138C57.0071 24.8274 56.5678 24.1214 56.2858 23.2881H59.8155C60.4561 23.9825 61.4513 24.3298 62.8011 24.3298C64.4531 24.3298 65.525 23.8706 66.0246 22.9524C66.2381 22.5474 66.3429 21.8491 66.3429 20.8577C65.2791 21.8762 63.9777 22.3854 62.4426 22.3854C60.6294 22.3854 59.1425 21.7604 57.9741 20.5106C56.8498 19.3147 56.2858 17.8411 56.2858 16.0896C56.2858 14.1415 56.9144 12.5752 58.1756 11.3947C59.3199 10.3262 60.6818 9.79376 62.2652 9.79376C63.748 9.79376 65.1059 10.3494 66.3429 11.4604V10.0947H69.5582V20.6109ZM66.5122 16.1244C66.5122 15.1213 66.1898 14.2957 65.5492 13.6516C64.9085 13.0073 64.0623 12.6871 63.0066 12.6871C61.9832 12.6871 61.1451 13.0111 60.4883 13.6592C59.8316 14.3073 59.5012 15.1213 59.5012 16.1012C59.5012 17.1042 59.8356 17.9375 60.5004 18.5971C61.1653 19.2567 62.0195 19.5847 63.0671 19.5847C64.1027 19.5847 64.9408 19.2529 65.5815 18.5855C66.202 17.9489 66.5122 17.1274 66.5122 16.1244ZM85.8037 16.5449L85.7916 17.1312H75.4564C75.6137 18.0224 76.0246 18.7167 76.6853 19.2144C77.3462 19.7082 78.1641 19.955 79.1393 19.955C80.3439 19.955 81.3795 19.5615 82.2418 18.7745L84.9575 19.9936C83.632 21.7875 81.6978 22.6863 79.1514 22.6863C77.173 22.6863 75.537 22.0922 74.2477 20.9041C72.9583 19.7198 72.3135 18.1843 72.3135 16.3095C72.3135 14.4501 72.9381 12.9031 74.1872 11.6571C75.4322 10.4149 77.0279 9.79376 78.9659 9.79376C80.9887 9.79376 82.6326 10.411 83.9018 11.6417C85.2074 12.9186 85.8439 14.5541 85.8037 16.5449ZM82.5399 14.6776C82.3223 13.9755 81.8952 13.4239 81.2586 13.0189C80.6259 12.6138 79.9128 12.4093 79.1231 12.4093C78.2325 12.4093 77.4469 12.6447 76.774 13.1192C76.3549 13.4123 75.96 13.9332 75.6015 14.6776H82.5399ZM101.348 16.2285C101.348 17.3858 101.05 18.4659 100.453 19.4728C99.8571 20.4797 99.035 21.2666 97.9954 21.8338C96.9558 22.4009 95.8115 22.6863 94.5625 22.6863C92.7009 22.6863 91.1255 22.0613 89.8362 20.8115C88.5508 19.5576 87.9061 18.0378 87.9061 16.2515C87.9061 14.3267 88.6394 12.7296 90.1101 11.4604C91.3875 10.3494 92.8703 9.79376 94.5503 9.79376C95.7592 9.79376 96.8955 10.0792 97.9593 10.6541C99.0271 11.2289 99.8571 12.0158 100.453 13.0111C101.05 14.0064 101.348 15.0788 101.348 16.2285ZM98.0842 16.2362C98.0842 15.2216 97.7659 14.3806 97.1333 13.7133C96.5007 13.0459 95.6545 12.7102 94.5988 12.7102C93.5632 12.7102 92.7171 13.0536 92.0603 13.7403C91.4357 14.4038 91.1214 15.2371 91.1214 16.2362C91.1214 17.2507 91.4317 18.0879 92.0483 18.7514C92.6929 19.4457 93.535 19.793 94.5867 19.793C95.6343 19.793 96.4845 19.4457 97.1333 18.7514C97.7659 18.0802 98.0842 17.2431 98.0842 16.2362ZM115.49 22.3854H112.274V17.0116C112.274 15.8928 112.254 15.183 112.214 14.8821C112.097 13.9639 111.815 13.3352 111.36 12.988C111.017 12.7411 110.594 12.6177 110.095 12.6177C108.721 12.6177 107.842 13.4008 107.459 14.9708C107.367 15.3566 107.318 16.186 107.318 17.4629V22.3854H104.103V10.0947H107.318V11.3677C108.624 10.3185 109.893 9.79376 111.126 9.79376C112.407 9.79376 113.487 10.2181 114.37 11.0668C115.115 11.7843 115.49 12.853 115.49 14.2726V22.3854ZM130.115 22.3854H126.924V17.0193C126.924 15.9469 126.9 15.2371 126.856 14.8898C126.739 13.9678 126.453 13.343 126.002 13.0111C125.659 12.7642 125.236 12.6408 124.74 12.6408C123.374 12.6408 122.496 13.4085 122.109 14.9478C122.017 15.3142 121.968 16.1551 121.968 17.4668V22.3854H118.753V5.34973H121.968V11.3446C123.221 10.3107 124.495 9.79376 125.788 9.79376C127.162 9.79376 128.234 10.2181 129.011 11.0668C129.749 11.873 130.115 12.9417 130.115 14.2726V22.3854ZM136.666 7.051C136.666 7.59871 136.469 8.0656 136.07 8.45135C135.675 8.8371 135.196 9.02998 134.627 9.02998C134.047 9.02998 133.556 8.83324 133.157 8.43976C132.758 8.04628 132.556 7.56796 132.556 7.00463C132.556 6.46464 132.758 6.00548 133.157 5.62359C133.556 5.2417 134.039 5.04883 134.607 5.04883C135.18 5.04883 135.667 5.24557 136.066 5.63518C136.465 6.0248 136.666 6.4954 136.666 7.051ZM136.231 22.3854H132.992V10.0947H136.231V22.3854ZM145.405 10.0947L144.414 12.7719C144.039 12.5906 143.729 12.5019 143.483 12.5019C142.992 12.5019 142.572 12.7951 142.238 13.3814C141.859 14.018 141.686 15.1676 141.718 16.8303L141.73 17.4283V22.3854H138.515V10.0947H141.295V11.6686C141.9 10.4187 142.834 9.79376 144.1 9.79376C144.515 9.79376 144.95 9.89406 145.405 10.0947ZM159.998 16.5449L159.986 17.1312H149.651C149.808 18.0224 150.219 18.7167 150.88 19.2144C151.541 19.7082 152.359 19.955 153.334 19.955C154.539 19.955 155.574 19.5615 156.437 18.7745L159.152 19.9936C157.827 21.7875 155.893 22.6863 153.346 22.6863C151.368 22.6863 149.732 22.0922 148.442 20.9041C147.153 19.7198 146.508 18.1843 146.508 16.3095C146.508 14.4501 147.133 12.9031 148.382 11.6571C149.627 10.4149 151.223 9.79376 153.161 9.79376C155.183 9.79376 156.827 10.411 158.097 11.6417C159.402 12.9186 160.039 14.5541 159.998 16.5449ZM156.735 14.6776C156.517 13.9755 156.09 13.4239 155.453 13.0189C154.821 12.6138 154.108 12.4093 153.318 12.4093C152.427 12.4093 151.642 12.6447 150.969 13.1192C150.55 13.4123 150.155 13.9332 149.796 14.6776H156.735Z" fill="black"/>
<path fill-rule="evenodd" clip-rule="evenodd" d="M26.4667 26.4684C23.1706 29.8703 18.4621 32 13.2334 32C8.00458 32 3.29591 29.8702 0 26.4684C0.527203 26.1517 1.02325 25.8369 1.44004 25.5264C2.13157 25.0115 2.60535 24.5089 2.95757 23.9326C3.30979 23.3563 3.54014 22.7066 3.70285 22.0099C3.86541 21.3132 3.96016 20.5696 4.09398 19.7397C4.2278 18.9098 4.40052 17.9935 4.5048 17.2476C4.60892 16.5018 4.64443 15.9264 4.67978 15.3512L13.2334 15.4303L21.7869 15.3512C21.8223 15.9264 21.8578 16.5018 21.9619 17.2476C22.0662 17.9935 22.2389 18.9098 22.3727 19.7397C22.5065 20.5696 22.6013 21.3132 22.7638 22.0099C22.9266 22.7066 23.1569 23.3563 23.5091 23.9326C23.8614 24.5089 24.3351 25.0115 25.0267 25.5264C25.4435 25.8369 25.9393 26.1517 26.4667 26.4684ZM13.1652 3.67752C13.0167 3.56238 12.7299 3.44941 12.53 3.30723C12.3304 3.16504 12.2177 2.99349 12.0537 2.72118C11.8898 2.44902 11.6747 2.07625 11.521 1.71832C11.3673 1.36023 11.2751 1.01698 11.229 0.7595C11.183 0.502023 11.183 0.330474 11.1292 0.210236C11.0753 0.0901522 10.9678 0.0213771 10.8601 0.00422225C10.7526 -0.0129326 10.6451 0.0213789 10.5579 0.12199C10.4709 0.222446 10.4043 0.389206 10.3479 0.681147C10.2916 0.972779 10.2454 1.38974 10.2454 1.81151C10.2454 2.23327 10.2916 2.65998 10.3557 3.03259C10.4198 3.40536 10.5016 3.72419 10.6425 4.02572C10.7835 4.32739 10.9831 4.61177 11.2111 4.78471C11.439 4.95765 11.6952 5.01884 11.9999 4.99937C12.3047 4.97974 12.6582 4.87913 12.8886 4.70372C13.1192 4.52846 13.2267 4.27825 13.2753 4.09449C13.3241 3.91043 13.3139 3.79282 13.1652 3.67752Z" fill="#F0B74D"/>
<path fill-rule="evenodd" clip-rule="evenodd" d="M22.2382 29.6994C19.5884 31.1624 16.5142 31.9997 13.2355 31.9997C9.95689 31.9997 6.88261 31.1626 4.23288 29.6994C4.13893 29.4888 4.0566 29.2769 3.99058 29.0635C3.77282 28.3584 3.7344 27.6351 3.93941 27.0159C4.14425 26.3968 4.59252 25.8818 4.96379 25.2712C5.33522 24.6607 5.62981 23.9544 5.81545 23.1208C6.00108 22.287 6.07792 21.3259 6.11634 20.514C6.15072 19.7863 6.15427 19.1787 6.09019 18.6278C4.67985 17.1055 3.82754 15.1274 3.82754 12.9651C3.82754 8.71213 7.12378 5.17189 11.4812 4.41136C11.5324 4.22251 11.6621 4.0168 11.7811 3.83675C11.9367 3.60122 12.0738 3.41004 12.235 3.23339C12.3965 3.0569 12.5821 2.89509 12.821 2.7356C13.0599 2.57626 13.3519 2.41939 13.795 2.26732C14.2381 2.11524 14.8321 1.96811 15.2573 1.89223C15.6825 1.81619 15.9387 1.81125 16.0974 1.84556C16.2562 1.87987 16.3177 1.95343 16.3229 2.04415C16.3279 2.13487 16.2767 2.24274 16.1051 2.3704C15.9335 2.4979 15.6415 2.64488 15.3471 2.87547C15.0525 3.1059 14.7553 3.41979 14.5346 3.69133C14.356 3.91109 14.2273 4.10304 14.1698 4.30225C18.9269 4.73638 22.6435 8.44909 22.6435 12.9651C22.6435 15.1274 21.7912 17.1055 20.3809 18.6278C20.3168 19.1787 20.3202 19.7863 20.3545 20.514C20.3931 21.3259 20.47 22.287 20.6556 23.1208C20.8412 23.9544 21.1358 24.6607 21.5073 25.2712C21.8785 25.8818 22.3268 26.3968 22.5316 27.0159C22.7365 27.6351 22.6982 28.3584 22.4805 29.0635C22.4144 29.2769 22.3321 29.4888 22.2382 29.6994Z" fill="#F6C569"/>
<path fill-rule="evenodd" clip-rule="evenodd" d="M19.6418 7.58789C22.0371 7.58789 23.9788 9.44694 23.9788 11.7403C23.9788 14.0336 22.0371 15.8927 19.6418 15.8927C17.2464 15.8927 15.3047 14.0336 15.3047 11.7403C15.3047 9.44694 17.2464 7.58789 19.6418 7.58789Z" fill="#F0B74D"/>
<mask id="mask0_2481_130884" style="mask-type:luminance" maskUnits="userSpaceOnUse" x="15" y="7" width="9" height="9">
<path d="M19.6418 7.58887C22.0371 7.58887 23.9788 9.44792 23.9788 11.7413C23.9788 14.0346 22.0371 15.8937 19.6418 15.8937C17.2464 15.8937 15.3047 14.0346 15.3047 11.7413C15.3047 9.44792 17.2464 7.58887 19.6418 7.58887Z" fill="white"/>
</mask>
<g mask="url(#mask0_2481_130884)">
<path d="M19.9828 14.6792C22.4717 14.4777 24.3478 12.8406 24.1732 11.0225C23.9985 9.20441 21.8393 7.89384 19.3504 8.09526C16.8614 8.29668 14.9853 9.93382 15.16 11.7519C15.3346 13.57 17.4939 14.8806 19.9828 14.6792Z" fill="#FEFEFE"/>
</g>
<path fill-rule="evenodd" clip-rule="evenodd" d="M6.82146 7.58789C4.42612 7.58789 2.48438 9.44694 2.48438 11.7403C2.48438 14.0336 4.42612 15.8927 6.82146 15.8927C9.21663 15.8927 11.1585 14.0336 11.1585 11.7403C11.1585 9.44694 9.21663 7.58789 6.82146 7.58789Z" fill="#F0B74D"/>
<mask id="mask1_2481_130884" style="mask-type:luminance" maskUnits="userSpaceOnUse" x="2" y="7" width="10" height="9">
<path d="M6.82146 7.58887C4.42612 7.58887 2.48438 9.44792 2.48438 11.7413C2.48438 14.0346 4.42612 15.8937 6.82146 15.8937C9.21663 15.8937 11.1585 14.0346 11.1585 11.7413C11.1585 9.44792 9.21663 7.58887 6.82146 7.58887Z" fill="white"/>
</mask>
<g mask="url(#mask1_2481_130884)">
<path d="M6.47812 14.6792C3.98919 14.4777 2.1131 12.8406 2.28775 11.0225C2.4624 9.20441 4.62165 7.89384 7.11058 8.09526C9.59951 8.29668 11.4756 9.93382 11.301 11.7519C11.1263 13.57 8.96705 14.8806 6.47812 14.6792Z" fill="#FEFEFE"/>
</g>
<path fill-rule="evenodd" clip-rule="evenodd" d="M19.0731 8.80859C20.6126 8.80859 21.8605 10.0034 21.8605 11.4773C21.8605 12.9511 20.6126 14.1461 19.0731 14.1461C17.5336 14.1461 16.2857 12.9511 16.2857 11.4773C16.2857 10.0034 17.5336 8.80859 19.0731 8.80859ZM7.3968 8.80859C8.93628 8.80859 10.1842 10.0034 10.1842 11.4773C10.1842 12.9511 8.93628 14.1461 7.3968 14.1461C5.85732 14.1461 4.60938 12.9511 4.60938 11.4773C4.60938 10.0034 5.85732 8.80859 7.3968 8.80859Z" fill="#F6911F"/>
<path fill-rule="evenodd" clip-rule="evenodd" d="M19.0752 10.2549C19.7787 10.2549 20.349 10.8009 20.349 11.4744C20.349 12.1479 19.7787 12.6941 19.0752 12.6941C18.3717 12.6941 17.8013 12.1479 17.8013 11.4744C17.8013 10.8009 18.3717 10.2549 19.0752 10.2549ZM7.39894 10.2549C8.10241 10.2549 8.67272 10.8009 8.67272 11.4744C8.67272 12.1479 8.10241 12.6941 7.39894 12.6941C6.69546 12.6941 6.125 12.1479 6.125 11.4744C6.125 10.8009 6.69546 10.2549 7.39894 10.2549Z" fill="black"/>
<path fill-rule="evenodd" clip-rule="evenodd" d="M18.6611 11.3604C18.8512 11.3604 19.0054 11.5079 19.0054 11.6898C19.0054 11.8719 18.8512 12.0195 18.6611 12.0195C18.4711 12.0195 18.3169 11.8719 18.3169 11.6898C18.3169 11.5079 18.4711 11.3604 18.6611 11.3604ZM6.98478 11.3604C7.17494 11.3604 7.32909 11.5079 7.32909 11.6898C7.32909 11.8719 7.17494 12.0195 6.98478 12.0195C6.79479 12.0195 6.64062 11.8719 6.64062 11.6898C6.64062 11.5079 6.79479 11.3604 6.98478 11.3604Z" fill="white"/>
<path fill-rule="evenodd" clip-rule="evenodd" d="M13.252 19.2129L11.477 18.5542C8.23488 15.9458 10.7056 12.8461 13.252 14.7619C15.7986 12.8461 18.2693 15.9458 15.027 18.5542L13.252 19.2129Z" fill="white"/>
<path fill-rule="evenodd" clip-rule="evenodd" d="M13.003 16.9352L11.4779 18.2858C11.3594 18.3909 11.3296 18.5529 11.4035 18.6904L12.9286 21.5296C12.9909 21.6456 13.1075 21.7137 13.2437 21.7137C13.3798 21.7139 13.4965 21.6459 13.559 21.5299L15.0891 18.6909C15.1633 18.5532 15.1333 18.3908 15.0144 18.2857L13.4841 16.9349C13.3478 16.8145 13.1391 16.8147 13.003 16.9352ZM2.28125 24.798C2.54921 24.5222 2.76907 24.2384 2.95503 23.9341C3.30725 23.3578 3.5376 22.7081 3.70031 22.0114C3.71532 21.9466 3.73002 21.8812 3.7439 21.8157C5.6398 22.7917 9.1767 23.4482 13.2273 23.4482C17.2823 23.4482 20.8225 22.7903 22.7169 21.8125C22.7311 21.8792 22.746 21.9455 22.7613 22.0114C22.924 22.7081 23.1544 23.3578 23.5066 23.9341C23.6919 24.2375 23.9111 24.5205 24.1779 24.7955C22.0112 25.9839 17.9191 26.785 13.2273 26.785C8.53876 26.785 4.44914 25.985 2.28125 24.798Z" fill="#F7DCAA"/>
<path fill-rule="evenodd" clip-rule="evenodd" d="M13.0069 16.9362L11.482 18.2866C11.3635 18.3919 11.3335 18.5535 11.4072 18.6912L12.9325 21.5304C12.9906 21.6384 13.0959 21.7051 13.2203 21.7136C13.1977 21.689 13.1783 21.6607 13.1622 21.629L11.6369 18.6226C11.5632 18.4767 11.593 18.3058 11.7117 18.1943L13.1289 16.8652C13.085 16.8804 13.0434 16.904 13.0069 16.9362Z" fill="white" fill-opacity="0.25098"/>
<path d="M19.7608 6.19187C21.1622 6.19187 22.4321 6.82953 23.3519 7.85991C24.2212 8.83387 24.7773 10.1583 24.8364 11.6267C25.0054 11.6777 25.1287 11.8295 25.1287 12.0075C25.1287 12.1908 24.9983 12.3461 24.8218 12.3926C24.714 13.7627 24.1724 14.9943 23.3519 15.9136C22.4321 16.9439 21.1622 17.5816 19.7608 17.5816C18.3593 17.5816 17.0894 16.9439 16.1696 15.9136C15.2494 14.8826 14.6799 13.4586 14.6799 11.8868C14.6799 11.7879 14.6821 11.6896 14.6866 11.5918C14.2051 11.4769 13.7221 11.4207 13.2384 11.4216C12.7544 11.4225 12.2679 11.4808 11.7791 11.595C11.7833 11.6916 11.7857 11.789 11.7857 11.8868C11.7857 13.4587 11.2164 14.8827 10.2958 15.9139C9.37603 16.9444 8.10596 17.5821 6.70434 17.5821C5.30271 17.5821 4.03281 16.9445 3.11287 15.9139C2.29236 14.9946 1.75079 13.7629 1.64296 12.3926C1.46637 12.3461 1.33594 12.191 1.33594 12.0075C1.33594 11.8293 1.45927 11.6777 1.62844 11.6267C1.68752 10.1582 2.24345 8.83356 3.11303 7.8596C4.03281 6.82907 5.30271 6.19141 6.70434 6.19141C8.10596 6.19141 9.37603 6.82907 10.2958 7.8596C11.0719 8.72893 11.5985 9.87738 11.7446 11.1583C12.2435 11.0451 12.7417 10.9873 13.2384 10.9864C13.7344 10.9853 14.229 11.0411 14.7215 11.1549C14.8682 9.87552 15.3946 8.72831 16.1696 7.85991C17.0894 6.82953 18.3593 6.19187 19.7608 6.19187ZM10.9885 11.7517C10.9488 11.7245 10.9174 11.6813 10.9034 11.627C10.8806 11.5397 10.9087 11.449 10.9681 11.3953C10.8658 10.2653 10.4141 9.25207 9.73664 8.49293C8.96182 7.62468 7.88966 7.08748 6.70434 7.08748C5.51918 7.08748 4.44702 7.62468 3.67219 8.49293C2.89769 9.36057 2.41859 10.5606 2.41859 11.8868C2.41859 13.2128 2.8977 14.4129 3.67204 15.2805C4.44702 16.1488 5.51918 16.686 6.70434 16.686C7.88966 16.686 8.96182 16.1488 9.73664 15.2805C10.5111 14.4129 10.9902 13.213 10.9902 11.8868C10.9902 11.8417 10.9896 11.7966 10.9885 11.7517ZM15.4968 11.4032C15.5511 11.4581 15.5753 11.5457 15.5525 11.6295C15.5393 11.6783 15.512 11.718 15.4773 11.7449C15.4762 11.7921 15.4754 11.8394 15.4754 11.8868C15.4754 13.2128 15.9544 14.4127 16.7288 15.2802C17.5038 16.1483 18.5758 16.6855 19.7608 16.6855C20.9458 16.6855 22.0178 16.1483 22.7928 15.2802C23.5671 14.4127 24.0462 13.2128 24.0462 11.8868C24.0462 10.5608 23.5671 9.36088 22.7928 8.49324C22.0178 7.62515 20.9458 7.08794 19.7608 7.08794C18.5758 7.08794 17.5038 7.62515 16.7288 8.49324C16.0497 9.25408 15.5977 10.2702 15.4968 11.4032Z" fill="#1A1A1A"/>
</svg>
