<svg width="12" height="12" viewBox="0 0 12 12" fill="none" xmlns="http://www.w3.org/2000/svg">
<path d="M3.99342 2.25163L7.64742 6.00013L3.99342 9.74863C3.928 9.8156 3.89137 9.9055 3.89137 9.99913C3.89137 10.0927 3.928 10.1827 3.99342 10.2496C4.0252 10.2821 4.06312 10.3078 4.10498 10.3254C4.14683 10.343 4.19177 10.3521 4.23717 10.3521C4.28257 10.3521 4.32752 10.343 4.36937 10.3254C4.41123 10.3078 4.44915 10.2821 4.48092 10.2496L8.36892 6.26188C8.43718 6.19185 8.47539 6.09792 8.47539 6.00013C8.47539 5.90233 8.43718 5.80841 8.36892 5.73838L4.48167 1.75063C4.44988 1.71797 4.41186 1.69201 4.36987 1.67429C4.32787 1.65656 4.28275 1.64743 4.23717 1.64743C4.19159 1.64743 4.14647 1.65656 4.10448 1.67429C4.06249 1.69201 4.02447 1.71797 3.99267 1.75063C3.92725 1.8176 3.89063 1.9075 3.89063 2.00113C3.89062 2.09475 3.92725 2.18466 3.99267 2.25163H3.99342Z" fill="#8D8D8D"/>
</svg>
