<svg width="121" height="120" viewBox="0 0 121 120" fill="none" xmlns="http://www.w3.org/2000/svg">
<path d="M13.1285 52.5233C13.1285 52.5233 34.2478 51.7034 38.8117 18.0465C42.8646 -11.844 78.4771 1.76108 88.7714 13.6762C102.107 29.1111 94.9981 55.6625 112.249 59.0168C129.5 62.371 118.235 99.6639 92.0489 96.0943C59.4746 91.6539 67.3557 110.108 57.5771 117.919C50.5592 123.525 21.7832 118.128 20.8241 97.7786C20.0171 80.6545 12.5666 80.7088 7.28557 78.7671C-0.330811 75.9667 -5.12997 55.6855 13.1285 52.5233Z" fill="#F3D8A7" fill-opacity="0.2"/>
<path d="M91.1777 23.9968L71.2363 44.6367L75.5025 48.5109L95.4439 27.871L91.1777 23.9968Z" fill="#F3C164"/>
<path d="M96.4736 16.1737L80.9591 32.2317C80.8728 32.3211 80.8775 32.4614 80.9697 32.5452L87.314 38.3066C87.4062 38.3903 87.551 38.3857 87.6374 38.2963L103.152 22.2383C103.238 22.1489 103.233 22.0086 103.141 21.9248L96.7969 16.1634C96.7047 16.0797 96.5599 16.0843 96.4736 16.1737Z" fill="#F08E1F"/>
<path d="M82.0354 62.1931C81.6541 48.3586 69.7772 37.4432 55.5076 37.8128C41.238 38.1824 29.9792 49.6971 30.3605 63.5316C30.7417 77.366 42.6186 88.2814 56.8882 87.9118C71.1579 87.5422 82.4166 76.0275 82.0354 62.1931Z" fill="#F08E1F"/>
<path d="M77.8198 62.3015C77.5007 50.7244 67.5618 41.59 55.6205 41.8993C43.6793 42.2086 34.2576 51.8445 34.5766 63.4216C34.8957 74.9987 44.8346 84.133 56.7759 83.8237C68.7171 83.5144 78.1388 73.8786 77.8198 62.3015Z" fill="#F3D8A7"/>
</svg>
