<svg width="31" height="32" viewBox="0 0 31 32" fill="none" xmlns="http://www.w3.org/2000/svg">
<circle cx="15.5" cy="16" r="15.5" fill="#FFECD6"/>
<path d="M19.5 15.7712C19.2608 15.7712 19.0625 15.5728 19.0625 15.3337V14.167C19.0625 12.3295 18.5433 11.1045 16 11.1045C13.4567 11.1045 12.9375 12.3295 12.9375 14.167V15.3337C12.9375 15.5728 12.7392 15.7712 12.5 15.7712C12.2608 15.7712 12.0625 15.5728 12.0625 15.3337V14.167C12.0625 12.4753 12.4708 10.2295 16 10.2295C19.5292 10.2295 19.9375 12.4753 19.9375 14.167V15.3337C19.9375 15.5728 19.7392 15.7712 19.5 15.7712Z" fill="#161616"/>
<path d="M18.918 22.7705H13.0846C10.5121 22.7705 9.73047 21.9888 9.73047 19.4163V18.2497C9.73047 15.6772 10.5121 14.8955 13.0846 14.8955H18.918C21.4905 14.8955 22.2721 15.6772 22.2721 18.2497V19.4163C22.2721 21.9888 21.4905 22.7705 18.918 22.7705ZM13.0846 15.7705C10.9963 15.7705 10.6055 16.1672 10.6055 18.2497V19.4163C10.6055 21.4988 10.9963 21.8955 13.0846 21.8955H18.918C21.0063 21.8955 21.3971 21.4988 21.3971 19.4163V18.2497C21.3971 16.1672 21.0063 15.7705 18.918 15.7705H13.0846Z" fill="#161616"/>
<path d="M13.6654 19.417C13.5895 19.417 13.5137 19.3995 13.4437 19.3703C13.3679 19.3412 13.3095 19.3003 13.2512 19.2478C13.1462 19.137 13.082 18.9912 13.082 18.8337C13.082 18.7578 13.0995 18.682 13.1287 18.612C13.1579 18.5362 13.1987 18.4778 13.2512 18.4195C13.3095 18.367 13.3679 18.3262 13.4437 18.297C13.6537 18.2037 13.9162 18.2562 14.0795 18.4195C14.132 18.4778 14.1729 18.542 14.202 18.612C14.2312 18.682 14.2487 18.7578 14.2487 18.8337C14.2487 18.9853 14.1845 19.137 14.0795 19.2478C13.9687 19.3528 13.817 19.417 13.6654 19.417Z" fill="#161616"/>
<path d="M16.0013 19.4162C15.8496 19.4162 15.698 19.352 15.5871 19.247C15.4821 19.1362 15.418 18.9904 15.418 18.8329C15.418 18.757 15.4296 18.6812 15.4646 18.6112C15.4938 18.5412 15.5346 18.477 15.5871 18.4187C15.7213 18.2845 15.9255 18.2204 16.1121 18.2612C16.153 18.267 16.188 18.2787 16.223 18.2962C16.258 18.3079 16.293 18.3254 16.328 18.3487C16.3571 18.3662 16.3863 18.3954 16.4155 18.4187C16.468 18.477 16.5088 18.5412 16.538 18.6112C16.5671 18.6812 16.5846 18.757 16.5846 18.8329C16.5846 18.9904 16.5205 19.1362 16.4155 19.247C16.3863 19.2704 16.3571 19.2937 16.328 19.317C16.293 19.3404 16.258 19.3579 16.223 19.3696C16.188 19.3871 16.153 19.3987 16.1121 19.4045C16.0771 19.4104 16.0363 19.4162 16.0013 19.4162Z" fill="#161616"/>
<path d="M18.3333 19.4162C18.1758 19.4162 18.03 19.352 17.9192 19.247C17.8667 19.1887 17.8258 19.1245 17.7967 19.0545C17.7675 18.9845 17.75 18.9087 17.75 18.8329C17.75 18.6812 17.8142 18.5295 17.9192 18.4187C17.9483 18.3954 17.9775 18.3721 18.0067 18.3487C18.0417 18.3254 18.0767 18.3079 18.1117 18.2962C18.1467 18.2787 18.1817 18.267 18.2167 18.2612C18.4092 18.2204 18.6075 18.2845 18.7475 18.4187C18.8525 18.5295 18.9167 18.6754 18.9167 18.8329C18.9167 18.9087 18.8992 18.9845 18.87 19.0545C18.8408 19.1304 18.8 19.1887 18.7475 19.247C18.6367 19.352 18.485 19.4162 18.3333 19.4162Z" fill="#161616"/>
</svg>
