<svg width="31" height="32" viewBox="0 0 31 32" fill="none" xmlns="http://www.w3.org/2000/svg">
<circle cx="15.5" cy="16" r="15.5" fill="#FFECD6"/>
<path d="M19.0833 20.6663H10.9167C9.98333 20.6663 9.75 19.8888 9.75 19.4997V12.4997C9.75 12.1903 9.87292 11.8935 10.0917 11.6747C10.3105 11.4559 10.6072 11.333 10.9167 11.333H16.75C17.0594 11.333 17.3562 11.4559 17.575 11.6747C17.7938 11.8935 17.9167 12.1903 17.9167 12.4997V15.9997M19.0833 20.6663C18.6943 20.6663 17.9167 20.433 17.9167 19.4997V15.9997M19.0833 20.6663C20.0167 20.6663 20.25 19.8888 20.25 19.4997V15.9997H17.9167" stroke="#1A1A1A" stroke-width="1.16667" stroke-linecap="round" stroke-linejoin="round"/>
</svg>
