<svg width="188" height="28" viewBox="0 0 188 28" fill="none" xmlns="http://www.w3.org/2000/svg">
<rect width="188" height="28" rx="14" fill="#F5FFF6"/>
<path d="M13.9988 16.7796L11.6855 14.4662C11.5608 14.3416 11.3917 14.2715 11.2155 14.2715C11.0392 14.2715 10.8701 14.3416 10.7455 14.4662C10.6208 14.5909 10.5508 14.7599 10.5508 14.9362C10.5508 15.0235 10.568 15.1099 10.6014 15.1906C10.6348 15.2712 10.6837 15.3445 10.7455 15.4062L13.5321 18.1929C13.7921 18.4529 14.2121 18.4529 14.4721 18.1929L21.5255 11.1396C21.6501 11.0149 21.7201 10.8458 21.7201 10.6696C21.7201 10.4933 21.6501 10.3242 21.5255 10.1996C21.4008 10.0749 21.2317 10.0049 21.0555 10.0049C20.8792 10.0049 20.7101 10.0749 20.5855 10.1996L13.9988 16.7796Z" fill="#08A11A"/>
<path d="M29.4091 20V8.36364H33.3409C34.2538 8.36364 35 8.52841 35.5795 8.85795C36.1629 9.18371 36.5947 9.625 36.875 10.1818C37.1553 10.7386 37.2955 11.3598 37.2955 12.0455C37.2955 12.7311 37.1553 13.3542 36.875 13.9148C36.5985 14.4754 36.1705 14.9223 35.5909 15.2557C35.0114 15.5852 34.2689 15.75 33.3636 15.75H30.5455V14.5H33.3182C33.9432 14.5 34.4451 14.392 34.8239 14.1761C35.2027 13.9602 35.4773 13.6686 35.6477 13.3011C35.822 12.9299 35.9091 12.5114 35.9091 12.0455C35.9091 11.5795 35.822 11.1629 35.6477 10.7955C35.4773 10.428 35.2008 10.1402 34.8182 9.93182C34.4356 9.7197 33.928 9.61364 33.2955 9.61364H30.8182V20H29.4091ZM41.9517 20.2045C41.3987 20.2045 40.8968 20.1004 40.446 19.892C39.9953 19.6799 39.6373 19.375 39.3722 18.9773C39.107 18.5758 38.9744 18.0909 38.9744 17.5227C38.9744 17.0227 39.0729 16.6174 39.2699 16.3068C39.4669 15.9924 39.7301 15.7462 40.0597 15.5682C40.3892 15.3902 40.7528 15.2576 41.1506 15.1705C41.5521 15.0795 41.9555 15.0076 42.3608 14.9545C42.8911 14.8864 43.321 14.8352 43.6506 14.8011C43.9839 14.7633 44.2263 14.7008 44.3778 14.6136C44.5331 14.5265 44.6108 14.375 44.6108 14.1591V14.1136C44.6108 13.553 44.4574 13.1174 44.1506 12.8068C43.8475 12.4962 43.3873 12.3409 42.7699 12.3409C42.1297 12.3409 41.6278 12.4811 41.2642 12.7614C40.9006 13.0417 40.6449 13.3409 40.4972 13.6591L39.2244 13.2045C39.4517 12.6742 39.7547 12.2614 40.1335 11.9659C40.5161 11.6667 40.9328 11.4583 41.3835 11.3409C41.8381 11.2197 42.285 11.1591 42.7244 11.1591C43.0047 11.1591 43.3267 11.1932 43.6903 11.2614C44.0578 11.3258 44.4119 11.4602 44.7528 11.6648C45.0975 11.8693 45.3835 12.178 45.6108 12.5909C45.8381 13.0038 45.9517 13.5568 45.9517 14.25V20H44.6108V18.8182H44.5426C44.4517 19.0076 44.3002 19.2102 44.0881 19.4261C43.8759 19.642 43.5938 19.8258 43.2415 19.9773C42.8892 20.1288 42.4593 20.2045 41.9517 20.2045ZM42.1562 19C42.6866 19 43.1335 18.8958 43.4972 18.6875C43.8646 18.4792 44.1411 18.2102 44.3267 17.8807C44.5161 17.5511 44.6108 17.2045 44.6108 16.8409V15.6136C44.554 15.6818 44.429 15.7443 44.2358 15.8011C44.0464 15.8542 43.8267 15.9015 43.5767 15.9432C43.3305 15.9811 43.09 16.0152 42.8551 16.0455C42.6241 16.072 42.4366 16.0947 42.2926 16.1136C41.9441 16.1591 41.6184 16.233 41.3153 16.3352C41.0161 16.4337 40.7737 16.5833 40.5881 16.7841C40.4063 16.9811 40.3153 17.25 40.3153 17.5909C40.3153 18.0568 40.4877 18.4091 40.8324 18.6477C41.1809 18.8826 41.6222 19 42.1562 19ZM48.9503 23.2727C48.723 23.2727 48.5204 23.2538 48.3423 23.2159C48.1643 23.1818 48.0412 23.1477 47.973 23.1136L48.3139 21.9318C48.6397 22.0152 48.9276 22.0455 49.1776 22.0227C49.4276 22 49.6491 21.8883 49.8423 21.6875C50.0393 21.4905 50.2192 21.1705 50.3821 20.7273L50.6321 20.0455L47.4048 11.2727H48.8594L51.2685 18.2273H51.3594L53.7685 11.2727H55.223L51.5185 21.2727C51.3518 21.7235 51.1454 22.0966 50.8991 22.392C50.6529 22.6913 50.367 22.9129 50.0412 23.0568C49.7192 23.2008 49.3556 23.2727 48.9503 23.2727ZM56.9929 20V11.2727H58.2884V12.6364H58.402C58.5838 12.1705 58.8774 11.8087 59.2827 11.5511C59.688 11.2898 60.1747 11.1591 60.7429 11.1591C61.3187 11.1591 61.7978 11.2898 62.1804 11.5511C62.5668 11.8087 62.8679 12.1705 63.0838 12.6364H63.1747C63.3982 12.1856 63.7334 11.8277 64.1804 11.5625C64.6274 11.2936 65.1634 11.1591 65.7884 11.1591C66.5687 11.1591 67.2069 11.4034 67.7031 11.892C68.1993 12.3769 68.4474 13.1326 68.4474 14.1591V20H67.1065V14.1591C67.1065 13.5152 66.9304 13.0549 66.5781 12.7784C66.2259 12.5019 65.8111 12.3636 65.3338 12.3636C64.7202 12.3636 64.2448 12.5492 63.9077 12.9205C63.5705 13.2879 63.402 13.7538 63.402 14.3182V20H62.0384V14.0227C62.0384 13.5265 61.8774 13.1269 61.5554 12.8239C61.2334 12.517 60.8187 12.3636 60.3111 12.3636C59.9626 12.3636 59.6368 12.4564 59.3338 12.642C59.0346 12.8277 58.7921 13.0852 58.6065 13.4148C58.4247 13.7405 58.3338 14.1174 58.3338 14.5455V20H56.9929ZM74.5582 20.1818C73.7173 20.1818 72.992 19.9962 72.3821 19.625C71.776 19.25 71.3082 18.7273 70.9787 18.0568C70.6529 17.3826 70.4901 16.5985 70.4901 15.7045C70.4901 14.8106 70.6529 14.0227 70.9787 13.3409C71.3082 12.6553 71.7666 12.1212 72.3537 11.7386C72.9446 11.3523 73.634 11.1591 74.4219 11.1591C74.8764 11.1591 75.3253 11.2348 75.7685 11.3864C76.2116 11.5379 76.6151 11.7841 76.9787 12.125C77.3423 12.4621 77.6321 12.9091 77.848 13.4659C78.0639 14.0227 78.1719 14.7083 78.1719 15.5227V16.0909H71.4446V14.9318H76.8082C76.8082 14.4394 76.7098 14 76.5128 13.6136C76.3196 13.2273 76.0431 12.9223 75.6832 12.6989C75.3272 12.4754 74.9067 12.3636 74.4219 12.3636C73.8878 12.3636 73.4257 12.4962 73.0355 12.7614C72.6491 13.0227 72.3518 13.3636 72.1435 13.7841C71.9351 14.2045 71.831 14.6553 71.831 15.1364V15.9091C71.831 16.5682 71.9446 17.1269 72.1719 17.5852C72.4029 18.0398 72.723 18.3864 73.1321 18.625C73.5412 18.8598 74.0166 18.9773 74.5582 18.9773C74.9105 18.9773 75.2287 18.928 75.5128 18.8295C75.8007 18.7273 76.0488 18.5758 76.2571 18.375C76.4654 18.1705 76.6264 17.9167 76.7401 17.6136L78.0355 17.9773C77.8991 18.4167 77.67 18.803 77.348 19.1364C77.026 19.4659 76.6283 19.7235 76.1548 19.9091C75.6813 20.0909 75.1491 20.1818 74.5582 20.1818ZM81.5526 14.75V20H80.2116V11.2727H81.5071V12.6364H81.6207C81.8253 12.1932 82.1359 11.8371 82.5526 11.5682C82.9692 11.2955 83.5071 11.1591 84.1662 11.1591C84.7571 11.1591 85.2741 11.2803 85.7173 11.5227C86.1605 11.7614 86.5052 12.125 86.7514 12.6136C86.9976 13.0985 87.1207 13.7121 87.1207 14.4545V20H85.7798V14.5455C85.7798 13.8598 85.6018 13.3258 85.2457 12.9432C84.8897 12.5568 84.401 12.3636 83.7798 12.3636C83.3518 12.3636 82.9692 12.4564 82.6321 12.642C82.2988 12.8277 82.0355 13.0985 81.8423 13.4545C81.6491 13.8106 81.5526 14.2424 81.5526 14.75ZM93.3665 11.2727V12.4091H88.8438V11.2727H93.3665ZM90.1619 9.18182H91.5028V17.5C91.5028 17.8788 91.5578 18.1629 91.6676 18.3523C91.7813 18.5379 91.9252 18.6629 92.0994 18.7273C92.2775 18.7879 92.465 18.8182 92.6619 18.8182C92.8097 18.8182 92.9309 18.8106 93.0256 18.7955C93.1203 18.7765 93.196 18.7614 93.2528 18.75L93.5256 19.9545C93.4347 19.9886 93.3078 20.0227 93.1449 20.0568C92.982 20.0947 92.7756 20.1136 92.5256 20.1136C92.1468 20.1136 91.7756 20.0322 91.4119 19.8693C91.0521 19.7064 90.7528 19.4583 90.5142 19.125C90.2794 18.7917 90.1619 18.3712 90.1619 17.8636V9.18182ZM106.065 13.2273L104.861 13.5682C104.785 13.3674 104.673 13.1723 104.526 12.983C104.382 12.7898 104.185 12.6307 103.935 12.5057C103.685 12.3807 103.365 12.3182 102.974 12.3182C102.44 12.3182 101.995 12.4413 101.639 12.6875C101.287 12.9299 101.111 13.2386 101.111 13.6136C101.111 13.947 101.232 14.2102 101.474 14.4034C101.717 14.5966 102.096 14.7576 102.611 14.8864L103.906 15.2045C104.687 15.3939 105.268 15.6837 105.651 16.0739C106.033 16.4602 106.224 16.9583 106.224 17.5682C106.224 18.0682 106.08 18.5152 105.793 18.9091C105.509 19.303 105.111 19.6136 104.599 19.8409C104.088 20.0682 103.493 20.1818 102.815 20.1818C101.925 20.1818 101.188 19.9886 100.605 19.6023C100.022 19.2159 99.6525 18.6515 99.4972 17.9091L100.77 17.5909C100.891 18.0606 101.12 18.4129 101.457 18.6477C101.798 18.8826 102.243 19 102.793 19C103.418 19 103.914 18.8674 104.281 18.6023C104.652 18.3333 104.838 18.0114 104.838 17.6364C104.838 17.3333 104.732 17.0795 104.52 16.875C104.308 16.6667 103.982 16.5114 103.543 16.4091L102.088 16.0682C101.289 15.8788 100.702 15.5852 100.327 15.1875C99.9555 14.786 99.7699 14.2841 99.7699 13.6818C99.7699 13.1894 99.9081 12.7538 100.185 12.375C100.465 11.9962 100.846 11.6989 101.327 11.483C101.812 11.267 102.361 11.1591 102.974 11.1591C103.838 11.1591 104.516 11.3485 105.009 11.7273C105.505 12.1061 105.857 12.6061 106.065 13.2273ZM113.743 16.4318V11.2727H115.084V20H113.743V18.5227H113.652C113.447 18.9659 113.129 19.3428 112.697 19.6534C112.266 19.9602 111.72 20.1136 111.061 20.1136C110.516 20.1136 110.031 19.9943 109.607 19.7557C109.182 19.5133 108.849 19.1496 108.607 18.6648C108.364 18.1761 108.243 17.5606 108.243 16.8182V11.2727H109.584V16.7273C109.584 17.3636 109.762 17.8712 110.118 18.25C110.478 18.6288 110.936 18.8182 111.493 18.8182C111.826 18.8182 112.165 18.733 112.51 18.5625C112.858 18.392 113.15 18.1307 113.385 17.7784C113.624 17.4261 113.743 16.9773 113.743 16.4318ZM121.085 20.1818C120.267 20.1818 119.563 19.9886 118.972 19.6023C118.381 19.2159 117.926 18.6837 117.608 18.0057C117.29 17.3277 117.131 16.553 117.131 15.6818C117.131 14.7955 117.294 14.0133 117.619 13.3352C117.949 12.6534 118.407 12.1212 118.994 11.7386C119.585 11.3523 120.275 11.1591 121.062 11.1591C121.676 11.1591 122.229 11.2727 122.722 11.5C123.214 11.7273 123.617 12.0455 123.932 12.4545C124.246 12.8636 124.441 13.3409 124.517 13.8864H123.176C123.074 13.4886 122.847 13.1364 122.494 12.8295C122.146 12.5189 121.676 12.3636 121.085 12.3636C120.563 12.3636 120.104 12.5 119.71 12.7727C119.32 13.0417 119.015 13.4223 118.795 13.9148C118.58 14.4034 118.472 14.9773 118.472 15.6364C118.472 16.3106 118.578 16.8977 118.79 17.3977C119.006 17.8977 119.309 18.286 119.699 18.5625C120.093 18.839 120.555 18.9773 121.085 18.9773C121.434 18.9773 121.75 18.9167 122.034 18.7955C122.318 18.6742 122.559 18.5 122.756 18.2727C122.953 18.0455 123.093 17.7727 123.176 17.4545H124.517C124.441 17.9697 124.254 18.4337 123.955 18.8466C123.659 19.2557 123.267 19.5814 122.778 19.8239C122.294 20.0625 121.729 20.1818 121.085 20.1818ZM130.023 20.1818C129.205 20.1818 128.5 19.9886 127.909 19.6023C127.318 19.2159 126.864 18.6837 126.545 18.0057C126.227 17.3277 126.068 16.553 126.068 15.6818C126.068 14.7955 126.231 14.0133 126.557 13.3352C126.886 12.6534 127.345 12.1212 127.932 11.7386C128.523 11.3523 129.212 11.1591 130 11.1591C130.614 11.1591 131.167 11.2727 131.659 11.5C132.152 11.7273 132.555 12.0455 132.869 12.4545C133.184 12.8636 133.379 13.3409 133.455 13.8864H132.114C132.011 13.4886 131.784 13.1364 131.432 12.8295C131.083 12.5189 130.614 12.3636 130.023 12.3636C129.5 12.3636 129.042 12.5 128.648 12.7727C128.258 13.0417 127.953 13.4223 127.733 13.9148C127.517 14.4034 127.409 14.9773 127.409 15.6364C127.409 16.3106 127.515 16.8977 127.727 17.3977C127.943 17.8977 128.246 18.286 128.636 18.5625C129.03 18.839 129.492 18.9773 130.023 18.9773C130.371 18.9773 130.688 18.9167 130.972 18.7955C131.256 18.6742 131.496 18.5 131.693 18.2727C131.89 18.0455 132.03 17.7727 132.114 17.4545H133.455C133.379 17.9697 133.191 18.4337 132.892 18.8466C132.597 19.2557 132.205 19.5814 131.716 19.8239C131.231 20.0625 130.667 20.1818 130.023 20.1818ZM139.074 20.1818C138.233 20.1818 137.508 19.9962 136.898 19.625C136.292 19.25 135.824 18.7273 135.494 18.0568C135.169 17.3826 135.006 16.5985 135.006 15.7045C135.006 14.8106 135.169 14.0227 135.494 13.3409C135.824 12.6553 136.282 12.1212 136.869 11.7386C137.46 11.3523 138.15 11.1591 138.938 11.1591C139.392 11.1591 139.841 11.2348 140.284 11.3864C140.727 11.5379 141.131 11.7841 141.494 12.125C141.858 12.4621 142.148 12.9091 142.364 13.4659C142.58 14.0227 142.688 14.7083 142.688 15.5227V16.0909H135.96V14.9318H141.324C141.324 14.4394 141.225 14 141.028 13.6136C140.835 13.2273 140.559 12.9223 140.199 12.6989C139.843 12.4754 139.422 12.3636 138.938 12.3636C138.403 12.3636 137.941 12.4962 137.551 12.7614C137.165 13.0227 136.867 13.3636 136.659 13.7841C136.451 14.2045 136.347 14.6553 136.347 15.1364V15.9091C136.347 16.5682 136.46 17.1269 136.688 17.5852C136.919 18.0398 137.239 18.3864 137.648 18.625C138.057 18.8598 138.532 18.9773 139.074 18.9773C139.426 18.9773 139.744 18.928 140.028 18.8295C140.316 18.7273 140.564 18.5758 140.773 18.375C140.981 18.1705 141.142 17.9167 141.256 17.6136L142.551 17.9773C142.415 18.4167 142.186 18.803 141.864 19.1364C141.542 19.4659 141.144 19.7235 140.67 19.9091C140.197 20.0909 139.665 20.1818 139.074 20.1818ZM150.909 13.2273L149.705 13.5682C149.629 13.3674 149.517 13.1723 149.369 12.983C149.225 12.7898 149.028 12.6307 148.778 12.5057C148.528 12.3807 148.208 12.3182 147.818 12.3182C147.284 12.3182 146.839 12.4413 146.483 12.6875C146.131 12.9299 145.955 13.2386 145.955 13.6136C145.955 13.947 146.076 14.2102 146.318 14.4034C146.561 14.5966 146.939 14.7576 147.455 14.8864L148.75 15.2045C149.53 15.3939 150.112 15.6837 150.494 16.0739C150.877 16.4602 151.068 16.9583 151.068 17.5682C151.068 18.0682 150.924 18.5152 150.636 18.9091C150.352 19.303 149.955 19.6136 149.443 19.8409C148.932 20.0682 148.337 20.1818 147.659 20.1818C146.769 20.1818 146.032 19.9886 145.449 19.6023C144.866 19.2159 144.496 18.6515 144.341 17.9091L145.614 17.5909C145.735 18.0606 145.964 18.4129 146.301 18.6477C146.642 18.8826 147.087 19 147.636 19C148.261 19 148.758 18.8674 149.125 18.6023C149.496 18.3333 149.682 18.0114 149.682 17.6364C149.682 17.3333 149.576 17.0795 149.364 16.875C149.152 16.6667 148.826 16.5114 148.386 16.4091L146.932 16.0682C146.133 15.8788 145.545 15.5852 145.17 15.1875C144.799 14.786 144.614 14.2841 144.614 13.6818C144.614 13.1894 144.752 12.7538 145.028 12.375C145.309 11.9962 145.689 11.6989 146.17 11.483C146.655 11.267 147.205 11.1591 147.818 11.1591C148.682 11.1591 149.36 11.3485 149.852 11.7273C150.348 12.1061 150.701 12.6061 150.909 13.2273ZM159.268 13.2273L158.064 13.5682C157.988 13.3674 157.876 13.1723 157.729 12.983C157.585 12.7898 157.388 12.6307 157.138 12.5057C156.888 12.3807 156.568 12.3182 156.178 12.3182C155.643 12.3182 155.198 12.4413 154.842 12.6875C154.49 12.9299 154.314 13.2386 154.314 13.6136C154.314 13.947 154.435 14.2102 154.678 14.4034C154.92 14.5966 155.299 14.7576 155.814 14.8864L157.109 15.2045C157.89 15.3939 158.471 15.6837 158.854 16.0739C159.236 16.4602 159.428 16.9583 159.428 17.5682C159.428 18.0682 159.284 18.5152 158.996 18.9091C158.712 19.303 158.314 19.6136 157.803 19.8409C157.291 20.0682 156.696 20.1818 156.018 20.1818C155.128 20.1818 154.392 19.9886 153.808 19.6023C153.225 19.2159 152.856 18.6515 152.7 17.9091L153.973 17.5909C154.094 18.0606 154.323 18.4129 154.661 18.6477C155.001 18.8826 155.446 19 155.996 19C156.621 19 157.117 18.8674 157.484 18.6023C157.856 18.3333 158.041 18.0114 158.041 17.6364C158.041 17.3333 157.935 17.0795 157.723 16.875C157.511 16.6667 157.185 16.5114 156.746 16.4091L155.291 16.0682C154.492 15.8788 153.905 15.5852 153.53 15.1875C153.159 14.786 152.973 14.2841 152.973 13.6818C152.973 13.1894 153.111 12.7538 153.388 12.375C153.668 11.9962 154.049 11.6989 154.53 11.483C155.015 11.267 155.564 11.1591 156.178 11.1591C157.041 11.1591 157.719 11.3485 158.212 11.7273C158.708 12.1061 159.06 12.6061 159.268 13.2273ZM165.332 11.2727V12.4091H160.628V11.2727H165.332ZM162.037 20V10.0682C162.037 9.56818 162.154 9.15151 162.389 8.81818C162.624 8.48485 162.929 8.23485 163.304 8.06818C163.679 7.90151 164.075 7.81818 164.491 7.81818C164.821 7.81818 165.09 7.8447 165.298 7.89773C165.507 7.95076 165.662 8 165.764 8.04545L165.378 9.20455C165.31 9.18182 165.215 9.15341 165.094 9.11932C164.976 9.08523 164.821 9.06818 164.628 9.06818C164.185 9.06818 163.865 9.17992 163.668 9.40341C163.474 9.62689 163.378 9.95455 163.378 10.3864V20H162.037ZM172.712 16.4318V11.2727H174.053V20H172.712V18.5227H172.621C172.416 18.9659 172.098 19.3428 171.666 19.6534C171.234 19.9602 170.689 20.1136 170.03 20.1136C169.484 20.1136 169 19.9943 168.575 19.7557C168.151 19.5133 167.818 19.1496 167.575 18.6648C167.333 18.1761 167.212 17.5606 167.212 16.8182V11.2727H168.553V16.7273C168.553 17.3636 168.731 17.8712 169.087 18.25C169.446 18.6288 169.905 18.8182 170.462 18.8182C170.795 18.8182 171.134 18.733 171.479 18.5625C171.827 18.392 172.119 18.1307 172.354 17.7784C172.592 17.4261 172.712 16.9773 172.712 16.4318ZM177.849 8.36364V20H176.509V8.36364H177.849Z" fill="#08A11A"/>
</svg>
