<svg width="16" height="16" viewBox="0 0 16 16" fill="none" xmlns="http://www.w3.org/2000/svg">
<path d="M14.3438 0H0.826838C0.395444 0 0 0.396396 0 0.864865V2.37838C0 2.84685 0.395444 3.24324 0.826838 3.24324H14.3438C14.8112 3.24324 15.1707 2.84685 15.2066 2.37838V0.864865C15.2066 0.396396 14.8112 0 14.3438 0ZM14.3438 8.5045H0.826838C0.611141 8.5045 0.395444 8.61261 0.215697 8.75676C0.071899 8.9009 0 9.11712 0 9.36937V10.8829C0 11.3514 0.395444 11.7477 0.826838 11.7477H14.3438C14.8112 11.7477 15.1707 11.3874 15.2066 10.8829V9.36937C15.2066 8.86486 14.8112 8.5045 14.3438 8.5045ZM8.44813 12.7568H0.826838C0.611141 12.7568 0.395444 12.8288 0.251646 13.009C0.107848 13.1532 0 13.3694 0 13.6216V15.1351C0 15.6036 0.395444 16 0.826838 16H8.41218C8.87952 16 9.23902 15.6036 9.23902 15.1351V13.5856C9.27497 13.1171 8.91547 12.7568 8.44813 12.7568ZM15.2066 4.25225H0.826838C0.611141 4.25225 0.395444 4.32432 0.251646 4.5045C0.107848 4.64865 0 4.86486 0 5.11712V6.63063C0 7.0991 0.395444 7.4955 0.826838 7.4955H15.1707C15.638 7.4955 15.9975 7.0991 15.9975 6.63063V5.11712C16.0335 4.64865 15.674 4.25225 15.2066 4.25225Z" fill="white"/>
</svg>
