<svg width="64" height="24" viewBox="0 0 64 24" fill="none" xmlns="http://www.w3.org/2000/svg">
<rect width="64" height="24" rx="12" fill="#F6911F"/>
<path d="M11.0568 16V7.27273H14.0057C14.6903 7.27273 15.25 7.39631 15.6847 7.64347C16.1222 7.88778 16.446 8.21875 16.6562 8.63636C16.8665 9.05398 16.9716 9.51989 16.9716 10.0341C16.9716 10.5483 16.8665 11.0156 16.6562 11.4361C16.4489 11.8565 16.1278 12.1918 15.6932 12.4418C15.2585 12.6889 14.7017 12.8125 14.0227 12.8125H11.9091V11.875H13.9886C14.4574 11.875 14.8338 11.794 15.1179 11.6321C15.402 11.4702 15.608 11.2514 15.7358 10.9759C15.8665 10.6974 15.9318 10.3835 15.9318 10.0341C15.9318 9.68466 15.8665 9.37216 15.7358 9.09659C15.608 8.82102 15.4006 8.60511 15.1136 8.44886C14.8267 8.28977 14.446 8.21023 13.9716 8.21023H12.1136V16H11.0568ZM21.1264 16.1364C20.5355 16.1364 20.017 15.9957 19.571 15.7145C19.1278 15.4332 18.7812 15.0398 18.5312 14.5341C18.2841 14.0284 18.1605 13.4375 18.1605 12.7614C18.1605 12.0795 18.2841 11.4844 18.5312 10.9759C18.7812 10.4673 19.1278 10.0724 19.571 9.79119C20.017 9.50994 20.5355 9.36932 21.1264 9.36932C21.7173 9.36932 22.2344 9.50994 22.6776 9.79119C23.1236 10.0724 23.4702 10.4673 23.7173 10.9759C23.9673 11.4844 24.0923 12.0795 24.0923 12.7614C24.0923 13.4375 23.9673 14.0284 23.7173 14.5341C23.4702 15.0398 23.1236 15.4332 22.6776 15.7145C22.2344 15.9957 21.7173 16.1364 21.1264 16.1364ZM21.1264 15.233C21.5753 15.233 21.9446 15.1179 22.2344 14.8878C22.5241 14.6577 22.7386 14.3551 22.8778 13.9801C23.017 13.6051 23.0866 13.1989 23.0866 12.7614C23.0866 12.3239 23.017 11.9162 22.8778 11.5384C22.7386 11.1605 22.5241 10.8551 22.2344 10.6222C21.9446 10.3892 21.5753 10.2727 21.1264 10.2727C20.6776 10.2727 20.3082 10.3892 20.0185 10.6222C19.7287 10.8551 19.5142 11.1605 19.375 11.5384C19.2358 11.9162 19.1662 12.3239 19.1662 12.7614C19.1662 13.1989 19.2358 13.6051 19.375 13.9801C19.5142 14.3551 19.7287 14.6577 20.0185 14.8878C20.3082 15.1179 20.6776 15.233 21.1264 15.233ZM25.6275 18.4545V9.45455H26.5991V10.4943H26.7184C26.7923 10.3807 26.8945 10.2358 27.0252 10.0597C27.1587 9.88068 27.3491 9.72159 27.5962 9.58239C27.8462 9.44034 28.1843 9.36932 28.6104 9.36932C29.1616 9.36932 29.6474 9.5071 30.0678 9.78267C30.4883 10.0582 30.8164 10.4489 31.0522 10.9545C31.288 11.4602 31.4059 12.0568 31.4059 12.7443C31.4059 13.4375 31.288 14.0384 31.0522 14.5469C30.8164 15.0526 30.4897 15.4446 30.0721 15.723C29.6545 15.9986 29.1729 16.1364 28.6275 16.1364C28.207 16.1364 27.8704 16.0668 27.6175 15.9276C27.3647 15.7855 27.1701 15.625 27.0337 15.446C26.8974 15.2642 26.7923 15.1136 26.7184 14.9943H26.6332V18.4545H25.6275ZM26.6161 12.7273C26.6161 13.2216 26.6886 13.6577 26.8335 14.0355C26.9783 14.4105 27.19 14.7045 27.4684 14.9176C27.7468 15.1278 28.0877 15.233 28.4911 15.233C28.9116 15.233 29.2624 15.1222 29.5437 14.9006C29.8278 14.6761 30.0408 14.375 30.1829 13.9972C30.3278 13.6165 30.4002 13.1932 30.4002 12.7273C30.4002 12.267 30.3292 11.8523 30.1871 11.483C30.0479 11.1108 29.8363 10.8168 29.5522 10.6009C29.271 10.3821 28.9173 10.2727 28.4911 10.2727C28.082 10.2727 27.7383 10.3764 27.4599 10.5838C27.1815 10.7884 26.9712 11.0753 26.8292 11.4446C26.6871 11.8111 26.6161 12.2386 26.6161 12.7273ZM37.065 13.3239V9.45455H38.0707V16H37.065V14.892H36.9968C36.8434 15.2244 36.6048 15.5071 36.2809 15.7401C35.957 15.9702 35.5479 16.0852 35.0536 16.0852C34.6445 16.0852 34.2809 15.9957 33.9627 15.8168C33.6445 15.6349 33.3945 15.3622 33.2127 14.9986C33.0309 14.6321 32.94 14.1705 32.94 13.6136V9.45455H33.9457V13.5455C33.9457 14.0227 34.0792 14.4034 34.3462 14.6875C34.6161 14.9716 34.9599 15.1136 35.3775 15.1136C35.6275 15.1136 35.8817 15.0497 36.1403 14.9219C36.4016 14.794 36.6204 14.598 36.7965 14.3338C36.9755 14.0696 37.065 13.733 37.065 13.3239ZM40.9183 7.27273V16H39.9126V7.27273H40.9183ZM44.6864 16.1534C44.2717 16.1534 43.8952 16.0753 43.5572 15.919C43.2191 15.7599 42.9506 15.5312 42.7518 15.233C42.5529 14.9318 42.4535 14.5682 42.4535 14.142C42.4535 13.767 42.5273 13.4631 42.6751 13.2301C42.8228 12.9943 43.0202 12.8097 43.2674 12.6761C43.5146 12.5426 43.7873 12.4432 44.0856 12.3778C44.3867 12.3097 44.6893 12.2557 44.9933 12.2159C45.391 12.1648 45.7134 12.1264 45.9606 12.1009C46.2106 12.0724 46.3924 12.0256 46.506 11.9602C46.6225 11.8949 46.6808 11.7812 46.6808 11.6193V11.5852C46.6808 11.1648 46.5657 10.8381 46.3356 10.6051C46.1083 10.3722 45.7631 10.2557 45.3001 10.2557C44.82 10.2557 44.4435 10.3608 44.1708 10.571C43.8981 10.7812 43.7063 11.0057 43.5955 11.2443L42.641 10.9034C42.8114 10.5057 43.0387 10.196 43.3228 9.97443C43.6097 9.75 43.9222 9.59375 44.2603 9.50568C44.6012 9.41477 44.9364 9.36932 45.266 9.36932C45.4762 9.36932 45.7177 9.39489 45.9904 9.44602C46.266 9.49432 46.5316 9.59517 46.7873 9.74858C47.0458 9.90199 47.2603 10.1335 47.4308 10.4432C47.6012 10.7528 47.6864 11.1676 47.6864 11.6875V16H46.6808V15.1136H46.6296C46.5614 15.2557 46.4478 15.4077 46.2887 15.5696C46.1296 15.7315 45.918 15.8693 45.6538 15.983C45.3896 16.0966 45.0671 16.1534 44.6864 16.1534ZM44.8398 15.25C45.2376 15.25 45.5728 15.1719 45.8455 15.0156C46.1211 14.8594 46.3285 14.6577 46.4677 14.4105C46.6097 14.1634 46.6808 13.9034 46.6808 13.6307V12.7102C46.6381 12.7614 46.5444 12.8082 46.3995 12.8509C46.2575 12.8906 46.0927 12.9261 45.9052 12.9574C45.7205 12.9858 45.5401 13.0114 45.364 13.0341C45.1907 13.054 45.0501 13.071 44.9421 13.0852C44.6808 13.1193 44.4364 13.1747 44.2092 13.2514C43.9847 13.3253 43.8029 13.4375 43.6637 13.5881C43.5273 13.7358 43.4592 13.9375 43.4592 14.1932C43.4592 14.5426 43.5884 14.8068 43.8469 14.9858C44.1083 15.1619 44.4393 15.25 44.8398 15.25ZM49.522 16V9.45455H50.4936V10.4432H50.5618C50.6811 10.1193 50.897 9.85653 51.2095 9.65483C51.522 9.45312 51.8743 9.35227 52.2663 9.35227C52.3402 9.35227 52.4325 9.35369 52.5433 9.35653C52.6541 9.35937 52.7379 9.36364 52.7947 9.36932V10.392C52.7607 10.3835 52.6825 10.3707 52.5604 10.3537C52.4411 10.3338 52.3146 10.3239 52.1811 10.3239C51.8629 10.3239 51.5788 10.3906 51.3288 10.5241C51.0817 10.6548 50.8857 10.8366 50.7408 11.0696C50.5987 11.2997 50.5277 11.5625 50.5277 11.858V16H49.522Z" fill="white"/>
</svg>
