<svg width="67" height="24" viewBox="0 0 67 24" fill="none" xmlns="http://www.w3.org/2000/svg">
<rect width="67" height="24" rx="12" fill="#F5F5F5"/>
<path d="M9.37358 17V6.81818H12.8139C13.6127 6.81818 14.2656 6.96236 14.7727 7.25071C15.2831 7.53575 15.661 7.92188 15.9062 8.40909C16.1515 8.89631 16.2741 9.43987 16.2741 10.0398C16.2741 10.6397 16.1515 11.1849 15.9062 11.6754C15.6643 12.166 15.2898 12.5571 14.7827 12.8487C14.2756 13.1371 13.6259 13.2812 12.8338 13.2812H10.3679V12.1875H12.794C13.3409 12.1875 13.7801 12.093 14.1115 11.9041C14.4429 11.7152 14.6832 11.46 14.8324 11.1385C14.9848 10.8137 15.0611 10.4474 15.0611 10.0398C15.0611 9.6321 14.9848 9.26752 14.8324 8.94602C14.6832 8.62453 14.4413 8.37263 14.1065 8.19034C13.7718 8.00473 13.3277 7.91193 12.7741 7.91193H10.6065V17H9.37358ZM18.1012 17V9.36364H19.2347V10.517H19.3143C19.4535 10.1392 19.7054 9.83262 20.07 9.5973C20.4345 9.36198 20.8455 9.24432 21.3029 9.24432C21.3891 9.24432 21.4968 9.24597 21.6261 9.24929C21.7553 9.2526 21.8531 9.25758 21.9194 9.2642V10.4574C21.8796 10.4474 21.7885 10.4325 21.646 10.4126C21.5067 10.3894 21.3593 10.3778 21.2035 10.3778C20.8323 10.3778 20.5008 10.4557 20.2092 10.6115C19.9208 10.764 19.6921 10.9761 19.5231 11.2479C19.3574 11.5163 19.2745 11.8229 19.2745 12.1676V17H18.1012ZM26.2795 17.1591C25.5437 17.1591 24.909 16.9967 24.3754 16.6719C23.8451 16.3438 23.4357 15.8864 23.1474 15.2997C22.8623 14.7098 22.7198 14.0237 22.7198 13.2415C22.7198 12.4593 22.8623 11.7699 23.1474 11.1733C23.4357 10.5734 23.8368 10.1061 24.3505 9.77131C24.8675 9.43324 25.4708 9.2642 26.1602 9.2642C26.5579 9.2642 26.9506 9.33049 27.3384 9.46307C27.7262 9.59564 28.0792 9.81108 28.3974 10.1094C28.7156 10.4044 28.9691 10.7955 29.158 11.2827C29.3469 11.7699 29.4414 12.3698 29.4414 13.0824V13.5795H23.555V12.5653H28.2482C28.2482 12.1345 28.1621 11.75 27.9897 11.4119C27.8207 11.0739 27.5787 10.8071 27.2638 10.6115C26.9523 10.416 26.5844 10.3182 26.1602 10.3182C25.6928 10.3182 25.2885 10.4342 24.9471 10.6662C24.609 10.8949 24.3488 11.1932 24.1665 11.5611C23.9843 11.929 23.8931 12.3234 23.8931 12.7443V13.4205C23.8931 13.9972 23.9925 14.486 24.1914 14.8871C24.3936 15.2848 24.6737 15.5881 25.0316 15.7969C25.3896 16.0024 25.8055 16.1051 26.2795 16.1051C26.5877 16.1051 26.8661 16.062 27.1147 15.9759C27.3666 15.8864 27.5837 15.7538 27.766 15.5781C27.9483 15.3991 28.0891 15.1771 28.1886 14.9119L29.3221 15.2301C29.2028 15.6146 29.0022 15.9527 28.7205 16.2443C28.4388 16.5327 28.0908 16.758 27.6765 16.9205C27.2622 17.0795 26.7965 17.1591 26.2795 17.1591ZM31.2262 17V9.36364H32.3597V10.5568H32.4592C32.6183 10.1491 32.8751 9.83262 33.2298 9.60724C33.5844 9.37855 34.0103 9.2642 34.5075 9.2642C35.0112 9.2642 35.4305 9.37855 35.7653 9.60724C36.1033 9.83262 36.3668 10.1491 36.5558 10.5568H36.6353C36.8308 10.1624 37.1242 9.84919 37.5153 9.61719C37.9064 9.38187 38.3754 9.2642 38.9222 9.2642C39.605 9.2642 40.1635 9.47798 40.5977 9.90554C41.0318 10.3298 41.2489 10.991 41.2489 11.8892V17H40.0756V11.8892C40.0756 11.3258 39.9215 10.9231 39.6133 10.6811C39.305 10.4392 38.9421 10.3182 38.5245 10.3182C37.9876 10.3182 37.5716 10.4806 37.2766 10.8054C36.9817 11.1269 36.8342 11.5346 36.8342 12.0284V17H35.641V11.7699C35.641 11.3357 35.5001 10.986 35.2184 10.7209C34.9367 10.4524 34.5737 10.3182 34.1296 10.3182C33.8247 10.3182 33.5397 10.3994 33.2745 10.5618C33.0127 10.7242 32.8005 10.9496 32.6381 11.2379C32.479 11.523 32.3995 11.8527 32.3995 12.2273V17H31.2262ZM43.3942 17V9.36364H44.5675V17H43.3942ZM43.9908 8.09091C43.7621 8.09091 43.5649 8.01302 43.3991 7.85724C43.2367 7.70147 43.1555 7.5142 43.1555 7.29545C43.1555 7.0767 43.2367 6.88944 43.3991 6.73366C43.5649 6.57789 43.7621 6.5 43.9908 6.5C44.2195 6.5 44.415 6.57789 44.5774 6.73366C44.7431 6.88944 44.826 7.0767 44.826 7.29545C44.826 7.5142 44.7431 7.70147 44.5774 7.85724C44.415 8.01302 44.2195 8.09091 43.9908 8.09091ZM49.9181 17.1591C49.1824 17.1591 48.5476 16.9967 48.014 16.6719C47.4837 16.3438 47.0744 15.8864 46.786 15.2997C46.501 14.7098 46.3585 14.0237 46.3585 13.2415C46.3585 12.4593 46.501 11.7699 46.786 11.1733C47.0744 10.5734 47.4754 10.1061 47.9892 9.77131C48.5062 9.43324 49.1094 9.2642 49.7988 9.2642C50.1966 9.2642 50.5893 9.33049 50.9771 9.46307C51.3649 9.59564 51.7179 9.81108 52.036 10.1094C52.3542 10.4044 52.6078 10.7955 52.7967 11.2827C52.9856 11.7699 53.0801 12.3698 53.0801 13.0824V13.5795H47.1937V12.5653H51.8869C51.8869 12.1345 51.8007 11.75 51.6284 11.4119C51.4593 11.0739 51.2174 10.8071 50.9025 10.6115C50.591 10.416 50.2231 10.3182 49.7988 10.3182C49.3315 10.3182 48.9271 10.4342 48.5858 10.6662C48.2477 10.8949 47.9875 11.1932 47.8052 11.5611C47.6229 11.929 47.5318 12.3234 47.5318 12.7443V13.4205C47.5318 13.9972 47.6312 14.486 47.8301 14.8871C48.0323 15.2848 48.3123 15.5881 48.6703 15.7969C49.0282 16.0024 49.4442 16.1051 49.9181 16.1051C50.2264 16.1051 50.5048 16.062 50.7534 15.9759C51.0053 15.8864 51.2224 15.7538 51.4047 15.5781C51.5869 15.3991 51.7278 15.1771 51.8272 14.9119L52.9608 15.2301C52.8414 15.6146 52.6409 15.9527 52.3592 16.2443C52.0775 16.5327 51.7295 16.758 51.3152 16.9205C50.9009 17.0795 50.4352 17.1591 49.9181 17.1591ZM54.8649 17V9.36364H55.9984V10.517H56.0779C56.2172 10.1392 56.469 9.83262 56.8336 9.5973C57.1982 9.36198 57.6092 9.24432 58.0666 9.24432C58.1528 9.24432 58.2605 9.24597 58.3897 9.24929C58.519 9.2526 58.6168 9.25758 58.6831 9.2642V10.4574C58.6433 10.4474 58.5521 10.4325 58.4096 10.4126C58.2704 10.3894 58.1229 10.3778 57.9672 10.3778C57.5959 10.3778 57.2645 10.4557 56.9728 10.6115C56.6845 10.764 56.4558 10.9761 56.2868 11.2479C56.121 11.5163 56.0382 11.8229 56.0382 12.1676V17H54.8649Z" fill="#8D8D8D"/>
</svg>
