<svg width="31" height="32" viewBox="0 0 31 32" fill="none" xmlns="http://www.w3.org/2000/svg">
<circle cx="15.5" cy="16" r="15.5" fill="#FFECD6"/>
<path d="M15.9987 16.9378C14.1495 16.9378 12.6445 15.4328 12.6445 13.5837C12.6445 11.7345 14.1495 10.2295 15.9987 10.2295C17.8479 10.2295 19.3529 11.7345 19.3529 13.5837C19.3529 15.4328 17.8479 16.9378 15.9987 16.9378ZM15.9987 11.1045C14.6337 11.1045 13.5195 12.2187 13.5195 13.5837C13.5195 14.9487 14.6337 16.0628 15.9987 16.0628C17.3637 16.0628 18.4779 14.9487 18.4779 13.5837C18.4779 12.2187 17.3637 11.1045 15.9987 11.1045Z" fill="#161616"/>
<path d="M21.0099 22.7708C20.7708 22.7708 20.5724 22.5725 20.5724 22.3333C20.5724 20.3208 18.5191 18.6875 15.9991 18.6875C13.4791 18.6875 11.4258 20.3208 11.4258 22.3333C11.4258 22.5725 11.2274 22.7708 10.9883 22.7708C10.7491 22.7708 10.5508 22.5725 10.5508 22.3333C10.5508 19.8425 12.9949 17.8125 15.9991 17.8125C19.0033 17.8125 21.4474 19.8425 21.4474 22.3333C21.4474 22.5725 21.2491 22.7708 21.0099 22.7708Z" fill="#161616"/>
</svg>
