<svg width="36" height="36" viewBox="0 0 36 36" fill="none" xmlns="http://www.w3.org/2000/svg">
<rect width="36" height="36" rx="18" fill="#FEF4EC"/>
<path d="M24.4 9.46667H11.6C10.72 9.46667 10 10.1867 10 11.0667V24.9333C10 25.8133 10.72 26.5333 11.6 26.5333H24.4C25.28 26.5333 26 25.8133 26 24.9333V11.0667C26 10.1867 25.28 9.46667 24.4 9.46667ZM23.8667 24.4H12.1333V11.6H23.8667V24.4ZM14.2667 19.0667H21.7333V20.1333H14.2667V19.0667ZM14.2667 21.2H21.7333V22.2667H14.2667V21.2ZM15.3333 14.2667C15.3334 14.0565 15.3749 13.8484 15.4554 13.6542C15.5359 13.4601 15.6538 13.2837 15.8025 13.1351C15.9512 12.9865 16.1276 12.8687 16.3219 12.7883C16.5161 12.7079 16.7242 12.6666 16.9344 12.6667C17.1446 12.6667 17.3527 12.7082 17.5469 12.7887C17.741 12.8692 17.9174 12.9872 18.066 13.1358C18.2146 13.2845 18.3324 13.461 18.4128 13.6552C18.4931 13.8494 18.5345 14.0576 18.5344 14.2677C18.5343 14.6922 18.3655 15.0993 18.0652 15.3993C17.765 15.6994 17.3578 15.8679 16.9333 15.8677C16.5088 15.8676 16.1018 15.6988 15.8017 15.3986C15.5017 15.0983 15.3332 14.6912 15.3333 14.2667ZM18 15.8667H15.8667C14.9867 15.8667 14.2667 16.3467 14.2667 16.9333V18H19.6V16.9333C19.6 16.3467 18.88 15.8667 18 15.8667Z" fill="url(#paint0_radial_2570_11347)"/>
<defs>
<radialGradient id="paint0_radial_2570_11347" cx="0" cy="0" r="1" gradientUnits="userSpaceOnUse" gradientTransform="translate(16.4607 15.4588) rotate(61.5081) scale(10.4968 10.1492)">
<stop offset="0.339" stop-color="#3DCBFF"/>
<stop offset="1" stop-color="#14B1FF"/>
</radialGradient>
</defs>
</svg>
