<svg width="36" height="36" viewBox="0 0 36 36" fill="none" xmlns="http://www.w3.org/2000/svg">
<rect width="36" height="36" rx="18" fill="#FEF4EC"/>
<path d="M20 17.3333H23.3333C23.5222 17.3333 23.6807 17.2693 23.8087 17.1413C23.9367 17.0133 24.0004 16.8551 24 16.6667V14.6667C24 14.4778 23.936 14.3196 23.808 14.192C23.68 14.0644 23.5218 14.0004 23.3333 14H20C19.8111 14 19.6529 14.064 19.5253 14.192C19.3978 14.32 19.3338 14.4782 19.3333 14.6667V16.6667C19.3333 16.8556 19.3973 17.014 19.5253 17.142C19.6533 17.27 19.8116 17.3338 20 17.3333ZM21.6667 15.8333L22.9 14.9667C22.9889 14.9 23.0833 14.8916 23.1833 14.9413C23.2833 14.9911 23.3333 15.0718 23.3333 15.1833C23.3333 15.1944 23.2944 15.2722 23.2167 15.4167L22.05 16.2333C21.9278 16.3222 21.8 16.3667 21.6667 16.3667C21.5333 16.3667 21.4056 16.3222 21.2833 16.2333L20.1167 15.4167C20.1056 15.4056 20.0667 15.3278 20 15.1833C20 15.0722 20.05 14.9916 20.15 14.9413C20.25 14.8911 20.3444 14.8996 20.4333 14.9667L21.6667 15.8333ZM11.3333 24C10.9667 24 10.6529 23.8696 10.392 23.6087C10.1311 23.3478 10.0004 23.0338 10 22.6667V13.3333C10 12.9667 10.1307 12.6529 10.392 12.392C10.6533 12.1311 10.9671 12.0004 11.3333 12H24.6667C25.0333 12 25.3473 12.1307 25.6087 12.392C25.87 12.6533 26.0004 12.9671 26 13.3333V22.6667C26 23.0333 25.8696 23.3473 25.6087 23.6087C25.3478 23.87 25.0338 24.0004 24.6667 24H11.3333ZM20.6 22.6667H24.6667V13.3333H11.3333V22.6667H11.4C11.8667 21.8333 12.5111 21.1807 13.3333 20.7087C14.1556 20.2367 15.0444 20.0004 16 20C16.9556 19.9996 17.8444 20.2358 18.6667 20.7087C19.4889 21.1816 20.1333 21.8342 20.6 22.6667ZM16 19.3333C16.5556 19.3333 17.0278 19.1389 17.4167 18.75C17.8056 18.3611 18 17.8889 18 17.3333C18 16.7778 17.8056 16.3056 17.4167 15.9167C17.0278 15.5278 16.5556 15.3333 16 15.3333C15.4444 15.3333 14.9722 15.5278 14.5833 15.9167C14.1944 16.3056 14 16.7778 14 17.3333C14 17.8889 14.1944 18.3611 14.5833 18.75C14.9722 19.1389 15.4444 19.3333 16 19.3333ZM13.0333 22.6667H18.9667C18.5889 22.2444 18.1416 21.9167 17.6247 21.6833C17.1078 21.45 16.5662 21.3333 16 21.3333C15.4338 21.3333 14.8949 21.45 14.3833 21.6833C13.8718 21.9167 13.4218 22.2444 13.0333 22.6667ZM16 18C15.8111 18 15.6529 17.936 15.5253 17.808C15.3978 17.68 15.3338 17.5218 15.3333 17.3333C15.3329 17.1449 15.3969 16.9867 15.5253 16.8587C15.6538 16.7307 15.812 16.6667 16 16.6667C16.188 16.6667 16.3464 16.7307 16.4753 16.8587C16.6042 16.9867 16.668 17.1449 16.6667 17.3333C16.6653 17.5218 16.6013 17.6802 16.4747 17.8087C16.348 17.9371 16.1898 18.0009 16 18Z" fill="#5856D6"/>
</svg>
