<svg width="91" height="24" viewBox="0 0 91 24" fill="none" xmlns="http://www.w3.org/2000/svg">
<rect width="91" height="24" rx="12" fill="#007AFF" fill-opacity="0.2"/>
<path d="M9.05682 16V7.27273H12.0057C12.6903 7.27273 13.25 7.39631 13.6847 7.64347C14.1222 7.88778 14.446 8.21875 14.6562 8.63636C14.8665 9.05398 14.9716 9.51989 14.9716 10.0341C14.9716 10.5483 14.8665 11.0156 14.6562 11.4361C14.4489 11.8565 14.1278 12.1918 13.6932 12.4418C13.2585 12.6889 12.7017 12.8125 12.0227 12.8125H9.90909V11.875H11.9886C12.4574 11.875 12.8338 11.794 13.1179 11.6321C13.402 11.4702 13.608 11.2514 13.7358 10.9759C13.8665 10.6974 13.9318 10.3835 13.9318 10.0341C13.9318 9.68466 13.8665 9.37216 13.7358 9.09659C13.608 8.82102 13.4006 8.60511 13.1136 8.44886C12.8267 8.28977 12.446 8.21023 11.9716 8.21023H10.1136V16H9.05682ZM20.6626 13.3239V9.45455H21.6683V16H20.6626V14.892H20.5945C20.4411 15.2244 20.2024 15.5071 19.8786 15.7401C19.5547 15.9702 19.1456 16.0852 18.6513 16.0852C18.2422 16.0852 17.8786 15.9957 17.5604 15.8168C17.2422 15.6349 16.9922 15.3622 16.8104 14.9986C16.6286 14.6321 16.5376 14.1705 16.5376 13.6136V9.45455H17.5433V13.5455C17.5433 14.0227 17.6768 14.4034 17.9439 14.6875C18.2138 14.9716 18.5575 15.1136 18.9751 15.1136C19.2251 15.1136 19.4794 15.0497 19.7379 14.9219C19.9993 14.794 20.218 14.598 20.3942 14.3338C20.5732 14.0696 20.6626 13.733 20.6626 13.3239ZM23.6467 16V7.27273H24.6523V10.4943H24.7376C24.8114 10.3807 24.9137 10.2358 25.0444 10.0597C25.1779 9.88068 25.3683 9.72159 25.6154 9.58239C25.8654 9.44034 26.2035 9.36932 26.6296 9.36932C27.1808 9.36932 27.6665 9.5071 28.087 9.78267C28.5075 10.0582 28.8356 10.4489 29.0714 10.9545C29.3072 11.4602 29.4251 12.0568 29.4251 12.7443C29.4251 13.4375 29.3072 14.0384 29.0714 14.5469C28.8356 15.0526 28.5089 15.4446 28.0913 15.723C27.6737 15.9986 27.1921 16.1364 26.6467 16.1364C26.2262 16.1364 25.8896 16.0668 25.6367 15.9276C25.3839 15.7855 25.1893 15.625 25.0529 15.446C24.9165 15.2642 24.8114 15.1136 24.7376 14.9943H24.6183V16H23.6467ZM24.6353 12.7273C24.6353 13.2216 24.7077 13.6577 24.8526 14.0355C24.9975 14.4105 25.2092 14.7045 25.4876 14.9176C25.766 15.1278 26.1069 15.233 26.5103 15.233C26.9308 15.233 27.2816 15.1222 27.5629 14.9006C27.8469 14.6761 28.06 14.375 28.2021 13.9972C28.3469 13.6165 28.4194 13.1932 28.4194 12.7273C28.4194 12.267 28.3484 11.8523 28.2063 11.483C28.0671 11.1108 27.8555 10.8168 27.5714 10.6009C27.2901 10.3821 26.9364 10.2727 26.5103 10.2727C26.1012 10.2727 25.7575 10.3764 25.479 10.5838C25.2006 10.7884 24.9904 11.0753 24.8484 11.4446C24.7063 11.8111 24.6353 12.2386 24.6353 12.7273ZM31.9691 7.27273V16H30.9634V7.27273H31.9691ZM33.8111 16V9.45455H34.8168V16H33.8111ZM34.3224 8.36364C34.1264 8.36364 33.9574 8.29688 33.8153 8.16335C33.6761 8.02983 33.6065 7.86932 33.6065 7.68182C33.6065 7.49432 33.6761 7.33381 33.8153 7.20028C33.9574 7.06676 34.1264 7 34.3224 7C34.5185 7 34.6861 7.06676 34.8253 7.20028C34.9673 7.33381 35.0384 7.49432 35.0384 7.68182C35.0384 7.86932 34.9673 8.02983 34.8253 8.16335C34.6861 8.29688 34.5185 8.36364 34.3224 8.36364ZM39.3178 16.1364C38.7042 16.1364 38.1758 15.9915 37.7326 15.7017C37.2894 15.4119 36.9485 15.0128 36.7099 14.5043C36.4712 13.9957 36.3519 13.4148 36.3519 12.7614C36.3519 12.0966 36.4741 11.5099 36.7184 11.0014C36.9656 10.4901 37.3093 10.0909 37.7496 9.80398C38.1928 9.5142 38.7099 9.36932 39.3008 9.36932C39.761 9.36932 40.1758 9.45455 40.5451 9.625C40.9144 9.79545 41.217 10.0341 41.4528 10.3409C41.6886 10.6477 41.8349 11.0057 41.8917 11.4148H40.886C40.8093 11.1165 40.6388 10.8523 40.3746 10.6222C40.1133 10.3892 39.761 10.2727 39.3178 10.2727C38.9258 10.2727 38.582 10.375 38.2866 10.5795C37.994 10.7812 37.7653 11.0668 37.6005 11.4361C37.4386 11.8026 37.3576 12.233 37.3576 12.7273C37.3576 13.233 37.4371 13.6733 37.5962 14.0483C37.7582 14.4233 37.9854 14.7145 38.2781 14.9219C38.5735 15.1293 38.9201 15.233 39.3178 15.233C39.5792 15.233 39.8164 15.1875 40.0295 15.0966C40.2425 15.0057 40.4229 14.875 40.5707 14.7045C40.7184 14.5341 40.8235 14.3295 40.886 14.0909H41.8917C41.8349 14.4773 41.6942 14.8253 41.4698 15.1349C41.2482 15.4418 40.9542 15.6861 40.5877 15.8679C40.2241 16.0469 39.8008 16.1364 39.3178 16.1364ZM46.7369 16V9.45455H47.7085V10.4432H47.7766C47.896 10.1193 48.1119 9.85653 48.4244 9.65483C48.7369 9.45312 49.0891 9.35227 49.4812 9.35227C49.555 9.35227 49.6474 9.35369 49.7582 9.35653C49.869 9.35937 49.9528 9.36364 50.0096 9.36932V10.392C49.9755 10.3835 49.8974 10.3707 49.7752 10.3537C49.6559 10.3338 49.5295 10.3239 49.396 10.3239C49.0778 10.3239 48.7937 10.3906 48.5437 10.5241C48.2965 10.6548 48.1005 10.8366 47.9556 11.0696C47.8136 11.2997 47.7425 11.5625 47.7425 11.858V16H46.7369ZM53.7468 16.1364C53.1161 16.1364 52.5721 15.9972 52.1147 15.7188C51.6602 15.4375 51.3093 15.0455 51.0621 14.5426C50.8178 14.0369 50.6957 13.4489 50.6957 12.7784C50.6957 12.108 50.8178 11.517 51.0621 11.0057C51.3093 10.4915 51.6531 10.0909 52.0934 9.80398C52.5366 9.5142 53.0536 9.36932 53.6445 9.36932C53.9854 9.36932 54.3221 9.42614 54.6545 9.53977C54.9869 9.65341 55.2894 9.83807 55.5621 10.0938C55.8349 10.3466 56.0522 10.6818 56.2141 11.0994C56.3761 11.517 56.457 12.0312 56.457 12.642V13.0682H51.4116V12.1989H55.4343C55.4343 11.8295 55.3604 11.5 55.2127 11.2102C55.0678 10.9205 54.8604 10.6918 54.5906 10.5241C54.3235 10.3565 54.0082 10.2727 53.6445 10.2727C53.244 10.2727 52.8974 10.3722 52.6048 10.571C52.315 10.767 52.092 11.0227 51.9357 11.3381C51.7795 11.6534 51.7013 11.9915 51.7013 12.3523V12.9318C51.7013 13.4261 51.7866 13.8452 51.957 14.1889C52.1303 14.5298 52.3704 14.7898 52.6772 14.9688C52.984 15.1449 53.3406 15.233 53.7468 15.233C54.011 15.233 54.2496 15.196 54.4627 15.1222C54.6786 15.0455 54.8647 14.9318 55.021 14.7812C55.1772 14.6278 55.2979 14.4375 55.3832 14.2102L56.3548 14.483C56.2525 14.8125 56.0806 15.1023 55.8391 15.3523C55.5977 15.5994 55.2994 15.7926 54.9442 15.9318C54.5891 16.0682 54.19 16.1364 53.7468 16.1364ZM60.646 16.1364C60.0323 16.1364 59.5039 15.9915 59.0607 15.7017C58.6175 15.4119 58.2766 15.0128 58.038 14.5043C57.7994 13.9957 57.68 13.4148 57.68 12.7614C57.68 12.0966 57.8022 11.5099 58.0465 11.0014C58.2937 10.4901 58.6374 10.0909 59.0778 9.80398C59.521 9.5142 60.038 9.36932 60.6289 9.36932C61.0891 9.36932 61.5039 9.45455 61.8732 9.625C62.2425 9.79545 62.5451 10.0341 62.7809 10.3409C63.0167 10.6477 63.163 11.0057 63.2198 11.4148H62.2141C62.1374 11.1165 61.967 10.8523 61.7028 10.6222C61.4414 10.3892 61.0891 10.2727 60.646 10.2727C60.2539 10.2727 59.9102 10.375 59.6147 10.5795C59.3221 10.7812 59.0934 11.0668 58.9286 11.4361C58.7667 11.8026 58.6857 12.233 58.6857 12.7273C58.6857 13.233 58.7653 13.6733 58.9244 14.0483C59.0863 14.4233 59.3136 14.7145 59.6062 14.9219C59.9016 15.1293 60.2482 15.233 60.646 15.233C60.9073 15.233 61.1445 15.1875 61.3576 15.0966C61.5707 15.0057 61.7511 14.875 61.8988 14.7045C62.0465 14.5341 62.1516 14.3295 62.2141 14.0909H63.2198C63.163 14.4773 63.0224 14.8253 62.7979 15.1349C62.5763 15.4418 62.2823 15.6861 61.9158 15.8679C61.5522 16.0469 61.1289 16.1364 60.646 16.1364ZM67.3491 16.1364C66.7582 16.1364 66.2397 15.9957 65.7937 15.7145C65.3505 15.4332 65.0039 15.0398 64.7539 14.5341C64.5067 14.0284 64.3832 13.4375 64.3832 12.7614C64.3832 12.0795 64.5067 11.4844 64.7539 10.9759C65.0039 10.4673 65.3505 10.0724 65.7937 9.79119C66.2397 9.50994 66.7582 9.36932 67.3491 9.36932C67.94 9.36932 68.457 9.50994 68.9002 9.79119C69.3462 10.0724 69.6928 10.4673 69.94 10.9759C70.19 11.4844 70.315 12.0795 70.315 12.7614C70.315 13.4375 70.19 14.0284 69.94 14.5341C69.6928 15.0398 69.3462 15.4332 68.9002 15.7145C68.457 15.9957 67.94 16.1364 67.3491 16.1364ZM67.3491 15.233C67.7979 15.233 68.1673 15.1179 68.457 14.8878C68.7468 14.6577 68.9613 14.3551 69.1005 13.9801C69.2397 13.6051 69.3093 13.1989 69.3093 12.7614C69.3093 12.3239 69.2397 11.9162 69.1005 11.5384C68.9613 11.1605 68.7468 10.8551 68.457 10.6222C68.1673 10.3892 67.7979 10.2727 67.3491 10.2727C66.9002 10.2727 66.5309 10.3892 66.2411 10.6222C65.9513 10.8551 65.7369 11.1605 65.5977 11.5384C65.4585 11.9162 65.3888 12.3239 65.3888 12.7614C65.3888 13.1989 65.4585 13.6051 65.5977 13.9801C65.7369 14.3551 65.9513 14.6577 66.2411 14.8878C66.5309 15.1179 66.9002 15.233 67.3491 15.233ZM71.8501 16V9.45455H72.8217V10.4432H72.8899C73.0092 10.1193 73.2251 9.85653 73.5376 9.65483C73.8501 9.45312 74.2024 9.35227 74.5945 9.35227C74.6683 9.35227 74.7607 9.35369 74.8714 9.35653C74.9822 9.35937 75.0661 9.36364 75.1229 9.36932V10.392C75.0888 10.3835 75.0107 10.3707 74.8885 10.3537C74.7692 10.3338 74.6428 10.3239 74.5092 10.3239C74.1911 10.3239 73.907 10.3906 73.657 10.5241C73.4098 10.6548 73.2138 10.8366 73.0689 11.0696C72.9268 11.2997 72.8558 11.5625 72.8558 11.858V16H71.8501ZM78.5874 16.1364C78.0419 16.1364 77.5604 15.9986 77.1428 15.723C76.7251 15.4446 76.3984 15.0526 76.1626 14.5469C75.9268 14.0384 75.8089 13.4375 75.8089 12.7443C75.8089 12.0568 75.9268 11.4602 76.1626 10.9545C76.3984 10.4489 76.7266 10.0582 77.147 9.78267C77.5675 9.5071 78.0533 9.36932 78.6044 9.36932C79.0305 9.36932 79.3672 9.44034 79.6143 9.58239C79.8643 9.72159 80.0547 9.88068 80.1854 10.0597C80.3189 10.2358 80.4226 10.3807 80.4964 10.4943H80.5817V7.27273H81.5874V16H80.6158V14.9943H80.4964C80.4226 15.1136 80.3175 15.2642 80.1811 15.446C80.0447 15.625 79.8501 15.7855 79.5973 15.9276C79.3445 16.0668 79.0078 16.1364 78.5874 16.1364ZM78.7237 15.233C79.1271 15.233 79.468 15.1278 79.7464 14.9176C80.0249 14.7045 80.2365 14.4105 80.3814 14.0355C80.5263 13.6577 80.5987 13.2216 80.5987 12.7273C80.5987 12.2386 80.5277 11.8111 80.3857 11.4446C80.2436 11.0753 80.0334 10.7884 79.755 10.5838C79.4766 10.3764 79.1328 10.2727 78.7237 10.2727C78.2976 10.2727 77.9425 10.3821 77.6584 10.6009C77.3771 10.8168 77.1655 11.1108 77.0234 11.483C76.8842 11.8523 76.8146 12.267 76.8146 12.7273C76.8146 13.1932 76.8857 13.6165 77.0277 13.9972C77.1726 14.375 77.3857 14.6761 77.6669 14.9006C77.951 15.1222 78.3033 15.233 78.7237 15.233Z" fill="#007AFF"/>
</svg>
