<svg width="31" height="32" viewBox="0 0 31 32" fill="none" xmlns="http://www.w3.org/2000/svg">
<circle cx="15.5" cy="16" r="15.5" fill="#FFECD6"/>
<path d="M15.1497 22.2987C15.0155 22.2987 14.8872 22.2403 14.7997 22.1237L14.2105 21.3362C14.088 21.1728 13.9247 21.0795 13.7497 21.0678C13.5689 21.0562 13.3997 21.1378 13.2597 21.2837C12.4139 22.1878 11.7722 22.112 11.463 21.9953C11.148 21.8728 10.6172 21.4703 10.6172 20.1753V13.607C10.6172 11.017 11.3639 10.2295 13.808 10.2295H18.2122C20.6564 10.2295 21.403 11.017 21.403 13.607V16.092C21.403 16.3312 21.2047 16.5295 20.9655 16.5295C20.7264 16.5295 20.528 16.3312 20.528 16.092V13.607C20.528 11.5012 20.1605 11.1045 18.2122 11.1045H13.808C11.8597 11.1045 11.4922 11.5012 11.4922 13.607V20.1753C11.4922 20.7878 11.6439 21.1262 11.7839 21.1787C11.8889 21.2195 12.1747 21.1612 12.618 20.6887C12.9389 20.3503 13.3589 20.1695 13.7964 20.1928C14.228 20.2162 14.6364 20.4437 14.9105 20.8112L15.5055 21.5987C15.6514 21.7912 15.6105 22.0653 15.418 22.2112C15.3305 22.2753 15.2372 22.2987 15.1497 22.2987Z" fill="#161616"/>
<path d="M18.3346 14.0205H13.668C13.4288 14.0205 13.2305 13.8222 13.2305 13.583C13.2305 13.3438 13.4288 13.1455 13.668 13.1455H18.3346C18.5738 13.1455 18.7721 13.3438 18.7721 13.583C18.7721 13.8222 18.5738 14.0205 18.3346 14.0205Z" fill="#161616"/>
<path d="M17.75 16.3545H14.25C14.0108 16.3545 13.8125 16.1562 13.8125 15.917C13.8125 15.6778 14.0108 15.4795 14.25 15.4795H17.75C17.9892 15.4795 18.1875 15.6778 18.1875 15.917C18.1875 16.1562 17.9892 16.3545 17.75 16.3545Z" fill="#161616"/>
<path d="M17.6434 22.2049C17.4218 22.2049 17.2118 22.1233 17.0601 21.9716C16.8793 21.7908 16.7976 21.5283 16.8384 21.2541L16.9493 20.4666C16.9784 20.2624 17.101 20.0174 17.2468 19.8716L19.3118 17.8066C19.5918 17.5266 19.866 17.3808 20.1635 17.3516C20.5251 17.3166 20.8868 17.4683 21.2251 17.8066C21.5634 18.1449 21.7151 18.5008 21.6801 18.8683C21.6509 19.1599 21.4993 19.4399 21.2251 19.7199L19.1601 21.7849C19.0143 21.9308 18.7693 22.0533 18.5651 22.0824L17.7776 22.1933C17.7309 22.1991 17.6901 22.2049 17.6434 22.2049ZM20.2626 18.2208C20.2568 18.2208 20.2509 18.2208 20.2451 18.2208C20.1634 18.2266 20.0526 18.3024 19.9301 18.4249L17.8651 20.4899C17.8476 20.5074 17.8184 20.5658 17.8184 20.5891L17.7134 21.3183L18.4426 21.2133C18.4659 21.2074 18.5243 21.1783 18.5418 21.1608L20.6068 19.0958C20.7293 18.9674 20.8051 18.8624 20.8109 18.7808C20.8226 18.6641 20.7059 18.5241 20.6068 18.4249C20.5134 18.3316 20.3793 18.2208 20.2626 18.2208Z" fill="#161616"/>
<path d="M20.6216 20.146C20.5808 20.146 20.54 20.1402 20.505 20.1285C19.735 19.9127 19.1225 19.3002 18.9066 18.5302C18.8425 18.2969 18.9766 18.0577 19.21 17.9877C19.4433 17.9235 19.6825 18.0577 19.7466 18.291C19.8808 18.7694 20.26 19.1485 20.7383 19.2827C20.9716 19.3469 21.1058 19.5919 21.0416 19.8252C20.9891 20.0177 20.8141 20.146 20.6216 20.146Z" fill="#161616"/>
</svg>
