<svg width="132" height="48" viewBox="0 0 132 48" fill="none" xmlns="http://www.w3.org/2000/svg">
<path d="M24 3C12.4172 3 3 12.4172 3 24C3 35.5829 12.4172 45 24 45C35.5829 45 45 35.5829 45 24C45 12.4172 35.5829 3 24 3Z" fill="#FC471E"/>
<path fill-rule="evenodd" clip-rule="evenodd" d="M30.0289 13.3643C30.0099 13.4848 30 13.6084 30 13.7344C30 15.0064 31.0074 16.0377 32.25 16.0377C33.4926 16.0377 34.5 15.0064 34.5 13.7344C34.5 12.4623 33.4926 11.431 32.25 11.431C31.6964 11.431 31.1894 11.6358 30.7972 11.9754L24.9543 10.5L22.8425 19.1476C20.0331 19.3369 17.5065 20.2079 15.6005 21.5228C15.0592 20.9795 14.3179 20.6444 13.5 20.6444C11.8431 20.6444 10.5 22.0194 10.5 23.7155C10.5 24.8959 11.1505 25.9207 12.1045 26.4348C12.0356 26.8011 12 27.1749 12 27.5544C12 32.2188 17.3726 36 24 36C30.6275 36 36 32.2188 36 27.5544C36 27.1749 35.9644 26.8011 35.8955 26.4348C36.8494 25.9207 37.5 24.8959 37.5 23.7155C37.5 22.0194 36.1569 20.6444 34.5 20.6444C33.6822 20.6444 32.9408 20.9795 32.3996 21.5228C30.323 20.0903 27.5098 19.1846 24.397 19.1135L26.0457 12.3621L30.0289 13.3643ZM18.75 28.3223C19.9926 28.3223 21 27.291 21 26.0188C21 24.7467 19.9926 23.7155 18.75 23.7155C17.5074 23.7155 16.5 24.7467 16.5 26.0188C16.5 27.291 17.5074 28.3223 18.75 28.3223ZM29.25 28.3223C30.4926 28.3223 31.5 27.291 31.5 26.0188C31.5 24.7467 30.4926 23.7155 29.25 23.7155C28.0074 23.7155 27 24.7467 27 26.0188C27 27.291 28.0074 28.3223 29.25 28.3223ZM19.1659 30.7545C18.8214 30.5193 18.3558 30.6145 18.126 30.9674C17.8962 31.3203 17.9893 31.797 18.3339 32.0322C19.9661 33.1459 21.9831 33.7029 24 33.7029C26.0169 33.7029 28.0339 33.1459 29.666 32.0322C30.0107 31.797 30.1038 31.3203 29.874 30.9674C29.6442 30.6145 29.1786 30.5193 28.8339 30.7545C27.4538 31.6964 25.7269 32.1674 24 32.1674C22.976 32.1674 21.9517 32.0018 21 31.6706C20.3469 31.4432 19.7277 31.1378 19.1659 30.7545Z" fill="white"/>
<path d="M57.7216 33V15.5455H64.267C65.608 15.5455 66.733 15.7784 67.642 16.2443C68.5568 16.7102 69.2472 17.3636 69.7131 18.2045C70.1847 19.0398 70.4205 20.0142 70.4205 21.1278C70.4205 22.2472 70.1818 23.2187 69.7045 24.0426C69.233 24.8608 68.5369 25.4943 67.6165 25.9432C66.696 26.3864 65.5653 26.608 64.2244 26.608H59.5625V23.983H63.7983C64.5824 23.983 65.2244 23.875 65.7244 23.6591C66.2244 23.4375 66.5938 23.1165 66.8324 22.696C67.0767 22.2699 67.1989 21.7472 67.1989 21.1278C67.1989 20.5085 67.0767 19.9801 66.8324 19.5426C66.5881 19.0994 66.2159 18.7642 65.7159 18.5369C65.2159 18.304 64.571 18.1875 63.7812 18.1875H60.8835V33H57.7216ZM66.7386 25.0909L71.0597 33H67.5312L63.2869 25.0909H66.7386ZM78.8026 33.2557C77.4901 33.2557 76.3565 32.983 75.402 32.4375C74.4531 31.8864 73.723 31.108 73.2116 30.1023C72.7003 29.0909 72.4446 27.9006 72.4446 26.5312C72.4446 25.1847 72.7003 24.0028 73.2116 22.9858C73.7287 21.9631 74.4503 21.1676 75.3764 20.5994C76.3026 20.0256 77.3906 19.7386 78.6406 19.7386C79.4474 19.7386 80.2088 19.8693 80.9247 20.1307C81.6463 20.3864 82.2827 20.7841 82.8338 21.3239C83.3906 21.8636 83.8281 22.5511 84.1463 23.3864C84.4645 24.2159 84.6236 25.2045 84.6236 26.3523V27.2983H73.8935V25.2188H81.6662C81.6605 24.6278 81.5327 24.1023 81.2827 23.642C81.0327 23.1761 80.6832 22.8097 80.2344 22.5426C79.7912 22.2756 79.2741 22.142 78.6832 22.142C78.0526 22.142 77.4986 22.2955 77.0213 22.6023C76.544 22.9034 76.1719 23.3011 75.9048 23.7955C75.6435 24.2841 75.5099 24.821 75.5043 25.4062V27.2216C75.5043 27.983 75.6435 28.6364 75.9219 29.1818C76.2003 29.7216 76.5895 30.1364 77.0895 30.4261C77.5895 30.7102 78.1747 30.8523 78.8452 30.8523C79.294 30.8523 79.7003 30.7898 80.0639 30.6648C80.4276 30.5341 80.7429 30.3438 81.0099 30.0938C81.277 29.8438 81.4787 29.5341 81.6151 29.1648L84.4957 29.4886C84.3139 30.25 83.9673 30.9148 83.456 31.483C82.9503 32.0455 82.3026 32.483 81.5128 32.7955C80.723 33.1023 79.8196 33.2557 78.8026 33.2557ZM92.0916 33.2301C91.0632 33.2301 90.1428 32.9659 89.3303 32.4375C88.5178 31.9091 87.8757 31.142 87.4041 30.1364C86.9325 29.1307 86.6967 27.9091 86.6967 26.4716C86.6967 25.017 86.9354 23.7898 87.4126 22.7898C87.8956 21.7841 88.5462 21.0256 89.3643 20.5142C90.1825 19.9972 91.0945 19.7386 92.1001 19.7386C92.8672 19.7386 93.4979 19.8693 93.9922 20.1307C94.4865 20.3864 94.8786 20.696 95.1683 21.0597C95.4581 21.4176 95.6825 21.7557 95.8416 22.0739H95.9695V15.5455H99.0632V33H96.0291V30.9375H95.8416C95.6825 31.2557 95.4524 31.5937 95.1513 31.9517C94.8501 32.304 94.4524 32.6051 93.9581 32.8551C93.4638 33.1051 92.8416 33.2301 92.0916 33.2301ZM92.9524 30.6989C93.6058 30.6989 94.1626 30.5227 94.6229 30.1705C95.0831 29.8125 95.4325 29.3153 95.6712 28.679C95.9098 28.0426 96.0291 27.3011 96.0291 26.4545C96.0291 25.608 95.9098 24.8722 95.6712 24.2472C95.4382 23.6222 95.0916 23.1364 94.6314 22.7898C94.1768 22.4432 93.6172 22.2699 92.9524 22.2699C92.2649 22.2699 91.6911 22.4489 91.2308 22.8068C90.7706 23.1648 90.424 23.6591 90.1911 24.2898C89.9581 24.9205 89.8416 25.642 89.8416 26.4545C89.8416 27.2727 89.9581 28.0028 90.1911 28.6449C90.4297 29.2812 90.7791 29.7841 91.2393 30.1534C91.7053 30.517 92.2763 30.6989 92.9524 30.6989ZM107.209 33.2301C106.18 33.2301 105.26 32.9659 104.447 32.4375C103.635 31.9091 102.993 31.142 102.521 30.1364C102.05 29.1307 101.814 27.9091 101.814 26.4716C101.814 25.017 102.053 23.7898 102.53 22.7898C103.013 21.7841 103.663 21.0256 104.482 20.5142C105.3 19.9972 106.212 19.7386 107.217 19.7386C107.984 19.7386 108.615 19.8693 109.109 20.1307C109.604 20.3864 109.996 20.696 110.286 21.0597C110.575 21.4176 110.8 21.7557 110.959 22.0739H111.087V15.5455H114.18V33H111.146V30.9375H110.959C110.8 31.2557 110.57 31.5937 110.268 31.9517C109.967 32.304 109.57 32.6051 109.075 32.8551C108.581 33.1051 107.959 33.2301 107.209 33.2301ZM108.07 30.6989C108.723 30.6989 109.28 30.5227 109.74 30.1705C110.2 29.8125 110.55 29.3153 110.788 28.679C111.027 28.0426 111.146 27.3011 111.146 26.4545C111.146 25.608 111.027 24.8722 110.788 24.2472C110.555 23.6222 110.209 23.1364 109.749 22.7898C109.294 22.4432 108.734 22.2699 108.07 22.2699C107.382 22.2699 106.808 22.4489 106.348 22.8068C105.888 23.1648 105.541 23.6591 105.308 24.2898C105.075 24.9205 104.959 25.642 104.959 26.4545C104.959 27.2727 105.075 28.0028 105.308 28.6449C105.547 29.2812 105.896 29.7841 106.357 30.1534C106.822 30.517 107.393 30.6989 108.07 30.6989ZM117.468 33V19.9091H120.553V33H117.468ZM119.019 18.0511C118.531 18.0511 118.11 17.8892 117.758 17.5653C117.406 17.2358 117.229 16.8409 117.229 16.3807C117.229 15.9148 117.406 15.5199 117.758 15.196C118.11 14.8665 118.531 14.7017 119.019 14.7017C119.513 14.7017 119.934 14.8665 120.281 15.196C120.633 15.5199 120.809 15.9148 120.809 16.3807C120.809 16.8409 120.633 17.2358 120.281 17.5653C119.934 17.8892 119.513 18.0511 119.019 18.0511ZM130.263 19.9091V22.2955H122.737V19.9091H130.263ZM124.595 16.7727H127.68V29.0625C127.68 29.4773 127.743 29.7955 127.868 30.017C127.999 30.233 128.169 30.3807 128.379 30.4602C128.589 30.5398 128.822 30.5795 129.078 30.5795C129.271 30.5795 129.447 30.5653 129.607 30.5369C129.771 30.5085 129.896 30.483 129.982 30.4602L130.501 32.8722C130.337 32.929 130.101 32.9915 129.794 33.0597C129.493 33.1278 129.124 33.1676 128.686 33.179C127.913 33.2017 127.217 33.0852 126.598 32.8295C125.979 32.5682 125.487 32.1648 125.124 31.6193C124.766 31.0739 124.589 30.392 124.595 29.5739V16.7727Z" fill="#161616"/>
</svg>
