<svg width="36" height="36" viewBox="0 0 36 36" fill="none" xmlns="http://www.w3.org/2000/svg">
<rect width="36" height="36" rx="18" fill="#FEF4EC"/>
<path fill-rule="evenodd" clip-rule="evenodd" d="M15.334 11.3333L19.334 13.6427V18.2616L16.0006 20.186V20.6667C16.0006 21.0086 16.258 21.2903 16.5896 21.3288L16.6673 21.3333H18.0847C18.3777 20.1947 19.404 19.3504 20.6301 19.3336L20.6673 19.3333H22.6673V20.3333H24.6673V21.3333H22.6673V22.6667H24.6673V23.6667H22.6673V24.6667H20.6673C19.4248 24.6667 18.3807 23.8168 18.0847 22.6667L16.6673 22.6667C15.6022 22.6667 14.7315 21.8341 14.6707 20.7842L14.6673 20.6667L14.6673 20.186L11.334 18.2616V13.6427L15.334 11.3333ZM21.334 20.6667H20.6673L20.5678 20.6703C19.8848 20.7207 19.3449 21.2857 19.3341 21.979L19.334 22L19.3376 22.0995C19.388 22.7825 19.953 23.3224 20.6463 23.3332L20.6673 23.3333H21.334V20.6667ZM15.334 12.8727L12.6673 14.4127V17.492L15.334 19.0313L18.0006 17.4913V14.4127L15.334 12.8727Z" fill="#34C759"/>
</svg>
