<svg width="120" height="48" viewBox="0 0 120 48" fill="none" xmlns="http://www.w3.org/2000/svg">
<path d="M39.7503 22.4994C41.8212 22.4994 43.5 20.8206 43.5 18.7497C43.5 16.6788 41.821 15 39.7501 15C37.6791 15 36 16.679 36 18.75V22.4994H39.7503ZM29.25 22.4994C31.3211 22.4994 33 20.8205 33 18.7494V8.25C33 6.17893 31.3211 4.5 29.25 4.5C27.179 4.5 25.5 6.17893 25.5 8.25V18.7494C25.5 20.8205 27.179 22.4994 29.25 22.4994Z" fill="#2EB67D"/>
<path d="M8.24969 25.5C6.17879 25.5 4.5 27.1788 4.5 29.2497C4.5 31.3206 6.17895 32.9994 8.24983 32.9994C10.3209 32.9994 12 31.3204 12 29.2494V25.5H8.24969ZM18.75 25.5C16.679 25.5 15 27.179 15 29.25V39.7494C15 41.8204 16.679 43.4994 18.75 43.4994C20.8211 43.4994 22.5 41.8204 22.5 39.7494V29.25C22.5 27.179 20.8211 25.5 18.75 25.5Z" fill="#E01E5A"/>
<path d="M25.5 39.7503C25.5 41.8212 27.1788 43.5 29.2497 43.5C31.3206 43.5 32.9994 41.821 32.9994 39.7501C32.9994 37.6791 31.3204 36 29.2494 36H25.5V39.7503ZM25.5 29.25C25.5 31.3211 27.179 33 29.25 33H39.7494C41.8204 33 43.4994 31.3211 43.4994 29.25C43.4994 27.179 41.8204 25.5 39.7494 25.5H29.25C27.179 25.5 25.5 27.179 25.5 29.25Z" fill="#ECB22E"/>
<path d="M22.4994 8.24969C22.4994 6.17879 20.8206 4.5 18.7497 4.5C16.6788 4.5 15 6.17895 15 8.24983C15 10.3209 16.679 12 18.75 12H22.4994V8.24969ZM22.4994 18.75C22.4994 16.679 20.8204 15 18.7494 15H8.25C6.17894 15 4.5 16.679 4.5 18.75C4.5 20.8211 6.17894 22.5 8.25 22.5H18.7494C20.8204 22.5 22.4994 20.8211 22.4994 18.75Z" fill="#36C5F0"/>
<path d="M67.2074 20.3438C67.1278 19.5994 66.7926 19.0199 66.2017 18.6051C65.6165 18.1903 64.8551 17.983 63.9176 17.983C63.2585 17.983 62.6932 18.0824 62.2216 18.2812C61.75 18.4801 61.3892 18.75 61.1392 19.0909C60.8892 19.4318 60.7614 19.821 60.7557 20.2585C60.7557 20.6222 60.8381 20.9375 61.0028 21.2045C61.1733 21.4716 61.4034 21.6989 61.6932 21.8864C61.983 22.0682 62.304 22.2216 62.6562 22.3466C63.0085 22.4716 63.3636 22.5767 63.7216 22.6619L65.358 23.071C66.017 23.2244 66.6506 23.4318 67.2585 23.6932C67.8722 23.9545 68.4205 24.2841 68.9034 24.6818C69.392 25.0795 69.7784 25.5597 70.0625 26.1222C70.3466 26.6847 70.4886 27.3437 70.4886 28.0994C70.4886 29.1222 70.2273 30.0227 69.7045 30.8011C69.1818 31.5739 68.4261 32.179 67.4375 32.6165C66.4545 33.0483 65.2642 33.2642 63.8665 33.2642C62.5085 33.2642 61.3295 33.054 60.3295 32.6335C59.3352 32.2131 58.5568 31.5994 57.9943 30.7926C57.4375 29.9858 57.1364 29.0028 57.0909 27.8438H60.2017C60.2472 28.4517 60.4347 28.9574 60.7642 29.3608C61.0938 29.7642 61.5227 30.0653 62.0511 30.2642C62.5852 30.4631 63.1818 30.5625 63.8409 30.5625C64.5284 30.5625 65.1307 30.4602 65.6477 30.2557C66.1705 30.0455 66.5795 29.7557 66.875 29.3864C67.1705 29.0114 67.321 28.5739 67.3267 28.0739C67.321 27.6193 67.1875 27.2443 66.9261 26.9489C66.6648 26.6477 66.2983 26.3977 65.8267 26.1989C65.3608 25.9943 64.8153 25.8125 64.1903 25.6534L62.2045 25.142C60.767 24.7727 59.6307 24.2131 58.7955 23.4631C57.9659 22.7074 57.5511 21.7045 57.5511 20.4545C57.5511 19.4261 57.8295 18.5256 58.3864 17.7528C58.9489 16.9801 59.7131 16.3807 60.679 15.9545C61.6449 15.5227 62.7386 15.3068 63.9602 15.3068C65.1989 15.3068 66.2841 15.5227 67.2159 15.9545C68.1534 16.3807 68.8892 16.9744 69.4233 17.7358C69.9574 18.4915 70.233 19.3608 70.25 20.3438H67.2074ZM76.2564 15.5455V33H73.1712V15.5455H76.2564ZM83.196 33.2642C82.3665 33.2642 81.6193 33.1165 80.9545 32.821C80.2955 32.5199 79.7727 32.0767 79.3864 31.4915C79.0057 30.9062 78.8153 30.1847 78.8153 29.3267C78.8153 28.5881 78.9517 27.9773 79.2244 27.4943C79.4972 27.0114 79.8693 26.625 80.3409 26.3352C80.8125 26.0455 81.3438 25.8267 81.9347 25.679C82.5313 25.5256 83.1477 25.4148 83.7841 25.3466C84.5511 25.267 85.1733 25.196 85.6506 25.1335C86.1278 25.0653 86.4744 24.9631 86.6903 24.8267C86.9119 24.6847 87.0227 24.4659 87.0227 24.1705V24.1193C87.0227 23.4773 86.8324 22.9801 86.4517 22.6278C86.071 22.2756 85.5227 22.0994 84.8068 22.0994C84.0511 22.0994 83.4517 22.2642 83.0085 22.5938C82.571 22.9233 82.2756 23.3125 82.1222 23.7614L79.2415 23.3523C79.4688 22.5568 79.8438 21.892 80.3665 21.358C80.8892 20.8182 81.5284 20.4148 82.2841 20.1477C83.0398 19.875 83.875 19.7386 84.7898 19.7386C85.4205 19.7386 86.0483 19.8125 86.6733 19.9602C87.2983 20.108 87.8693 20.3523 88.3864 20.6932C88.9034 21.0284 89.3182 21.4858 89.6307 22.0653C89.9489 22.6449 90.108 23.3693 90.108 24.2386V33H87.142V31.2017H87.0398C86.8523 31.5653 86.5881 31.9062 86.2472 32.2244C85.9119 32.5369 85.4886 32.7898 84.9773 32.983C84.4716 33.1705 83.8778 33.2642 83.196 33.2642ZM83.9972 30.9972C84.6165 30.9972 85.1534 30.875 85.608 30.6307C86.0625 30.3807 86.4119 30.0511 86.6562 29.642C86.9062 29.233 87.0312 28.7869 87.0312 28.304V26.7614C86.9347 26.8409 86.7699 26.9148 86.5369 26.983C86.3097 27.0511 86.054 27.1108 85.7699 27.1619C85.4858 27.2131 85.2045 27.2585 84.9261 27.2983C84.6477 27.3381 84.4063 27.3722 84.2017 27.4006C83.7415 27.4631 83.3295 27.5653 82.9659 27.7074C82.6023 27.8494 82.3153 28.0483 82.1051 28.304C81.8949 28.554 81.7898 28.8778 81.7898 29.2756C81.7898 29.8438 81.9972 30.2727 82.4119 30.5625C82.8267 30.8523 83.3551 30.9972 83.9972 30.9972ZM98.9205 33.2557C97.6136 33.2557 96.4915 32.9688 95.554 32.3949C94.6222 31.821 93.9034 31.0284 93.3977 30.017C92.8977 29 92.6477 27.8295 92.6477 26.5057C92.6477 25.1761 92.9034 24.0028 93.4148 22.9858C93.9261 21.9631 94.6477 21.1676 95.5795 20.5994C96.517 20.0256 97.625 19.7386 98.9034 19.7386C99.9659 19.7386 100.906 19.9347 101.724 20.3267C102.548 20.7131 103.205 21.2614 103.693 21.9716C104.182 22.6761 104.46 23.5 104.528 24.4432H101.58C101.46 23.8125 101.176 23.2869 100.727 22.8665C100.284 22.4403 99.6903 22.2273 98.946 22.2273C98.3153 22.2273 97.7614 22.3977 97.2841 22.7386C96.8068 23.0739 96.4347 23.5568 96.1676 24.1875C95.9063 24.8182 95.7756 25.5739 95.7756 26.4545C95.7756 27.3466 95.9063 28.1136 96.1676 28.7557C96.429 29.392 96.7955 29.8835 97.267 30.2301C97.7443 30.571 98.304 30.7415 98.946 30.7415C99.4006 30.7415 99.8068 30.6562 100.165 30.4858C100.528 30.3097 100.832 30.0568 101.077 29.7273C101.321 29.3977 101.489 28.9972 101.58 28.5256H104.528C104.455 29.4517 104.182 30.2727 103.71 30.9886C103.239 31.6989 102.597 32.2557 101.784 32.6591C100.972 33.0568 100.017 33.2557 98.9205 33.2557ZM109.874 28.892L109.866 25.1676H110.36L115.065 19.9091H118.67L112.883 26.3523H112.244L109.874 28.892ZM107.062 33V15.5455H110.147V33H107.062ZM115.278 33L111.016 27.0426L113.096 24.8693L118.968 33H115.278Z" fill="#161616"/>
</svg>
