<svg width="56" height="56" viewBox="0 0 56 56" fill="none" xmlns="http://www.w3.org/2000/svg">
<path d="M29.168 2.91602C29.168 2.45189 28.9836 2.00677 28.6554 1.67858C28.3272 1.35039 27.8821 1.16602 27.418 1.16602C26.9538 1.16602 26.5087 1.35039 26.1805 1.67858C25.8523 2.00677 25.668 2.45189 25.668 2.91602V23.1927L15.0443 12.5644C14.8829 12.3971 14.6899 12.2637 14.4764 12.1719C14.263 12.0801 14.0334 12.0317 13.801 12.0296C13.5686 12.0275 13.3382 12.0716 13.1231 12.1595C12.908 12.2474 12.7125 12.3773 12.5481 12.5415C12.3837 12.7057 12.2537 12.9011 12.1656 13.1161C12.0775 13.3311 12.0331 13.5615 12.035 13.7939C12.037 14.0262 12.0851 14.2559 12.1767 14.4695C12.2683 14.683 12.4016 14.8762 12.5686 15.0377L23.1946 25.666H2.91797C2.45384 25.666 2.00872 25.8504 1.68053 26.1786C1.35234 26.5068 1.16797 26.9519 1.16797 27.416C1.16797 27.8801 1.35234 28.3253 1.68053 28.6535C2.00872 28.9816 2.45384 29.166 2.91797 29.166H23.1946L12.5686 39.7897C12.2497 40.1196 12.0731 40.5616 12.0769 41.0204C12.0806 41.4793 12.2645 41.9183 12.5888 42.2429C12.9131 42.5675 13.3519 42.7518 13.8108 42.756C14.2696 42.7602 14.7118 42.584 15.042 42.2654L25.668 31.6417V51.916C25.668 52.3801 25.8523 52.8253 26.1805 53.1535C26.5087 53.4816 26.9538 53.666 27.418 53.666C27.8821 53.666 28.3272 53.4816 28.6554 53.1535C28.9836 52.8253 29.168 52.3801 29.168 51.916V31.6394L39.7916 42.2654C40.1215 42.5843 40.5635 42.7609 41.0224 42.7571C41.4812 42.7534 41.9202 42.5695 42.2448 42.2452C42.5695 41.9209 42.7537 41.4821 42.7579 41.0232C42.7621 40.5644 42.5859 40.1222 42.2673 39.792L31.6436 29.166H51.918C52.3821 29.166 52.8272 28.9816 53.1554 28.6535C53.4836 28.3253 53.668 27.8801 53.668 27.416C53.668 26.9519 53.4836 26.5068 53.1554 26.1786C52.8272 25.8504 52.3821 25.666 51.918 25.666H31.6413L42.2673 15.0423C42.4345 14.881 42.5679 14.688 42.6597 14.4745C42.7516 14.261 42.7999 14.0314 42.8021 13.7991C42.8042 13.5667 42.76 13.3362 42.6721 13.1211C42.5842 12.906 42.4544 12.7106 42.2902 12.5462C42.1259 12.3818 41.9306 12.2518 41.7156 12.1637C41.5005 12.0756 41.2701 12.0312 41.0378 12.0331C40.8054 12.035 40.5757 12.0832 40.3622 12.1748C40.1486 12.2664 39.9555 12.3996 39.794 12.5667L29.168 23.1904V2.91602Z" fill="#26BCFF"/>
</svg>
