<svg width="42" height="42" viewBox="0 0 42 42" fill="none" xmlns="http://www.w3.org/2000/svg">
<rect x="0.5" y="0.5" width="41" height="41" rx="20.5" fill="white"/>
<rect x="0.5" y="0.5" width="41" height="41" rx="20.5" stroke="#E5E5E5"/>
<path d="M21.0013 7.66602C21.5017 7.66602 21.9951 7.69313 22.4813 7.74735C22.6553 7.76661 22.8239 7.81996 22.9773 7.90436C23.1307 7.98876 23.266 8.10255 23.3755 8.23924C23.4849 8.37593 23.5664 8.53283 23.6152 8.701C23.664 8.86917 23.6792 9.0453 23.66 9.21935C23.6407 9.39339 23.5874 9.56194 23.503 9.71537C23.4186 9.86879 23.3048 10.0041 23.1681 10.1135C23.0314 10.223 22.8745 10.3044 22.7063 10.3533C22.5381 10.4021 22.362 10.4173 22.188 10.398C19.9907 10.1522 17.7713 10.5953 15.8369 11.6659C13.9024 12.7366 12.3484 14.3819 11.3899 16.3743C10.4314 18.3667 10.1157 20.6077 10.4865 22.7874C10.8573 24.967 11.8962 26.9776 13.4596 28.541C15.023 30.1044 17.0336 31.1434 19.2133 31.5142C21.3929 31.8849 23.634 31.5692 25.6264 30.6107C27.6188 29.6522 29.2641 28.0982 30.3347 26.1638C31.4054 24.2293 31.8484 22.01 31.6026 19.8127C31.5834 19.6386 31.5986 19.4625 31.6474 19.2943C31.6962 19.1262 31.7777 18.9693 31.8871 18.8326C32.1082 18.5565 32.4298 18.3796 32.7813 18.3407C33.1328 18.3018 33.4854 18.4041 33.7614 18.6252C33.8981 18.7346 34.0119 18.8699 34.0963 19.0233C34.1807 19.1768 34.234 19.3453 34.2533 19.5194C34.3066 20.0056 34.3337 20.4989 34.3346 20.9993C34.3346 28.3633 28.3653 34.3327 21.0013 34.3327C13.6373 34.3327 7.66797 28.3633 7.66797 20.9993C7.66797 13.6353 13.6373 7.66602 21.0013 7.66602ZM20.9586 15.502C21.0465 15.8443 20.9949 16.2075 20.8151 16.5118C20.6354 16.816 20.3422 17.0365 20 17.1247C19.0598 17.371 18.2414 17.9509 17.6974 18.7563C17.1534 19.5617 16.921 20.5375 17.0436 21.5016C17.1662 22.4657 17.6354 23.3523 18.3636 23.9959C19.0919 24.6395 20.0294 24.9962 21.0013 24.9993C21.8884 24.9997 22.7504 24.7052 23.4518 24.1621C24.1532 23.6191 24.6542 22.8583 24.876 21.9993C24.9705 21.6638 25.1926 21.3786 25.4948 21.2049C25.797 21.0312 26.1553 20.9827 26.4928 21.0699C26.8303 21.157 27.1202 21.3729 27.3005 21.6713C27.4808 21.9696 27.5371 22.3267 27.4573 22.666C27.0483 24.2339 26.0824 25.5993 24.7402 26.507C23.3979 27.4148 21.7711 27.8028 20.1636 27.5987C18.5562 27.3945 17.078 26.6121 16.0053 25.3977C14.9326 24.1832 14.3387 22.6197 14.3346 20.9993C14.3344 19.5212 14.8254 18.0849 15.7305 16.9162C16.6356 15.7476 17.9034 14.9129 19.3346 14.5433C19.5042 14.4996 19.6807 14.4898 19.8541 14.5143C20.0275 14.5388 20.1944 14.5973 20.3452 14.6863C20.496 14.7753 20.6278 14.8932 20.7331 15.0331C20.8383 15.1731 20.915 15.3324 20.9586 15.502ZM29.6733 7.83535C29.9167 7.93625 30.1247 8.107 30.2711 8.32603C30.4175 8.54506 30.4958 8.80255 30.496 9.06602V11.506H32.9346C33.1983 11.5061 33.456 11.5843 33.6752 11.7308C33.8945 11.8773 34.0653 12.0855 34.1662 12.3291C34.2671 12.5727 34.2935 12.8408 34.2421 13.0994C34.1907 13.358 34.0637 13.5955 33.8773 13.782L29.1613 18.4927C28.9113 18.7427 28.5722 18.8833 28.2186 18.8833H25.0013L22.564 21.322C22.3138 21.5722 21.9745 21.7128 21.6206 21.7128C21.2668 21.7128 20.9275 21.5722 20.6773 21.322C20.4271 21.0718 20.2866 20.7325 20.2866 20.3787C20.2866 20.0249 20.4271 19.6855 20.6773 19.4353L23.116 16.9993V13.7807C23.116 13.4271 23.2566 13.088 23.5066 12.838L28.22 8.12335C28.4064 7.93677 28.644 7.80969 28.9027 7.75819C29.1614 7.70669 29.4296 7.73308 29.6733 7.83402M27.8293 12.2833L25.7826 14.3327V16.218H27.668L29.716 14.1713H29.1626C28.809 14.1713 28.4699 14.0309 28.2198 13.7808C27.9698 13.5308 27.8293 13.1916 27.8293 12.838V12.2833Z" fill="#F6911F"/>
</svg>
