<svg width="36" height="36" viewBox="0 0 36 36" fill="none" xmlns="http://www.w3.org/2000/svg">
<rect width="36" height="36" rx="18" fill="#FFFFDC"/>
<path d="M12.668 16.6666C12.668 14.1526 12.668 12.8953 13.4493 12.1146C14.2306 11.334 15.4873 11.3333 18.0013 11.3333H19.0013C21.5153 11.3333 22.7726 11.3333 23.5533 12.1146C24.334 12.896 24.3346 14.1526 24.3346 16.6666V19.3333C24.3346 21.8473 24.3346 23.1046 23.5533 23.8853C22.772 24.666 21.5153 24.6666 19.0013 24.6666H18.0013C15.4873 24.6666 14.23 24.6666 13.4493 23.8853C12.6686 23.104 12.668 21.8473 12.668 19.3333V16.6666Z" stroke="#AF52DE" stroke-linecap="round" stroke-linejoin="round"/>
<path d="M16.5346 17.9826C16.25 17.4866 16.1126 17.082 16.03 16.6713C15.9073 16.0646 16.188 15.4713 16.652 15.0926C16.8486 14.9326 17.0733 14.9873 17.1893 15.196L17.4513 15.666C17.6586 16.038 17.7626 16.2246 17.742 16.422C17.722 16.6193 17.582 16.78 17.302 17.102L16.5346 17.9826ZM16.5346 17.9826C17.1347 19.0109 17.9904 19.8666 19.0186 20.4666M19.0186 20.4666C19.5146 20.7513 19.9193 20.8886 20.33 20.9713C20.9366 21.094 21.53 20.8133 21.9086 20.3493C22.0686 20.1526 22.014 19.928 21.8053 19.812L21.336 19.55C20.9626 19.3426 20.7766 19.2386 20.5793 19.2593C20.382 19.2793 20.2213 19.4193 19.8993 19.6993L19.0186 20.4666ZM13.3346 14H11.668M13.3346 18H11.668M13.3346 22H11.668" stroke="#AF52DE" stroke-linecap="round" stroke-linejoin="round"/>
</svg>
