<svg width="94" height="24" viewBox="0 0 94 24" fill="none" xmlns="http://www.w3.org/2000/svg">
<rect width="94" height="24" rx="12" fill="#EFFBEF"/>
<path d="M16.4205 11.6364C16.4205 12.5568 16.2543 13.3523 15.9219 14.0227C15.5895 14.6932 15.1335 15.2102 14.554 15.5739C13.9744 15.9375 13.3125 16.1193 12.5682 16.1193C11.8239 16.1193 11.1619 15.9375 10.5824 15.5739C10.0028 15.2102 9.54688 14.6932 9.21449 14.0227C8.8821 13.3523 8.71591 12.5568 8.71591 11.6364C8.71591 10.7159 8.8821 9.92045 9.21449 9.25C9.54688 8.57955 10.0028 8.0625 10.5824 7.69886C11.1619 7.33523 11.8239 7.15341 12.5682 7.15341C13.3125 7.15341 13.9744 7.33523 14.554 7.69886C15.1335 8.0625 15.5895 8.57955 15.9219 9.25C16.2543 9.92045 16.4205 10.7159 16.4205 11.6364ZM15.3977 11.6364C15.3977 10.8807 15.2713 10.2429 15.0185 9.72301C14.7685 9.20312 14.429 8.80966 14 8.54261C13.5739 8.27557 13.0966 8.14205 12.5682 8.14205C12.0398 8.14205 11.5611 8.27557 11.1321 8.54261C10.706 8.80966 10.3665 9.20312 10.1136 9.72301C9.86364 10.2429 9.73864 10.8807 9.73864 11.6364C9.73864 12.392 9.86364 13.0298 10.1136 13.5497C10.3665 14.0696 10.706 14.4631 11.1321 14.7301C11.5611 14.9972 12.0398 15.1307 12.5682 15.1307C13.0966 15.1307 13.5739 14.9972 14 14.7301C14.429 14.4631 14.7685 14.0696 15.0185 13.5497C15.2713 13.0298 15.3977 12.392 15.3977 11.6364ZM19.544 16L17.5497 9.45455H18.6065L20.0213 14.4659H20.0895L21.4872 9.45455H22.5611L23.9418 14.4489H24.0099L25.4247 9.45455H26.4815L24.4872 16H23.4986L22.0668 10.9716H21.9645L20.5327 16H19.544ZM28.8168 12.0625V16H27.8111V9.45455H28.7827V10.4773H28.8679C29.0213 10.1449 29.2543 9.87784 29.5668 9.67614C29.8793 9.47159 30.2827 9.36932 30.777 9.36932C31.2202 9.36932 31.608 9.46023 31.9403 9.64205C32.2727 9.82102 32.5313 10.0938 32.7159 10.4602C32.9006 10.8239 32.9929 11.2841 32.9929 11.8409V16H31.9872V11.9091C31.9872 11.3949 31.8537 10.9943 31.5866 10.7074C31.3196 10.4176 30.9531 10.2727 30.4872 10.2727C30.1662 10.2727 29.8793 10.3423 29.6264 10.4815C29.3764 10.6207 29.179 10.8239 29.0341 11.0909C28.8892 11.358 28.8168 11.6818 28.8168 12.0625ZM37.5749 16.1364C36.9442 16.1364 36.4002 15.9972 35.9428 15.7188C35.4883 15.4375 35.1374 15.0455 34.8903 14.5426C34.646 14.0369 34.5238 13.4489 34.5238 12.7784C34.5238 12.108 34.646 11.517 34.8903 11.0057C35.1374 10.4915 35.4812 10.0909 35.9215 9.80398C36.3647 9.5142 36.8817 9.36932 37.4727 9.36932C37.8136 9.36932 38.1502 9.42614 38.4826 9.53977C38.815 9.65341 39.1175 9.83807 39.3903 10.0938C39.663 10.3466 39.8803 10.6818 40.0423 11.0994C40.2042 11.517 40.2852 12.0312 40.2852 12.642V13.0682H35.2397V12.1989H39.2624C39.2624 11.8295 39.1886 11.5 39.0408 11.2102C38.896 10.9205 38.6886 10.6918 38.4187 10.5241C38.1516 10.3565 37.8363 10.2727 37.4727 10.2727C37.0721 10.2727 36.7255 10.3722 36.4329 10.571C36.1431 10.767 35.9201 11.0227 35.7638 11.3381C35.6076 11.6534 35.5295 11.9915 35.5295 12.3523V12.9318C35.5295 13.4261 35.6147 13.8452 35.7852 14.1889C35.9585 14.5298 36.1985 14.7898 36.5053 14.9688C36.8121 15.1449 37.1687 15.233 37.5749 15.233C37.8391 15.233 38.0778 15.196 38.2908 15.1222C38.5067 15.0455 38.6928 14.9318 38.8491 14.7812C39.0053 14.6278 39.1261 14.4375 39.2113 14.2102L40.1829 14.483C40.0806 14.8125 39.9087 15.1023 39.6673 15.3523C39.4258 15.5994 39.1275 15.7926 38.7724 15.9318C38.4173 16.0682 38.0181 16.1364 37.5749 16.1364ZM41.815 16V9.45455H42.7866V10.4432H42.8548C42.9741 10.1193 43.19 9.85653 43.5025 9.65483C43.815 9.45312 44.1673 9.35227 44.5593 9.35227C44.6332 9.35227 44.7255 9.35369 44.8363 9.35653C44.9471 9.35937 45.0309 9.36364 45.0877 9.36932V10.392C45.0536 10.3835 44.9755 10.3707 44.8533 10.3537C44.734 10.3338 44.6076 10.3239 44.4741 10.3239C44.1559 10.3239 43.8718 10.3906 43.6218 10.5241C43.3746 10.6548 43.1786 10.8366 43.0337 11.0696C42.8917 11.2997 42.8207 11.5625 42.8207 11.858V16H41.815ZM49.6548 16V9.45455H50.6264V10.4432H50.6946C50.8139 10.1193 51.0298 9.85653 51.3423 9.65483C51.6548 9.45312 52.0071 9.35227 52.3991 9.35227C52.473 9.35227 52.5653 9.35369 52.6761 9.35653C52.7869 9.35937 52.8707 9.36364 52.9276 9.36932V10.392C52.8935 10.3835 52.8153 10.3707 52.6932 10.3537C52.5739 10.3338 52.4474 10.3239 52.3139 10.3239C51.9957 10.3239 51.7116 10.3906 51.4616 10.5241C51.2145 10.6548 51.0185 10.8366 50.8736 11.0696C50.7315 11.2997 50.6605 11.5625 50.6605 11.858V16H49.6548ZM56.6648 16.1364C56.0341 16.1364 55.4901 15.9972 55.0327 15.7188C54.5781 15.4375 54.2273 15.0455 53.9801 14.5426C53.7358 14.0369 53.6136 13.4489 53.6136 12.7784C53.6136 12.108 53.7358 11.517 53.9801 11.0057C54.2273 10.4915 54.571 10.0909 55.0114 9.80398C55.4545 9.5142 55.9716 9.36932 56.5625 9.36932C56.9034 9.36932 57.2401 9.42614 57.5724 9.53977C57.9048 9.65341 58.2074 9.83807 58.4801 10.0938C58.7528 10.3466 58.9702 10.6818 59.1321 11.0994C59.294 11.517 59.375 12.0312 59.375 12.642V13.0682H54.3295V12.1989H58.3523C58.3523 11.8295 58.2784 11.5 58.1307 11.2102C57.9858 10.9205 57.7784 10.6918 57.5085 10.5241C57.2415 10.3565 56.9261 10.2727 56.5625 10.2727C56.1619 10.2727 55.8153 10.3722 55.5227 10.571C55.233 10.767 55.0099 11.0227 54.8537 11.3381C54.6974 11.6534 54.6193 11.9915 54.6193 12.3523V12.9318C54.6193 13.4261 54.7045 13.8452 54.875 14.1889C55.0483 14.5298 55.2884 14.7898 55.5952 14.9688C55.902 15.1449 56.2585 15.233 56.6648 15.233C56.929 15.233 57.1676 15.196 57.3807 15.1222C57.5966 15.0455 57.7827 14.9318 57.9389 14.7812C58.0952 14.6278 58.2159 14.4375 58.3011 14.2102L59.2727 14.483C59.1705 14.8125 58.9986 15.1023 58.7571 15.3523C58.5156 15.5994 58.2173 15.7926 57.8622 15.9318C57.5071 16.0682 57.108 16.1364 56.6648 16.1364ZM63.5639 16.1364C62.9503 16.1364 62.4219 15.9915 61.9787 15.7017C61.5355 15.4119 61.1946 15.0128 60.956 14.5043C60.7173 13.9957 60.598 13.4148 60.598 12.7614C60.598 12.0966 60.7202 11.5099 60.9645 11.0014C61.2116 10.4901 61.5554 10.0909 61.9957 9.80398C62.4389 9.5142 62.956 9.36932 63.5469 9.36932C64.0071 9.36932 64.4219 9.45455 64.7912 9.625C65.1605 9.79545 65.4631 10.0341 65.6989 10.3409C65.9347 10.6477 66.081 11.0057 66.1378 11.4148H65.1321C65.0554 11.1165 64.8849 10.8523 64.6207 10.6222C64.3594 10.3892 64.0071 10.2727 63.5639 10.2727C63.1719 10.2727 62.8281 10.375 62.5327 10.5795C62.2401 10.7812 62.0114 11.0668 61.8466 11.4361C61.6847 11.8026 61.6037 12.233 61.6037 12.7273C61.6037 13.233 61.6832 13.6733 61.8423 14.0483C62.0043 14.4233 62.2315 14.7145 62.5241 14.9219C62.8196 15.1293 63.1662 15.233 63.5639 15.233C63.8253 15.233 64.0625 15.1875 64.2756 15.0966C64.4886 15.0057 64.669 14.875 64.8168 14.7045C64.9645 14.5341 65.0696 14.3295 65.1321 14.0909H66.1378C66.081 14.4773 65.9403 14.8253 65.7159 15.1349C65.4943 15.4418 65.2003 15.6861 64.8338 15.8679C64.4702 16.0469 64.0469 16.1364 63.5639 16.1364ZM70.267 16.1364C69.6761 16.1364 69.1577 15.9957 68.7116 15.7145C68.2685 15.4332 67.9219 15.0398 67.6719 14.5341C67.4247 14.0284 67.3011 13.4375 67.3011 12.7614C67.3011 12.0795 67.4247 11.4844 67.6719 10.9759C67.9219 10.4673 68.2685 10.0724 68.7116 9.79119C69.1577 9.50994 69.6761 9.36932 70.267 9.36932C70.858 9.36932 71.375 9.50994 71.8182 9.79119C72.2642 10.0724 72.6108 10.4673 72.858 10.9759C73.108 11.4844 73.233 12.0795 73.233 12.7614C73.233 13.4375 73.108 14.0284 72.858 14.5341C72.6108 15.0398 72.2642 15.4332 71.8182 15.7145C71.375 15.9957 70.858 16.1364 70.267 16.1364ZM70.267 15.233C70.7159 15.233 71.0852 15.1179 71.375 14.8878C71.6648 14.6577 71.8793 14.3551 72.0185 13.9801C72.1577 13.6051 72.2273 13.1989 72.2273 12.7614C72.2273 12.3239 72.1577 11.9162 72.0185 11.5384C71.8793 11.1605 71.6648 10.8551 71.375 10.6222C71.0852 10.3892 70.7159 10.2727 70.267 10.2727C69.8182 10.2727 69.4489 10.3892 69.1591 10.6222C68.8693 10.8551 68.6548 11.1605 68.5156 11.5384C68.3764 11.9162 68.3068 12.3239 68.3068 12.7614C68.3068 13.1989 68.3764 13.6051 68.5156 13.9801C68.6548 14.3551 68.8693 14.6577 69.1591 14.8878C69.4489 15.1179 69.8182 15.233 70.267 15.233ZM74.7681 16V9.45455H75.7397V10.4432H75.8079C75.9272 10.1193 76.1431 9.85653 76.4556 9.65483C76.7681 9.45312 77.1204 9.35227 77.5124 9.35227C77.5863 9.35227 77.6786 9.35369 77.7894 9.35653C77.9002 9.35937 77.984 9.36364 78.0408 9.36932V10.392C78.0067 10.3835 77.9286 10.3707 77.8065 10.3537C77.6871 10.3338 77.5607 10.3239 77.4272 10.3239C77.109 10.3239 76.8249 10.3906 76.5749 10.5241C76.3278 10.6548 76.1317 10.8366 75.9869 11.0696C75.8448 11.2997 75.7738 11.5625 75.7738 11.858V16H74.7681ZM81.5053 16.1364C80.9599 16.1364 80.4783 15.9986 80.0607 15.723C79.6431 15.4446 79.3164 15.0526 79.0806 14.5469C78.8448 14.0384 78.7269 13.4375 78.7269 12.7443C78.7269 12.0568 78.8448 11.4602 79.0806 10.9545C79.3164 10.4489 79.6445 10.0582 80.065 9.78267C80.4854 9.5071 80.9712 9.36932 81.5224 9.36932C81.9485 9.36932 82.2852 9.44034 82.5323 9.58239C82.7823 9.72159 82.9727 9.88068 83.1033 10.0597C83.2369 10.2358 83.3406 10.3807 83.4144 10.4943H83.4996V7.27273H84.5053V16H83.5337V14.9943H83.4144C83.3406 15.1136 83.2354 15.2642 83.0991 15.446C82.9627 15.625 82.7681 15.7855 82.5153 15.9276C82.2624 16.0668 81.9258 16.1364 81.5053 16.1364ZM81.6417 15.233C82.0451 15.233 82.386 15.1278 82.6644 14.9176C82.9428 14.7045 83.1545 14.4105 83.2994 14.0355C83.4442 13.6577 83.5167 13.2216 83.5167 12.7273C83.5167 12.2386 83.4457 11.8111 83.3036 11.4446C83.1616 11.0753 82.9513 10.7884 82.6729 10.5838C82.3945 10.3764 82.0508 10.2727 81.6417 10.2727C81.2156 10.2727 80.8604 10.3821 80.5763 10.6009C80.2951 10.8168 80.0835 11.1108 79.9414 11.483C79.8022 11.8523 79.7326 12.267 79.7326 12.7273C79.7326 13.1932 79.8036 13.6165 79.9457 13.9972C80.0906 14.375 80.3036 14.6761 80.5849 14.9006C80.869 15.1222 81.2212 15.233 81.6417 15.233Z" fill="#1C871B"/>
</svg>
