<svg width="17" height="16" viewBox="0 0 17 16" fill="none" xmlns="http://www.w3.org/2000/svg">
<path d="M8.4987 15.1673C4.54536 15.1673 1.33203 11.954 1.33203 8.00065C1.33203 4.04732 4.54536 0.833984 8.4987 0.833984C12.452 0.833984 15.6654 4.04732 15.6654 8.00065C15.6654 11.954 12.452 15.1673 8.4987 15.1673ZM8.4987 1.83398C5.0987 1.83398 2.33203 4.60065 2.33203 8.00065C2.33203 11.4007 5.0987 14.1673 8.4987 14.1673C11.8987 14.1673 14.6654 11.4007 14.6654 8.00065C14.6654 4.60065 11.8987 1.83398 8.4987 1.83398Z" fill="#42BE65"/>
<path d="M7.55297 10.3867C7.41964 10.3867 7.29297 10.3334 7.19964 10.2401L5.31297 8.3534C5.11964 8.16006 5.11964 7.84007 5.31297 7.64673C5.5063 7.4534 5.8263 7.4534 6.01964 7.64673L7.55297 9.18007L10.9796 5.7534C11.173 5.56007 11.493 5.56007 11.6863 5.7534C11.8796 5.94673 11.8796 6.26673 11.6863 6.46006L7.9063 10.2401C7.81297 10.3334 7.6863 10.3867 7.55297 10.3867Z" fill="#42BE65"/>
</svg>
