<svg width="179" height="48" viewBox="0 0 179 48" fill="none" xmlns="http://www.w3.org/2000/svg">
<path fill-rule="evenodd" clip-rule="evenodd" d="M24 46.5C35.598 46.5 45 37.098 45 25.5C45 13.902 35.598 4.5 24 4.5C12.402 4.5 3 13.902 3 25.5C3 29.2663 3.9915 32.8011 5.72771 35.8575L3 46.5L13.9723 43.9557C16.9521 45.5781 20.3684 46.5 24 46.5ZM24 43.2693C33.8137 43.2693 41.7693 35.3137 41.7693 25.5C41.7693 15.6864 33.8137 7.73078 24 7.73078C14.1863 7.73078 6.23078 15.6864 6.23078 25.5C6.23078 29.2892 7.41675 32.8012 9.43776 35.6853L7.84616 41.6538L13.9199 40.1354C16.7841 42.1119 20.2569 43.2693 24 43.2693Z" fill="#BFC8D0"/>
<path d="M42 24C42 33.9411 33.9411 42 24 42C20.2083 42 16.6904 40.8276 13.789 38.8256L7.63636 40.3636L9.24864 34.3176C7.20138 31.3961 6 27.8384 6 24C6 14.0589 14.0589 6 24 6C33.9411 6 42 14.0589 42 24Z" fill="url(#paint0_linear_3043_3374)"/>
<path fill-rule="evenodd" clip-rule="evenodd" d="M24 45C35.598 45 45 35.598 45 24C45 12.402 35.598 3 24 3C12.402 3 3 12.402 3 24C3 27.7663 3.9915 31.3011 5.72771 34.3575L3 45L13.9723 42.4557C16.9521 44.0781 20.3684 45 24 45ZM24 41.7693C33.8137 41.7693 41.7693 33.8137 41.7693 24C41.7693 14.1863 33.8137 6.23078 24 6.23078C14.1863 6.23078 6.23078 14.1863 6.23078 24C6.23078 27.7892 7.41675 31.3012 9.43776 34.1853L7.84616 40.1538L13.9199 38.6354C16.7841 40.6119 20.2569 41.7693 24 41.7693Z" fill="white"/>
<path d="M18.75 14.2481C18.2508 13.2453 17.4848 13.334 16.7111 13.334C15.3282 13.334 13.1719 14.9905 13.1719 18.0733C13.1719 20.5997 14.2852 23.3654 18.0366 27.5024C21.657 31.4951 26.4141 33.5605 30.3633 33.4903C34.3125 33.4199 35.125 30.0215 35.125 28.8737C35.125 28.3651 34.8093 28.1113 34.5919 28.0423C33.2461 27.3965 30.7639 26.1931 30.1992 25.9669C29.6344 25.7408 29.3395 26.0467 29.1562 26.213C28.6441 26.7011 27.6289 28.1395 27.2812 28.463C26.9337 28.7866 26.4154 28.6228 26.1997 28.5005C25.4061 28.1821 23.2543 27.2249 21.5392 25.5622C19.4179 23.506 19.2934 22.7986 18.8938 22.1687C18.5742 21.665 18.8088 21.3559 18.9258 21.2207C19.3828 20.6935 20.0139 19.8793 20.2969 19.4747C20.5798 19.0702 20.3553 18.4558 20.2204 18.0733C19.6407 16.4278 19.1494 15.0505 18.75 14.2481Z" fill="white"/>
<path d="M61.3949 33L56.4688 15.5455H59.8693L63.0142 28.3722H63.1761L66.5341 15.5455H69.6278L72.9943 28.3807H73.1477L76.2926 15.5455H79.6932L74.767 33H71.6477L68.1534 20.7528H68.017L64.5142 33H61.3949ZM84.8345 25.3295V33H81.7493V15.5455H84.7663V22.1335H84.9197C85.2266 21.3949 85.701 20.8125 86.343 20.3864C86.9908 19.9545 87.8146 19.7386 88.8146 19.7386C89.7237 19.7386 90.5163 19.929 91.1925 20.3097C91.8686 20.6903 92.3913 21.2472 92.7607 21.9801C93.1357 22.7131 93.3232 23.608 93.3232 24.6648V33H90.2379V25.142C90.2379 24.2614 90.0107 23.5767 89.5561 23.0881C89.1072 22.5937 88.4766 22.3466 87.6641 22.3466C87.1186 22.3466 86.63 22.4659 86.1982 22.7045C85.772 22.9375 85.4368 23.2756 85.1925 23.7188C84.9538 24.1619 84.8345 24.6989 84.8345 25.3295ZM100.235 33.2642C99.4055 33.2642 98.6584 33.1165 97.9936 32.821C97.3345 32.5199 96.8118 32.0767 96.4254 31.4915C96.0447 30.9062 95.8544 30.1847 95.8544 29.3267C95.8544 28.5881 95.9908 27.9773 96.2635 27.4943C96.5362 27.0114 96.9084 26.625 97.38 26.3352C97.8516 26.0455 98.3828 25.8267 98.9737 25.679C99.5703 25.5256 100.187 25.4148 100.823 25.3466C101.59 25.267 102.212 25.196 102.69 25.1335C103.167 25.0653 103.513 24.9631 103.729 24.8267C103.951 24.6847 104.062 24.4659 104.062 24.1705V24.1193C104.062 23.4773 103.871 22.9801 103.491 22.6278C103.11 22.2756 102.562 22.0994 101.846 22.0994C101.09 22.0994 100.491 22.2642 100.048 22.5938C99.6101 22.9233 99.3146 23.3125 99.1612 23.7614L96.2805 23.3523C96.5078 22.5568 96.8828 21.892 97.4055 21.358C97.9283 20.8182 98.5675 20.4148 99.3232 20.1477C100.079 19.875 100.914 19.7386 101.829 19.7386C102.46 19.7386 103.087 19.8125 103.712 19.9602C104.337 20.108 104.908 20.3523 105.425 20.6932C105.942 21.0284 106.357 21.4858 106.67 22.0653C106.988 22.6449 107.147 23.3693 107.147 24.2386V33H104.181V31.2017H104.079C103.891 31.5653 103.627 31.9062 103.286 32.2244C102.951 32.5369 102.528 32.7898 102.016 32.983C101.511 33.1705 100.917 33.2642 100.235 33.2642ZM101.036 30.9972C101.656 30.9972 102.192 30.875 102.647 30.6307C103.102 30.3807 103.451 30.0511 103.695 29.642C103.945 29.233 104.07 28.7869 104.07 28.304V26.7614C103.974 26.8409 103.809 26.9148 103.576 26.983C103.349 27.0511 103.093 27.1108 102.809 27.1619C102.525 27.2131 102.244 27.2585 101.965 27.2983C101.687 27.3381 101.445 27.3722 101.241 27.4006C100.781 27.4631 100.369 27.5653 100.005 27.7074C99.6413 27.8494 99.3544 28.0483 99.1442 28.304C98.9339 28.554 98.8288 28.8778 98.8288 29.2756C98.8288 29.8438 99.0362 30.2727 99.451 30.5625C99.8658 30.8523 100.394 30.9972 101.036 30.9972ZM116.786 19.9091V22.2955H109.261V19.9091H116.786ZM111.119 16.7727H114.204V29.0625C114.204 29.4773 114.266 29.7955 114.391 30.017C114.522 30.233 114.692 30.3807 114.903 30.4602C115.113 30.5398 115.346 30.5795 115.602 30.5795C115.795 30.5795 115.971 30.5653 116.13 30.5369C116.295 30.5085 116.42 30.483 116.505 30.4602L117.025 32.8722C116.86 32.929 116.624 32.9915 116.317 33.0597C116.016 33.1278 115.647 33.1676 115.21 33.179C114.437 33.2017 113.741 33.0852 113.121 32.8295C112.502 32.5682 112.011 32.1648 111.647 31.6193C111.289 31.0739 111.113 30.392 111.119 29.5739V16.7727ZM129.526 23.3693L126.713 23.6761C126.634 23.392 126.494 23.125 126.295 22.875C126.102 22.625 125.841 22.4233 125.511 22.2699C125.182 22.1165 124.778 22.0398 124.301 22.0398C123.659 22.0398 123.119 22.179 122.682 22.4574C122.25 22.7358 122.037 23.0966 122.043 23.5398C122.037 23.9205 122.176 24.2301 122.46 24.4688C122.75 24.7074 123.227 24.9034 123.892 25.0568L126.125 25.5341C127.364 25.8011 128.284 26.2244 128.886 26.804C129.494 27.3835 129.801 28.142 129.807 29.0795C129.801 29.9034 129.56 30.6307 129.082 31.2614C128.611 31.8864 127.955 32.375 127.114 32.7273C126.273 33.0795 125.307 33.2557 124.216 33.2557C122.614 33.2557 121.324 32.9205 120.347 32.25C119.369 31.5739 118.787 30.6335 118.599 29.429L121.608 29.1392C121.744 29.7301 122.034 30.1761 122.477 30.4773C122.92 30.7784 123.497 30.929 124.207 30.929C124.94 30.929 125.528 30.7784 125.972 30.4773C126.42 30.1761 126.645 29.804 126.645 29.3608C126.645 28.9858 126.5 28.6761 126.21 28.4318C125.926 28.1875 125.483 28 124.881 27.8693L122.648 27.4006C121.392 27.1392 120.463 26.6989 119.861 26.0795C119.259 25.4545 118.96 24.6648 118.966 23.7102C118.96 22.9034 119.179 22.2045 119.622 21.6136C120.071 21.017 120.693 20.5568 121.489 20.233C122.29 19.9034 123.213 19.7386 124.259 19.7386C125.793 19.7386 127 20.0653 127.881 20.7188C128.767 21.3722 129.315 22.2557 129.526 23.3693ZM134.729 33H131.354L137.499 15.5455H141.402L147.555 33H144.18L139.518 19.125H139.382L134.729 33ZM134.839 26.1562H144.044V28.696H134.839V26.1562ZM149.718 37.9091V19.9091H152.752V22.0739H152.931C153.09 21.7557 153.315 21.4176 153.604 21.0597C153.894 20.696 154.286 20.3864 154.781 20.1307C155.275 19.8693 155.906 19.7386 156.673 19.7386C157.684 19.7386 158.596 19.9972 159.408 20.5142C160.227 21.0256 160.874 21.7841 161.352 22.7898C161.835 23.7898 162.076 25.017 162.076 26.4716C162.076 27.9091 161.84 29.1307 161.369 30.1364C160.897 31.142 160.255 31.9091 159.442 32.4375C158.63 32.9659 157.71 33.2301 156.681 33.2301C155.931 33.2301 155.309 33.1051 154.815 32.8551C154.32 32.6051 153.923 32.304 153.621 31.9517C153.326 31.5937 153.096 31.2557 152.931 30.9375H152.803V37.9091H149.718ZM152.744 26.4545C152.744 27.3011 152.863 28.0426 153.102 28.679C153.346 29.3153 153.695 29.8125 154.15 30.1705C154.61 30.5227 155.167 30.6989 155.82 30.6989C156.502 30.6989 157.073 30.517 157.533 30.1534C157.994 29.7841 158.34 29.2812 158.573 28.6449C158.812 28.0028 158.931 27.2727 158.931 26.4545C158.931 25.642 158.815 24.9205 158.582 24.2898C158.349 23.6591 158.002 23.1648 157.542 22.8068C157.082 22.4489 156.508 22.2699 155.82 22.2699C155.161 22.2699 154.602 22.4432 154.141 22.7898C153.681 23.1364 153.332 23.6222 153.093 24.2472C152.86 24.8722 152.744 25.608 152.744 26.4545ZM164.718 37.9091V19.9091H167.752V22.0739H167.931C168.09 21.7557 168.315 21.4176 168.604 21.0597C168.894 20.696 169.286 20.3864 169.781 20.1307C170.275 19.8693 170.906 19.7386 171.673 19.7386C172.684 19.7386 173.596 19.9972 174.408 20.5142C175.227 21.0256 175.874 21.7841 176.352 22.7898C176.835 23.7898 177.076 25.017 177.076 26.4716C177.076 27.9091 176.84 29.1307 176.369 30.1364C175.897 31.142 175.255 31.9091 174.442 32.4375C173.63 32.9659 172.71 33.2301 171.681 33.2301C170.931 33.2301 170.309 33.1051 169.815 32.8551C169.32 32.6051 168.923 32.304 168.621 31.9517C168.326 31.5937 168.096 31.2557 167.931 30.9375H167.803V37.9091H164.718ZM167.744 26.4545C167.744 27.3011 167.863 28.0426 168.102 28.679C168.346 29.3153 168.695 29.8125 169.15 30.1705C169.61 30.5227 170.167 30.6989 170.82 30.6989C171.502 30.6989 172.073 30.517 172.533 30.1534C172.994 29.7841 173.34 29.2812 173.573 28.6449C173.812 28.0028 173.931 27.2727 173.931 26.4545C173.931 25.642 173.815 24.9205 173.582 24.2898C173.349 23.6591 173.002 23.1648 172.542 22.8068C172.082 22.4489 171.508 22.2699 170.82 22.2699C170.161 22.2699 169.602 22.4432 169.141 22.7898C168.681 23.1364 168.332 23.6222 168.093 24.2472C167.86 24.8722 167.744 25.608 167.744 26.4545Z" fill="#161616"/>
<defs>
<linearGradient id="paint0_linear_3043_3374" x1="39.75" y1="10.5" x2="6" y2="42" gradientUnits="userSpaceOnUse">
<stop stop-color="#5BD066"/>
<stop offset="1" stop-color="#27B43E"/>
</linearGradient>
</defs>
</svg>
