<svg width="200" height="41" viewBox="0 0 200 41" fill="none" xmlns="http://www.w3.org/2000/svg">
<path d="M60.189 20.538C60.189 22.7109 59.4888 24.5866 58.0836 26.175C56.6078 27.8266 54.7595 28.6498 52.5383 28.6498C50.7201 28.6498 49.073 27.9677 47.5873 26.6036V33.9408H43.5679V12.7478H47.5873V14.4726C49.0427 13.0694 50.73 12.3678 52.6592 12.3678C54.9155 12.3678 56.759 13.1961 58.1843 14.8573C59.5191 16.4164 60.189 18.3067 60.189 20.538ZM56.1698 20.4943C56.1698 19.2227 55.7769 18.1654 54.9912 17.3177C54.1853 16.4359 53.1276 15.9924 51.8079 15.9924C50.4832 15.9924 49.4106 16.4261 48.5845 17.2933C47.7988 18.1265 47.4059 19.1934 47.4059 20.4796C47.4059 21.7805 47.7937 22.8571 48.5694 23.7145C49.3954 24.6061 50.4732 25.0544 51.8079 25.0544C53.1074 25.0544 54.1651 24.5963 54.9912 23.6852C55.7769 22.8181 56.1698 21.7561 56.1698 20.4943ZM67.8035 8.90391C67.8035 9.59563 67.5567 10.1853 67.0579 10.6724C66.5644 11.1596 65.9651 11.4032 65.2549 11.4032C64.5297 11.4032 63.9152 11.1547 63.4164 10.6578C62.9179 10.1609 62.666 9.55679 62.666 8.84536C62.666 8.1634 62.9179 7.58353 63.4164 7.10124C63.9152 6.61895 64.5196 6.37537 65.2296 6.37537C65.9449 6.37537 66.5543 6.62383 67.0529 7.11588C67.5517 7.60792 67.8035 8.20224 67.8035 8.90391ZM67.2595 28.2698H63.21V12.7478H67.2595V28.2698ZM86.9467 26.0288C86.9467 28.6401 86.4029 30.5694 85.3098 31.8117C83.834 33.4829 81.623 34.3208 78.6816 34.3208C75.7201 34.3208 73.4888 33.5803 71.9929 32.0944C71.2576 31.3539 70.7085 30.4623 70.356 29.4099H74.7681C75.569 30.2868 76.8129 30.7254 78.5002 30.7254C80.5652 30.7254 81.905 30.1455 82.5295 28.9859C82.7965 28.4744 82.9274 27.5925 82.9274 26.3405C81.5977 27.6267 79.971 28.2698 78.0521 28.2698C75.7855 28.2698 73.9269 27.4805 72.4664 25.9021C71.061 24.3918 70.356 22.5308 70.356 20.3188C70.356 17.8586 71.1418 15.8804 72.7183 14.3896C74.1487 13.0402 75.8511 12.3678 77.8303 12.3678C79.6838 12.3678 81.3812 13.0694 82.9274 14.4726V12.7478H86.9467V26.0288ZM83.1391 20.3627C83.1391 19.096 82.7362 18.0533 81.9353 17.2398C81.1344 16.4261 80.0767 16.0217 78.7571 16.0217C77.4778 16.0217 76.4302 16.431 75.6091 17.2494C74.7883 18.068 74.3753 19.096 74.3753 20.3334C74.3753 21.6001 74.7933 22.6525 75.6243 23.4856C76.4554 24.3186 77.5232 24.7328 78.8327 24.7328C80.1271 24.7328 81.1748 24.3137 81.9757 23.4709C82.7513 22.667 83.1391 21.6294 83.1391 20.3627ZM107.254 20.8938L107.239 21.6343H94.3195C94.516 22.7597 95.0297 23.6366 95.8556 24.2651C96.6817 24.8887 97.7041 25.2004 98.923 25.2004C100.429 25.2004 101.723 24.7035 102.801 23.7096L106.196 25.2492C104.539 27.5147 102.121 28.6498 98.9382 28.6498C96.4652 28.6498 94.4202 27.8996 92.8086 26.399C91.1968 24.9034 90.3908 22.9643 90.3908 20.5965C90.3908 18.2483 91.1715 16.2946 92.7329 14.721C94.2892 13.1522 96.2838 12.3678 98.7064 12.3678C101.235 12.3678 103.29 13.1473 104.876 14.7015C106.508 16.3141 107.304 18.3797 107.254 20.8938ZM103.174 18.5356C102.902 17.6489 102.368 16.9523 101.572 16.4408C100.781 15.9292 99.89 15.671 98.9029 15.671C97.7897 15.671 96.8076 15.9682 95.9664 16.5674C95.4426 16.9377 94.949 17.5955 94.5009 18.5356H103.174ZM126.684 20.4943C126.684 21.9558 126.311 23.3199 125.566 24.5915C124.821 25.8631 123.793 26.8569 122.493 27.5732C121.194 28.2893 119.764 28.6498 118.202 28.6498C115.875 28.6498 113.906 27.8605 112.294 26.2821C110.688 24.6986 109.882 22.7792 109.882 20.5233C109.882 18.0924 110.798 16.0754 112.637 14.4726C114.233 13.0694 116.087 12.3678 118.187 12.3678C119.698 12.3678 121.119 12.7283 122.448 13.4543C123.783 14.1802 124.821 15.1741 125.566 16.431C126.311 17.688 126.684 19.0423 126.684 20.4943ZM122.604 20.504C122.604 19.2227 122.207 18.1605 121.416 17.3177C120.625 16.4749 119.567 16.051 118.248 16.051C116.953 16.051 115.895 16.4847 115.074 17.3519C114.294 18.1898 113.901 19.2422 113.901 20.504C113.901 21.7852 114.289 22.8425 115.059 23.6804C115.865 24.5573 116.918 24.9959 118.232 24.9959C119.542 24.9959 120.605 24.5573 121.416 23.6804C122.207 22.8327 122.604 21.7756 122.604 20.504ZM144.362 28.2698H140.342V21.4832C140.342 20.0703 140.317 19.1739 140.267 18.7939C140.121 17.6343 139.768 16.8403 139.199 16.4017C138.771 16.09 138.242 15.9341 137.618 15.9341C135.9 15.9341 134.802 16.9231 134.324 18.9059C134.208 19.3931 134.147 20.4406 134.147 22.0532V28.2698H130.128V12.7478H134.147V14.3555C135.779 13.0304 137.366 12.3678 138.907 12.3678C140.509 12.3678 141.858 12.9037 142.961 13.9755C143.893 14.8817 144.362 16.2313 144.362 18.0241V28.2698ZM162.644 28.2698H158.655V21.493C158.655 20.1386 158.625 19.2422 158.569 18.8036C158.423 17.6392 158.065 16.8501 157.501 16.431C157.073 16.1191 156.544 15.9634 155.925 15.9634C154.218 15.9634 153.119 16.9328 152.636 18.8768C152.52 19.3396 152.46 20.4016 152.46 22.058V28.2698H148.44V6.75538H152.46V14.3264C154.026 13.0206 155.618 12.3678 157.234 12.3678C158.952 12.3678 160.292 12.9037 161.264 13.9755C162.186 14.9937 162.644 16.3434 162.644 18.0241V28.2698ZM170.833 8.90391C170.833 9.59563 170.586 10.1853 170.087 10.6724C169.593 11.1596 168.994 11.4032 168.284 11.4032C167.559 11.4032 166.944 11.1547 166.445 10.6578C165.947 10.1609 165.695 9.55679 165.695 8.84536C165.695 8.1634 165.947 7.58353 166.445 7.10124C166.944 6.61895 167.549 6.37537 168.259 6.37537C168.974 6.37537 169.583 6.62383 170.082 7.11588C170.581 7.60792 170.833 8.20224 170.833 8.90391ZM170.289 28.2698H166.239V12.7478H170.289V28.2698ZM181.756 12.7478L180.517 16.1289C180.049 15.8999 179.661 15.7879 179.353 15.7879C178.739 15.7879 178.215 16.1581 177.797 16.8987C177.324 17.7026 177.107 19.1544 177.147 21.2543L177.163 22.0094V28.2698H173.143V12.7478H176.619V14.7355C177.374 13.1571 178.543 12.3678 180.124 12.3678C180.643 12.3678 181.187 12.4944 181.756 12.7478ZM199.998 20.8938L199.983 21.6343H187.064C187.26 22.7597 187.774 23.6366 188.6 24.2651C189.426 24.8887 190.448 25.2004 191.667 25.2004C193.173 25.2004 194.468 24.7035 195.545 23.7096L198.94 25.2492C197.283 27.5147 194.865 28.6498 191.682 28.6498C189.209 28.6498 187.164 27.8996 185.553 26.399C183.941 24.9034 183.135 22.9643 183.135 20.5965C183.135 18.2483 183.916 16.2946 185.477 14.721C187.033 13.1522 189.028 12.3678 191.451 12.3678C193.979 12.3678 196.034 13.1473 197.62 14.7015C199.252 16.3141 200.048 18.3797 199.998 20.8938ZM195.918 18.5356C195.646 17.6489 195.112 16.9523 194.316 16.4408C193.526 15.9292 192.634 15.671 191.647 15.671C190.534 15.671 189.552 15.9682 188.711 16.5674C188.187 16.9377 187.693 17.5955 187.245 18.5356H195.918Z" fill="black"/>
<path fill-rule="evenodd" clip-rule="evenodd" d="M33.0836 33.4271C28.9635 37.7234 23.0778 40.413 16.5418 40.413C10.0058 40.413 4.11992 37.7232 0 33.4271C0.659009 33.0272 1.27907 32.6296 1.80007 32.2375C2.66449 31.5871 3.25671 30.9524 3.69699 30.2246C4.13728 29.4968 4.42521 28.6762 4.62861 27.7964C4.8318 26.9165 4.95024 25.9775 5.11752 24.9294C5.28479 23.8813 5.5007 22.724 5.63105 21.7821C5.76119 20.8402 5.80558 20.1135 5.84977 19.3871L16.5418 19.487L27.2339 19.3871C27.2781 20.1135 27.3225 20.8402 27.4526 21.7821C27.583 22.724 27.7989 23.8813 27.9661 24.9294C28.1334 25.9775 28.2518 26.9165 28.455 27.7964C28.6584 28.6762 28.9464 29.4968 29.3867 30.2246C29.8269 30.9524 30.4192 31.5871 31.2836 32.2375C31.8046 32.6296 32.4244 33.0272 33.0836 33.4271ZM16.4567 4.64436C16.271 4.49895 15.9125 4.35628 15.6627 4.17671C15.4131 3.99715 15.2722 3.7805 15.0672 3.43659C14.8624 3.09288 14.5935 2.62211 14.4014 2.17007C14.2093 1.71784 14.094 1.28435 14.0363 0.959177C13.9788 0.634008 13.9788 0.417358 13.9116 0.265508C13.8442 0.113854 13.7099 0.0269972 13.5753 0.00533231C13.4409 -0.0163326 13.3065 0.0269995 13.1975 0.154061C13.0888 0.280928 13.0055 0.49153 12.935 0.860224C12.8646 1.22853 12.8069 1.75512 12.8069 2.28776C12.8069 2.82041 12.8646 3.3593 12.9447 3.82988C13.0248 4.30065 13.1271 4.7033 13.3033 5.0841C13.4794 5.46509 13.729 5.82423 14.0139 6.04263C14.2988 6.26104 14.6191 6.33832 15 6.31373C15.381 6.28894 15.8229 6.16188 16.1108 5.94035C16.3992 5.71902 16.5335 5.40303 16.5943 5.17096C16.6552 4.9385 16.6425 4.78997 16.4567 4.64436Z" fill="#F0B74D"/>
<path fill-rule="evenodd" clip-rule="evenodd" d="M27.7955 37.5084C24.4833 39.356 20.6404 40.4135 16.5421 40.4135C12.4437 40.4135 8.60086 39.3562 5.28866 37.5084C5.17122 37.2424 5.06831 36.9748 4.98578 36.7053C4.71358 35.8149 4.66556 34.9014 4.92182 34.1193C5.17788 33.3375 5.73822 32.6871 6.20231 31.916C6.6666 31.145 7.03484 30.253 7.26689 29.2002C7.49893 28.1472 7.59498 26.9334 7.64301 25.9081C7.68599 24.989 7.69042 24.2218 7.61032 23.526C5.84738 21.6035 4.78199 19.1054 4.78199 16.3746C4.78199 11.0035 8.90231 6.53247 14.3491 5.57199C14.4131 5.33348 14.5753 5.0737 14.724 4.84631C14.9185 4.54886 15.0899 4.30742 15.2914 4.08433C15.4932 3.86144 15.7253 3.65708 16.0239 3.45566C16.3225 3.25443 16.6875 3.05632 17.2414 2.86427C17.7953 2.67221 18.5379 2.4864 19.0693 2.39057C19.6008 2.29454 19.921 2.28829 20.1194 2.33162C20.3179 2.37495 20.3948 2.46786 20.4013 2.58243C20.4075 2.697 20.3436 2.83323 20.1291 2.99445C19.9146 3.15547 19.5496 3.34109 19.1815 3.6323C18.8133 3.92331 18.4418 4.31972 18.166 4.66265C17.9426 4.9402 17.7818 5.18261 17.71 5.4342C23.6564 5.98245 28.3021 10.6713 28.3021 16.3746C28.3021 19.1054 27.2367 21.6035 25.4738 23.526C25.3937 24.2218 25.3979 24.989 25.4409 25.9081C25.4891 26.9334 25.5852 28.1472 25.8172 29.2002C26.0493 30.253 26.4175 31.145 26.8818 31.916C27.3459 32.6871 27.9062 33.3375 28.1623 34.1193C28.4183 34.9014 28.3705 35.8149 28.0983 36.7053C28.0158 36.9748 27.9129 37.2424 27.7955 37.5084Z" fill="#F6C569"/>
<path fill-rule="evenodd" clip-rule="evenodd" d="M24.5527 9.58331C27.5469 9.58331 29.9741 11.9311 29.9741 14.8274C29.9741 17.7237 27.5469 20.0715 24.5527 20.0715C21.5585 20.0715 19.1313 17.7237 19.1313 14.8274C19.1313 11.9311 21.5585 9.58331 24.5527 9.58331Z" fill="#F0B74D"/>
<mask id="mask0_1563_14" style="mask-type:luminance" maskUnits="userSpaceOnUse" x="19" y="9" width="11" height="12">
<path d="M24.5527 9.58331C27.5469 9.58331 29.9741 11.9311 29.9741 14.8274C29.9741 17.7237 27.5469 20.0715 24.5527 20.0715C21.5585 20.0715 19.1313 17.7237 19.1313 14.8274C19.1313 11.9311 21.5585 9.58331 24.5527 9.58331Z" fill="white"/>
</mask>
<g mask="url(#mask0_1563_14)">
<path d="M24.981 18.5414C28.0922 18.287 30.4373 16.2194 30.219 13.9234C30.0007 11.6273 27.3016 9.97215 24.1904 10.2265C21.0792 10.4809 18.7341 12.5484 18.9524 14.8445C19.1707 17.1406 21.8698 18.7957 24.981 18.5414Z" fill="#FEFEFE"/>
</g>
<path fill-rule="evenodd" clip-rule="evenodd" d="M8.53028 9.58331C5.53609 9.58331 3.10889 11.9311 3.10889 14.8274C3.10889 17.7237 5.53609 20.0715 8.53028 20.0715C11.5243 20.0715 13.9517 17.7237 13.9517 14.8274C13.9517 11.9311 11.5243 9.58331 8.53028 9.58331Z" fill="#F0B74D"/>
<mask id="mask1_1563_14" style="mask-type:luminance" maskUnits="userSpaceOnUse" x="3" y="9" width="11" height="12">
<path d="M8.53028 9.58331C5.53609 9.58331 3.10889 11.9311 3.10889 14.8274C3.10889 17.7237 5.53609 20.0715 8.53028 20.0715C11.5243 20.0715 13.9517 17.7237 13.9517 14.8274C13.9517 11.9311 11.5243 9.58331 8.53028 9.58331Z" fill="white"/>
</mask>
<g mask="url(#mask1_1563_14)">
<path d="M8.10297 18.5412C4.99178 18.2868 2.64665 16.2192 2.86496 13.9232C3.08328 11.6271 5.78237 9.97196 8.89355 10.2263C12.0047 10.4807 14.3499 12.5483 14.1316 14.8443C13.9132 17.1404 11.2142 18.7955 8.10297 18.5412Z" fill="#FEFEFE"/>
</g>
<path fill-rule="evenodd" clip-rule="evenodd" d="M23.8395 11.1225C25.7639 11.1225 27.3239 12.6314 27.3239 14.4928C27.3239 16.3541 25.7639 17.8632 23.8395 17.8632C21.9152 17.8632 20.3552 16.3541 20.3552 14.4928C20.3552 12.6314 21.9152 11.1225 23.8395 11.1225ZM9.24407 11.1225C11.1684 11.1225 12.7284 12.6314 12.7284 14.4928C12.7284 16.3541 11.1684 17.8632 9.24407 17.8632C7.31971 17.8632 5.75977 16.3541 5.75977 14.4928C5.75977 12.6314 7.31971 11.1225 9.24407 11.1225Z" fill="#F6911F"/>
<path fill-rule="evenodd" clip-rule="evenodd" d="M23.8398 12.9529C24.7191 12.9529 25.432 13.6425 25.432 14.4931C25.432 15.3437 24.7191 16.0334 23.8398 16.0334C22.9604 16.0334 22.2473 15.3437 22.2473 14.4931C22.2473 13.6425 22.9604 12.9529 23.8398 12.9529ZM9.24429 12.9529C10.1236 12.9529 10.8365 13.6425 10.8365 14.4931C10.8365 15.3437 10.1236 16.0334 9.24429 16.0334C8.36494 16.0334 7.65186 15.3437 7.65186 14.4931C7.65186 13.6425 8.36494 12.9529 9.24429 12.9529Z" fill="black"/>
<path fill-rule="evenodd" clip-rule="evenodd" d="M23.323 14.3475C23.5607 14.3475 23.7534 14.5339 23.7534 14.7637C23.7534 14.9936 23.5607 15.18 23.323 15.18C23.0855 15.18 22.8928 14.9936 22.8928 14.7637C22.8928 14.5339 23.0855 14.3475 23.323 14.3475ZM8.72756 14.3475C8.96526 14.3475 9.15796 14.5339 9.15796 14.7637C9.15796 14.9936 8.96526 15.18 8.72756 15.18C8.49007 15.18 8.29736 14.9936 8.29736 14.7637C8.29736 14.5339 8.49007 14.3475 8.72756 14.3475Z" fill="white"/>
<path fill-rule="evenodd" clip-rule="evenodd" d="M16.5651 24.2643L14.3463 23.4324C10.2936 20.1382 13.382 16.2236 16.5651 18.6431C19.7483 16.2236 22.8368 20.1382 18.7838 23.4324L16.5651 24.2643Z" fill="white"/>
<path fill-rule="evenodd" clip-rule="evenodd" d="M16.2573 21.3856L14.3509 23.0912C14.2028 23.224 14.1655 23.4285 14.2579 23.6022L16.1643 27.1879C16.2422 27.3343 16.3879 27.4203 16.5582 27.4203C16.7283 27.4205 16.8742 27.3346 16.9523 27.1883L18.8649 23.6028C18.9577 23.4289 18.9202 23.2238 18.7715 23.0911L16.8586 21.3852C16.6883 21.2331 16.4274 21.2333 16.2573 21.3856ZM2.85498 31.3155C3.18993 30.9671 3.46476 30.6088 3.69721 30.2245C4.13749 29.4966 4.42543 28.6761 4.62882 27.7962C4.64759 27.7145 4.66595 27.6319 4.6833 27.5491C7.0532 28.7817 11.4744 29.6108 16.5376 29.6108C21.6065 29.6108 26.0317 28.7799 28.3998 27.545C28.4175 27.6294 28.4361 27.7131 28.4553 27.7962C28.6586 28.6761 28.9466 29.4966 29.3869 30.2245C29.6185 30.6076 29.8925 30.965 30.2261 31.3124C27.5176 32.8131 22.4025 33.8249 16.5376 33.8249C10.6769 33.8249 5.56487 32.8145 2.85498 31.3155Z" fill="#F7DCAA"/>
<path fill-rule="evenodd" clip-rule="evenodd" d="M16.2572 21.3861L14.351 23.0915C14.2029 23.2245 14.1654 23.4286 14.2576 23.6025L16.1642 27.1882C16.2368 27.3246 16.3684 27.4087 16.5239 27.4195C16.4957 27.3884 16.4715 27.3527 16.4513 27.3127L14.5447 23.5159C14.4525 23.3316 14.4898 23.1157 14.6381 22.975L16.4097 21.2965C16.3549 21.3156 16.3028 21.3455 16.2572 21.3861Z" fill="white" fill-opacity="0.25098"/>
<path d="M24.7026 7.82071C26.4545 7.82071 28.0418 8.62602 29.1916 9.92729C30.2782 11.1573 30.9733 12.83 31.0471 14.6844C31.2584 14.7488 31.4126 14.9405 31.4126 15.1653C31.4126 15.3968 31.2495 15.593 31.029 15.6517C30.8942 17.382 30.2172 18.9374 29.1916 20.0983C28.0418 21.3995 26.4545 22.2049 24.7026 22.2049C22.9508 22.2049 21.3634 21.3995 20.2136 20.0983C19.0633 18.7962 18.3514 16.9979 18.3514 15.0129C18.3514 14.888 18.3542 14.7638 18.3599 14.6403C17.758 14.4953 17.1543 14.4242 16.5495 14.4254C15.9446 14.4266 15.3365 14.5001 14.7255 14.6444C14.7307 14.7664 14.7337 14.8893 14.7337 15.0129C14.7337 16.9981 14.0221 18.7964 12.8713 20.0987C11.7216 21.4001 10.134 22.2054 8.38194 22.2054C6.62989 22.2054 5.04251 21.4003 3.89257 20.0987C2.86693 18.9377 2.18996 17.3822 2.05517 15.6517C1.83442 15.593 1.67139 15.397 1.67139 15.1653C1.67139 14.9403 1.82555 14.7488 2.03701 14.6844C2.11086 12.8298 2.80578 11.1569 3.89277 9.9269C5.0425 8.62544 6.62989 7.82013 8.38194 7.82013C10.134 7.82013 11.7216 8.62544 12.8713 9.9269C13.8415 11.0248 14.4997 12.4752 14.6823 14.0928C15.306 13.9499 15.9287 13.8769 16.5495 13.8758C17.1696 13.8744 17.7879 13.9449 18.4035 14.0885C18.5869 12.4728 19.2449 11.024 20.2136 9.92729C21.3634 8.62602 22.9508 7.82071 24.7026 7.82071ZM13.7372 14.8423C13.6875 14.8079 13.6484 14.7533 13.6308 14.6848C13.6024 14.5745 13.6375 14.4599 13.7117 14.3922C13.5838 12.9651 13.0192 11.6855 12.1724 10.7267C11.2038 9.63022 9.8636 8.95178 8.38194 8.95178C6.90048 8.95178 5.56027 9.63022 4.59173 10.7267C3.6236 11.8225 3.02471 13.338 3.02471 15.0129C3.02471 16.6875 3.6236 18.2031 4.59153 19.2988C5.56027 20.3953 6.90048 21.0738 8.38194 21.0738C9.8636 21.0738 11.2038 20.3953 12.1724 19.2988C13.1405 18.2031 13.7394 16.6877 13.7394 15.0129C13.7394 14.9559 13.7386 14.8989 13.7372 14.8423ZM19.3726 14.4022C19.4404 14.4715 19.4707 14.5821 19.4422 14.6879C19.4257 14.7496 19.3916 14.7997 19.3482 14.8337C19.3468 14.8932 19.3458 14.953 19.3458 15.0129C19.3458 16.6875 19.9447 18.2029 20.9126 19.2984C21.8813 20.3948 23.2214 21.0732 24.7026 21.0732C26.1839 21.0732 27.5239 20.3948 28.4926 19.2984C29.4606 18.2029 30.0594 16.6875 30.0594 15.0129C30.0594 13.3382 29.4606 11.8229 28.4926 10.7271C27.5239 9.63081 26.1839 8.95236 24.7026 8.95236C23.2214 8.95236 21.8813 9.63081 20.9126 10.7271C20.0637 11.688 19.4987 12.9713 19.3726 14.4022Z" fill="#1A1A1A"/>
</svg>
